<?xml version="1.0" encoding="UTF-8" standalone="no"?><!DOCTYPE svg PUBLIC "-//W3C//DTD SVG 1.1//EN" "http://www.w3.org/Graphics/SVG/1.1/DTD/svg11.dtd"><svg width="100%" height="100%" viewBox="0 0 1831 681" version="1.1" xmlns="http://www.w3.org/2000/svg" xmlns:xlink="http://www.w3.org/1999/xlink" xml:space="preserve" xmlns:serif="http://www.serif.com/" style="fill-rule:evenodd;clip-rule:evenodd;stroke-linecap:round;stroke-linejoin:round;stroke-miterlimit:1.5;"><rect id="Side" x="0.222" y="0.069" width="1830.65" height="680.825" style="fill:none;"/><g id="Line-Drawing" serif:id="Line Drawing"><path id="Bumper" d="M387.599,495.489c1.206,4.392 5.2,7.436 9.754,7.435c91.192,-0.018 962.113,-0.188 1053.83,-0.206c4.598,-0 8.617,-3.103 9.782,-7.55c4.289,-16.372 14.479,-55.272 19.719,-75.276c2.148,-8.199 3.235,-16.638 3.235,-25.113c-0,-22.085 -0,-67.19 -0,-89.431c-0,-8.623 -1.126,-17.21 -3.349,-25.542c-5.324,-19.961 -15.56,-58.334 -19.882,-74.535c-1.181,-4.429 -5.194,-7.509 -9.778,-7.507c-91.548,0.05 -962.51,0.53 -1053.85,0.58c-4.567,0.002 -8.566,3.065 -9.758,7.474c-4.348,16.083 -14.638,54.142 -20.032,74.093c-2.28,8.433 -3.435,17.13 -3.435,25.865c-0,22.322 -0,67.365 -0,89.824c-0,8.869 1.19,17.699 3.54,26.251c5.48,19.95 15.843,57.673 20.229,73.638Z" style="fill:none;stroke:#080605;stroke-width:4.17px;"/><path id="Wheel" d="M868.413,503.081c35.34,19.073 77.895,19.094 113.212,0.057" style="fill:none;fill-rule:nonzero;stroke:#080605;stroke-width:4.17px;stroke-miterlimit:10;"/><path id="Charging-contact" serif:id="Charging contact" d="M1389.64,333.32l69.345,0c14.637,0.061 15.6,34.707 -0,34.776l-69.317,0c-9.027,-0.139 -9.116,-34.872 -0.028,-34.776Z" style="fill:none;stroke:#080605;stroke-width:4.17px;"/><path id="Grip-Area" serif:id="Grip Area" d="M1097.41,258.967c36.747,1.294 69.284,35.563 70.223,90.252c0.95,55.28 -27.065,94.281 -70.223,95.686l-346.243,0c-49.824,-2.39 -73.746,-45.133 -71.945,-98.407c1.665,-49.214 32.145,-86.275 71.945,-87.531l346.243,-0Z" style="fill:none;stroke:#080605;stroke-width:4.17px;stroke-dasharray:8.33,12.5,0,0,0,0;stroke-dashoffset:375;"/><g id="Top"><path d="M897.873,192.855l53.052,-0" style="fill:none;fill-rule:nonzero;stroke:#080605;stroke-width:4.17px;stroke-miterlimit:10;"/><path d="M904.147,193.014c-0.895,-0 -1.778,0.201 -2.585,0.59" style="fill:none;fill-rule:nonzero;stroke:#080605;stroke-width:4.17px;stroke-miterlimit:10;"/><path d="M948.082,193.483c-0.734,-0.31 -1.522,-0.469 -2.319,-0.469" style="fill:none;fill-rule:nonzero;stroke:#080605;stroke-width:4.17px;stroke-miterlimit:10;"/><path d="M904.147,193.014c-0.898,-0 -1.785,0.203 -2.594,0.594" style="fill:none;fill-rule:nonzero;stroke:#080605;stroke-width:4.17px;stroke-miterlimit:10;"/><path d="M631.816,182.848l-22.555,-0" style="fill:none;fill-rule:nonzero;stroke:#080605;stroke-width:4.17px;stroke-miterlimit:10;"/><path d="M1384.08,188.407l15.408,0" style="fill:none;fill-rule:nonzero;stroke:#080605;stroke-width:4.17px;stroke-miterlimit:10;"/><path d="M609.261,182.848l-79.897,-0" style="fill:none;fill-rule:nonzero;stroke:#080605;stroke-width:4.17px;stroke-miterlimit:10;"/><path d="M529.443,182.848c-7.224,-0 -13.184,5.656 -13.562,12.87" style="fill:none;fill-rule:nonzero;stroke:#080605;stroke-width:4.17px;stroke-miterlimit:10;"/><path d="M1405.97,191.96c-1.378,-2.21 -3.798,-3.553 -6.402,-3.553" style="fill:none;fill-rule:nonzero;stroke:#080605;stroke-width:4.17px;stroke-miterlimit:10;"/><path d="M1337.7,182.848l-162.811,-0" style="fill:none;fill-rule:nonzero;stroke:#080605;stroke-width:4.17px;stroke-miterlimit:10;"/><path d="M966.651,182.848l208.239,-0" style="fill:none;fill-rule:nonzero;stroke:#080605;stroke-width:4.17px;stroke-miterlimit:10;"/><path d="M966.73,183.007c-5.777,-0 -10.872,3.782 -12.544,9.312" style="fill:none;fill-rule:nonzero;stroke:#080605;stroke-width:4.17px;stroke-miterlimit:10;"/><path d="M883.101,182.848l-111.982,-0" style="fill:none;fill-rule:nonzero;stroke:#080605;stroke-width:4.17px;stroke-miterlimit:10;"/><path d="M895.79,192.544c-1.596,-5.642 -6.746,-9.537 -12.61,-9.537" style="fill:none;fill-rule:nonzero;stroke:#080605;stroke-width:4.17px;stroke-miterlimit:10;"/><path d="M771.119,182.848l-88.157,-0" style="fill:none;fill-rule:nonzero;stroke:#080605;stroke-width:4.17px;stroke-miterlimit:10;"/><path d="M631.816,182.848l51.146,-0" style="fill:none;fill-rule:nonzero;stroke:#080605;stroke-width:4.17px;stroke-miterlimit:10;"/><path d="M607.196,186.978l-25.097,4.129" style="fill:none;fill-rule:nonzero;stroke:#080605;stroke-width:4.17px;stroke-miterlimit:10;"/><path d="M1383.13,188.09l0.953,0.317l1.906,0.318l1.112,0.159l5.718,0.953l1.112,0.159l0.794,0.158l4.766,0.795l0.794,-0l0.953,0.158l0.794,0.159l0.953,0.159l0.794,0.159l0.953,0.159l0.795,-0l2.382,0.476l0.794,0l0.795,0.159l0.635,0.159l0.794,0.159l0.794,-0l0.636,0.159l0.635,-0l1.271,0.317l0.635,0l0.635,0.159l0.636,0l0.476,0.159l0.636,0l0.476,0.159l0.477,-0l0.476,0.159l0.953,-0l0.477,0.159l0.794,-0l0.318,0.158l0.635,0l0.318,0.159l0.794,0l0.318,0.159l0.794,0l0.317,0.159" style="fill:none;fill-rule:nonzero;stroke:#080605;stroke-width:4.17px;stroke-miterlimit:10;"/><path d="M895.808,192.378l0.953,0.318l0.477,-0l0.635,0.159" style="fill:none;fill-rule:nonzero;stroke:#080605;stroke-width:4.17px;stroke-miterlimit:10;"/><path d="M950.925,192.855l0.318,-0.159l0.477,-0l0.476,-0.159l0.318,0l0.476,-0.159l0.318,0l0.477,-0.159l0.317,0" style="fill:none;fill-rule:nonzero;stroke:#080605;stroke-width:4.17px;stroke-miterlimit:10;"/><path d="M1367.4,185.389l15.725,2.701" style="fill:none;fill-rule:nonzero;stroke:#080605;stroke-width:4.17px;stroke-miterlimit:10;"/><path d="M1424.59,194.602l0.477,-0l0.476,0.159l0.636,0.159l0.953,0.317l0.635,0.159l0.477,0.318l0.953,0.318l0.953,0.635l0.476,0.159l0.477,0.317" style="fill:none;fill-rule:nonzero;stroke:#080605;stroke-width:4.17px;stroke-miterlimit:10;"/><path d="M1337.7,182.848l3.653,-0l1.906,0.159l1.906,-0l1.748,0.158l1.906,0l3.812,0.318l1.747,0.159l1.906,0.159l1.906,0.318l1.747,0.158l1.907,0.318l1.906,0.159l1.747,0.318l1.906,0.317" style="fill:none;fill-rule:nonzero;stroke:#080605;stroke-width:4.17px;stroke-miterlimit:10;"/><path d="M891.837,191.266l0.159,0l0.159,0.159l0.317,0l0.159,0.159l0.159,-0l0.318,0.159l0.159,-0l0.317,0.159l0.318,-0l0.318,0.159l0.317,-0l0.318,0.158l0.318,0l0.476,0.159l0.318,0.159l0.476,0l0.318,0.159l0.477,-0l0.476,0.159l0.477,-0l0.476,0.159l0.477,-0l0.476,0.158l0.636,0.159l0.476,0l0.477,0.159l0.635,0l0.635,0.159l1.112,-0l0.636,0.159l0.476,-0l0.635,0.159l0.636,-0l0.635,0.158l1.271,0l0.635,0.159l1.43,0l0.635,0.159l1.271,0l0.794,0.159l2.7,-0l0.795,0.159l4.288,-0l0.794,0.159l5.877,-0l0.636,-0.159l4.447,-0l0.636,-0.159l2.859,-0l0.794,-0.159l1.271,0l0.794,-0.159l1.271,0l0.635,-0.159l1.43,0l0.635,-0.158l0.635,-0l0.636,-0.159l0.476,-0l0.636,-0.159l1.27,-0l0.636,-0.159l0.476,0l0.636,-0.159l0.476,0l0.635,-0.159l0.477,-0.158l0.476,-0l0.477,-0.159l0.635,-0l0.477,-0.159l0.476,-0l0.318,-0.159l0.477,-0.159l0.476,0l0.477,-0.159l0.317,0l0.318,-0.158l0.476,-0l0.636,-0.318l0.318,-0l0.317,-0.159l0.159,-0l0.318,-0.159l0.159,0l0.317,-0.159l0.318,0l0.159,-0.159l0.159,0" style="fill:none;fill-rule:nonzero;stroke:#080605;stroke-width:4.17px;stroke-miterlimit:10;"/><path d="M437.396,194.443l0.476,0l0.159,-0.159l1.112,0l0.159,-0.159l1.112,0l0.317,-0.158l0.953,-0l0.318,-0.159l1.112,-0l0.477,-0.159l0.794,-0l0.476,-0.159l0.477,0l0.476,-0.159l0.953,0l0.477,-0.159l0.953,0l0.635,-0.158l0.477,-0l0.476,-0.159l0.636,-0l0.476,-0.159l0.636,-0l0.635,-0.159l0.476,0l0.636,-0.159l0.635,0l0.635,-0.159l0.636,0l0.635,-0.158l0.636,-0l0.635,-0.159l0.794,-0l1.271,-0.318l0.794,-0l0.635,-0.159l0.795,0l0.635,-0.159l0.794,-0.159l0.636,0l0.794,-0.158l0.635,-0.159l0.794,-0l1.589,-0.318l0.794,0" style="fill:none;fill-rule:nonzero;stroke:#080605;stroke-width:4.17px;stroke-miterlimit:10;"/><path d="M428.501,198.096l0.317,-0.317l0.477,-0.318l0.476,-0.159l0.318,-0.317l0.477,-0.318l0.476,-0.159l0.477,-0.318l0.953,-0.317l0.476,-0.318l2.383,-0.794l0.476,-0" style="fill:none;fill-rule:nonzero;stroke:#080605;stroke-width:4.17px;stroke-miterlimit:10;"/><path d="M437.396,194.443l0.476,0l0.318,-0.159l1.112,0l0.318,-0.159l0.953,0l0.317,-0.158l0.477,-0l0.635,-0.159l0.953,-0l0.636,-0.159l0.635,-0l0.635,-0.159l0.636,0l0.635,-0.159l0.794,0l0.636,-0.159l0.794,-0.158l0.794,-0l1.588,-0.318l0.953,-0l0.795,-0.159l0.953,-0.159l0.794,0l3.812,-0.635l1.112,-0l1.906,-0.318l3.336,-0.476l0.953,-0.159l2.223,-0.318l1.271,-0.159l3.336,-0.476l1.27,-0.159l1.112,-0.159l1.271,-0.318l1.112,-0.158l2.541,-0.318l1.112,-0.159l1.271,-0.159l1.271,-0.317l2.541,-0.318l1.112,-0.159l1.271,-0.318l2.541,-0.317l1.271,-0.318" style="fill:none;fill-rule:nonzero;stroke:#080605;stroke-width:4.17px;stroke-miterlimit:10;"/><path d="M435.807,194.761l0.318,-0.159l0.635,-0l0,-0.159l0.636,0" style="fill:none;fill-rule:nonzero;stroke:#080605;stroke-width:4.17px;stroke-miterlimit:10;"/><path d="M615.614,185.548l3.177,-0.635l0.794,-0l2.383,-0.477l0.794,0l1.588,-0.317l0.795,-0l0.794,-0.159l0.635,-0.159l0.794,-0l0.795,-0.159l0.794,-0l0.794,-0.159l0.794,0l0.636,-0.159l0.794,0l0.794,-0.159l1.43,0l0.635,-0.158l3.018,-0l0.635,-0.159l1.43,-0" style="fill:none;fill-rule:nonzero;stroke:#080605;stroke-width:4.17px;stroke-miterlimit:10;"/><path d="M499.343,185.389l1.271,-0.159l1.43,-0.158l1.27,-0.318l1.43,-0.159l1.271,-0.159l2.859,-0.317l1.27,-0.159l1.43,-0.159l1.271,-0.159l1.429,-0l1.43,-0.159l1.271,-0.159l1.429,0l1.43,-0.159l1.27,0" style="fill:none;fill-rule:nonzero;stroke:#080605;stroke-width:4.17px;stroke-miterlimit:10;"/><path d="M552.237,195.396l0.794,-0.159l0.953,-0.159l0.795,0l0.953,-0.158l0.794,-0.159l0.953,-0l0.953,-0.159l0.794,-0.159l0.953,-0.159l0.953,0l2.859,-0.476l0.794,-0.159l0.953,-0l5.719,-0.953l0.953,-0l1.906,-0.318l1.112,-0.159l6.671,-1.112" style="fill:none;fill-rule:nonzero;stroke:#080605;stroke-width:4.17px;stroke-miterlimit:10;"/><path d="M510.78,198.096l19.855,0" style="fill:none;fill-rule:nonzero;stroke:#080605;stroke-width:4.17px;stroke-miterlimit:10;"/><path d="M491.878,186.66l7.465,-1.271" style="fill:none;fill-rule:nonzero;stroke:#080605;stroke-width:4.17px;stroke-miterlimit:10;"/><path d="M530.635,198.096l0.476,0l0.636,-0.158l2.223,-0l0.477,-0.159l0.635,-0l0.636,-0.159l1.27,-0l1.271,-0.318l0.636,0l0.635,-0.159l0.635,0l0.636,-0.158l0.794,-0.159l0.635,-0l0.794,-0.159l0.636,-0.159l0.794,-0.159l0.635,0l1.589,-0.317l0.794,-0l2.382,-0.477l0.795,-0l0.794,-0.159l0.794,0" style="fill:none;fill-rule:nonzero;stroke:#080605;stroke-width:4.17px;stroke-miterlimit:10;"/><path d="M607.196,186.978l2.223,-0.318l0.954,-0.159l1.111,-0.159l0.953,-0.317l1.112,-0.159l0.953,-0.159l1.112,-0.159" style="fill:none;fill-rule:nonzero;stroke:#080605;stroke-width:4.17px;stroke-miterlimit:10;"/><path d="M521.104,183.165l1.907,-0.158l1.906,-0l1.906,-0.159l1.906,-0" style="fill:none;fill-rule:nonzero;stroke:#080605;stroke-width:4.17px;stroke-miterlimit:10;"/><path d="M529.364,182.848l-49.24,-0" style="fill:none;fill-rule:nonzero;stroke:#080605;stroke-width:4.17px;stroke-miterlimit:10;"/><path d="M480.203,182.848c-5.188,-0 -9.923,2.956 -12.201,7.617" style="fill:none;fill-rule:nonzero;stroke:#080605;stroke-width:4.17px;stroke-miterlimit:10;"/></g><g id="Slide"><path d="M1152.17,503.104c6.748,7.27 16.219,11.402 26.138,11.402c9.919,-0 19.39,-4.132 26.138,-11.402" style="fill:none;fill-rule:nonzero;stroke:#080605;stroke-width:4.17px;stroke-miterlimit:10;"/><path d="M645.468,503.104c6.747,7.27 16.218,11.402 26.137,11.402c9.92,-0 19.391,-4.132 26.138,-11.402" style="fill:none;fill-rule:nonzero;stroke:#080605;stroke-width:4.17px;stroke-miterlimit:10;"/></g></g><g><path d="M1484.56,61.113l-0,196.842" style="fill:none;stroke:#3666b1;stroke-width:4.17px;stroke-linecap:butt;"/><path d="M1457.42,77.224l28.125,9.375l-28.125,9.375l-0,-18.75Z" style="fill:#3666b1;"/><path d="M1026.91,86.599l436.138,0" style="fill:none;stroke:#3666b1;stroke-width:4.17px;stroke-linecap:butt;"/><path d="M390.325,95.974l-28.125,-9.375l28.125,-9.375l-0,18.75Z" style="fill:#3666b1;"/><path d="M827.073,86.599c-0,0 -349.395,0 -442.373,0" style="fill:none;stroke:#3666b1;stroke-width:4.17px;stroke-linecap:butt;"/><path d="M362.468,61.113l0,196.842" style="fill:none;stroke:#3666b1;stroke-width:4.17px;stroke-linecap:butt;"/><path d="M841.693,104.224l-0,-3.95l8.25,0l-0,-27.35l2.35,0l-9.85,6.1l-0,-4.55l8.8,-5.5l3.35,0l-0,31.3l7.75,0l-0,3.95l-20.65,0Z" style="fill:#3666b1;fill-rule:nonzero;"/><path d="M884.443,104.224l-0,-7.45l-16.55,0l-0,-3.35l17.3,-24.45l3.8,0l-0,24.1l5.3,0l-0,3.7l-5.3,0l-0,7.45l-4.55,0Zm-0,-11.15l-0,-18.6l1.15,0l-13.95,19.7l-0,-1.1l12.8,0Z" style="fill:#3666b1;fill-rule:nonzero;"/><path d="M908.093,104.674c-1.867,0 -3.734,-0.383 -5.6,-1.15c-1.867,-0.766 -3.417,-1.783 -4.65,-3.05l1.7,-3.55c1.233,1.234 2.591,2.167 4.075,2.8c1.483,0.634 2.991,0.95 4.525,0.95c3.266,0 5.783,-1.175 7.55,-3.525c1.766,-2.35 2.65,-5.841 2.65,-10.475l-0,-4.45l0.5,0c-0.2,1.834 -0.775,3.425 -1.725,4.775c-0.95,1.35 -2.142,2.392 -3.575,3.125c-1.434,0.734 -3.067,1.1 -4.9,1.1c-2.1,0 -3.967,-0.483 -5.6,-1.45c-1.634,-0.966 -2.917,-2.291 -3.85,-3.975c-0.934,-1.683 -1.4,-3.608 -1.4,-5.775c-0,-2.233 0.491,-4.216 1.475,-5.95c0.983,-1.733 2.341,-3.091 4.075,-4.075c1.733,-0.983 3.733,-1.475 6,-1.475c4.333,0 7.666,1.509 10,4.525c2.333,3.017 3.5,7.259 3.5,12.725c-0,4.034 -0.592,7.459 -1.775,10.275c-1.184,2.817 -2.875,4.959 -5.075,6.425c-2.2,1.467 -4.834,2.2 -7.9,2.2Zm1.55,-17.3c1.466,0 2.758,-0.316 3.875,-0.95c1.116,-0.633 1.991,-1.516 2.625,-2.65c0.633,-1.133 0.95,-2.433 0.95,-3.9c-0,-1.5 -0.317,-2.808 -0.95,-3.925c-0.634,-1.116 -1.509,-2 -2.625,-2.65c-1.117,-0.65 -2.409,-0.975 -3.875,-0.975c-1.467,0 -2.759,0.325 -3.875,0.975c-1.117,0.65 -1.984,1.534 -2.6,2.65c-0.617,1.117 -0.925,2.425 -0.925,3.925c-0,1.467 0.308,2.767 0.925,3.9c0.616,1.134 1.483,2.017 2.6,2.65c1.116,0.634 2.408,0.95 3.875,0.95Z" style="fill:#3666b1;fill-rule:nonzero;"/><path d="M929.293,104.224l-0,-19.2c-0,-0.966 -0.034,-1.95 -0.1,-2.95c-0.067,-1 -0.167,-2 -0.3,-3l4.4,0l0.5,5.4l-0.6,0c0.666,-1.866 1.733,-3.308 3.2,-4.325c1.466,-1.016 3.216,-1.525 5.25,-1.525c2.066,0 3.766,0.492 5.1,1.475c1.333,0.984 2.233,2.525 2.7,4.625l-0.75,0c0.633,-1.866 1.75,-3.35 3.35,-4.45c1.6,-1.1 3.466,-1.65 5.6,-1.65c2.766,0 4.85,0.809 6.25,2.425c1.4,1.617 2.1,4.125 2.1,7.525l-0,15.65l-4.55,0l-0,-15.4c-0,-2.3 -0.4,-3.958 -1.2,-4.975c-0.8,-1.016 -2.067,-1.525 -3.8,-1.525c-2.034,0 -3.634,0.692 -4.8,2.075c-1.167,1.384 -1.75,3.259 -1.75,5.625l-0,14.2l-4.55,0l-0,-15.4c-0,-2.3 -0.392,-3.958 -1.175,-4.975c-0.784,-1.016 -2.059,-1.525 -3.825,-1.525c-2.034,0 -3.625,0.692 -4.775,2.075c-1.15,1.384 -1.725,3.259 -1.725,5.625l-0,14.2l-4.55,0Z" style="fill:#3666b1;fill-rule:nonzero;"/><path d="M973.443,104.224l-0,-19.2c-0,-0.966 -0.034,-1.95 -0.1,-2.95c-0.067,-1 -0.167,-2 -0.3,-3l4.4,0l0.5,5.4l-0.6,0c0.666,-1.866 1.733,-3.308 3.2,-4.325c1.466,-1.016 3.216,-1.525 5.25,-1.525c2.066,0 3.766,0.492 5.1,1.475c1.333,0.984 2.233,2.525 2.7,4.625l-0.75,0c0.633,-1.866 1.75,-3.35 3.35,-4.45c1.6,-1.1 3.466,-1.65 5.6,-1.65c2.766,0 4.85,0.809 6.25,2.425c1.4,1.617 2.1,4.125 2.1,7.525l-0,15.65l-4.55,0l-0,-15.4c-0,-2.3 -0.4,-3.958 -1.2,-4.975c-0.8,-1.016 -2.067,-1.525 -3.8,-1.525c-2.034,0 -3.634,0.692 -4.8,2.075c-1.167,1.384 -1.75,3.259 -1.75,5.625l-0,14.2l-4.55,0l-0,-15.4c-0,-2.3 -0.392,-3.958 -1.175,-4.975c-0.784,-1.016 -2.059,-1.525 -3.825,-1.525c-2.034,0 -3.625,0.692 -4.775,2.075c-1.15,1.384 -1.725,3.259 -1.725,5.625l-0,14.2l-4.55,0Z" style="fill:#3666b1;fill-rule:nonzero;"/></g><g id="Wheel-center" serif:id="Wheel center"><path d="M915.077,389.103l-0,21.006" style="fill:none;stroke:#3666b1;stroke-width:4.17px;stroke-linecap:butt;"/><path d="M904.574,399.606l21.006,0" style="fill:none;stroke:#3666b1;stroke-width:4.17px;stroke-linecap:butt;"/></g><g><path d="M229.143,182.329l238.068,0" style="fill:none;stroke:#3666b1;stroke-width:4.17px;stroke-linecap:butt;"/><path d="M245.075,210.541l9.375,-28.125l9.375,28.125l-18.75,-0Z" style="fill:#3666b1;"/><path d="M254.45,324.059l-0,-119.143" style="fill:none;stroke:#3666b1;stroke-width:4.17px;stroke-linecap:butt;"/><path d="M263.825,489.96l-9.375,28.125l-9.375,-28.125l18.75,0Z" style="fill:#3666b1;"/><path d="M254.45,372.951l-0,122.634" style="fill:none;stroke:#3666b1;stroke-width:4.17px;stroke-linecap:butt;"/><path d="M229.143,518.066l663.477,0" style="fill:none;stroke:#3666b1;stroke-width:4.17px;stroke-linecap:butt;"/><path d="M200.086,364.471l-0,-7.45l-16.55,-0l-0,-3.35l17.3,-24.45l3.8,-0l-0,24.1l5.3,-0l-0,3.7l-5.3,-0l-0,7.45l-4.55,-0Zm-0,-11.15l-0,-18.6l1.15,-0l-13.95,19.7l-0,-1.1l12.8,-0Z" style="fill:#3666b1;fill-rule:nonzero;"/><path d="M226.736,364.921c-1.533,-0 -3.042,-0.167 -4.525,-0.5c-1.483,-0.333 -2.875,-0.808 -4.175,-1.425c-1.3,-0.617 -2.433,-1.375 -3.4,-2.275l1.65,-3.6c1.633,1.3 3.3,2.258 5,2.875c1.7,0.617 3.483,0.925 5.35,0.925c2.467,-0 4.4,-0.65 5.8,-1.95c1.4,-1.3 2.1,-3.033 2.1,-5.2c-0,-2.233 -0.667,-4.042 -2,-5.425c-1.333,-1.383 -3.183,-2.075 -5.55,-2.075c-1.633,-0 -3.108,0.325 -4.425,0.975c-1.317,0.65 -2.475,1.675 -3.475,3.075l-3.3,-0l-0,-21.1l21.15,-0l-0,3.95l-16.65,-0l-0,13.35l-1.2,-0c0.9,-1.333 2.125,-2.367 3.675,-3.1c1.55,-0.733 3.292,-1.1 5.225,-1.1c2.267,-0 4.225,0.467 5.875,1.4c1.65,0.933 2.933,2.242 3.85,3.925c0.917,1.683 1.375,3.642 1.375,5.875c-0,2.233 -0.5,4.208 -1.5,5.925c-1,1.717 -2.425,3.058 -4.275,4.025c-1.85,0.967 -4.042,1.45 -6.575,1.45Z" style="fill:#3666b1;fill-rule:nonzero;"/><path d="M244.936,364.471l-0,-19.2c-0,-0.967 -0.033,-1.95 -0.1,-2.95c-0.067,-1 -0.167,-2 -0.3,-3l4.4,-0l0.5,5.4l-0.6,-0c0.667,-1.867 1.733,-3.308 3.2,-4.325c1.467,-1.017 3.217,-1.525 5.25,-1.525c2.067,-0 3.767,0.492 5.1,1.475c1.333,0.983 2.233,2.525 2.7,4.625l-0.75,-0c0.633,-1.867 1.75,-3.35 3.35,-4.45c1.6,-1.1 3.467,-1.65 5.6,-1.65c2.767,-0 4.85,0.808 6.25,2.425c1.4,1.617 2.1,4.125 2.1,7.525l-0,15.65l-4.55,-0l-0,-15.4c-0,-2.3 -0.4,-3.958 -1.2,-4.975c-0.8,-1.017 -2.067,-1.525 -3.8,-1.525c-2.033,-0 -3.633,0.692 -4.8,2.075c-1.167,1.383 -1.75,3.258 -1.75,5.625l-0,14.2l-4.55,-0l-0,-15.4c-0,-2.3 -0.392,-3.958 -1.175,-4.975c-0.783,-1.017 -2.058,-1.525 -3.825,-1.525c-2.033,-0 -3.625,0.692 -4.775,2.075c-1.15,1.383 -1.725,3.258 -1.725,5.625l-0,14.2l-4.55,-0Z" style="fill:#3666b1;fill-rule:nonzero;"/><path d="M289.086,364.471l-0,-19.2c-0,-0.967 -0.033,-1.95 -0.1,-2.95c-0.067,-1 -0.167,-2 -0.3,-3l4.4,-0l0.5,5.4l-0.6,-0c0.667,-1.867 1.733,-3.308 3.2,-4.325c1.467,-1.017 3.217,-1.525 5.25,-1.525c2.067,-0 3.767,0.492 5.1,1.475c1.333,0.983 2.233,2.525 2.7,4.625l-0.75,-0c0.633,-1.867 1.75,-3.35 3.35,-4.45c1.6,-1.1 3.467,-1.65 5.6,-1.65c2.767,-0 4.85,0.808 6.25,2.425c1.4,1.617 2.1,4.125 2.1,7.525l-0,15.65l-4.55,-0l-0,-15.4c-0,-2.3 -0.4,-3.958 -1.2,-4.975c-0.8,-1.017 -2.067,-1.525 -3.8,-1.525c-2.033,-0 -3.633,0.692 -4.8,2.075c-1.167,1.383 -1.75,3.258 -1.75,5.625l-0,14.2l-4.55,-0l-0,-15.4c-0,-2.3 -0.392,-3.958 -1.175,-4.975c-0.783,-1.017 -2.058,-1.525 -3.825,-1.525c-2.033,-0 -3.625,0.692 -4.775,2.075c-1.15,1.383 -1.725,3.258 -1.725,5.625l-0,14.2l-4.55,-0Z" style="fill:#3666b1;fill-rule:nonzero;"/></g><g><path d="M1615.38,182.329l-238.068,0" style="fill:none;stroke:#3666b1;stroke-width:4.17px;stroke-linecap:butt;"/><path d="M1580.7,210.541l9.375,-28.125l9.375,28.125l-18.75,-0Z" style="fill:#3666b1;"/><path d="M1590.08,316.023l-0,-111.107" style="fill:none;stroke:#3666b1;stroke-width:4.17px;stroke-linecap:butt;"/><path d="M1599.45,474.606l-9.375,28.125l-9.375,-28.125l18.75,-0Z" style="fill:#3666b1;"/><path d="M1590.08,370.04l-0,110.191" style="fill:none;stroke:#3666b1;stroke-width:4.17px;stroke-linecap:butt;"/><path d="M1615.38,502.731l-151.274,-0" style="fill:none;stroke:#3666b1;stroke-width:4.17px;stroke-linecap:butt;"/><path d="M1535.5,358.685l-0,-7.45l-16.55,0l-0,-3.35l17.3,-24.45l3.8,0l-0,24.1l5.3,0l-0,3.7l-5.3,0l-0,7.45l-4.55,0Zm-0,-11.15l-0,-18.6l1.15,0l-13.95,19.7l-0,-1.1l12.8,0Z" style="fill:#3666b1;fill-rule:nonzero;"/><path d="M1561.3,359.135c-2.4,0 -4.692,-0.366 -6.875,-1.1c-2.184,-0.733 -4.009,-1.766 -5.475,-3.1l1.65,-3.6c1.633,1.334 3.316,2.3 5.05,2.9c1.733,0.6 3.566,0.9 5.5,0.9c2.566,0 4.516,-0.541 5.85,-1.625c1.333,-1.083 2,-2.641 2,-4.675c-0,-2 -0.675,-3.516 -2.025,-4.55c-1.35,-1.033 -3.325,-1.55 -5.925,-1.55l-5.4,0l-0,-3.85l5.05,0c2.2,0 3.966,-0.566 5.3,-1.7c1.333,-1.133 2,-2.683 2,-4.65c-0,-1.8 -0.609,-3.175 -1.825,-4.125c-1.217,-0.95 -2.942,-1.425 -5.175,-1.425c-3.767,0 -7.034,1.317 -9.8,3.95l-1.65,-3.55c1.4,-1.4 3.133,-2.483 5.2,-3.25c2.066,-0.766 4.25,-1.15 6.55,-1.15c3.5,0 6.25,0.8 8.25,2.4c2,1.6 3,3.834 3,6.7c-0,2.167 -0.609,4.025 -1.825,5.575c-1.217,1.55 -2.875,2.575 -4.975,3.075l-0,-0.55c2.466,0.434 4.383,1.442 5.75,3.025c1.366,1.584 2.05,3.559 2.05,5.925c-0,3.1 -1.092,5.542 -3.275,7.325c-2.184,1.784 -5.175,2.675 -8.975,2.675Z" style="fill:#3666b1;fill-rule:nonzero;"/><path d="M1580.35,358.685l-0,-19.2c-0,-0.966 -0.034,-1.95 -0.1,-2.95c-0.067,-1 -0.167,-2 -0.3,-3l4.4,0l0.5,5.4l-0.6,0c0.666,-1.866 1.733,-3.308 3.2,-4.325c1.466,-1.016 3.216,-1.525 5.25,-1.525c2.066,0 3.766,0.492 5.1,1.475c1.333,0.984 2.233,2.525 2.7,4.625l-0.75,0c0.633,-1.866 1.75,-3.35 3.35,-4.45c1.6,-1.1 3.466,-1.65 5.6,-1.65c2.766,0 4.85,0.809 6.25,2.425c1.4,1.617 2.1,4.125 2.1,7.525l-0,15.65l-4.55,0l-0,-15.4c-0,-2.3 -0.4,-3.958 -1.2,-4.975c-0.8,-1.016 -2.067,-1.525 -3.8,-1.525c-2.034,0 -3.634,0.692 -4.8,2.075c-1.167,1.384 -1.75,3.259 -1.75,5.625l-0,14.2l-4.55,0l-0,-15.4c-0,-2.3 -0.392,-3.958 -1.175,-4.975c-0.784,-1.016 -2.059,-1.525 -3.825,-1.525c-2.034,0 -3.625,0.692 -4.775,2.075c-1.15,1.384 -1.725,3.259 -1.725,5.625l-0,14.2l-4.55,0Z" style="fill:#3666b1;fill-rule:nonzero;"/><path d="M1624.5,358.685l-0,-19.2c-0,-0.966 -0.034,-1.95 -0.1,-2.95c-0.067,-1 -0.167,-2 -0.3,-3l4.4,0l0.5,5.4l-0.6,0c0.666,-1.866 1.733,-3.308 3.2,-4.325c1.466,-1.016 3.216,-1.525 5.25,-1.525c2.066,0 3.766,0.492 5.1,1.475c1.333,0.984 2.233,2.525 2.7,4.625l-0.75,0c0.633,-1.866 1.75,-3.35 3.35,-4.45c1.6,-1.1 3.466,-1.65 5.6,-1.65c2.766,0 4.85,0.809 6.25,2.425c1.4,1.617 2.1,4.125 2.1,7.525l-0,15.65l-4.55,0l-0,-15.4c-0,-2.3 -0.4,-3.958 -1.2,-4.975c-0.8,-1.016 -2.067,-1.525 -3.8,-1.525c-2.034,0 -3.634,0.692 -4.8,2.075c-1.167,1.384 -1.75,3.259 -1.75,5.625l-0,14.2l-4.55,0l-0,-15.4c-0,-2.3 -0.392,-3.958 -1.175,-4.975c-0.784,-1.016 -2.059,-1.525 -3.825,-1.525c-2.034,0 -3.625,0.692 -4.775,2.075c-1.15,1.384 -1.725,3.259 -1.725,5.625l-0,14.2l-4.55,0Z" style="fill:#3666b1;fill-rule:nonzero;"/></g><path d="M920.289,411.273l69.411,155.373l49.99,-0" style="fill:none;stroke:#3666b1;stroke-width:4.17px;stroke-linecap:butt;"/><path d="M961.59,480.738l2.912,29.503l-20.032,-21.855l17.12,-7.648Z" style="fill:#3666b1;"/><path d="M921.677,414.38c-0,-0 21.065,47.153 33.647,75.318" style="fill:none;stroke:#3666b1;stroke-width:4.17px;"/><g transform="matrix(1,0,0,1,-11376,-9699.31)"><g transform="matrix(50,0,0,50,12424.5,10283.6)"><path d="M0.086,-0l0,-0.705l0.292,0c0.075,0 0.133,0.018 0.174,0.053c0.041,0.035 0.062,0.085 0.062,0.148c-0,0.042 -0.009,0.078 -0.028,0.107c-0.019,0.029 -0.045,0.052 -0.079,0.067c-0.033,0.015 -0.072,0.023 -0.117,0.023l0.017,-0.014l0.024,-0c0.027,-0 0.052,0.007 0.073,0.02c0.021,0.014 0.039,0.036 0.053,0.067l0.1,0.234l-0.103,-0l-0.097,-0.232c-0.011,-0.029 -0.028,-0.047 -0.05,-0.056c-0.021,-0.009 -0.048,-0.013 -0.081,-0.013l-0.147,-0l-0,0.301l-0.093,-0Zm0.093,-0.373l0.185,-0c0.051,-0 0.09,-0.011 0.117,-0.033c0.027,-0.022 0.041,-0.054 0.041,-0.096c-0,-0.041 -0.014,-0.073 -0.041,-0.095c-0.027,-0.021 -0.066,-0.032 -0.117,-0.032l-0.185,-0l-0,0.256Z" style="fill:#3666b1;fill-rule:nonzero;"/></g><g transform="matrix(50,0,0,50,12459.3,10283.6)"><path d="M0.124,-0l0,-0.079l0.165,0l-0,-0.547l0.047,0l-0.197,0.122l0,-0.091l0.176,-0.11l0.067,0l0,0.626l0.155,-0l0,0.079l-0.413,-0Z" style="fill:#3666b1;fill-rule:nonzero;"/></g><g transform="matrix(50,0,0,50,12489.3,10283.6)"><path d="M0.312,0.009c-0.031,0 -0.061,-0.003 -0.091,-0.01c-0.029,-0.007 -0.057,-0.016 -0.083,-0.029c-0.026,-0.012 -0.049,-0.027 -0.068,-0.045l0.033,-0.072c0.033,0.026 0.066,0.045 0.1,0.058c0.034,0.012 0.07,0.018 0.107,0.018c0.049,0 0.088,-0.013 0.116,-0.039c0.028,-0.026 0.042,-0.061 0.042,-0.104c0,-0.045 -0.013,-0.081 -0.04,-0.108c-0.027,-0.028 -0.064,-0.042 -0.111,-0.042c-0.033,-0 -0.062,0.007 -0.089,0.019c-0.026,0.013 -0.049,0.034 -0.069,0.062l-0.066,-0l0,-0.422l0.423,0l0,0.079l-0.333,0l0,0.267l-0.024,0c0.018,-0.027 0.043,-0.047 0.074,-0.062c0.031,-0.015 0.065,-0.022 0.104,-0.022c0.045,0 0.085,0.009 0.118,0.028c0.033,0.019 0.058,0.045 0.077,0.078c0.018,0.034 0.027,0.073 0.027,0.118c0,0.045 -0.01,0.084 -0.03,0.118c-0.02,0.035 -0.048,0.062 -0.085,0.081c-0.037,0.019 -0.081,0.029 -0.132,0.029Z" style="fill:#3666b1;fill-rule:nonzero;"/></g><g transform="matrix(50,0,0,50,12519.3,10283.6)"><rect x="0.061" y="-0.111" width="0.111" height="0.111" style="fill:#3666b1;fill-rule:nonzero;"/></g><g transform="matrix(50,0,0,50,12530.9,10283.6)"><path d="M0.252,0.009c-0.037,0 -0.075,-0.008 -0.112,-0.023c-0.037,-0.015 -0.068,-0.036 -0.093,-0.061l0.034,-0.071c0.025,0.025 0.052,0.043 0.081,0.056c0.03,0.013 0.06,0.019 0.091,0.019c0.065,0 0.116,-0.023 0.151,-0.07c0.035,-0.047 0.053,-0.117 0.053,-0.21l0,-0.089l0.01,-0c-0.004,0.037 -0.016,0.068 -0.035,0.095c-0.019,0.027 -0.042,0.048 -0.071,0.063c-0.029,0.015 -0.061,0.022 -0.098,0.022c-0.042,-0 -0.079,-0.01 -0.112,-0.029c-0.033,-0.019 -0.058,-0.046 -0.077,-0.08c-0.019,-0.033 -0.028,-0.072 -0.028,-0.115c-0,-0.045 0.01,-0.084 0.029,-0.119c0.02,-0.035 0.047,-0.062 0.082,-0.082c0.035,-0.019 0.075,-0.029 0.12,-0.029c0.087,0 0.153,0.03 0.2,0.09c0.047,0.061 0.07,0.146 0.07,0.255c0,0.081 -0.012,0.149 -0.035,0.205c-0.024,0.057 -0.058,0.1 -0.102,0.129c-0.044,0.029 -0.097,0.044 -0.158,0.044Zm0.031,-0.346c0.029,0 0.055,-0.006 0.077,-0.019c0.023,-0.013 0.04,-0.03 0.053,-0.053c0.013,-0.023 0.019,-0.049 0.019,-0.078c-0,-0.03 -0.006,-0.056 -0.019,-0.078c-0.013,-0.023 -0.03,-0.04 -0.053,-0.053c-0.022,-0.013 -0.048,-0.02 -0.077,-0.02c-0.029,0 -0.055,0.007 -0.078,0.02c-0.022,0.013 -0.039,0.03 -0.052,0.053c-0.012,0.022 -0.018,0.048 -0.018,0.078c0,0.029 0.006,0.055 0.018,0.078c0.013,0.023 0.03,0.04 0.052,0.053c0.023,0.013 0.049,0.019 0.078,0.019Z" style="fill:#3666b1;fill-rule:nonzero;"/></g><g transform="matrix(50,0,0,50,12560.9,10283.6)"><path d="M0.076,-0l0,-0.384c0,-0.019 -0.001,-0.039 -0.002,-0.059c-0.001,-0.02 -0.003,-0.04 -0.006,-0.06l0.088,0l0.01,0.108l-0.012,0c0.013,-0.037 0.035,-0.066 0.064,-0.086c0.029,-0.021 0.064,-0.031 0.105,-0.031c0.041,0 0.075,0.01 0.102,0.03c0.027,0.019 0.045,0.05 0.054,0.092l-0.015,0c0.013,-0.037 0.035,-0.067 0.067,-0.089c0.032,-0.022 0.069,-0.033 0.112,-0.033c0.055,0 0.097,0.016 0.125,0.048c0.028,0.033 0.042,0.083 0.042,0.151l0,0.313l-0.091,0l0,-0.308c0,-0.046 -0.008,-0.079 -0.024,-0.099c-0.016,-0.021 -0.041,-0.031 -0.076,-0.031c-0.041,0 -0.073,0.014 -0.096,0.042c-0.023,0.027 -0.035,0.065 -0.035,0.112l0,0.284l-0.091,0l0,-0.308c0,-0.046 -0.008,-0.079 -0.024,-0.099c-0.015,-0.021 -0.041,-0.031 -0.076,-0.031c-0.041,0 -0.072,0.014 -0.095,0.042c-0.023,0.027 -0.035,0.065 -0.035,0.112l0,0.284l-0.091,0Z" style="fill:#3666b1;fill-rule:nonzero;"/></g><g transform="matrix(50,0,0,50,12605.1,10283.6)"><path d="M0.076,-0l0,-0.384c0,-0.019 -0.001,-0.039 -0.002,-0.059c-0.001,-0.02 -0.003,-0.04 -0.006,-0.06l0.088,0l0.01,0.108l-0.012,0c0.013,-0.037 0.035,-0.066 0.064,-0.086c0.029,-0.021 0.064,-0.031 0.105,-0.031c0.041,0 0.075,0.01 0.102,0.03c0.027,0.019 0.045,0.05 0.054,0.092l-0.015,0c0.013,-0.037 0.035,-0.067 0.067,-0.089c0.032,-0.022 0.069,-0.033 0.112,-0.033c0.055,0 0.097,0.016 0.125,0.048c0.028,0.033 0.042,0.083 0.042,0.151l0,0.313l-0.091,0l0,-0.308c0,-0.046 -0.008,-0.079 -0.024,-0.099c-0.016,-0.021 -0.041,-0.031 -0.076,-0.031c-0.041,0 -0.073,0.014 -0.096,0.042c-0.023,0.027 -0.035,0.065 -0.035,0.112l0,0.284l-0.091,0l0,-0.308c0,-0.046 -0.008,-0.079 -0.024,-0.099c-0.015,-0.021 -0.041,-0.031 -0.076,-0.031c-0.041,0 -0.072,0.014 -0.095,0.042c-0.023,0.027 -0.035,0.065 -0.035,0.112l0,0.284l-0.091,0Z" style="fill:#3666b1;fill-rule:nonzero;"/></g><g transform="matrix(50,0,0,50,12410.5,10333.6)"><path d="M0.226,0.18c-0.029,-0.049 -0.052,-0.098 -0.071,-0.146c-0.018,-0.047 -0.031,-0.096 -0.039,-0.145c-0.009,-0.049 -0.013,-0.099 -0.013,-0.152c0,-0.053 0.004,-0.104 0.013,-0.153c0.008,-0.049 0.021,-0.097 0.04,-0.144c0.018,-0.047 0.041,-0.096 0.07,-0.145l0.074,0c-0.034,0.075 -0.06,0.15 -0.077,0.223c-0.017,0.073 -0.026,0.146 -0.026,0.219c0,0.073 0.009,0.147 0.026,0.22c0.017,0.073 0.043,0.148 0.077,0.223l-0.074,0Z" style="fill:#3666b1;fill-rule:nonzero;"/></g><g transform="matrix(50,0,0,50,12426.8,10333.6)"><path d="M0.519,-0.579l0.048,0.048l-0.058,0.058c0.015,0.018 0.026,0.038 0.035,0.058c0.013,0.031 0.019,0.065 0.019,0.102c-0,0.035 -0.006,0.068 -0.019,0.099c-0.013,0.031 -0.032,0.059 -0.058,0.085c-0.025,0.025 -0.054,0.045 -0.085,0.058c-0.031,0.013 -0.064,0.019 -0.1,0.019c-0.036,0 -0.069,-0.006 -0.1,-0.019c-0.021,-0.009 -0.041,-0.02 -0.059,-0.035l-0.058,0.058l-0.048,-0.049l0.057,-0.057c-0.014,-0.019 -0.026,-0.039 -0.035,-0.06c-0.013,-0.031 -0.019,-0.064 -0.019,-0.099c0,-0.037 0.006,-0.071 0.019,-0.102c0.013,-0.03 0.032,-0.059 0.058,-0.085c0.025,-0.025 0.054,-0.045 0.085,-0.058c0.031,-0.013 0.064,-0.019 0.1,-0.019c0.036,-0 0.069,0.006 0.1,0.019c0.022,0.009 0.042,0.021 0.06,0.036l0.058,-0.057Zm-0.144,0.085c-0.023,-0.009 -0.047,-0.014 -0.074,-0.014c-0.027,-0 -0.051,0.005 -0.074,0.014c-0.023,0.01 -0.044,0.024 -0.062,0.043c-0.02,0.019 -0.034,0.04 -0.043,0.063c-0.009,0.023 -0.014,0.048 -0.014,0.075c-0,0.026 0.004,0.05 0.014,0.073c0.005,0.013 0.012,0.025 0.021,0.037l0.269,-0.27c-0.012,-0.008 -0.024,-0.015 -0.037,-0.021Zm0.085,0.07l-0.269,0.269c0.011,0.008 0.023,0.015 0.036,0.02c0.023,0.01 0.047,0.015 0.074,0.015c0.027,-0 0.051,-0.005 0.074,-0.015c0.023,-0.01 0.044,-0.024 0.063,-0.042c0.019,-0.019 0.033,-0.04 0.042,-0.063c0.01,-0.023 0.014,-0.047 0.014,-0.073c0,-0.027 -0.004,-0.052 -0.014,-0.075c-0.005,-0.013 -0.011,-0.025 -0.02,-0.036Z" style="fill:#3666b1;fill-rule:nonzero;"/></g><g transform="matrix(50,0,0,50,12456.9,10333.6)"><path d="M0.295,0.009c-0.048,0 -0.094,-0.007 -0.137,-0.022c-0.044,-0.015 -0.081,-0.035 -0.11,-0.062l0.033,-0.072c0.033,0.027 0.066,0.046 0.101,0.058c0.035,0.012 0.071,0.018 0.11,0.018c0.051,0 0.09,-0.011 0.117,-0.032c0.027,-0.022 0.04,-0.053 0.04,-0.094c0,-0.04 -0.013,-0.07 -0.04,-0.091c-0.027,-0.021 -0.067,-0.031 -0.119,-0.031l-0.108,0l0,-0.077l0.101,0c0.044,0 0.079,-0.011 0.106,-0.034c0.027,-0.023 0.04,-0.054 0.04,-0.093c0,-0.036 -0.012,-0.064 -0.036,-0.083c-0.025,-0.018 -0.059,-0.028 -0.104,-0.028c-0.075,0 -0.141,0.026 -0.196,0.079l-0.033,-0.071c0.028,-0.028 0.063,-0.05 0.104,-0.065c0.041,-0.015 0.085,-0.023 0.131,-0.023c0.07,0 0.125,0.016 0.165,0.048c0.04,0.032 0.06,0.077 0.06,0.134c0,0.043 -0.012,0.081 -0.037,0.112c-0.024,0.031 -0.057,0.051 -0.099,0.061l0,-0.011c0.049,0.009 0.088,0.029 0.115,0.061c0.027,0.031 0.041,0.071 0.041,0.118c0,0.062 -0.022,0.111 -0.066,0.147c-0.043,0.035 -0.103,0.053 -0.179,0.053Z" style="fill:#3666b1;fill-rule:nonzero;"/></g><g transform="matrix(50,0,0,50,12486.9,10333.6)"><path d="M0.124,-0l0,-0.079l0.165,0l-0,-0.547l0.047,0l-0.197,0.122l0,-0.091l0.176,-0.11l0.067,0l0,0.626l0.155,-0l0,0.079l-0.413,-0Z" style="fill:#3666b1;fill-rule:nonzero;"/></g><g transform="matrix(50,0,0,50,12516.9,10333.6)"><rect x="0.061" y="-0.111" width="0.111" height="0.111" style="fill:#3666b1;fill-rule:nonzero;"/></g><g transform="matrix(50,0,0,50,12528.6,10333.6)"><path d="M0.106,-0l0.347,-0.663l0,0.038l-0.39,0l0,-0.08l0.475,0l0,0.069l-0.329,0.636l-0.103,-0Z" style="fill:#3666b1;fill-rule:nonzero;"/></g><g transform="matrix(50,0,0,50,12558.6,10333.6)"><path d="M0.076,-0l0,-0.384c0,-0.019 -0.001,-0.039 -0.002,-0.059c-0.001,-0.02 -0.003,-0.04 -0.006,-0.06l0.088,0l0.01,0.108l-0.012,0c0.013,-0.037 0.035,-0.066 0.064,-0.086c0.029,-0.021 0.064,-0.031 0.105,-0.031c0.041,0 0.075,0.01 0.102,0.03c0.027,0.019 0.045,0.05 0.054,0.092l-0.015,0c0.013,-0.037 0.035,-0.067 0.067,-0.089c0.032,-0.022 0.069,-0.033 0.112,-0.033c0.055,0 0.097,0.016 0.125,0.048c0.028,0.033 0.042,0.083 0.042,0.151l0,0.313l-0.091,0l0,-0.308c0,-0.046 -0.008,-0.079 -0.024,-0.099c-0.016,-0.021 -0.041,-0.031 -0.076,-0.031c-0.041,0 -0.073,0.014 -0.096,0.042c-0.023,0.027 -0.035,0.065 -0.035,0.112l0,0.284l-0.091,0l0,-0.308c0,-0.046 -0.008,-0.079 -0.024,-0.099c-0.015,-0.021 -0.041,-0.031 -0.076,-0.031c-0.041,0 -0.072,0.014 -0.095,0.042c-0.023,0.027 -0.035,0.065 -0.035,0.112l0,0.284l-0.091,0Z" style="fill:#3666b1;fill-rule:nonzero;"/></g><g transform="matrix(50,0,0,50,12602.7,10333.6)"><path d="M0.076,-0l0,-0.384c0,-0.019 -0.001,-0.039 -0.002,-0.059c-0.001,-0.02 -0.003,-0.04 -0.006,-0.06l0.088,0l0.01,0.108l-0.012,0c0.013,-0.037 0.035,-0.066 0.064,-0.086c0.029,-0.021 0.064,-0.031 0.105,-0.031c0.041,0 0.075,0.01 0.102,0.03c0.027,0.019 0.045,0.05 0.054,0.092l-0.015,0c0.013,-0.037 0.035,-0.067 0.067,-0.089c0.032,-0.022 0.069,-0.033 0.112,-0.033c0.055,0 0.097,0.016 0.125,0.048c0.028,0.033 0.042,0.083 0.042,0.151l0,0.313l-0.091,0l0,-0.308c0,-0.046 -0.008,-0.079 -0.024,-0.099c-0.016,-0.021 -0.041,-0.031 -0.076,-0.031c-0.041,0 -0.073,0.014 -0.096,0.042c-0.023,0.027 -0.035,0.065 -0.035,0.112l0,0.284l-0.091,0l0,-0.308c0,-0.046 -0.008,-0.079 -0.024,-0.099c-0.015,-0.021 -0.041,-0.031 -0.076,-0.031c-0.041,0 -0.072,0.014 -0.095,0.042c-0.023,0.027 -0.035,0.065 -0.035,0.112l0,0.284l-0.091,0Z" style="fill:#3666b1;fill-rule:nonzero;"/></g><g transform="matrix(50,0,0,50,12646.9,10333.6)"><path d="M0.101,0.18l-0.075,0c0.034,-0.075 0.06,-0.15 0.078,-0.223c0.017,-0.073 0.026,-0.147 0.026,-0.22c0,-0.073 -0.009,-0.146 -0.026,-0.219c-0.018,-0.073 -0.044,-0.148 -0.078,-0.223l0.075,0c0.029,0.049 0.052,0.098 0.071,0.145c0.018,0.048 0.031,0.096 0.039,0.145c0.009,0.049 0.013,0.099 0.013,0.152c-0,0.053 -0.004,0.104 -0.013,0.153c-0.008,0.049 -0.021,0.097 -0.04,0.144c-0.018,0.048 -0.041,0.097 -0.07,0.146Z" style="fill:#3666b1;fill-rule:nonzero;"/></g></g></svg>