<?xml version="1.0" encoding="UTF-8" standalone="no"?><!DOCTYPE svg PUBLIC "-//W3C//DTD SVG 1.1//EN" "http://www.w3.org/Graphics/SVG/1.1/DTD/svg11.dtd"><svg width="100%" height="100%" viewBox="0 0 1831 1473" version="1.1" xmlns="http://www.w3.org/2000/svg" xmlns:xlink="http://www.w3.org/1999/xlink" xml:space="preserve" xmlns:serif="http://www.serif.com/" style="fill-rule:evenodd;clip-rule:evenodd;stroke-linecap:round;stroke-linejoin:round;stroke-miterlimit:1.5;"><rect id="Top" x="0.222" y="0.269" width="1830.65" height="1472.18" style="fill:none;"/><circle cx="728.658" cy="386.365" r="11.457" style="fill:none;stroke:#000;stroke-width:5px;stroke-dasharray:10,10,0,0,0,0;"/><circle cx="1103.59" cy="386.365" r="11.457" style="fill:none;stroke:#000;stroke-width:5px;stroke-dasharray:10,10,0,0,0,0;"/><g id="Top1" serif:id="Top"><g><g id="Plain-line-drawing" serif:id="Plain line drawing"><g id="Light-bars" serif:id="Light bars"><path d="M929.062,841.793l-0,225.738c-0,5.951 -4.832,10.783 -10.783,10.783c-5.951,-0 -10.782,-4.832 -10.782,-10.783l-0,-225.738c-0,-5.951 4.831,-10.783 10.782,-10.783c5.951,0 10.783,4.832 10.783,10.783Z" style="fill:none;stroke:#080605;stroke-width:4.17px;stroke-dasharray:8.33,12.5,0,0,0,0;stroke-dashoffset:375;"/><path d="M929.073,399.546l-0,188.993c-0,5.951 -4.832,10.783 -10.783,10.783c-5.951,-0 -10.782,-4.832 -10.782,-10.783l-0,-188.993c-0,-5.951 4.831,-10.782 10.782,-10.782c5.951,-0 10.783,4.831 10.783,10.782Z" style="fill:none;stroke:#080605;stroke-width:4.17px;stroke-dasharray:8.33,12.5,0,0,0,0;stroke-dashoffset:375;"/><path d="M1312.93,723.901l-270.132,0c-5.951,0 -10.783,-4.831 -10.783,-10.782c0,-5.951 4.832,-10.783 10.783,-10.783l270.132,0c5.951,0 10.782,4.832 10.782,10.783c0,5.951 -4.831,10.782 -10.782,10.782Z" style="fill:none;stroke:#080605;stroke-width:4.17px;stroke-dasharray:8.33,12.5,0,0,0,0;stroke-dashoffset:375;"/><path d="M519.359,724.728l270.132,0c5.951,0 10.782,-4.831 10.782,-10.782c0,-5.951 -4.831,-10.783 -10.782,-10.783l-270.132,0c-5.951,0 -10.783,4.832 -10.783,10.783c0,5.951 4.832,10.782 10.783,10.782Z" style="fill:none;stroke:#080605;stroke-width:4.17px;stroke-dasharray:8.33,12.5,0,0,0,0;stroke-dashoffset:375;"/></g><g id="Bumpers"><path d="M1007.03,217.984l1.904,5.713l2.222,5.554l2.539,5.396" style="fill:none;fill-rule:nonzero;stroke:#000;stroke-width:5px;stroke-miterlimit:10;"/><path d="M1229.05,343.356l3.174,4.284l2.698,4.444l2.222,4.92l1.587,4.919" style="fill:none;fill-rule:nonzero;stroke:#000;stroke-width:5px;stroke-miterlimit:10;"/><path d="M1197.47,328.121l3.174,0.317l3.174,0.476" style="fill:none;fill-rule:nonzero;stroke:#000;stroke-width:5px;stroke-miterlimit:10;"/><path d="M821.67,234.647l2.539,-5.396l2.222,-5.554l1.904,-5.713" style="fill:none;fill-rule:nonzero;stroke:#000;stroke-width:5px;stroke-miterlimit:10;"/><path d="M631.548,328.914l3.174,-0.476l3.174,-0.317" style="fill:none;fill-rule:nonzero;stroke:#000;stroke-width:5px;stroke-miterlimit:10;"/><path d="M596.635,361.923l1.587,-4.919l2.221,-4.92l2.698,-4.444l3.174,-4.284" style="fill:none;fill-rule:nonzero;stroke:#000;stroke-width:5px;stroke-miterlimit:10;"/><path d="M467.454,474.123l-4.602,9.522l-4.285,9.84l-3.65,9.839l-3.016,10.157l-2.539,10.315l-2.063,10.474l-1.269,10.474l-0.953,10.474l-0.317,10.633" style="fill:none;fill-rule:nonzero;stroke:#000;stroke-width:5px;stroke-miterlimit:10;"/><path d="M444.443,874.044l0.317,10.792l0.952,10.791l1.428,10.792l2.064,10.633l2.697,10.474l3.333,10.474l3.809,10.157l4.285,9.839l4.919,9.681l5.396,9.521l6.031,9.046l6.348,8.729l6.982,8.411l7.301,7.935l7.776,7.617l8.093,7.142l8.57,6.665l9.046,6.189l9.205,5.555" style="fill:none;fill-rule:nonzero;stroke:#000;stroke-width:5px;stroke-miterlimit:10;"/><path d="M819.13,1203.98l8.888,4.761l9.045,4.444l9.205,3.808l9.363,3.333l9.522,3.015l9.681,2.381l9.839,1.904l9.998,1.428l9.839,0.953" style="fill:none;fill-rule:nonzero;stroke:#000;stroke-width:5px;stroke-miterlimit:10;"/><path d="M930.854,1230.01l9.84,-0.953l9.998,-1.428l9.839,-1.904l9.681,-2.381l9.522,-3.015l9.363,-3.333l9.204,-3.808l9.046,-4.444l8.887,-4.761" style="fill:none;fill-rule:nonzero;stroke:#000;stroke-width:5px;stroke-miterlimit:10;"/><path d="M1292.37,1044.49l9.205,-5.555l9.045,-6.189l8.57,-6.665l8.094,-7.142l7.776,-7.617l7.3,-7.935l6.983,-8.411l6.348,-8.729l6.03,-9.046l5.396,-9.521l4.92,-9.681l4.285,-9.839l3.809,-10.157l3.332,-10.474l2.698,-10.474l2.063,-10.633l1.428,-10.792l0.953,-10.791l0.317,-10.792" style="fill:none;fill-rule:nonzero;stroke:#000;stroke-width:5px;stroke-miterlimit:10;"/><path d="M1390.61,565.851l-0.318,-10.633l-0.952,-10.474l-1.27,-10.474l-2.063,-10.474l-2.539,-10.315l-3.015,-10.157l-3.65,-9.839l-4.285,-9.84l-4.602,-9.522" style="fill:none;fill-rule:nonzero;stroke:#000;stroke-width:5px;stroke-miterlimit:10;"/><path d="M930.854,1230.01l-8.728,0.317l-8.887,0l-8.729,-0.317" style="fill:none;fill-rule:nonzero;stroke:#000;stroke-width:5px;stroke-miterlimit:10;"/><path d="M1145.41,1189.06l-113.628,65.702" style="fill:none;fill-rule:nonzero;stroke:#000;stroke-width:5px;stroke-miterlimit:10;"/><path d="M1155.1,1172.24l0.793,1.27" style="fill:none;fill-rule:nonzero;stroke:#000;stroke-width:5px;stroke-miterlimit:10;"/><path d="M1011.32,1253.18l1.587,2.856" style="fill:none;fill-rule:nonzero;stroke:#000;stroke-width:5px;stroke-miterlimit:10;"/><path d="M689.95,1189.06l113.628,65.702" style="fill:none;fill-rule:nonzero;stroke:#000;stroke-width:5px;stroke-miterlimit:10;"/><path d="M680.269,1172.24l-0.794,1.27" style="fill:none;fill-rule:nonzero;stroke:#000;stroke-width:5px;stroke-miterlimit:10;"/><path d="M824.05,1253.18l-1.587,2.856" style="fill:none;fill-rule:nonzero;stroke:#000;stroke-width:5px;stroke-miterlimit:10;"/><path d="M1421.71,551.092l-0,322.635" style="fill:none;fill-rule:nonzero;stroke:#000;stroke-width:5px;stroke-miterlimit:10;"/><path d="M1292.53,380.174l-276.136,-159.493" style="fill:none;fill-rule:nonzero;stroke:#000;stroke-width:5px;stroke-miterlimit:10;"/><path d="M1154.14,1183.03l-1.11,0.793l-0.953,0.794l-3.332,2.38l-1.111,0.635l-1.111,0.794l-1.111,0.634" style="fill:none;fill-rule:nonzero;stroke:#000;stroke-width:5px;stroke-miterlimit:10;"/><path d="M1031.79,1254.76l-1.27,0.634l-1.111,0.635l-1.269,0.476l-1.111,0.635l-1.27,0.635l-1.269,0.476l-1.111,0.476l-1.27,0.476" style="fill:none;fill-rule:nonzero;stroke:#000;stroke-width:5px;stroke-miterlimit:10;"/><path d="M1155.89,1173.51l0.318,0.476l0.634,2.539l0,1.428l-0.476,1.905l-0.317,0.635l-0.318,0.476l-0.317,0.634l-0.317,0.477l-0.953,0.952" style="fill:none;fill-rule:nonzero;stroke:#000;stroke-width:5px;stroke-miterlimit:10;"/><path d="M1022.11,1259.21l-1.904,0.476l-2.063,0l-0.635,-0.158l-0.635,-0.318l-0.635,-0.159l-0.476,-0.317l-0.635,-0.317l-1.428,-1.429l-0.317,-0.476l-0.476,-0.476" style="fill:none;fill-rule:nonzero;stroke:#000;stroke-width:5px;stroke-miterlimit:10;"/><path d="M689.95,1189.06l-1.111,-0.634l-1.111,-0.794l-1.111,-0.635l-3.333,-2.38l-0.952,-0.794l-1.111,-0.793" style="fill:none;fill-rule:nonzero;stroke:#000;stroke-width:5px;stroke-miterlimit:10;"/><path d="M813.259,1259.21l-1.27,-0.476l-1.111,-0.476l-1.27,-0.476l-1.269,-0.635l-1.111,-0.635l-1.27,-0.476l-1.11,-0.635l-1.27,-0.634" style="fill:none;fill-rule:nonzero;stroke:#000;stroke-width:5px;stroke-miterlimit:10;"/><path d="M681.221,1183.03l-0.952,-0.952l-0.317,-0.477l-0.318,-0.634l-0.317,-0.476l-0.318,-0.635l-0.476,-1.905l0,-1.428l0.635,-2.539l0.317,-0.476" style="fill:none;fill-rule:nonzero;stroke:#000;stroke-width:5px;stroke-miterlimit:10;"/><path d="M919.587,1232.39l1.745,-1.904" style="fill:none;fill-rule:nonzero;stroke:#000;stroke-width:5px;stroke-miterlimit:10;"/><path d="M822.463,1256.03l-0.476,0.476l-0.317,0.476l-1.429,1.429l-1.269,0.634l-0.476,0.159l-0.635,0.318l-0.635,0.158l-2.063,0l-1.904,-0.476" style="fill:none;fill-rule:nonzero;stroke:#000;stroke-width:5px;stroke-miterlimit:10;"/><path d="M681.221,1183.03l0,-0" style="fill:none;fill-rule:nonzero;stroke:#000;stroke-width:5px;stroke-miterlimit:10;"/><path d="M813.259,1259.21l-0,0" style="fill:none;fill-rule:nonzero;stroke:#000;stroke-width:5px;stroke-miterlimit:10;"/><path d="M932.759,169.263l-0,-6.189" style="fill:none;fill-rule:nonzero;stroke:#000;stroke-width:5px;stroke-miterlimit:10;"/><path d="M1413.62,968.153l-0,-0.318l0.476,-0.952l0.159,-0.476l0.158,-0.317l0.318,-0.477l0.159,-0.476l-0.159,0.476l-0.318,0.477l-0.158,0.317l-0.159,0.476" style="fill:none;fill-rule:nonzero;stroke:#000;stroke-width:5px;stroke-miterlimit:10;"/><path d="M1419.96,930.541l-0.159,1.27l0,2.539l-0.158,1.111l-0,1.269l-0.159,1.27l-0,1.111l-0.159,1.111l0,1.269l-0.159,1.111l0,1.111l-0.158,1.111l-0.159,2.063l-0.317,2.063l-0.159,2.063l-0.952,5.713l-0.318,1.111l-0.158,0.952l-0.318,0.953l-0.317,1.111l-0.318,0.952l-0.634,2.221l-0.476,1.111" style="fill:none;fill-rule:nonzero;stroke:#000;stroke-width:5px;stroke-miterlimit:10;"/><path d="M1037.18,1240.16l276.294,-159.333" style="fill:none;fill-rule:nonzero;stroke:#000;stroke-width:5px;stroke-miterlimit:10;"/><path d="M1313.48,343.99l-276.294,-159.492" style="fill:none;fill-rule:nonzero;stroke:#000;stroke-width:5px;stroke-miterlimit:10;"/><path d="M1421.71,873.727l-0,9.681l-0.159,1.904l-0,5.872l-0.159,1.745l0,3.809l-0.158,1.905l-0,3.65l-0.159,1.904l-0,1.746l-0.159,1.745l0,1.746l-0.159,1.746l0,1.745l-0.158,1.746l-0,1.746l-0.159,1.587l0,1.746l-0.159,1.587l0,1.587l-0.158,1.586l-0,3.016l-0.159,1.428l-0,1.587" style="fill:none;fill-rule:nonzero;stroke:#000;stroke-width:5px;stroke-miterlimit:10;"/><path d="M1173.51,326.851l23.963,1.27" style="fill:none;fill-rule:nonzero;stroke:#000;stroke-width:5px;stroke-miterlimit:10;"/><path d="M1414.89,459.523l0.476,1.27l0.317,1.111l0.317,0.952l0.318,1.111l0.317,0.952l0.318,1.111l0.158,0.952l0.318,0.952l0.635,3.809l0.317,2.063l0.159,1.904l0.317,2.063l0,1.111l0.159,0.953l0.158,1.11l0,1.111l0.159,1.111l0,1.27l0.159,1.111l-0,1.111l0.159,1.269l-0,1.27l0.158,1.269l0,2.54l0.159,1.269" style="fill:none;fill-rule:nonzero;stroke:#000;stroke-width:5px;stroke-miterlimit:10;"/><path d="M1006.39,215.286l0.635,2.698" style="fill:none;fill-rule:nonzero;stroke:#000;stroke-width:5px;stroke-miterlimit:10;"/><path d="M921.65,1272.85l16.822,-1.428" style="fill:none;fill-rule:nonzero;stroke:#000;stroke-width:5px;stroke-miterlimit:10;"/><path d="M1413.62,456.508l-0,0.317l0.476,0.952l0.317,0.953l0.159,0.317l0.318,0.476" style="fill:none;fill-rule:nonzero;stroke:#000;stroke-width:5px;stroke-miterlimit:10;"/><path d="M919.587,1270.95l2.063,1.904" style="fill:none;fill-rule:nonzero;stroke:#000;stroke-width:5px;stroke-miterlimit:10;"/><path d="M1419.96,494.278l-0,1.428l0.159,1.429l-0,3.174l0.158,1.587l0,1.587l0.159,1.587l0,1.587l0.159,1.745l-0,1.746l0.158,1.587l0,1.746l0.159,1.745l0,1.746l0.159,1.904l-0,1.746l0.159,1.746l-0,3.65l0.158,1.904l0,3.809l0.159,1.904l-0,5.714l0.159,1.904l-0,9.839" style="fill:none;fill-rule:nonzero;stroke:#000;stroke-width:5px;stroke-miterlimit:10;"/><path d="M1016.39,220.681l-3.809,-2.221l-2.063,-0.953l-1.904,-1.11l-2.063,-0.953l-1.905,-1.11l-2.063,-0.953l-1.904,-0.952l-2.063,-0.793l-4.126,-1.905l-12.379,-4.761l-2.222,-0.635l-2.063,-0.634l-2.063,-0.794l-2.222,-0.635l-2.063,-0.634l-2.222,-0.476l-2.063,-0.635l-2.221,-0.476l-2.064,-0.635l-2.221,-0.476l-2.063,-0.476l-2.222,-0.476l-2.222,-0.318l-2.063,-0.476l-2.222,-0.317l-3.967,-0.794l-0.635,-0.159l-0.794,-0.317l-0.634,-0.159l-0.794,-0.158l-0.635,-0.318l-0.634,-0.158l-1.27,-0.635l-0.635,-0.159l-1.269,-0.635l-0.477,-0.476l-0.634,-0.317l-0.476,-0.476l-0.635,-0.318l-0.476,-0.476l-0.476,-0.635l-0.477,-0.476l-0.952,-1.269l-0.317,-0.635l-0.317,-0.794l-0.159,-0.634l-0.318,-0.794l-0.158,-0.793l-0,-1.587" style="fill:none;fill-rule:nonzero;stroke:#000;stroke-width:5px;stroke-miterlimit:10;"/><path d="M932.759,183.705l-0,-20.631" style="fill:none;fill-rule:nonzero;stroke:#000;stroke-width:5px;stroke-miterlimit:10;"/><path d="M1389.65,546.331l1.587,2.222" style="fill:none;fill-rule:nonzero;stroke:#000;stroke-width:5px;stroke-miterlimit:10;"/><path d="M413.655,551.092l0,322.635" style="fill:none;fill-rule:nonzero;stroke:#000;stroke-width:5px;stroke-miterlimit:10;"/><path d="M1391.08,551.172c-0,-70.506 -37.616,-135.656 -98.677,-170.907" style="fill:none;fill-rule:nonzero;stroke:#000;stroke-width:5px;stroke-miterlimit:10;"/><path d="M919.587,1270.95l-0,-6.348" style="fill:none;fill-rule:nonzero;stroke:#000;stroke-width:5px;stroke-miterlimit:10;"/><path d="M919.587,1247.78l-0,-15.394" style="fill:none;fill-rule:nonzero;stroke:#000;stroke-width:5px;stroke-miterlimit:10;"/><path d="M542.836,380.174l276.136,-159.493" style="fill:none;fill-rule:nonzero;stroke:#000;stroke-width:5px;stroke-miterlimit:10;"/><path d="M1037.14,184.627c-28.909,-16.689 -60.992,-27.14 -94.184,-30.679" style="fill:none;fill-rule:nonzero;stroke:#000;stroke-width:5px;stroke-miterlimit:10;"/><path d="M919.587,1264.6l-0,-16.822" style="fill:none;fill-rule:nonzero;stroke:#000;stroke-width:5px;stroke-miterlimit:10;"/><path d="M1239.52,364.939l-0.317,-1.27" style="fill:none;fill-rule:nonzero;stroke:#000;stroke-width:5px;stroke-miterlimit:10;"/><path d="M885.466,196.877l-2.221,0.317l-2.063,0.476l-2.222,0.318l-2.222,0.476l-2.063,0.476l-2.222,0.476l-2.222,0.635l-2.063,0.476l-2.221,0.635l-2.064,0.476l-2.221,0.634l-2.063,0.635l-2.063,0.794l-2.222,0.634l-2.063,0.794l-2.063,0.635l-2.064,0.793l-2.221,0.794l-4.126,1.587l-2.064,0.952l-1.904,0.793l-4.126,1.905l-2.063,0.793l-1.905,1.111l-2.063,0.952l-1.904,0.953l-1.904,1.11l-2.064,0.953l-3.808,2.221" style="fill:none;fill-rule:nonzero;stroke:#000;stroke-width:5px;stroke-miterlimit:10;"/><path d="M421.273,966.883l-0.159,-0.476l-0.159,-0.317l-0.317,-0.477l-0.159,-0.476l0.159,0.476l0.317,0.477l0.159,0.317l0.159,0.476l0.476,0.952l-0,0.318" style="fill:none;fill-rule:nonzero;stroke:#000;stroke-width:5px;stroke-miterlimit:10;"/><path d="M914.032,1230.48l1.746,1.904" style="fill:none;fill-rule:nonzero;stroke:#000;stroke-width:5px;stroke-miterlimit:10;"/><path d="M420.479,965.137l-0.476,-1.111l-0.952,-3.332l-0.635,-1.905l-0.159,-1.11l-0.317,-0.953l-0.952,-5.713l-0.159,-2.063l-0.317,-2.063l-0,-0.952l-0.318,-2.222l0,-1.111l-0.158,-1.111l-0,-1.111l-0.159,-1.269l-0,-1.111l-0.159,-1.27l0,-1.111l-0.159,-1.269l0,-2.539l-0.158,-1.27" style="fill:none;fill-rule:nonzero;stroke:#000;stroke-width:5px;stroke-miterlimit:10;"/><path d="M818.972,1203.98l-276.136,-159.334" style="fill:none;fill-rule:nonzero;stroke:#000;stroke-width:5px;stroke-miterlimit:10;"/><path d="M913.715,1272.85l-16.822,-1.428" style="fill:none;fill-rule:nonzero;stroke:#000;stroke-width:5px;stroke-miterlimit:10;"/><path d="M415.401,930.541l-0,-1.587l-0.159,-1.428l0,-3.016l-0.159,-1.586l0,-1.587l-0.158,-1.746l-0,-1.587l-0.159,-1.746l-0,-1.587l-0.159,-1.746l0,-1.745l-0.158,-1.746l-0,-1.746l-0.159,-1.745l-0,-1.905l-0.159,-1.745l0,-3.65l-0.159,-1.905l0,-3.809l-0.158,-1.904l-0,-5.713l-0.159,-1.904l0,-9.681" style="fill:none;fill-rule:nonzero;stroke:#000;stroke-width:5px;stroke-miterlimit:10;"/><path d="M521.888,1080.83l276.294,159.333" style="fill:none;fill-rule:nonzero;stroke:#000;stroke-width:5px;stroke-miterlimit:10;"/><path d="M798.182,184.498l-276.294,159.492" style="fill:none;fill-rule:nonzero;stroke:#000;stroke-width:5px;stroke-miterlimit:10;"/><path d="M828.335,217.984l0.635,-2.698" style="fill:none;fill-rule:nonzero;stroke:#000;stroke-width:5px;stroke-miterlimit:10;"/><path d="M637.896,328.121l23.964,-1.27" style="fill:none;fill-rule:nonzero;stroke:#000;stroke-width:5px;stroke-miterlimit:10;"/><path d="M915.778,1270.95l-2.063,1.904" style="fill:none;fill-rule:nonzero;stroke:#000;stroke-width:5px;stroke-miterlimit:10;"/><path d="M915.778,1261.43l3.809,-0" style="fill:none;fill-rule:nonzero;stroke:#000;stroke-width:5px;stroke-miterlimit:10;"/><path d="M943.045,153.764c-2.669,-0.285 -5.332,0.579 -7.325,2.376c-1.993,1.796 -3.127,4.356 -3.12,7.039" style="fill:none;fill-rule:nonzero;stroke:#000;stroke-width:5px;stroke-miterlimit:10;"/><path d="M420.479,459.523l0.317,-0.476l0.159,-0.317l0.318,-0.953l0.476,-0.952l-0,-0.317" style="fill:none;fill-rule:nonzero;stroke:#000;stroke-width:5px;stroke-miterlimit:10;"/><path d="M420.479,459.523l0.317,-0.476l0.318,-0.952l0.317,-0.476" style="fill:none;fill-rule:nonzero;stroke:#000;stroke-width:5px;stroke-miterlimit:10;"/><path d="M415.401,494.278l0.158,-1.269l0,-2.54l0.159,-1.269l0,-1.27l0.159,-1.111l-0,-1.269l0.159,-1.111l-0,-1.111l0.158,-1.111l0,-1.111l0.159,-1.111l0.159,-2.222l0.317,-2.063l0.159,-1.904l0.317,-2.063l0.635,-3.809l0.317,-0.952l0.159,-0.952l0.317,-1.111l0.318,-0.952l0.635,-2.222l0.317,-0.952l0.476,-1.27" style="fill:none;fill-rule:nonzero;stroke:#000;stroke-width:5px;stroke-miterlimit:10;"/><path d="M1313.27,1080.86c45.608,-26.33 81.247,-66.983 101.382,-115.646" style="fill:none;fill-rule:nonzero;stroke:#000;stroke-width:5px;stroke-miterlimit:10;"/><path d="M1414.66,459.764c-20.135,-48.662 -55.774,-89.315 -101.383,-115.646" style="fill:none;fill-rule:nonzero;stroke:#000;stroke-width:5px;stroke-miterlimit:10;"/><path d="M1239.03,363.819c-0.126,-0.6 -0.265,-1.196 -0.416,-1.79" style="fill:none;fill-rule:nonzero;stroke:#000;stroke-width:5px;stroke-miterlimit:10;"/><path d="M938.343,1271.32c34.81,-3.031 68.532,-13.655 98.793,-31.125" style="fill:none;fill-rule:nonzero;stroke:#000;stroke-width:5px;stroke-miterlimit:10;"/><path d="M1239.03,363.819c-0.126,-0.599 -0.265,-1.196 -0.416,-1.79" style="fill:none;fill-rule:nonzero;stroke:#000;stroke-width:5px;stroke-miterlimit:10;"/><path d="M413.655,551.092l0,-9.839l0.159,-1.904l-0,-5.714l0.158,-1.904l0,-3.809l0.159,-1.904l0,-3.65l0.159,-1.746l-0,-1.904l0.159,-1.746l-0,-1.746l0.158,-1.745l0,-1.746l0.159,-1.746l-0,-1.587l0.159,-1.745l-0,-1.587l0.158,-1.587l0,-1.587l0.159,-1.587l0,-3.174l0.159,-1.429l-0,-1.428" style="fill:none;fill-rule:nonzero;stroke:#000;stroke-width:5px;stroke-miterlimit:10;"/><path d="M902.606,163.074l-0,6.189" style="fill:none;fill-rule:nonzero;stroke:#000;stroke-width:5px;stroke-miterlimit:10;"/><path d="M542.802,380.266c-61.061,35.25 -98.676,100.4 -98.676,170.905" style="fill:none;fill-rule:nonzero;stroke:#000;stroke-width:5px;stroke-miterlimit:10;"/><path d="M819.13,236.075l-268.359,154.89" style="fill:none;fill-rule:nonzero;stroke:#000;stroke-width:5px;stroke-miterlimit:10;"/><path d="M902.606,169.263l-0,14.442" style="fill:none;fill-rule:nonzero;stroke:#000;stroke-width:5px;stroke-miterlimit:10;"/><path d="M902.606,183.705l-0,1.587l-0.159,0.793l-0.317,0.794l-0.159,0.634l-0.317,0.794l-0.318,0.635l-0.952,1.269l-0.476,0.476l-0.476,0.635l-0.476,0.476l-0.635,0.318l-0.476,0.476l-0.635,0.317l-0.476,0.476l-1.269,0.635l-0.635,0.159l-1.27,0.635l-0.635,0.158l-0.634,0.318l-0.794,0.158l-0.635,0.159l-0.793,0.317l-0.635,0.159l-3.968,0.794" style="fill:none;fill-rule:nonzero;stroke:#000;stroke-width:5px;stroke-miterlimit:10;"/><path d="M798.07,1240.19c30.261,17.47 63.983,28.094 98.793,31.126" style="fill:none;fill-rule:nonzero;stroke:#000;stroke-width:5px;stroke-miterlimit:10;"/><path d="M420.55,965.214c20.135,48.662 55.774,89.315 101.383,115.646" style="fill:none;fill-rule:nonzero;stroke:#000;stroke-width:5px;stroke-miterlimit:10;"/><path d="M521.934,344.119c-45.608,26.33 -81.247,66.983 -101.382,115.645" style="fill:none;fill-rule:nonzero;stroke:#000;stroke-width:5px;stroke-miterlimit:10;"/><path d="M892.253,153.948c-33.192,3.539 -65.275,13.99 -94.183,30.679" style="fill:none;fill-rule:nonzero;stroke:#000;stroke-width:5px;stroke-miterlimit:10;"/><path d="M1284.59,390.965l-268.36,-154.89" style="fill:none;fill-rule:nonzero;stroke:#000;stroke-width:5px;stroke-miterlimit:10;"/><path d="M902.073,166.281c1.073,-3.056 0.504,-6.449 -1.506,-8.989c-2.011,-2.54 -5.184,-3.872 -8.405,-3.528" style="fill:none;fill-rule:nonzero;stroke:#000;stroke-width:5px;stroke-miterlimit:10;"/><path d="M596.593,362.029c-0.151,0.594 -0.29,1.191 -0.416,1.79" style="fill:none;fill-rule:nonzero;stroke:#000;stroke-width:5px;stroke-miterlimit:10;"/><path d="M596.593,362.029c-0.151,0.594 -0.29,1.19 -0.416,1.79" style="fill:none;fill-rule:nonzero;stroke:#000;stroke-width:5px;stroke-miterlimit:10;"/><path d="M550.678,391.118c-1.248,0.718 -2.488,1.45 -3.72,2.195" style="fill:none;fill-rule:nonzero;stroke:#000;stroke-width:5px;stroke-miterlimit:10;"/><path d="M444.76,713.282l0,-147.431" style="fill:none;fill-rule:nonzero;stroke:#000;stroke-width:5px;stroke-miterlimit:10;"/><path d="M444.76,713.282l-0.317,160.762" style="fill:none;fill-rule:nonzero;stroke:#000;stroke-width:5px;stroke-miterlimit:10;"/><path d="M1288.25,393.313c-1.232,-0.745 -2.472,-1.477 -3.72,-2.195" style="fill:none;fill-rule:nonzero;stroke:#000;stroke-width:5px;stroke-miterlimit:10;"/><path d="M444.125,548.553l1.587,-2.222" style="fill:none;fill-rule:nonzero;stroke:#000;stroke-width:5px;stroke-miterlimit:10;"/><path d="M915.778,1264.6l-0,6.348" style="fill:none;fill-rule:nonzero;stroke:#000;stroke-width:5px;stroke-miterlimit:10;"/><path d="M915.778,1247.78l-0,16.822" style="fill:none;fill-rule:nonzero;stroke:#000;stroke-width:5px;stroke-miterlimit:10;"/><path d="M1016.23,1203.98l276.136,-159.492" style="fill:none;fill-rule:nonzero;stroke:#000;stroke-width:5px;stroke-miterlimit:10;"/><path d="M1013.66,234.642c-3.482,-1.946 -7.022,-3.787 -10.616,-5.519" style="fill:none;fill-rule:nonzero;stroke:#000;stroke-width:5px;stroke-miterlimit:10;"/><path d="M1390.92,874.044l-0.317,-160.762" style="fill:none;fill-rule:nonzero;stroke:#000;stroke-width:5px;stroke-miterlimit:10;"/><path d="M915.778,1239.85l-0,7.935" style="fill:none;fill-rule:nonzero;stroke:#000;stroke-width:5px;stroke-miterlimit:10;"/><path d="M1390.61,713.282l-0,-147.431" style="fill:none;fill-rule:nonzero;stroke:#000;stroke-width:5px;stroke-miterlimit:10;"/><path d="M915.778,1232.39l-0,7.459" style="fill:none;fill-rule:nonzero;stroke:#000;stroke-width:5px;stroke-miterlimit:10;"/><path d="M596.159,363.669l-0.318,1.27" style="fill:none;fill-rule:nonzero;stroke:#000;stroke-width:5px;stroke-miterlimit:10;"/><path d="M543.312,395.25l3.65,-2.063" style="fill:none;fill-rule:nonzero;stroke:#000;stroke-width:5px;stroke-miterlimit:10;"/><path d="M543.312,395.25l-3.015,1.904l-3.016,1.746l-3.015,1.905l-3.015,2.063l-2.857,1.904l-2.856,2.063l-2.857,2.222l-2.698,2.063l-2.856,2.222l-2.698,2.222l-2.539,2.221l-2.698,2.381l-5.079,4.761l-2.38,2.539l-2.381,2.38l-4.761,5.079l-2.221,2.698l-2.222,2.539l-2.222,2.698l-4.126,5.395l-2.063,2.857l-1.905,2.698l-5.713,8.57l-1.745,2.856l-1.587,3.016l-1.746,2.856l-1.587,3.015" style="fill:none;fill-rule:nonzero;stroke:#000;stroke-width:5px;stroke-miterlimit:10;"/><path d="M1288.4,393.187l3.65,2.063" style="fill:none;fill-rule:nonzero;stroke:#000;stroke-width:5px;stroke-miterlimit:10;"/><path d="M1367.91,474.123l-1.587,-3.015l-1.746,-2.856l-1.587,-3.016l-1.746,-2.856l-5.713,-8.57l-1.904,-2.698l-2.063,-2.857l-4.126,-5.395l-2.222,-2.698l-2.222,-2.539l-2.222,-2.698l-4.761,-5.079l-2.38,-2.38l-2.381,-2.539l-5.078,-4.761l-2.698,-2.381l-2.539,-2.221l-2.698,-2.222l-2.857,-2.222l-2.697,-2.063l-2.857,-2.222l-2.857,-2.063l-2.856,-1.904l-3.015,-2.063l-3.016,-1.905l-3.015,-1.746l-3.015,-1.904" style="fill:none;fill-rule:nonzero;stroke:#000;stroke-width:5px;stroke-miterlimit:10;"/><path d="M1016.23,236.075l-2.063,-1.269l-2.063,-1.111l-2.222,-1.111l-2.063,-1.111l-2.222,-1.111l-9.521,-4.443l-2.54,-1.111l-2.539,-0.953l-2.698,-1.11l-2.698,-0.953l-2.697,-1.111l-2.857,-0.952l-2.857,-0.793l-2.856,-0.952l-3.015,-0.953l-3.016,-0.793l-3.174,-0.794l-3.015,-0.634l-3.174,-0.794l-3.015,-0.635l-3.174,-0.634l-9.522,-1.429l-3.015,-0.317l-3.174,-0.476l-3.174,-0.159l-3.333,-0.317l-6.348,-0.318l-3.174,0l-3.174,-0.158l-3.174,-0l-3.333,0.158l-3.174,0.159l-3.332,0.159l-3.492,0.317l-3.332,0.317l-5.237,0.477l-1.905,0.317l-1.745,0.317l-1.746,0.159l-1.905,0.317l-1.745,0.318l-1.905,0.317l-1.904,0.476l-1.746,0.318l-1.904,0.317l-7.618,1.905l-2.063,0.476l-1.904,0.476l-1.904,0.634l-1.905,0.477l-3.809,1.269l-1.745,0.635l-1.905,0.476l-5.237,1.904l-1.745,0.794l-3.492,1.27l-1.587,0.634l-1.587,0.794l-1.587,0.635l-1.587,0.793l-1.587,0.635l-1.587,0.793l-1.587,0.635l-2.856,1.587l-1.587,0.635l-1.429,0.793l-1.269,0.794l-1.428,0.635l-1.429,0.793l-1.269,0.794l-1.429,0.793" style="fill:none;fill-rule:nonzero;stroke:#000;stroke-width:5px;stroke-miterlimit:10;"/><path d="M947.042,211.794l3.808,0.635l2.063,0.318l1.905,0.476l2.063,0.317l2.063,0.476l1.904,0.476l2.063,0.476l9.522,2.381l1.746,0.635l1.904,0.476l1.746,0.634l1.746,0.477l5.237,1.904l1.587,0.476l1.746,0.635l4.761,1.904l1.428,0.635l1.587,0.794l1.428,0.634l1.587,0.635l4.285,1.905" style="fill:none;fill-rule:nonzero;stroke:#000;stroke-width:5px;stroke-miterlimit:10;"/><path d="M821.67,234.647l2.221,-1.27l4.761,-2.539l2.54,-1.111l5.078,-2.539l2.698,-1.111l2.856,-1.269l2.698,-1.111l3.015,-1.111l2.857,-1.111l3.015,-1.111l3.174,-0.952l3.174,-1.111l3.174,-0.952l3.333,-0.794l3.174,-0.952l3.174,-0.793l9.522,-1.905l3.015,-0.635l3.015,-0.476l3.016,-0.317l3.015,-0.476l3.015,-0.318l2.857,-0.317l8.57,-0.476l2.697,-0.159l2.857,0" style="fill:none;fill-rule:nonzero;stroke:#000;stroke-width:5px;stroke-miterlimit:10;"/></g><g id="Dark"><path d="M876.738,295.587l-0.159,-5.554l0,-5.555" style="fill:none;fill-rule:nonzero;stroke:#000;stroke-width:5px;stroke-miterlimit:10;"/><path d="M958.785,284.478l0,5.555l-0.158,5.554" style="fill:none;fill-rule:nonzero;stroke:#000;stroke-width:5px;stroke-miterlimit:10;"/><path d="M919.904,1122.57l-4.443,-0l-0,50.148l4.443,0l0,-50.148" style="fill:none;fill-rule:nonzero;stroke:#000;stroke-width:5px;stroke-miterlimit:10;"/><path d="M509.985,687.415l-3.967,0.158l-3.968,0.952l-3.809,1.429l-3.491,1.904l-3.174,2.539l-2.698,3.016l-2.38,3.332l-1.746,3.65l-1.111,3.809l-0.635,3.968l0,4.126l0.635,3.967l1.111,3.809l1.746,3.65l2.38,3.333l2.698,3.015l3.174,2.539l3.491,1.905l3.809,1.428l3.968,0.952l3.967,0.159" style="fill:none;fill-rule:nonzero;stroke:#000;stroke-width:5px;stroke-miterlimit:10;"/><path d="M1325.38,741.055l3.968,-0.159l3.967,-0.952l3.809,-1.428l3.492,-1.905l3.174,-2.539l2.697,-3.015l2.381,-3.333l1.746,-3.65l1.11,-3.809l0.635,-3.967l0,-4.126l-0.635,-3.968l-1.11,-3.809l-1.746,-3.65l-2.381,-3.332l-2.697,-3.016l-3.174,-2.539l-3.492,-1.904l-3.809,-1.429l-3.967,-0.952l-3.968,-0.158" style="fill:none;fill-rule:nonzero;stroke:#000;stroke-width:5px;stroke-miterlimit:10;"/><path d="M1306.65,687.573l6.665,-0.158l6.507,-0" style="fill:none;fill-rule:nonzero;stroke:#000;stroke-width:5px;stroke-miterlimit:10;"/><path d="M903.072,1171.21l-0,-47.134" style="fill:none;fill-rule:nonzero;stroke:#000;stroke-width:5px;stroke-miterlimit:10;"/><path d="M919.587,1183.82l-3.809,0" style="fill:none;fill-rule:nonzero;stroke:#000;stroke-width:5px;stroke-miterlimit:10;"/><path d="M932.124,1124l-0,47.133" style="fill:none;fill-rule:nonzero;stroke:#000;stroke-width:5px;stroke-miterlimit:10;"/><path d="M527.759,740.896l13.649,0" style="fill:none;fill-rule:nonzero;stroke:#000;stroke-width:5px;stroke-miterlimit:10;"/><path d="M891.973,1116.85l0.159,-0.634l0.317,-0.476l0.318,-1.111l0.634,-1.111l0.635,-0.952l0.318,-0.635l0.317,-0.476l0.317,-0.635l0.477,-0.476l0.317,-0.476l0.317,-0.635l0.476,-0.476l0.318,-0.476" style="fill:none;fill-rule:nonzero;stroke:#000;stroke-width:5px;stroke-miterlimit:10;"/><path d="M919.587,1111.46l-3.809,-0" style="fill:none;fill-rule:nonzero;stroke:#000;stroke-width:5px;stroke-miterlimit:10;"/><path d="M515.54,687.415l-5.555,-0" style="fill:none;fill-rule:nonzero;stroke:#000;stroke-width:5px;stroke-miterlimit:10;"/><path d="M891.973,1116.85l-0.635,2.222l0,0.476l-0.158,0.635l-0,0.476l-0.159,0.318l-0,0.158" style="fill:none;fill-rule:nonzero;stroke:#000;stroke-width:5px;stroke-miterlimit:10;"/><path d="M514.587,741.055l-4.602,-0" style="fill:none;fill-rule:nonzero;stroke:#000;stroke-width:5px;stroke-miterlimit:10;"/><path d="M890.704,1161.61l-0,-5.395l0.158,-1.746l0,-20.472" style="fill:none;fill-rule:nonzero;stroke:#000;stroke-width:5px;stroke-miterlimit:10;"/><path d="M944.502,1133.99l0,20.472l0.159,1.746l0,5.395" style="fill:none;fill-rule:nonzero;stroke:#000;stroke-width:5px;stroke-miterlimit:10;"/><path d="M943.392,1116.85l0.634,2.222l0,0.476l0.159,0.635l0,0.476l0.159,0.318l-0,0.158" style="fill:none;fill-rule:nonzero;stroke:#000;stroke-width:5px;stroke-miterlimit:10;"/><path d="M903.082,1171.21c0,6.968 5.649,12.616 12.617,12.616" style="fill:none;fill-rule:nonzero;stroke:#000;stroke-width:5px;stroke-miterlimit:10;"/><path d="M919.507,1183.82c6.968,0 12.617,-5.648 12.617,-12.616" style="fill:none;fill-rule:nonzero;stroke:#000;stroke-width:5px;stroke-miterlimit:10;"/><path d="M938.472,1108.28l0.317,0.476l0.476,0.476l0.318,0.635l0.317,0.476l0.476,0.476l0.318,0.635l0.634,0.952l0.318,0.635l0.317,0.476l0.635,1.111l0.317,1.111l0.318,0.476l0.159,0.634" style="fill:none;fill-rule:nonzero;stroke:#000;stroke-width:5px;stroke-miterlimit:10;"/><path d="M527.708,740.932c-4.43,0.023 -8.836,0.057 -13.202,0.103" style="fill:none;fill-rule:nonzero;stroke:#000;stroke-width:5px;stroke-miterlimit:10;"/><path d="M932.124,1124.07c-0,-6.968 -5.649,-12.616 -12.617,-12.616" style="fill:none;fill-rule:nonzero;stroke:#000;stroke-width:5px;stroke-miterlimit:10;"/><path d="M876.579,281.622l0,2.856" style="fill:none;fill-rule:nonzero;stroke:#000;stroke-width:5px;stroke-miterlimit:10;"/><path d="M958.785,281.622l0,2.856" style="fill:none;fill-rule:nonzero;stroke:#000;stroke-width:5px;stroke-miterlimit:10;"/><path d="M915.699,1111.46c-6.968,-0 -12.617,5.648 -12.617,12.616" style="fill:none;fill-rule:nonzero;stroke:#000;stroke-width:5px;stroke-miterlimit:10;"/><path d="M515.318,687.593c4.365,0.046 8.77,0.08 13.199,0.103" style="fill:none;fill-rule:nonzero;stroke:#000;stroke-width:5px;stroke-miterlimit:10;"/><path d="M876.738,295.587l0,14.759" style="fill:none;fill-rule:nonzero;stroke:#000;stroke-width:5px;stroke-miterlimit:10;"/><path d="M958.627,310.346l-0,-14.759" style="fill:none;fill-rule:nonzero;stroke:#000;stroke-width:5px;stroke-miterlimit:10;"/><path d="M528.712,687.573l13.648,0" style="fill:none;fill-rule:nonzero;stroke:#000;stroke-width:5px;stroke-miterlimit:10;"/><path d="M1307.61,740.896l-13.648,0" style="fill:none;fill-rule:nonzero;stroke:#000;stroke-width:5px;stroke-miterlimit:10;"/><path d="M938.37,1108.26c-4.938,-6.482 -12.619,-10.287 -20.767,-10.287c-8.148,0 -15.829,3.805 -20.767,10.287" style="fill:none;fill-rule:nonzero;stroke:#000;stroke-width:5px;stroke-miterlimit:10;"/><path d="M876.579,281.622l0.159,-0.952l0,-0.953l0.635,-3.808l0.317,-0.953l0.159,-0.952l0.317,-0.952l0.159,-0.952l0.635,-1.905l0.317,-0.793l0.476,-0.952l0.318,-0.952l0.317,-0.794l0.476,-0.952l1.429,-2.381l0.476,-0.952l0.952,-1.587l0.635,-0.635l0.476,-0.793l1.269,-1.587l0.635,-0.635l0.635,-0.793l0.635,-0.635l0.634,-0.794l0.635,-0.634l0.794,-0.635l0.635,-0.635l2.38,-1.904l0.794,-0.476l0.793,-0.635l0.794,-0.476l0.793,-0.635l0.952,-0.476l0.794,-0.476l0.952,-0.476l0.793,-0.477l0.953,-0.317l0.952,-0.476l0.793,-0.317l4.761,-1.587l0.952,-0.159l0.953,-0.318l3.808,-0.634l0.953,-0l0.952,-0.159l5.713,-0l0.952,0.159l0.952,-0l3.809,0.634l0.952,0.318l0.952,0.159l4.761,1.587l0.794,0.317l0.952,0.476l0.952,0.317l0.794,0.477l0.952,0.476l0.793,0.476l0.953,0.476l0.793,0.635l0.794,0.476l0.793,0.635l0.794,0.476l2.38,1.904l0.635,0.635l0.793,0.635l0.635,0.634l0.635,0.794l0.635,0.635l0.635,0.793l0.634,0.635l1.27,1.587l0.476,0.793l0.635,0.635l0.952,1.587l0.476,0.952l1.428,2.381l0.477,0.952l0.317,0.794l0.317,0.952l0.476,0.952l0.318,0.793l0.635,1.905l0.158,0.952l0.318,0.952l0.158,0.952l0.318,0.953l0.635,3.808l-0,0.953l0.158,0.952" style="fill:none;fill-rule:nonzero;stroke:#000;stroke-width:5px;stroke-miterlimit:10;"/><path d="M541.408,740.896l223.924,0" style="fill:none;fill-rule:nonzero;stroke:#000;stroke-width:5px;stroke-miterlimit:10;"/><path d="M891.021,866.585l-0,254.553" style="fill:none;fill-rule:nonzero;stroke:#000;stroke-width:5px;stroke-miterlimit:10;"/><path d="M1293.01,687.573l13.648,0" style="fill:none;fill-rule:nonzero;stroke:#000;stroke-width:5px;stroke-miterlimit:10;"/><path d="M890.862,1133.99l0,-9.998" style="fill:none;fill-rule:nonzero;stroke:#000;stroke-width:5px;stroke-miterlimit:10;"/><path d="M944.502,1133.99l0,-9.998" style="fill:none;fill-rule:nonzero;stroke:#000;stroke-width:5px;stroke-miterlimit:10;"/><path d="M891.021,866.665c-0,-69.46 -56.309,-125.769 -125.769,-125.769" style="fill:none;fill-rule:nonzero;stroke:#000;stroke-width:5px;stroke-miterlimit:10;"/><path d="M891.018,1121.19c-0.104,0.958 -0.156,1.921 -0.156,2.884" style="fill:none;fill-rule:nonzero;stroke:#000;stroke-width:5px;stroke-miterlimit:10;"/><path d="M944.344,1121.14l-0,-254.553" style="fill:none;fill-rule:nonzero;stroke:#000;stroke-width:5px;stroke-miterlimit:10;"/><path d="M1070.03,740.896l223.924,0" style="fill:none;fill-rule:nonzero;stroke:#000;stroke-width:5px;stroke-miterlimit:10;"/><path d="M944.344,1124.07c-0,-0.963 -0.052,-1.926 -0.156,-2.884" style="fill:none;fill-rule:nonzero;stroke:#000;stroke-width:5px;stroke-miterlimit:10;"/><path d="M1069.95,740.896c-69.46,0 -125.769,56.309 -125.769,125.769" style="fill:none;fill-rule:nonzero;stroke:#000;stroke-width:5px;stroke-miterlimit:10;"/><path d="M944.661,1161.61l0,7.618" style="fill:none;fill-rule:nonzero;stroke:#000;stroke-width:5px;stroke-miterlimit:10;"/><path d="M890.704,1169.22l-0,-7.618" style="fill:none;fill-rule:nonzero;stroke:#000;stroke-width:5px;stroke-miterlimit:10;"/><path d="M944.661,1169.22l0,2.698l-0.159,1.269l-0.317,1.429l-0.159,1.269l-0.476,1.27l-0.317,1.27l-0.476,1.269l-0.635,1.27l-0.476,1.269l-0.635,1.111l-1.587,2.222l-2.38,2.857l-0.953,0.952l-1.111,0.952l-0.952,0.793l-1.111,0.794l-1.11,0.635l-1.27,0.793l-1.111,0.635l-3.809,1.428l-1.428,0.318l-1.27,0.317l-2.539,0.317l-1.428,0.159l-2.539,0l-1.429,-0.159l-2.539,-0.317l-1.269,-0.317l-1.429,-0.318l-3.808,-1.428l-1.111,-0.635l-1.27,-0.793l-1.111,-0.635l-1.111,-0.794l-0.952,-0.793l-1.111,-0.952l-0.952,-0.952l-2.38,-2.857l-1.587,-2.222l-0.635,-1.111l-0.476,-1.269l-0.635,-1.27l-0.476,-1.269l-0.318,-1.27l-0.476,-1.27l-0.158,-1.269l-0.318,-1.429l-0.158,-1.269l-0,-2.698" style="fill:none;fill-rule:nonzero;stroke:#000;stroke-width:5px;stroke-miterlimit:10;"/><path d="M876.738,310.346l-0.159,21.698" style="fill:none;fill-rule:nonzero;stroke:#000;stroke-width:5px;stroke-miterlimit:10;"/><path d="M891.021,374.937l-0,186.947" style="fill:none;fill-rule:nonzero;stroke:#000;stroke-width:5px;stroke-miterlimit:10;"/><path d="M765.332,687.573l-222.972,0" style="fill:none;fill-rule:nonzero;stroke:#000;stroke-width:5px;stroke-miterlimit:10;"/><path d="M1320.78,741.055l4.602,-0" style="fill:none;fill-rule:nonzero;stroke:#000;stroke-width:5px;stroke-miterlimit:10;"/><path d="M1320.7,741.035c-4.366,-0.046 -8.772,-0.08 -13.202,-0.103" style="fill:none;fill-rule:nonzero;stroke:#000;stroke-width:5px;stroke-miterlimit:10;"/><path d="M876.579,332.167c0,8.877 2.879,17.514 8.205,24.615" style="fill:none;fill-rule:nonzero;stroke:#000;stroke-width:5px;stroke-miterlimit:10;"/><path d="M890.862,375.016c0,-6.576 -2.132,-12.974 -6.078,-18.234" style="fill:none;fill-rule:nonzero;stroke:#000;stroke-width:5px;stroke-miterlimit:10;"/><path d="M765.252,687.573c69.373,0 125.61,-56.237 125.61,-125.61" style="fill:none;fill-rule:nonzero;stroke:#000;stroke-width:5px;stroke-miterlimit:10;"/><path d="M1325.38,687.415l-5.554,-0" style="fill:none;fill-rule:nonzero;stroke:#000;stroke-width:5px;stroke-miterlimit:10;"/><path d="M944.344,561.963c-0,69.373 56.237,125.61 125.61,125.61" style="fill:none;fill-rule:nonzero;stroke:#000;stroke-width:5px;stroke-miterlimit:10;"/><path d="M1293.01,687.573l-222.972,0" style="fill:none;fill-rule:nonzero;stroke:#000;stroke-width:5px;stroke-miterlimit:10;"/><path d="M950.422,356.781c-3.945,5.261 -6.078,11.659 -6.078,18.235" style="fill:none;fill-rule:nonzero;stroke:#000;stroke-width:5px;stroke-miterlimit:10;"/><path d="M950.422,356.782c5.326,-7.102 8.205,-15.738 8.205,-24.615" style="fill:none;fill-rule:nonzero;stroke:#000;stroke-width:5px;stroke-miterlimit:10;"/><path d="M944.344,561.884l-0,-186.947" style="fill:none;fill-rule:nonzero;stroke:#000;stroke-width:5px;stroke-miterlimit:10;"/><path d="M958.627,332.088l-0,-21.742" style="fill:none;fill-rule:nonzero;stroke:#000;stroke-width:5px;stroke-miterlimit:10;"/></g><g id="Eyes"><path d="M786.597,330.501l-1.746,-4.285l-2.221,-4.126l-2.698,-3.809l-3.174,-3.491l-3.492,-2.857l-3.967,-2.539l-4.285,-2.063l-4.443,-1.428l-4.603,-0.794l-4.602,-0.158l-4.602,0.317l-4.603,0.952l-4.443,1.428l-4.126,2.063" style="fill:none;fill-rule:nonzero;stroke:#000;stroke-width:5px;stroke-miterlimit:10;"/><path d="M699.313,329.549l-4.602,3.015l-4.285,3.333l-3.809,3.967l-3.333,4.126l-3.015,4.603l-2.381,4.919l-1.904,5.079l-1.428,5.237l-0.794,5.396l-0.158,5.395" style="fill:none;fill-rule:nonzero;stroke:#000;stroke-width:5px;stroke-miterlimit:10;"/><path d="M673.762,398.9l0,-3.174" style="fill:none;fill-rule:nonzero;stroke:#000;stroke-width:5px;stroke-miterlimit:10;"/><path d="M788.184,341.61l0,18.885" style="fill:none;fill-rule:nonzero;stroke:#000;stroke-width:5px;stroke-miterlimit:10;"/><path d="M1161.76,374.619l-0.159,-5.395l-0.793,-5.396l-1.428,-5.237l-1.905,-5.079l-2.38,-4.919l-3.016,-4.603l-3.332,-4.126l-3.809,-3.967l-4.285,-3.333l-4.602,-3.015" style="fill:none;fill-rule:nonzero;stroke:#000;stroke-width:5px;stroke-miterlimit:10;"/><path d="M1101.77,309.711l-4.126,-2.063l-4.444,-1.428l-4.602,-0.952l-4.602,-0.317l-4.603,0.158l-4.602,0.794l-4.443,1.428l-4.285,2.063l-3.968,2.539l-3.491,2.857l-3.174,3.491l-2.698,3.809l-2.222,4.126l-1.745,4.285" style="fill:none;fill-rule:nonzero;stroke:#000;stroke-width:5px;stroke-miterlimit:10;"/><path d="M1047.18,360.495l-0,-18.885" style="fill:none;fill-rule:nonzero;stroke:#000;stroke-width:5px;stroke-miterlimit:10;"/><path d="M733.592,309.711l-34.279,19.838" style="fill:none;fill-rule:nonzero;stroke:#000;stroke-width:5px;stroke-miterlimit:10;"/><path d="M788.184,341.61l0,-2.857l-0.159,-1.428l-0.158,-1.27l-0.635,-2.856l-0.317,-1.27l-0.318,-1.428" style="fill:none;fill-rule:nonzero;stroke:#000;stroke-width:5px;stroke-miterlimit:10;"/><path d="M673.604,374.619l0.158,21.107" style="fill:none;fill-rule:nonzero;stroke:#000;stroke-width:5px;stroke-miterlimit:10;"/><path d="M1048.77,330.501l-0.318,1.428l-0.317,1.27l-0.635,2.856l-0.159,1.27l-0.158,1.428l-0,2.857" style="fill:none;fill-rule:nonzero;stroke:#000;stroke-width:5px;stroke-miterlimit:10;"/><path d="M728.196,430.164l34.279,-19.679" style="fill:none;fill-rule:nonzero;stroke:#000;stroke-width:5px;stroke-miterlimit:10;"/><path d="M788.184,360.495l0,5.396" style="fill:none;fill-rule:nonzero;stroke:#000;stroke-width:5px;stroke-miterlimit:10;"/><path d="M673.762,398.9l0,1.428l0.318,3.174l0.952,4.761l0.952,2.857l1.904,4.285l0.635,1.269l0.794,1.429l0.952,1.269l0.793,1.27l0.953,1.111" style="fill:none;fill-rule:nonzero;stroke:#000;stroke-width:5px;stroke-miterlimit:10;"/><path d="M1161.6,398.9l0,1.428l-0.317,3.174l-0.952,4.761l-0.952,2.857l-0.635,1.587l-0.635,1.27l-0.635,1.428l-0.635,1.269l-0.793,1.429l-0.952,1.269l-0.794,1.27l-0.952,1.111" style="fill:none;fill-rule:nonzero;stroke:#000;stroke-width:5px;stroke-miterlimit:10;"/><path d="M762.434,410.569c15.934,-9.199 25.75,-26.2 25.75,-44.599" style="fill:none;fill-rule:nonzero;stroke:#000;stroke-width:5px;stroke-miterlimit:10;"/><path d="M1161.6,395.726l0,3.174" style="fill:none;fill-rule:nonzero;stroke:#000;stroke-width:5px;stroke-miterlimit:10;"/><path d="M1161.6,395.726l0.159,-21.107" style="fill:none;fill-rule:nonzero;stroke:#000;stroke-width:5px;stroke-miterlimit:10;"/><path d="M1136.05,329.549l-34.279,-19.838" style="fill:none;fill-rule:nonzero;stroke:#000;stroke-width:5px;stroke-miterlimit:10;"/><path d="M1047.02,365.97c-0,18.399 9.816,35.4 25.75,44.599" style="fill:none;fill-rule:nonzero;stroke:#000;stroke-width:5px;stroke-miterlimit:10;"/><path d="M681.983,421.971c11.257,13.73 30.8,17.29 46.175,8.412" style="fill:none;fill-rule:nonzero;stroke:#000;stroke-width:5px;stroke-miterlimit:10;"/><path d="M1047.18,365.891l-0,-5.396" style="fill:none;fill-rule:nonzero;stroke:#000;stroke-width:5px;stroke-miterlimit:10;"/><path d="M1107.05,430.384c15.376,8.877 34.919,5.315 46.175,-8.416" style="fill:none;fill-rule:nonzero;stroke:#000;stroke-width:5px;stroke-miterlimit:10;"/><path d="M1072.89,410.485l34.279,19.679" style="fill:none;fill-rule:nonzero;stroke:#000;stroke-width:5px;stroke-miterlimit:10;"/></g><g id="Marker-gripper" serif:id="Marker gripper"><path d="M985.129,714.314c0,-37.294 -30.232,-67.526 -67.526,-67.526c-37.294,-0 -67.526,30.232 -67.526,67.526c-0,37.294 30.232,67.526 67.526,67.526c37.294,0 67.526,-30.232 67.526,-67.526" style="fill:none;fill-rule:nonzero;stroke:#000;stroke-width:5px;stroke-miterlimit:10;"/><path d="M943.452,709.66c-1.083,-6.012 -4.227,-11.46 -8.893,-15.404" style="fill:none;fill-rule:nonzero;stroke:#000;stroke-width:5px;stroke-miterlimit:10;"/><path d="M958.399,719.942c2.573,-18.651 -7.831,-36.673 -25.27,-43.772" style="fill:none;fill-rule:nonzero;stroke:#000;stroke-width:5px;stroke-miterlimit:10;"/><path d="M892.332,746.831c14.866,11.554 35.676,11.554 50.542,-0" style="fill:none;fill-rule:nonzero;stroke:#000;stroke-width:5px;stroke-miterlimit:10;"/><path d="M902.077,676.17c-17.439,7.099 -27.843,25.121 -25.27,43.772" style="fill:none;fill-rule:nonzero;stroke:#000;stroke-width:5px;stroke-miterlimit:10;"/><path d="M908.71,739.027c5.748,2.069 12.038,2.069 17.786,0" style="fill:none;fill-rule:nonzero;stroke:#000;stroke-width:5px;stroke-miterlimit:10;"/><path d="M869.077,761.261c-1.275,-1.316 -3.262,-2.057 -8.242,1.668" style="fill:none;fill-rule:nonzero;stroke:#000;stroke-width:5px;stroke-miterlimit:10;"/><path d="M852.505,750.433c5.313,-2.61 5.139,-4.996 4.338,-6.644" style="fill:none;fill-rule:nonzero;stroke:#000;stroke-width:5px;stroke-miterlimit:10;"/><path d="M975.502,749.057c-1.508,2.777 -0.616,4.384 3.671,7.252" style="fill:none;fill-rule:nonzero;stroke:#000;stroke-width:5px;stroke-miterlimit:10;"/><path d="M970.058,767.666c-2.605,-2.258 -5.718,-4.46 -8.24,-2.371" style="fill:none;fill-rule:nonzero;stroke:#000;stroke-width:5px;stroke-miterlimit:10;"/><path d="M992.429,714.314c0,-41.326 -33.5,-74.826 -74.826,-74.826c-41.326,-0 -74.826,33.5 -74.826,74.826c-0,41.326 33.5,74.826 74.826,74.826c41.326,0 74.826,-33.5 74.826,-74.826" style="fill:none;fill-rule:nonzero;stroke:#000;stroke-width:5px;stroke-miterlimit:10;"/><path d="M934.431,751.882l-1.111,-1.746l-0.952,-1.587l-1.111,-1.746l-3.809,-6.348l-0.952,-1.428" style="fill:none;fill-rule:nonzero;stroke:#000;stroke-width:5px;stroke-miterlimit:10;"/><path d="M908.795,738.992l-0.952,1.428l-3.809,6.348l-1.111,1.746l-0.952,1.587l-1.111,1.745" style="fill:none;fill-rule:nonzero;stroke:#000;stroke-width:5px;stroke-miterlimit:10;"/><path d="M943.452,709.66l15.005,0.19" style="fill:none;fill-rule:nonzero;stroke:#000;stroke-width:5px;stroke-miterlimit:10;"/><path d="M941.924,681.116l-7.365,13.14" style="fill:none;fill-rule:nonzero;stroke:#000;stroke-width:5px;stroke-miterlimit:10;"/><path d="M908.795,689.478l-0.952,-1.429l-3.809,-6.348l-1.111,-1.745l-0.952,-1.587l-1.014,-1.634" style="fill:none;fill-rule:nonzero;stroke:#000;stroke-width:5px;stroke-miterlimit:10;"/><path d="M926.476,689.491c-5.331,-2.093 -12.209,-2.153 -17.612,-0.013" style="fill:none;fill-rule:nonzero;stroke:#000;stroke-width:5px;stroke-miterlimit:10;"/><path d="M933.107,676.162c-9.941,-4.04 -21.067,-4.04 -31.008,-0.001" style="fill:none;fill-rule:nonzero;stroke:#000;stroke-width:5px;stroke-miterlimit:10;"/><path d="M942.89,746.819c8.47,-6.589 14.033,-16.224 15.506,-26.853" style="fill:none;fill-rule:nonzero;stroke:#000;stroke-width:5px;stroke-miterlimit:10;"/><path d="M876.81,719.962c1.471,10.629 7.034,20.265 15.503,26.854" style="fill:none;fill-rule:nonzero;stroke:#000;stroke-width:5px;stroke-miterlimit:10;"/><path d="M941.963,747.561l-7.3,-13.33" style="fill:none;fill-rule:nonzero;stroke:#000;stroke-width:5px;stroke-miterlimit:10;"/><path d="M943.55,718.837l14.961,-0.479" style="fill:none;fill-rule:nonzero;stroke:#000;stroke-width:5px;stroke-miterlimit:10;"/><path d="M934.663,734.231c4.334,-3.7 7.874,-9.794 8.887,-15.394" style="fill:none;fill-rule:nonzero;stroke:#000;stroke-width:5px;stroke-miterlimit:10;"/><path d="M876.738,718.519l15.056,0.433" style="fill:none;fill-rule:nonzero;stroke:#000;stroke-width:5px;stroke-miterlimit:10;"/><path d="M900.702,694.239l-7.233,-13.206" style="fill:none;fill-rule:nonzero;stroke:#000;stroke-width:5px;stroke-miterlimit:10;"/><path d="M876.738,709.95l14.937,-0.294" style="fill:none;fill-rule:nonzero;stroke:#000;stroke-width:5px;stroke-miterlimit:10;"/><path d="M900.647,694.256c-4.666,3.944 -7.811,9.391 -8.893,15.404" style="fill:none;fill-rule:nonzero;stroke:#000;stroke-width:5px;stroke-miterlimit:10;"/><path d="M908.71,739.027c5.748,2.069 12.038,2.069 17.786,0" style="fill:none;fill-rule:nonzero;stroke:#000;stroke-width:5px;stroke-miterlimit:10;"/><path d="M943.452,709.66c-1.083,-6.012 -4.227,-11.46 -8.893,-15.404" style="fill:none;fill-rule:nonzero;stroke:#000;stroke-width:5px;stroke-miterlimit:10;"/><path d="M900.647,694.256c-4.666,3.944 -7.811,9.391 -8.893,15.404" style="fill:none;fill-rule:nonzero;stroke:#000;stroke-width:5px;stroke-miterlimit:10;"/><path d="M908.71,739.027c5.748,2.069 12.038,2.069 17.786,0" style="fill:none;fill-rule:nonzero;stroke:#000;stroke-width:5px;stroke-miterlimit:10;"/><path d="M943.452,709.66c-1.083,-6.012 -4.227,-11.46 -8.893,-15.404" style="fill:none;fill-rule:nonzero;stroke:#000;stroke-width:5px;stroke-miterlimit:10;"/><path d="M934.388,676.79l-0.994,1.579l-0.953,1.587l-1.111,1.745l-3.808,6.348l-0.953,1.429" style="fill:none;fill-rule:nonzero;stroke:#000;stroke-width:5px;stroke-miterlimit:10;"/><path d="M900.632,734.416l-7.231,13.145" style="fill:none;fill-rule:nonzero;stroke:#000;stroke-width:5px;stroke-miterlimit:10;"/><path d="M891.814,718.969c0.946,5.767 4.431,11.886 8.818,15.447" style="fill:none;fill-rule:nonzero;stroke:#000;stroke-width:5px;stroke-miterlimit:10;"/><path d="M900.647,694.256c-4.666,3.944 -7.811,9.391 -8.893,15.404" style="fill:none;fill-rule:nonzero;stroke:#000;stroke-width:5px;stroke-miterlimit:10;"/></g><g id="Nose"><path d="M889.275,332.044l0.159,-26.3" style="fill:none;fill-rule:nonzero;stroke:#000;stroke-width:5px;stroke-miterlimit:10;"/><path d="M945.931,305.744l-0,26.344" style="fill:none;fill-rule:nonzero;stroke:#000;stroke-width:5px;stroke-miterlimit:10;"/><path d="M889.275,332.167c0,15.645 12.683,28.328 28.328,28.328c15.645,0 28.328,-12.683 28.328,-28.328" style="fill:none;fill-rule:nonzero;stroke:#000;stroke-width:5px;stroke-miterlimit:10;"/><path d="M889.434,305.744l-0,-23.646l0.317,-2.222" style="fill:none;fill-rule:nonzero;stroke:#000;stroke-width:5px;stroke-miterlimit:10;"/><path d="M945.931,284.478l-0,21.266" style="fill:none;fill-rule:nonzero;stroke:#000;stroke-width:5px;stroke-miterlimit:10;"/><path d="M889.751,279.876l0.159,-1.111l0.635,-2.539l0.476,-1.111l0.476,-1.269l0.952,-2.222l1.27,-2.222l1.269,-1.904l2.381,-2.857l0.952,-0.793l0.952,-0.953l0.952,-0.793l0.953,-0.635l1.111,-0.793l0.952,-0.635l1.111,-0.635l1.269,-0.635l2.222,-0.952l1.27,-0.317l1.269,-0.477l1.111,-0.317l3.809,-0.476l1.111,-0.159l2.539,0l1.111,0.159l3.809,0.476l1.11,0.317l1.27,0.477l1.27,0.317l2.221,0.952l1.27,0.635l1.111,0.635l0.952,0.635l1.111,0.793l0.952,0.635l0.952,0.793l0.953,0.953l0.952,0.793l2.38,2.857l1.27,1.904l1.269,2.222l0.953,2.222l0.476,1.269l0.476,1.111l0.635,2.539l0.476,3.333l-0,2.38" style="fill:none;fill-rule:nonzero;stroke:#000;stroke-width:5px;stroke-miterlimit:10;"/></g></g><g id="Magnets"><circle cx="557.93" cy="595.64" r="18.744" style="fill:none;stroke:#000;stroke-width:5px;stroke-dasharray:10,10,0,0,0,0;"/><circle cx="557.93" cy="835.289" r="18.744" style="fill:none;stroke:#000;stroke-width:5px;stroke-dasharray:10,10,0,0,0,0;"/><circle cx="797.374" cy="594.37" r="18.744" style="fill:none;stroke:#000;stroke-width:5px;stroke-dasharray:10,10,0,0,0,0;"/><circle cx="797.374" cy="835.289" r="18.744" style="fill:none;stroke:#000;stroke-width:5px;stroke-dasharray:10,10,0,0,0,0;"/><circle cx="1037.82" cy="594.37" r="18.744" style="fill:none;stroke:#000;stroke-width:5px;stroke-dasharray:10,10,0,0,0,0;"/><circle cx="1037.82" cy="835.289" r="18.744" style="fill:none;stroke:#000;stroke-width:5px;stroke-dasharray:10,10,0,0,0,0;"/><circle cx="1278.07" cy="594.37" r="18.744" style="fill:none;stroke:#000;stroke-width:5px;stroke-dasharray:10,10,0,0,0,0;"/><circle cx="1278.07" cy="835.289" r="18.744" style="fill:none;stroke:#000;stroke-width:5px;stroke-dasharray:10,10,0,0,0,0;"/><circle cx="1037.82" cy="1074.33" r="18.744" style="fill:none;stroke:#000;stroke-width:5px;stroke-dasharray:10,10,0,0,0,0;"/><circle cx="797.721" cy="1074.33" r="18.744" style="fill:none;stroke:#000;stroke-width:5px;stroke-dasharray:10,10,0,0,0,0;"/></g><g id="Touch-pads" serif:id="Touch pads"><path d="M1073.9,592.616c-0,-18.634 -15.106,-33.74 -33.739,-33.74l-14.995,0c-12.423,0 -22.493,-10.07 -22.493,-22.492c-0,-9.486 -0,-20.505 -0,-29.991c-0,-5.965 2.37,-11.686 6.588,-15.904c4.218,-4.219 9.939,-6.588 15.905,-6.588c29.066,-0 81.412,-0 127.459,-0c23.861,-0 46.746,9.479 63.619,26.351c16.872,16.873 26.352,39.758 26.352,63.62l-0,33.739c-0,12.422 -10.071,22.492 -22.493,22.492c-32.286,0 -91.424,0 -123.71,0c-12.423,0 -22.493,-10.07 -22.493,-22.492c-0,-4.772 -0,-9.909 -0,-14.995Z" style="fill:none;stroke:#000;stroke-width:5px;stroke-dasharray:10,15,0,0,0,0;"/><path d="M762.144,591.403c-0,-18.634 15.105,-33.739 33.739,-33.739l14.995,-0c12.422,-0 22.493,-10.071 22.493,-22.493c-0,-9.486 -0,-20.505 -0,-29.99c-0,-5.966 -2.37,-11.687 -6.588,-15.905c-4.218,-4.218 -9.94,-6.588 -15.905,-6.588c-29.066,-0 -81.412,-0 -127.459,-0c-23.862,-0 -46.746,9.479 -63.619,26.352c-16.873,16.873 -26.352,39.757 -26.352,63.619l0,33.739c0,12.422 10.071,22.493 22.493,22.493c32.286,-0 91.424,-0 123.71,-0c12.422,-0 22.493,-10.071 22.493,-22.493c-0,-4.772 -0,-9.909 -0,-14.995Z" style="fill:none;stroke:#000;stroke-width:5px;stroke-dasharray:10,15,0,0,0,0;"/><path d="M762.144,835.969c-0,18.634 15.105,33.739 33.739,33.739l15,0c12.42,0 22.49,10.068 22.492,22.489c0.005,23.712 0.013,62.044 0.019,94.412c0.003,12.07 -6.443,23.222 -16.903,29.245c-10.46,6.023 -23.341,5.999 -33.779,-0.062c-42.785,-24.846 -103.453,-60.078 -144.475,-83.9c-27.726,-16.102 -44.789,-45.741 -44.789,-77.804c0,-11.65 0,-23.421 0,-33.114c0,-12.422 10.071,-22.493 22.493,-22.493c32.286,0 91.424,0 123.71,0c12.422,0 22.493,10.071 22.493,22.493c-0,4.772 -0,9.909 -0,14.995Z" style="fill:none;stroke:#000;stroke-width:5px;stroke-dasharray:10,15,0,0,0,0;"/><path d="M1073.92,835.969c-0,18.634 -15.106,33.739 -33.739,33.739l-15,0c-12.421,0 -22.49,10.068 -22.493,22.489c-0.005,23.712 -0.012,62.044 -0.019,94.412c-0.002,12.07 6.443,23.222 16.903,29.245c10.461,6.023 23.341,5.999 33.779,-0.062c42.785,-24.846 103.453,-60.078 144.475,-83.9c27.727,-16.102 44.789,-45.741 44.789,-77.804c0,-11.65 0,-23.421 0,-33.114c0,-12.422 -10.07,-22.493 -22.493,-22.493c-32.286,0 -91.424,0 -123.71,0c-12.422,0 -22.492,10.071 -22.492,22.493c-0,4.772 -0,9.909 -0,14.995Z" style="fill:none;stroke:#000;stroke-width:5px;stroke-dasharray:10,15,0,0,0,0;"/></g></g></g><g><path d="M1301.39,594.97l246.401,-0" style="fill:none;stroke:#3666b1;stroke-width:4.17px;stroke-linecap:butt;"/><path d="M1516.42,622.675l9.375,-28.125l9.375,28.125l-18.75,0Z" style="fill:#3666b1;"/><path d="M1525.8,685.122l-0,-68.072" style="fill:none;stroke:#3666b1;stroke-width:4.17px;stroke-linecap:butt;"/><path d="M1535.17,807.752l-9.375,28.125l-9.375,-28.125l18.75,-0Z" style="fill:#3666b1;"/><path d="M1525.8,741.254l-0,72.123" style="fill:none;stroke:#3666b1;stroke-width:4.17px;stroke-linecap:butt;"/><path d="M1301.39,835.858l246.401,-0" style="fill:none;stroke:#3666b1;stroke-width:4.17px;stroke-linecap:butt;"/><path d="M1467.23,728.717c-2.4,0 -4.692,-0.366 -6.875,-1.1c-2.183,-0.733 -4.008,-1.766 -5.475,-3.1l1.65,-3.6c1.633,1.334 3.317,2.3 5.05,2.9c1.733,0.6 3.567,0.9 5.5,0.9c2.567,0 4.517,-0.541 5.85,-1.625c1.333,-1.083 2,-2.641 2,-4.675c0,-2 -0.675,-3.516 -2.025,-4.55c-1.35,-1.033 -3.325,-1.55 -5.925,-1.55l-5.4,0l0,-3.85l5.05,0c2.2,0 3.967,-0.566 5.3,-1.7c1.333,-1.133 2,-2.683 2,-4.65c0,-1.8 -0.608,-3.175 -1.825,-4.125c-1.217,-0.95 -2.942,-1.425 -5.175,-1.425c-3.767,0 -7.033,1.317 -9.8,3.95l-1.65,-3.55c1.4,-1.4 3.133,-2.483 5.2,-3.25c2.067,-0.766 4.25,-1.15 6.55,-1.15c3.5,0 6.25,0.8 8.25,2.4c2,1.6 3,3.834 3,6.7c0,2.167 -0.608,4.025 -1.825,5.575c-1.217,1.55 -2.875,2.575 -4.975,3.075l0,-0.55c2.467,0.434 4.383,1.442 5.75,3.025c1.367,1.584 2.05,3.559 2.05,5.925c0,3.1 -1.092,5.542 -3.275,7.325c-2.183,1.784 -5.175,2.675 -8.975,2.675Z" style="fill:#3666b1;fill-rule:nonzero;"/><path d="M1486.73,728.267l0,-3.45l12.3,-12.9c1.6,-1.633 2.792,-3.2 3.575,-4.7c0.783,-1.5 1.175,-3.05 1.175,-4.65c0,-1.966 -0.608,-3.458 -1.825,-4.475c-1.217,-1.016 -2.992,-1.525 -5.325,-1.525c-1.8,0 -3.492,0.325 -5.075,0.975c-1.583,0.65 -3.092,1.642 -4.525,2.975l-1.65,-3.55c1.367,-1.333 3.092,-2.4 5.175,-3.2c2.083,-0.8 4.275,-1.2 6.575,-1.2c3.6,0 6.383,0.825 8.35,2.475c1.967,1.65 2.95,4.009 2.95,7.075c0,2.234 -0.542,4.359 -1.625,6.375c-1.083,2.017 -2.675,4.092 -4.775,6.225l-10.75,10.9l0,-1.3l18.6,0l0,3.95l-23.15,0Z" style="fill:#3666b1;fill-rule:nonzero;"/><path d="M1516.28,728.267l0,-19.2c0,-0.966 -0.033,-1.95 -0.1,-2.95c-0.067,-1 -0.167,-2 -0.3,-3l4.4,0l0.5,5.4l-0.6,0c0.667,-1.866 1.733,-3.308 3.2,-4.325c1.467,-1.016 3.217,-1.525 5.25,-1.525c2.067,0 3.767,0.492 5.1,1.475c1.333,0.984 2.233,2.525 2.7,4.625l-0.75,0c0.633,-1.866 1.75,-3.35 3.35,-4.45c1.6,-1.1 3.467,-1.65 5.6,-1.65c2.767,0 4.85,0.809 6.25,2.425c1.4,1.617 2.1,4.125 2.1,7.525l0,15.65l-4.55,0l0,-15.4c0,-2.3 -0.4,-3.958 -1.2,-4.975c-0.8,-1.016 -2.067,-1.525 -3.8,-1.525c-2.033,0 -3.633,0.692 -4.8,2.075c-1.167,1.384 -1.75,3.259 -1.75,5.625l0,14.2l-4.55,0l0,-15.4c0,-2.3 -0.392,-3.958 -1.175,-4.975c-0.783,-1.016 -2.058,-1.525 -3.825,-1.525c-2.033,0 -3.625,0.692 -4.775,2.075c-1.15,1.384 -1.725,3.259 -1.725,5.625l0,14.2l-4.55,0Z" style="fill:#3666b1;fill-rule:nonzero;"/><path d="M1560.43,728.267l0,-19.2c0,-0.966 -0.033,-1.95 -0.1,-2.95c-0.067,-1 -0.167,-2 -0.3,-3l4.4,0l0.5,5.4l-0.6,0c0.667,-1.866 1.733,-3.308 3.2,-4.325c1.467,-1.016 3.217,-1.525 5.25,-1.525c2.067,0 3.767,0.492 5.1,1.475c1.333,0.984 2.233,2.525 2.7,4.625l-0.75,0c0.633,-1.866 1.75,-3.35 3.35,-4.45c1.6,-1.1 3.467,-1.65 5.6,-1.65c2.767,0 4.85,0.809 6.25,2.425c1.4,1.617 2.1,4.125 2.1,7.525l0,15.65l-4.55,0l0,-15.4c0,-2.3 -0.4,-3.958 -1.2,-4.975c-0.8,-1.016 -2.067,-1.525 -3.8,-1.525c-2.033,0 -3.633,0.692 -4.8,2.075c-1.167,1.384 -1.75,3.259 -1.75,5.625l0,14.2l-4.55,0l0,-15.4c0,-2.3 -0.392,-3.958 -1.175,-4.975c-0.783,-1.016 -2.058,-1.525 -3.825,-1.525c-2.033,0 -3.625,0.692 -4.775,2.075c-1.15,1.384 -1.725,3.259 -1.725,5.625l0,14.2l-4.55,0Z" style="fill:#3666b1;fill-rule:nonzero;"/></g><g><path d="M281.684,385.102l431.649,0" style="fill:none;stroke:#3666b1;stroke-width:4.17px;stroke-linecap:butt;"/><path d="M296.305,413.844l9.375,-28.125l9.375,28.125l-18.75,-0Z" style="fill:#3666b1;"/><path d="M305.68,530.557l0,-122.338" style="fill:none;stroke:#3666b1;stroke-width:4.17px;stroke-linecap:butt;"/><path d="M315.055,686.239l-9.375,28.125l-9.375,-28.125l18.75,0Z" style="fill:#3666b1;"/><path d="M305.68,581.529l0,110.335" style="fill:none;stroke:#3666b1;stroke-width:4.17px;stroke-linecap:butt;"/><path d="M281.684,714.345l620.947,-0" style="fill:none;stroke:#3666b1;stroke-width:4.17px;stroke-linecap:butt;"/><path d="M251.316,573.275l0,-7.45l-16.55,-0l0,-3.35l17.3,-24.45l3.8,-0l0,24.1l5.3,-0l0,3.7l-5.3,-0l0,7.45l-4.55,-0Zm0,-11.15l0,-18.6l1.15,-0l-13.95,19.7l0,-1.1l12.8,-0Z" style="fill:#3666b1;fill-rule:nonzero;"/><path d="M281.316,573.275l0,-7.45l-16.55,-0l0,-3.35l17.3,-24.45l3.8,-0l0,24.1l5.3,-0l0,3.7l-5.3,-0l0,7.45l-4.55,-0Zm0,-11.15l0,-18.6l1.15,-0l-13.95,19.7l0,-1.1l12.8,-0Z" style="fill:#3666b1;fill-rule:nonzero;"/><path d="M296.166,573.275l0,-19.2c0,-0.967 -0.033,-1.95 -0.1,-2.95c-0.066,-1 -0.166,-2 -0.3,-3l4.4,-0l0.5,5.4l-0.6,-0c0.667,-1.867 1.734,-3.309 3.2,-4.325c1.467,-1.017 3.217,-1.525 5.25,-1.525c2.067,-0 3.767,0.491 5.1,1.475c1.334,0.983 2.234,2.525 2.7,4.625l-0.75,-0c0.634,-1.867 1.75,-3.35 3.35,-4.45c1.6,-1.1 3.467,-1.65 5.6,-1.65c2.767,-0 4.85,0.808 6.25,2.425c1.4,1.616 2.1,4.125 2.1,7.525l0,15.65l-4.55,-0l0,-15.4c0,-2.3 -0.4,-3.959 -1.2,-4.975c-0.8,-1.017 -2.066,-1.525 -3.8,-1.525c-2.033,-0 -3.633,0.691 -4.8,2.075c-1.166,1.383 -1.75,3.258 -1.75,5.625l0,14.2l-4.55,-0l0,-15.4c0,-2.3 -0.391,-3.959 -1.175,-4.975c-0.783,-1.017 -2.058,-1.525 -3.825,-1.525c-2.033,-0 -3.625,0.691 -4.775,2.075c-1.15,1.383 -1.725,3.258 -1.725,5.625l0,14.2l-4.55,-0Z" style="fill:#3666b1;fill-rule:nonzero;"/><path d="M340.316,573.275l0,-19.2c0,-0.967 -0.033,-1.95 -0.1,-2.95c-0.066,-1 -0.166,-2 -0.3,-3l4.4,-0l0.5,5.4l-0.6,-0c0.667,-1.867 1.734,-3.309 3.2,-4.325c1.467,-1.017 3.217,-1.525 5.25,-1.525c2.067,-0 3.767,0.491 5.1,1.475c1.334,0.983 2.234,2.525 2.7,4.625l-0.75,-0c0.634,-1.867 1.75,-3.35 3.35,-4.45c1.6,-1.1 3.467,-1.65 5.6,-1.65c2.767,-0 4.85,0.808 6.25,2.425c1.4,1.616 2.1,4.125 2.1,7.525l0,15.65l-4.55,-0l0,-15.4c0,-2.3 -0.4,-3.959 -1.2,-4.975c-0.8,-1.017 -2.066,-1.525 -3.8,-1.525c-2.033,-0 -3.633,0.691 -4.8,2.075c-1.166,1.383 -1.75,3.258 -1.75,5.625l0,14.2l-4.55,-0l0,-15.4c0,-2.3 -0.391,-3.959 -1.175,-4.975c-0.783,-1.017 -2.058,-1.525 -3.825,-1.525c-2.033,-0 -3.625,0.691 -4.775,2.075c-1.15,1.383 -1.725,3.258 -1.725,5.625l0,14.2l-4.55,-0Z" style="fill:#3666b1;fill-rule:nonzero;"/></g><g><path d="M977.211,152.002l737.621,-0" style="fill:none;stroke:#3666b1;stroke-width:4.17px;stroke-linecap:butt;"/><path d="M1684.84,179.138l9.375,-28.125l9.375,28.125l-18.75,-0Z" style="fill:#3666b1;"/><path d="M1694.22,686.77l0,-513.257" style="fill:none;stroke:#3666b1;stroke-width:4.17px;stroke-linecap:butt;"/><path d="M1703.59,1246.24l-9.375,28.125l-9.375,-28.125l18.75,0Z" style="fill:#3666b1;"/><path d="M1694.22,739.623c0,0 0,410.687 0,512.237" style="fill:none;stroke:#3666b1;stroke-width:4.17px;stroke-linecap:butt;"/><path d="M958.934,1274.09l755.898,0" style="fill:none;stroke:#3666b1;stroke-width:4.17px;stroke-linecap:butt;"/><path d="M1630.91,728.267l0,-3.95l8.25,0l0,-27.35l2.35,0l-9.85,6.1l0,-4.55l8.8,-5.5l3.35,0l0,31.3l7.75,0l0,3.95l-20.65,0Z" style="fill:#3666b1;fill-rule:nonzero;"/><path d="M1673.66,728.267l0,-7.45l-16.55,0l0,-3.35l17.3,-24.45l3.8,0l0,24.1l5.3,0l0,3.7l-5.3,0l0,7.45l-4.55,0Zm0,-11.15l0,-18.6l1.15,0l-13.95,19.7l0,-1.1l12.8,0Z" style="fill:#3666b1;fill-rule:nonzero;"/><path d="M1697.31,728.717c-1.866,0 -3.733,-0.383 -5.6,-1.15c-1.866,-0.766 -3.416,-1.783 -4.65,-3.05l1.7,-3.55c1.234,1.234 2.592,2.167 4.075,2.8c1.484,0.634 2.992,0.95 4.525,0.95c3.267,0 5.784,-1.175 7.55,-3.525c1.767,-2.35 2.65,-5.841 2.65,-10.475l0,-4.45l0.5,0c-0.2,1.834 -0.775,3.425 -1.725,4.775c-0.95,1.35 -2.141,2.392 -3.575,3.125c-1.433,0.734 -3.066,1.1 -4.9,1.1c-2.1,0 -3.966,-0.483 -5.6,-1.45c-1.633,-0.966 -2.916,-2.291 -3.85,-3.975c-0.933,-1.683 -1.4,-3.608 -1.4,-5.775c0,-2.233 0.492,-4.216 1.475,-5.95c0.984,-1.733 2.342,-3.091 4.075,-4.075c1.734,-0.983 3.734,-1.475 6,-1.475c4.334,0 7.667,1.509 10,4.525c2.334,3.017 3.5,7.259 3.5,12.725c0,4.034 -0.591,7.459 -1.775,10.275c-1.183,2.817 -2.875,4.959 -5.075,6.425c-2.2,1.467 -4.833,2.2 -7.9,2.2Zm1.55,-17.3c1.467,0 2.759,-0.316 3.875,-0.95c1.117,-0.633 1.992,-1.516 2.625,-2.65c0.634,-1.133 0.95,-2.433 0.95,-3.9c0,-1.5 -0.316,-2.808 -0.95,-3.925c-0.633,-1.116 -1.508,-2 -2.625,-2.65c-1.116,-0.65 -2.408,-0.975 -3.875,-0.975c-1.466,0 -2.758,0.325 -3.875,0.975c-1.116,0.65 -1.983,1.534 -2.6,2.65c-0.616,1.117 -0.925,2.425 -0.925,3.925c0,1.467 0.309,2.767 0.925,3.9c0.617,1.134 1.484,2.017 2.6,2.65c1.117,0.634 2.409,0.95 3.875,0.95Z" style="fill:#3666b1;fill-rule:nonzero;"/><path d="M1718.51,728.267l0,-19.2c0,-0.966 -0.033,-1.95 -0.1,-2.95c-0.066,-1 -0.166,-2 -0.3,-3l4.4,0l0.5,5.4l-0.6,0c0.667,-1.866 1.734,-3.308 3.2,-4.325c1.467,-1.016 3.217,-1.525 5.25,-1.525c2.067,0 3.767,0.492 5.1,1.475c1.334,0.984 2.234,2.525 2.7,4.625l-0.75,0c0.634,-1.866 1.75,-3.35 3.35,-4.45c1.6,-1.1 3.467,-1.65 5.6,-1.65c2.767,0 4.85,0.809 6.25,2.425c1.4,1.617 2.1,4.125 2.1,7.525l0,15.65l-4.55,0l0,-15.4c0,-2.3 -0.4,-3.958 -1.2,-4.975c-0.8,-1.016 -2.066,-1.525 -3.8,-1.525c-2.033,0 -3.633,0.692 -4.8,2.075c-1.166,1.384 -1.75,3.259 -1.75,5.625l0,14.2l-4.55,0l0,-15.4c0,-2.3 -0.391,-3.958 -1.175,-4.975c-0.783,-1.016 -2.058,-1.525 -3.825,-1.525c-2.033,0 -3.625,0.692 -4.775,2.075c-1.15,1.384 -1.725,3.259 -1.725,5.625l0,14.2l-4.55,0Z" style="fill:#3666b1;fill-rule:nonzero;"/><path d="M1762.66,728.267l0,-19.2c0,-0.966 -0.033,-1.95 -0.1,-2.95c-0.066,-1 -0.166,-2 -0.3,-3l4.4,0l0.5,5.4l-0.6,0c0.667,-1.866 1.734,-3.308 3.2,-4.325c1.467,-1.016 3.217,-1.525 5.25,-1.525c2.067,0 3.767,0.492 5.1,1.475c1.334,0.984 2.234,2.525 2.7,4.625l-0.75,0c0.634,-1.866 1.75,-3.35 3.35,-4.45c1.6,-1.1 3.467,-1.65 5.6,-1.65c2.767,0 4.85,0.809 6.25,2.425c1.4,1.617 2.1,4.125 2.1,7.525l0,15.65l-4.55,0l0,-15.4c0,-2.3 -0.4,-3.958 -1.2,-4.975c-0.8,-1.016 -2.066,-1.525 -3.8,-1.525c-2.033,0 -3.633,0.692 -4.8,2.075c-1.166,1.384 -1.75,3.259 -1.75,5.625l0,14.2l-4.55,0l0,-15.4c0,-2.3 -0.391,-3.958 -1.175,-4.975c-0.783,-1.016 -2.058,-1.525 -3.825,-1.525c-2.033,0 -3.625,0.692 -4.775,2.075c-1.15,1.384 -1.725,3.259 -1.725,5.625l0,14.2l-4.55,0Z" style="fill:#3666b1;fill-rule:nonzero;"/></g><g><path d="M1038.44,1096.84l-0,259.095" style="fill:none;stroke:#3666b1;stroke-width:4.17px;stroke-linecap:butt;"/><path d="M1010.74,1324.98l28.125,9.375l-28.125,9.375l0,-18.75Z" style="fill:#3666b1;"/><path d="M998.333,1334.35l18.03,0" style="fill:none;stroke:#3666b1;stroke-width:4.17px;stroke-linecap:butt;"/><path d="M825.662,1343.73l-28.125,-9.375l28.125,-9.375l-0,18.75Z" style="fill:#3666b1;"/><path d="M837.195,1334.35l-17.158,0" style="fill:none;stroke:#3666b1;stroke-width:4.17px;stroke-linecap:butt;"/><path d="M797.556,1096.84l-0,259.095" style="fill:none;stroke:#3666b1;stroke-width:4.17px;stroke-linecap:butt;"/><path d="M857.91,1351.79c-2.4,0 -4.692,-0.366 -6.875,-1.1c-2.183,-0.733 -4.008,-1.766 -5.475,-3.1l1.65,-3.6c1.633,1.334 3.317,2.3 5.05,2.9c1.733,0.6 3.567,0.9 5.5,0.9c2.567,0 4.517,-0.541 5.85,-1.625c1.333,-1.083 2,-2.641 2,-4.675c-0,-2 -0.675,-3.516 -2.025,-4.55c-1.35,-1.033 -3.325,-1.55 -5.925,-1.55l-5.4,0l-0,-3.85l5.05,0c2.2,0 3.967,-0.566 5.3,-1.7c1.333,-1.133 2,-2.683 2,-4.65c-0,-1.8 -0.608,-3.175 -1.825,-4.125c-1.217,-0.95 -2.942,-1.425 -5.175,-1.425c-3.767,0 -7.033,1.317 -9.8,3.95l-1.65,-3.55c1.4,-1.4 3.133,-2.483 5.2,-3.25c2.067,-0.766 4.25,-1.15 6.55,-1.15c3.5,0 6.25,0.8 8.25,2.4c2,1.6 3,3.834 3,6.7c-0,2.167 -0.608,4.025 -1.825,5.575c-1.217,1.55 -2.875,2.575 -4.975,3.075l-0,-0.55c2.467,0.434 4.383,1.442 5.75,3.025c1.367,1.584 2.05,3.559 2.05,5.925c-0,3.1 -1.092,5.542 -3.275,7.325c-2.183,1.784 -5.175,2.675 -8.975,2.675Z" style="fill:#3666b1;fill-rule:nonzero;"/><path d="M877.41,1351.34l-0,-3.45l12.3,-12.9c1.6,-1.633 2.792,-3.2 3.575,-4.7c0.783,-1.5 1.175,-3.05 1.175,-4.65c-0,-1.966 -0.608,-3.458 -1.825,-4.475c-1.217,-1.016 -2.992,-1.525 -5.325,-1.525c-1.8,0 -3.492,0.325 -5.075,0.975c-1.583,0.65 -3.092,1.642 -4.525,2.975l-1.65,-3.55c1.367,-1.333 3.092,-2.4 5.175,-3.2c2.083,-0.8 4.275,-1.2 6.575,-1.2c3.6,0 6.383,0.825 8.35,2.475c1.967,1.65 2.95,4.009 2.95,7.075c-0,2.234 -0.542,4.359 -1.625,6.375c-1.083,2.017 -2.675,4.092 -4.775,6.225l-10.75,10.9l-0,-1.3l18.6,0l-0,3.95l-23.15,0Z" style="fill:#3666b1;fill-rule:nonzero;"/><path d="M906.96,1351.34l-0,-19.2c-0,-0.966 -0.033,-1.95 -0.1,-2.95c-0.067,-1 -0.167,-2 -0.3,-3l4.4,0l0.5,5.4l-0.6,0c0.667,-1.866 1.733,-3.308 3.2,-4.325c1.467,-1.016 3.217,-1.525 5.25,-1.525c2.067,0 3.767,0.492 5.1,1.475c1.333,0.984 2.233,2.525 2.7,4.625l-0.75,0c0.633,-1.866 1.75,-3.35 3.35,-4.45c1.6,-1.1 3.467,-1.65 5.6,-1.65c2.767,0 4.85,0.809 6.25,2.425c1.4,1.617 2.1,4.125 2.1,7.525l-0,15.65l-4.55,0l-0,-15.4c-0,-2.3 -0.4,-3.958 -1.2,-4.975c-0.8,-1.016 -2.067,-1.525 -3.8,-1.525c-2.033,0 -3.633,0.692 -4.8,2.075c-1.167,1.384 -1.75,3.259 -1.75,5.625l-0,14.2l-4.55,0l-0,-15.4c-0,-2.3 -0.392,-3.958 -1.175,-4.975c-0.783,-1.016 -2.058,-1.525 -3.825,-1.525c-2.033,0 -3.625,0.692 -4.775,2.075c-1.15,1.384 -1.725,3.259 -1.725,5.625l-0,14.2l-4.55,0Z" style="fill:#3666b1;fill-rule:nonzero;"/><path d="M951.11,1351.34l-0,-19.2c-0,-0.966 -0.033,-1.95 -0.1,-2.95c-0.067,-1 -0.167,-2 -0.3,-3l4.4,0l0.5,5.4l-0.6,0c0.667,-1.866 1.733,-3.308 3.2,-4.325c1.467,-1.016 3.217,-1.525 5.25,-1.525c2.067,0 3.767,0.492 5.1,1.475c1.333,0.984 2.233,2.525 2.7,4.625l-0.75,0c0.633,-1.866 1.75,-3.35 3.35,-4.45c1.6,-1.1 3.467,-1.65 5.6,-1.65c2.767,0 4.85,0.809 6.25,2.425c1.4,1.617 2.1,4.125 2.1,7.525l-0,15.65l-4.55,0l-0,-15.4c-0,-2.3 -0.4,-3.958 -1.2,-4.975c-0.8,-1.016 -2.067,-1.525 -3.8,-1.525c-2.033,0 -3.633,0.692 -4.8,2.075c-1.167,1.384 -1.75,3.259 -1.75,5.625l-0,14.2l-4.55,0l-0,-15.4c-0,-2.3 -0.392,-3.958 -1.175,-4.975c-0.783,-1.016 -2.058,-1.525 -3.825,-1.525c-2.033,0 -3.625,0.692 -4.775,2.075c-1.15,1.384 -1.725,3.259 -1.725,5.625l-0,14.2l-4.55,0Z" style="fill:#3666b1;fill-rule:nonzero;"/></g><g><path d="M1103.51,43.199l-0,326.823" style="fill:none;stroke:#3666b1;stroke-width:4.17px;stroke-linecap:butt;"/><path d="M1074.87,64.336l28.125,9.375l-28.125,9.375l0,-18.75Z" style="fill:#3666b1;"/><path d="M998.333,73.711l82.16,0" style="fill:none;stroke:#3666b1;stroke-width:4.17px;stroke-linecap:butt;"/><path d="M757.227,83.086l-28.125,-9.375l28.125,-9.375l0,18.75Z" style="fill:#3666b1;"/><path d="M837.195,73.711l-85.593,0" style="fill:none;stroke:#3666b1;stroke-width:4.17px;stroke-linecap:butt;"/><path d="M728.83,43.199l-0,326.823" style="fill:none;stroke:#3666b1;stroke-width:4.17px;stroke-linecap:butt;"/><path d="M858.76,91.143c-1.533,-0 -3.042,-0.167 -4.525,-0.5c-1.483,-0.334 -2.875,-0.809 -4.175,-1.425c-1.3,-0.617 -2.433,-1.375 -3.4,-2.275l1.65,-3.6c1.633,1.3 3.3,2.258 5,2.875c1.7,0.616 3.483,0.925 5.35,0.925c2.467,-0 4.4,-0.65 5.8,-1.95c1.4,-1.3 2.1,-3.034 2.1,-5.2c-0,-2.234 -0.667,-4.042 -2,-5.425c-1.333,-1.384 -3.183,-2.075 -5.55,-2.075c-1.633,-0 -3.108,0.325 -4.425,0.975c-1.317,0.65 -2.475,1.675 -3.475,3.075l-3.3,-0l-0,-21.1l21.15,-0l-0,3.95l-16.65,-0l-0,13.35l-1.2,-0c0.9,-1.334 2.125,-2.367 3.675,-3.1c1.55,-0.734 3.292,-1.1 5.225,-1.1c2.267,-0 4.225,0.466 5.875,1.4c1.65,0.933 2.933,2.241 3.85,3.925c0.917,1.683 1.375,3.641 1.375,5.875c-0,2.233 -0.5,4.208 -1.5,5.925c-1,1.716 -2.425,3.058 -4.275,4.025c-1.85,0.966 -4.042,1.45 -6.575,1.45Z" style="fill:#3666b1;fill-rule:nonzero;"/><path d="M888.16,91.143c-4.033,-0 -7.133,-1.559 -9.3,-4.675c-2.167,-3.117 -3.25,-7.592 -3.25,-13.425c-0,-5.934 1.083,-10.425 3.25,-13.475c2.167,-3.05 5.267,-4.575 9.3,-4.575c4.067,-0 7.175,1.525 9.325,4.575c2.15,3.05 3.225,7.525 3.225,13.425c-0,5.866 -1.083,10.358 -3.25,13.475c-2.167,3.116 -5.267,4.675 -9.3,4.675Zm-0,-3.95c2.667,-0 4.658,-1.15 5.975,-3.45c1.317,-2.3 1.975,-5.884 1.975,-10.75c-0,-4.867 -0.658,-8.425 -1.975,-10.675c-1.317,-2.25 -3.308,-3.375 -5.975,-3.375c-2.633,-0 -4.617,1.125 -5.95,3.375c-1.333,2.25 -2,5.808 -2,10.675c-0,4.866 0.667,8.45 2,10.75c1.333,2.3 3.317,3.45 5.95,3.45Z" style="fill:#3666b1;fill-rule:nonzero;"/><path d="M906.96,90.693l-0,-19.2c-0,-0.967 -0.033,-1.95 -0.1,-2.95c-0.067,-1 -0.167,-2 -0.3,-3l4.4,-0l0.5,5.4l-0.6,-0c0.667,-1.867 1.733,-3.309 3.2,-4.325c1.467,-1.017 3.217,-1.525 5.25,-1.525c2.067,-0 3.767,0.491 5.1,1.475c1.333,0.983 2.233,2.525 2.7,4.625l-0.75,-0c0.633,-1.867 1.75,-3.35 3.35,-4.45c1.6,-1.1 3.467,-1.65 5.6,-1.65c2.767,-0 4.85,0.808 6.25,2.425c1.4,1.616 2.1,4.125 2.1,7.525l-0,15.65l-4.55,-0l-0,-15.4c-0,-2.3 -0.4,-3.959 -1.2,-4.975c-0.8,-1.017 -2.067,-1.525 -3.8,-1.525c-2.033,-0 -3.633,0.691 -4.8,2.075c-1.167,1.383 -1.75,3.258 -1.75,5.625l-0,14.2l-4.55,-0l-0,-15.4c-0,-2.3 -0.392,-3.959 -1.175,-4.975c-0.783,-1.017 -2.058,-1.525 -3.825,-1.525c-2.033,-0 -3.625,0.691 -4.775,2.075c-1.15,1.383 -1.725,3.258 -1.725,5.625l-0,14.2l-4.55,-0Z" style="fill:#3666b1;fill-rule:nonzero;"/><path d="M951.11,90.693l-0,-19.2c-0,-0.967 -0.033,-1.95 -0.1,-2.95c-0.067,-1 -0.167,-2 -0.3,-3l4.4,-0l0.5,5.4l-0.6,-0c0.667,-1.867 1.733,-3.309 3.2,-4.325c1.467,-1.017 3.217,-1.525 5.25,-1.525c2.067,-0 3.767,0.491 5.1,1.475c1.333,0.983 2.233,2.525 2.7,4.625l-0.75,-0c0.633,-1.867 1.75,-3.35 3.35,-4.45c1.6,-1.1 3.467,-1.65 5.6,-1.65c2.767,-0 4.85,0.808 6.25,2.425c1.4,1.616 2.1,4.125 2.1,7.525l-0,15.65l-4.55,-0l-0,-15.4c-0,-2.3 -0.4,-3.959 -1.2,-4.975c-0.8,-1.017 -2.067,-1.525 -3.8,-1.525c-2.033,-0 -3.633,0.691 -4.8,2.075c-1.167,1.383 -1.75,3.258 -1.75,5.625l-0,14.2l-4.55,-0l-0,-15.4c-0,-2.3 -0.392,-3.959 -1.175,-4.975c-0.783,-1.017 -2.058,-1.525 -3.825,-1.525c-2.033,-0 -3.625,0.691 -4.775,2.075c-1.15,1.383 -1.725,3.258 -1.725,5.625l-0,14.2l-4.55,-0Z" style="fill:#3666b1;fill-rule:nonzero;"/></g><g><path d="M1422.13,973.682l0,450.493" style="fill:none;stroke:#3666b1;stroke-width:4.17px;stroke-linecap:butt;"/><path d="M1392.44,1393.87l28.125,9.375l-28.125,9.375l0,-18.75Z" style="fill:#3666b1;"/><path d="M1009.78,1403.25l388.286,-0" style="fill:none;stroke:#3666b1;stroke-width:4.17px;stroke-linecap:butt;"/><path d="M442.612,1412.62l-28.125,-9.375l28.125,-9.375l0,18.75Z" style="fill:#3666b1;"/><path d="M820.007,1403.25l-383.02,-0" style="fill:none;stroke:#3666b1;stroke-width:4.17px;stroke-linecap:butt;"/><path d="M414.035,973.682l0,450.493" style="fill:none;stroke:#3666b1;stroke-width:4.17px;stroke-linecap:butt;"/><path d="M830.609,1420.23l-0,-3.95l8.25,0l-0,-27.35l2.35,0l-9.85,6.1l-0,-4.55l8.8,-5.5l3.35,0l-0,31.3l7.75,0l-0,3.95l-20.65,0Z" style="fill:#3666b1;fill-rule:nonzero;"/><path d="M869.159,1420.68c-2.4,0 -4.692,-0.367 -6.875,-1.1c-2.183,-0.733 -4.008,-1.767 -5.475,-3.1l1.65,-3.6c1.633,1.333 3.317,2.3 5.05,2.9c1.733,0.6 3.567,0.9 5.5,0.9c2.567,0 4.517,-0.542 5.85,-1.625c1.333,-1.083 2,-2.642 2,-4.675c-0,-2 -0.675,-3.517 -2.025,-4.55c-1.35,-1.033 -3.325,-1.55 -5.925,-1.55l-5.4,0l-0,-3.85l5.05,0c2.2,0 3.967,-0.567 5.3,-1.7c1.333,-1.133 2,-2.683 2,-4.65c-0,-1.8 -0.608,-3.175 -1.825,-4.125c-1.217,-0.95 -2.942,-1.425 -5.175,-1.425c-3.767,0 -7.033,1.317 -9.8,3.95l-1.65,-3.55c1.4,-1.4 3.133,-2.483 5.2,-3.25c2.067,-0.767 4.25,-1.15 6.55,-1.15c3.5,0 6.25,0.8 8.25,2.4c2,1.6 3,3.833 3,6.7c-0,2.167 -0.608,4.025 -1.825,5.575c-1.217,1.55 -2.875,2.575 -4.975,3.075l-0,-0.55c2.467,0.433 4.383,1.442 5.75,3.025c1.367,1.583 2.05,3.558 2.05,5.925c-0,3.1 -1.092,5.542 -3.275,7.325c-2.183,1.783 -5.175,2.675 -8.975,2.675Z" style="fill:#3666b1;fill-rule:nonzero;"/><path d="M903.359,1420.23l-0,-7.45l-16.55,0l-0,-3.35l17.3,-24.45l3.8,0l-0,24.1l5.3,0l-0,3.7l-5.3,0l-0,7.45l-4.55,0Zm-0,-11.15l-0,-18.6l1.15,0l-13.95,19.7l-0,-1.1l12.8,0Z" style="fill:#3666b1;fill-rule:nonzero;"/><path d="M918.209,1420.23l-0,-19.2c-0,-0.967 -0.033,-1.95 -0.1,-2.95c-0.067,-1 -0.167,-2 -0.3,-3l4.4,0l0.5,5.4l-0.6,0c0.667,-1.867 1.733,-3.308 3.2,-4.325c1.467,-1.017 3.217,-1.525 5.25,-1.525c2.067,0 3.767,0.492 5.1,1.475c1.333,0.983 2.233,2.525 2.7,4.625l-0.75,0c0.633,-1.867 1.75,-3.35 3.35,-4.45c1.6,-1.1 3.467,-1.65 5.6,-1.65c2.767,0 4.85,0.808 6.25,2.425c1.4,1.617 2.1,4.125 2.1,7.525l-0,15.65l-4.55,0l-0,-15.4c-0,-2.3 -0.4,-3.958 -1.2,-4.975c-0.8,-1.017 -2.067,-1.525 -3.8,-1.525c-2.033,0 -3.633,0.692 -4.8,2.075c-1.167,1.383 -1.75,3.258 -1.75,5.625l-0,14.2l-4.55,0l-0,-15.4c-0,-2.3 -0.392,-3.958 -1.175,-4.975c-0.783,-1.017 -2.058,-1.525 -3.825,-1.525c-2.033,0 -3.625,0.692 -4.775,2.075c-1.15,1.383 -1.725,3.258 -1.725,5.625l-0,14.2l-4.55,0Z" style="fill:#3666b1;fill-rule:nonzero;"/><path d="M962.359,1420.23l-0,-19.2c-0,-0.967 -0.033,-1.95 -0.1,-2.95c-0.067,-1 -0.167,-2 -0.3,-3l4.4,0l0.5,5.4l-0.6,0c0.667,-1.867 1.733,-3.308 3.2,-4.325c1.467,-1.017 3.217,-1.525 5.25,-1.525c2.067,0 3.767,0.492 5.1,1.475c1.333,0.983 2.233,2.525 2.7,4.625l-0.75,0c0.633,-1.867 1.75,-3.35 3.35,-4.45c1.6,-1.1 3.467,-1.65 5.6,-1.65c2.767,0 4.85,0.808 6.25,2.425c1.4,1.617 2.1,4.125 2.1,7.525l-0,15.65l-4.55,0l-0,-15.4c-0,-2.3 -0.4,-3.958 -1.2,-4.975c-0.8,-1.017 -2.067,-1.525 -3.8,-1.525c-2.033,0 -3.633,0.692 -4.8,2.075c-1.167,1.383 -1.75,3.258 -1.75,5.625l-0,14.2l-4.55,0l-0,-15.4c-0,-2.3 -0.392,-3.958 -1.175,-4.975c-0.783,-1.017 -2.058,-1.525 -3.825,-1.525c-2.033,0 -3.625,0.692 -4.775,2.075c-1.15,1.383 -1.725,3.258 -1.725,5.625l-0,14.2l-4.55,0Z" style="fill:#3666b1;fill-rule:nonzero;"/></g><g id="Wheel-center" serif:id="Wheel center"><path d="M917.634,703.66l-0,21.007" style="fill:none;stroke:#3666b1;stroke-width:4.17px;stroke-linecap:butt;"/><path d="M907.13,714.163l21.007,0" style="fill:none;stroke:#3666b1;stroke-width:4.17px;stroke-linecap:butt;"/></g></svg>