<?xml version="1.0" encoding="UTF-8" standalone="no"?>
<!DOCTYPE svg PUBLIC "-//W3C//DTD SVG 1.1//EN" "http://www.w3.org/Graphics/SVG/1.1/DTD/svg11.dtd">
<svg width="100%" height="100%" viewBox="0 0 1831 681" version="1.1" xmlns="http://www.w3.org/2000/svg" xmlns:xlink="http://www.w3.org/1999/xlink" xml:space="preserve" xmlns:serif="http://www.serif.com/" style="fill-rule:evenodd;clip-rule:evenodd;stroke-linecap:round;stroke-linejoin:round;stroke-miterlimit:1.5;">
    <g transform="matrix(1,0,0,1,-10954,-16800)">
        <g id="Side" transform="matrix(1.03118,0,0,0.429836,11308.7,14303.3)">
            <rect x="-343.746" y="5808.7" width="1775.29" height="1583.92" style="fill:none;"/>
            <g id="Line-Drawing" serif:id="Line Drawing" transform="matrix(0.96976,0,0,2.32647,54.927,-8754.23)">
                <g id="Bumper" transform="matrix(1,0,0,1,-11353.3,-7078.82)">
                    <path d="M11329.6,13833.9C11330.8,13838.3 11334.8,13841.3 11339.4,13841.3C11430.5,13841.3 12301.5,13841.1 12393.2,13841.1C12397.8,13841.1 12401.8,13838 12403,13833.6C12407.3,13817.2 12417.4,13778.3 12422.7,13758.3C12424.8,13750.1 12425.9,13741.7 12425.9,13733.2C12425.9,13711.1 12425.9,13666 12425.9,13643.8C12425.9,13635.1 12424.8,13626.6 12422.6,13618.2C12417.2,13598.3 12407,13559.9 12402.7,13543.7C12401.5,13539.3 12397.5,13536.2 12392.9,13536.2C12301.4,13536.2 11430.4,13536.7 11339.1,13536.8C11334.5,13536.8 11330.5,13539.8 11329.3,13544.2C11324.9,13560.3 11314.7,13598.4 11309.3,13618.3C11307,13626.8 11305.8,13635.5 11305.8,13644.2C11305.8,13666.5 11305.8,13711.6 11305.8,13734C11305.8,13742.9 11307,13751.7 11309.4,13760.3C11314.9,13780.2 11325.2,13817.9 11329.6,13833.9Z" style="fill:none;stroke:rgb(8,6,5);stroke-width:4.17px;"/>
                </g>
                <g id="Wheel" transform="matrix(0.15884,7.99974e-05,7.99974e-05,-0.15884,421.476,6812.49)">
                    <path d="M224.034,313.698C446.582,193.735 714.493,193.735 936.774,313.698" style="fill:none;fill-rule:nonzero;stroke:rgb(8,6,5);stroke-width:26.23px;stroke-miterlimit:10;"/>
                </g>
                <g id="Charging-contact" serif:id="Charging contact" transform="matrix(1,0,0,1,-11353.3,-7078.82)">
                    <path d="M12331.6,13671.7L12401,13671.7C12415.6,13671.8 12416.6,13706.4 12401,13706.5L12331.7,13706.5C12322.6,13706.4 12322.6,13671.6 12331.6,13671.7Z" style="fill:none;stroke:rgb(8,6,5);stroke-width:4.17px;"/>
                </g>
                <g id="Grip-Area" serif:id="Grip Area" transform="matrix(1,0,0,1,-11353.3,-7078.82)">
                    <path d="M12039.4,13597.4C12076.2,13598.7 12108.7,13632.9 12109.6,13687.6C12110.6,13742.9 12082.6,13781.9 12039.4,13783.3L11693.2,13783.3C11643.3,13780.9 11619.4,13738.2 11621.2,13684.9C11622.9,13635.7 11653.4,13598.6 11693.2,13597.4L12039.4,13597.4Z" style="fill:none;stroke:rgb(8,6,5);stroke-width:4.17px;stroke-dasharray:8.33,12.5,0,0,0,0;stroke-dashoffset:375;"/>
                </g>
                <g id="Top">
                    <g transform="matrix(-2.91784e-17,0.15884,-0.15884,-2.91784e-17,1683.41,4531.92)">
                        <path d="M12091,7535L12091,7201" style="fill:none;fill-rule:nonzero;stroke:rgb(8,6,5);stroke-width:26.23px;stroke-miterlimit:10;"/>
                    </g>
                    <g transform="matrix(-0.154856,0.0353521,0.0353521,0.154856,485.721,6452.9)">
                        <path d="M-43.989,8.137C-38.495,6.883 -32.79,6.883 -27.296,8.137" style="fill:none;fill-rule:nonzero;stroke:rgb(8,6,5);stroke-width:26.23px;stroke-miterlimit:10;"/>
                    </g>
                    <g transform="matrix(-0.155676,-0.031548,-0.031548,0.155676,540.973,6455.12)">
                        <path d="M28.573,-7.3C33.488,-8.296 38.553,-8.296 43.469,-7.3" style="fill:none;fill-rule:nonzero;stroke:rgb(8,6,5);stroke-width:26.23px;stroke-miterlimit:10;"/>
                    </g>
                    <g transform="matrix(-0.154827,0.0354786,0.0354786,0.154827,497.329,6452.91)">
                        <path d="M27.253,-8.164C32.766,-9.427 38.493,-9.427 44.005,-8.164" style="fill:none;fill-rule:nonzero;stroke:rgb(8,6,5);stroke-width:26.23px;stroke-miterlimit:10;"/>
                    </g>
                    <g transform="matrix(-2.91784e-17,0.15884,-0.15884,-2.91784e-17,1075.68,4531.92)">
                        <path d="M12028,5384L12028,5526" style="fill:none;fill-rule:nonzero;stroke:rgb(8,6,5);stroke-width:26.23px;stroke-miterlimit:10;"/>
                    </g>
                    <g transform="matrix(-2.91784e-17,0.15884,-0.15884,-2.91784e-17,2618.18,4531.92)">
                        <path d="M12063,10359L12063,10262" style="fill:none;fill-rule:nonzero;stroke:rgb(8,6,5);stroke-width:26.23px;stroke-miterlimit:10;"/>
                    </g>
                    <g transform="matrix(-2.91784e-17,0.15884,-0.15884,-2.91784e-17,973.232,4531.92)">
                        <path d="M12028,4881L12028,5384" style="fill:none;fill-rule:nonzero;stroke:rgb(8,6,5);stroke-width:26.23px;stroke-miterlimit:10;"/>
                    </g>
                    <g transform="matrix(-0.115217,0.109339,0.109339,0.115217,111.336,6458.73)">
                        <path d="M-101.546,-44.987C-68.555,-76.295 -16.828,-76.295 16.163,-44.987" style="fill:none;fill-rule:nonzero;stroke:rgb(8,6,5);stroke-width:26.23px;stroke-miterlimit:10;"/>
                    </g>
                    <g transform="matrix(-0.13889,-0.0770699,-0.0770699,0.13889,994.934,6455.38)">
                        <path d="M13.27,-20.153C27.605,-28.107 45.029,-28.107 59.365,-20.153" style="fill:none;fill-rule:nonzero;stroke:rgb(8,6,5);stroke-width:26.23px;stroke-miterlimit:10;"/>
                    </g>
                    <g transform="matrix(-2.91784e-17,0.15884,-0.15884,-2.91784e-17,2347.2,4531.92)">
                        <path d="M12028,8945L12028,9970" style="fill:none;fill-rule:nonzero;stroke:rgb(8,6,5);stroke-width:26.23px;stroke-miterlimit:10;"/>
                    </g>
                    <g transform="matrix(-2.91784e-17,0.15884,-0.15884,-2.91784e-17,1976.15,4531.92)">
                        <path d="M12028,8945L12028,7634" style="fill:none;fill-rule:nonzero;stroke:rgb(8,6,5);stroke-width:26.23px;stroke-miterlimit:10;"/>
                    </g>
                    <g transform="matrix(-0.127536,0.094682,0.094682,0.127536,552.176,6437.19)">
                        <path d="M4.009,39.485C33.21,17.807 73.162,17.807 102.363,39.485" style="fill:none;fill-rule:nonzero;stroke:rgb(8,6,5);stroke-width:26.23px;stroke-miterlimit:10;"/>
                    </g>
                    <g transform="matrix(-0.15884,-2.91784e-17,-2.91784e-17,0.15884,2326.31,5369.4)">
                        <path d="M11675.5,6755.5L12380.5,6755.5" style="fill:none;fill-rule:nonzero;stroke:rgb(8,6,5);stroke-width:26.23px;stroke-miterlimit:10;"/>
                    </g>
                    <g transform="matrix(-0.126682,-0.0958215,-0.0958215,0.126682,481.003,6457.43)">
                        <path d="M2.708,-39.693C32.15,-61.963 72.803,-61.963 102.245,-39.693" style="fill:none;fill-rule:nonzero;stroke:rgb(8,6,5);stroke-width:26.23px;stroke-miterlimit:10;"/>
                    </g>
                    <g transform="matrix(-2.91784e-17,0.15884,-0.15884,-2.91784e-17,1288.69,4531.92)">
                        <path d="M12028,5848L12028,6403" style="fill:none;fill-rule:nonzero;stroke:rgb(8,6,5);stroke-width:26.23px;stroke-miterlimit:10;"/>
                    </g>
                    <g transform="matrix(-2.91784e-17,0.15884,-0.15884,-2.91784e-17,1149.39,4531.92)">
                        <path d="M12028,5848L12028,5526" style="fill:none;fill-rule:nonzero;stroke:rgb(8,6,5);stroke-width:26.23px;stroke-miterlimit:10;"/>
                    </g>
                    <g transform="matrix(-0.156732,0.0257914,0.0257914,0.156732,1938.12,5307.99)">
                        <path d="M11986.9,5292L12147.1,5292" style="fill:none;fill-rule:nonzero;stroke:rgb(8,6,5);stroke-width:26.23px;stroke-miterlimit:10;"/>
                    </g>
                    <g transform="matrix(-2.91784e-17,0.15884,-0.15884,-2.91784e-17,2642.16,4531.92)">
                        <path d="M12061,10516L12063,10510L12065,10498L12066,10491L12072,10455L12073,10448L12074,10443L12079,10413L12079,10408L12080,10402L12081,10397L12082,10391L12083,10386L12084,10380L12084,10375L12087,10360L12087,10355L12088,10350L12089,10346L12090,10341L12090,10336L12091,10332L12091,10328L12093,10320L12093,10316L12094,10312L12094,10308L12095,10305L12095,10301L12096,10298L12096,10295L12097,10292L12097,10286L12098,10283L12098,10278L12099,10276L12099,10272L12100,10270L12100,10265L12101,10263L12101,10258L12102,10256" style="fill:none;fill-rule:nonzero;stroke:rgb(8,6,5);stroke-width:26.23px;stroke-miterlimit:10;"/>
                    </g>
                    <g transform="matrix(0.150689,0.0502296,0.0502296,-0.150689,-1697.62,6929.09)">
                        <path d="M12082.9,7193.87L12089.2,7193.87L12092,7194.82L12096.1,7195.13" style="fill:none;fill-rule:nonzero;stroke:rgb(8,6,5);stroke-width:26.23px;stroke-miterlimit:10;"/>
                    </g>
                    <g transform="matrix(-2.91784e-17,0.15884,-0.15884,-2.91784e-17,1739.63,4531.92)">
                        <path d="M12091,7555L12090,7553L12090,7550L12089,7547L12089,7545L12088,7542L12088,7540L12087,7537L12087,7535" style="fill:none;fill-rule:nonzero;stroke:rgb(8,6,5);stroke-width:26.23px;stroke-miterlimit:10;"/>
                    </g>
                    <g transform="matrix(0.156549,0.0268821,0.0268821,-0.156549,-1197.24,7720.15)">
                        <path d="M12002.3,10206.5L12102.7,10206.5" style="fill:none;fill-rule:nonzero;stroke:rgb(8,6,5);stroke-width:26.23px;stroke-miterlimit:10;"/>
                    </g>
                    <g transform="matrix(-2.91784e-17,0.15884,-0.15884,-2.91784e-17,2691.72,4531.92)">
                        <path d="M12102,10567L12102,10564L12103,10561L12104,10557L12106,10551L12107,10547L12109,10544L12111,10538L12115,10532L12116,10529L12118,10526" style="fill:none;fill-rule:nonzero;stroke:rgb(8,6,5);stroke-width:26.23px;stroke-miterlimit:10;"/>
                    </g>
                    <g transform="matrix(-2.91784e-17,0.15884,-0.15884,-2.91784e-17,2539.71,4531.92)">
                        <path d="M12028,10157L12028,10134L12029,10122L12029,10110L12030,10099L12030,10087L12032,10063L12033,10052L12034,10040L12036,10028L12037,10017L12039,10005L12040,9993L12042,9982L12044,9970" style="fill:none;fill-rule:nonzero;stroke:rgb(8,6,5);stroke-width:26.23px;stroke-miterlimit:10;"/>
                    </g>
                    <g transform="matrix(-2.91784e-17,0.15884,-0.15884,-2.91784e-17,1684.2,4531.92)">
                        <path d="M12081,7578L12081,7577L12082,7576L12082,7574L12083,7573L12083,7572L12084,7570L12084,7569L12085,7567L12085,7565L12086,7563L12086,7561L12087,7559L12087,7557L12088,7554L12089,7552L12089,7549L12090,7547L12090,7544L12091,7541L12091,7538L12092,7535L12092,7532L12093,7529L12094,7525L12094,7522L12095,7519L12095,7515L12096,7511L12096,7504L12097,7500L12097,7497L12098,7493L12098,7489L12099,7485L12099,7477L12100,7473L12100,7464L12101,7460L12101,7452L12102,7447L12102,7430L12103,7425L12103,7398L12104,7393L12104,7356L12103,7352L12103,7324L12102,7320L12102,7302L12101,7297L12101,7289L12100,7284L12100,7276L12099,7272L12099,7263L12098,7259L12098,7255L12097,7251L12097,7248L12096,7244L12096,7236L12095,7232L12095,7229L12094,7225L12094,7222L12093,7218L12092,7215L12092,7212L12091,7209L12091,7205L12090,7202L12090,7199L12089,7197L12088,7194L12088,7191L12087,7188L12087,7186L12086,7184L12086,7181L12084,7177L12084,7175L12083,7173L12083,7172L12082,7170L12082,7169L12081,7167L12081,7165L12080,7164L12080,7163" style="fill:none;fill-rule:nonzero;stroke:rgb(8,6,5);stroke-width:26.23px;stroke-miterlimit:10;"/>
                    </g>
                    <g transform="matrix(-2.91784e-17,0.15884,-0.15884,-2.91784e-17,740.055,4531.92)">
                        <path d="M12101,4495L12101,4492L12100,4491L12100,4484L12099,4483L12099,4476L12098,4474L12098,4468L12097,4466L12097,4459L12096,4456L12096,4451L12095,4448L12095,4445L12094,4442L12094,4436L12093,4433L12093,4427L12092,4423L12092,4420L12091,4417L12091,4413L12090,4410L12090,4406L12089,4402L12089,4399L12088,4395L12088,4391L12087,4387L12087,4383L12086,4379L12086,4375L12085,4371L12085,4366L12083,4358L12083,4353L12082,4349L12082,4344L12081,4340L12080,4335L12080,4331L12079,4326L12078,4322L12078,4317L12076,4307L12076,4302" style="fill:none;fill-rule:nonzero;stroke:rgb(8,6,5);stroke-width:26.23px;stroke-miterlimit:10;"/>
                    </g>
                    <g transform="matrix(-2.91784e-17,0.15884,-0.15884,-2.91784e-17,698.915,4531.92)">
                        <path d="M12124,4292L12122,4290L12120,4287L12119,4284L12117,4282L12115,4279L12114,4276L12112,4273L12110,4267L12108,4264L12103,4249L12103,4246" style="fill:none;fill-rule:nonzero;stroke:rgb(8,6,5);stroke-width:26.23px;stroke-miterlimit:10;"/>
                    </g>
                    <g transform="matrix(-2.91784e-17,0.15884,-0.15884,-2.91784e-17,763.881,4531.92)">
                        <path d="M12101,4645L12101,4642L12100,4640L12100,4633L12099,4631L12099,4625L12098,4623L12098,4620L12097,4616L12097,4610L12096,4606L12096,4602L12095,4598L12095,4594L12094,4590L12094,4585L12093,4581L12092,4576L12092,4571L12090,4561L12090,4555L12089,4550L12088,4544L12088,4539L12084,4515L12084,4508L12082,4496L12079,4475L12078,4469L12076,4455L12075,4447L12072,4426L12071,4418L12070,4411L12068,4403L12067,4396L12065,4380L12064,4373L12063,4365L12061,4357L12059,4341L12058,4334L12056,4326L12054,4310L12052,4302" style="fill:none;fill-rule:nonzero;stroke:rgb(8,6,5);stroke-width:26.23px;stroke-miterlimit:10;"/>
                    </g>
                    <g transform="matrix(-2.91784e-17,0.15884,-0.15884,-2.91784e-17,707.81,4531.92)">
                        <path d="M12103,4302L12102,4300L12102,4296L12101,4296L12101,4292" style="fill:none;fill-rule:nonzero;stroke:rgb(8,6,5);stroke-width:26.23px;stroke-miterlimit:10;"/>
                    </g>
                    <g transform="matrix(-2.91784e-17,0.15884,-0.15884,-2.91784e-17,1090.14,4531.92)">
                        <path d="M12045,5577L12041,5557L12041,5552L12038,5537L12038,5532L12036,5522L12036,5517L12035,5512L12034,5508L12034,5503L12033,5498L12033,5493L12032,5488L12032,5483L12031,5479L12031,5474L12030,5469L12030,5460L12029,5456L12029,5437L12028,5433L12028,5424" style="fill:none;fill-rule:nonzero;stroke:rgb(8,6,5);stroke-width:26.23px;stroke-miterlimit:10;"/>
                    </g>
                    <g transform="matrix(-2.91784e-17,0.15884,-0.15884,-2.91784e-17,855.055,4531.92)">
                        <path d="M12044,4829L12043,4821L12042,4812L12040,4804L12039,4795L12038,4787L12036,4769L12035,4761L12034,4752L12033,4744L12033,4735L12032,4726L12031,4718L12031,4709L12030,4700L12030,4692" style="fill:none;fill-rule:nonzero;stroke:rgb(8,6,5);stroke-width:26.23px;stroke-miterlimit:10;"/>
                    </g>
                    <g transform="matrix(-2.91784e-17,0.15884,-0.15884,-2.91784e-17,968.943,4531.92)">
                        <path d="M12107,5213L12106,5208L12105,5202L12105,5197L12104,5191L12103,5186L12103,5180L12102,5174L12101,5169L12100,5163L12100,5157L12097,5139L12096,5134L12096,5128L12090,5092L12090,5086L12088,5074L12087,5067L12080,5025" style="fill:none;fill-rule:nonzero;stroke:rgb(8,6,5);stroke-width:26.23px;stroke-miterlimit:10;"/>
                    </g>
                    <g transform="matrix(0.15884,2.91784e-17,2.91784e-17,-0.15884,-1816.4,7224.33)">
                        <path d="M12061.5,4826.5L12186.5,4826.5" style="fill:none;fill-rule:nonzero;stroke:rgb(8,6,5);stroke-width:26.23px;stroke-miterlimit:10;"/>
                    </g>
                    <g transform="matrix(0.156588,-0.0266532,-0.0266532,-0.156588,-1677.86,7497.77)">
                        <path d="M12024.2,4668.5L12071.8,4668.5" style="fill:none;fill-rule:nonzero;stroke:rgb(8,6,5);stroke-width:26.23px;stroke-miterlimit:10;"/>
                    </g>
                    <g transform="matrix(-2.91784e-17,0.15884,-0.15884,-2.91784e-17,917.479,4531.92)">
                        <path d="M12124,5025L12124,5022L12123,5018L12123,5004L12122,5001L12122,4997L12121,4993L12121,4985L12119,4977L12119,4973L12118,4969L12118,4965L12117,4961L12116,4956L12116,4952L12115,4947L12114,4943L12113,4938L12113,4934L12111,4924L12111,4919L12108,4904L12108,4899L12107,4894L12107,4889" style="fill:none;fill-rule:nonzero;stroke:rgb(8,6,5);stroke-width:26.23px;stroke-miterlimit:10;"/>
                    </g>
                    <g transform="matrix(-2.91784e-17,0.15884,-0.15884,-2.91784e-17,1057.42,4531.92)">
                        <path d="M12054,5424L12052,5410L12051,5404L12050,5397L12048,5391L12047,5384L12046,5378L12045,5371" style="fill:none;fill-rule:nonzero;stroke:rgb(8,6,5);stroke-width:26.23px;stroke-miterlimit:10;"/>
                    </g>
                    <g transform="matrix(0.158291,-0.0131909,-0.0131909,-0.158291,-1726.48,7369.46)">
                        <path d="M12005,4854L12017,4854L12029,4853L12041,4853L12053,4852" style="fill:none;fill-rule:nonzero;stroke:rgb(8,6,5);stroke-width:26.23px;stroke-miterlimit:10;"/>
                    </g>
                    <g transform="matrix(-2.91784e-17,0.15884,-0.15884,-2.91784e-17,844.095,4531.92)">
                        <path d="M12028,4571L12028,4881" style="fill:none;fill-rule:nonzero;stroke:rgb(8,6,5);stroke-width:26.23px;stroke-miterlimit:10;"/>
                    </g>
                    <g transform="matrix(-0.134739,0.0841152,0.0841152,0.134739,62.7757,6457.77)">
                        <path d="M-83.685,-61.523C-55.978,-78.82 -20.837,-78.82 6.87,-61.523" style="fill:none;fill-rule:nonzero;stroke:rgb(8,6,5);stroke-width:26.23px;stroke-miterlimit:10;"/>
                    </g>
                </g>
                <g id="Slide">
                    <g transform="matrix(0.108051,-0.116427,0.116427,0.108051,791.168,6760.89)">
                        <path d="M-223.876,-224.5C-228.529,-162.226 -207.034,-100.827 -164.554,-55.054C-122.074,-9.281 -62.448,16.73 0,16.73" style="fill:none;fill-rule:nonzero;stroke:rgb(8,6,5);stroke-width:26.23px;stroke-miterlimit:10;"/>
                    </g>
                    <g transform="matrix(0.108051,-0.116427,0.116427,0.108051,284.468,6760.89)">
                        <path d="M-223.876,-224.5C-228.529,-162.226 -207.034,-100.827 -164.554,-55.054C-122.074,-9.281 -62.448,16.73 0,16.73" style="fill:none;fill-rule:nonzero;stroke:rgb(8,6,5);stroke-width:26.23px;stroke-miterlimit:10;"/>
                    </g>
                </g>
            </g>
            <g transform="matrix(5.93807e-17,2.32647,-0.96976,1.42455e-16,6961.45,2997.48)">
                <g transform="matrix(1.64466,0,2.81037e-32,4.56009,-19153.6,-40285)">
                    <path d="M12417.8,10160.7L12537.4,10160.7" style="fill:none;stroke:rgb(54,102,177);stroke-width:1.22px;stroke-linecap:butt;"/>
                </g>
                <g transform="matrix(2.16702e-16,-2.06075,11.4004,4.7072e-16,-114542,31884.2)">
                    <g transform="matrix(0.48526,-3.85288e-18,-9.6774e-18,0.0877159,11816.6,10153.1)">
                        <path d="M1457.42,77.224L1485.55,86.599L1457.42,95.974L1457.42,77.224Z" style="fill:rgb(54,102,177);"/>
                        <path d="M1026.91,86.599L1463.05,86.599" style="fill:none;stroke:rgb(54,102,177);stroke-width:4.17px;stroke-linecap:butt;"/>
                    </g>
                </g>
                <g transform="matrix(-3.68506e-15,0.928953,5.06055,-1.8119e-14,-50123.9,-4475.68)">
                    <g transform="matrix(-1.07648,-7.71787e-16,3.92018e-15,0.197607,12927.3,10143.6)">
                        <path d="M390.325,95.974L362.2,86.599L390.325,77.224L390.325,95.974Z" style="fill:rgb(54,102,177);"/>
                        <path d="M827.073,86.599C827.073,86.599 477.678,86.599 384.7,86.599" style="fill:none;stroke:rgb(54,102,177);stroke-width:4.17px;stroke-linecap:butt;"/>
                    </g>
                </g>
                <g transform="matrix(1.68541,0,2.88e-32,4.67308,-19664.5,-40311)">
                    <path d="M12420.7,10160.7L12537.4,10160.7" style="fill:none;stroke:rgb(54,102,177);stroke-width:1.19px;stroke-linecap:butt;"/>
                </g>
                <g transform="matrix(6.12323e-17,-1,1,6.12323e-17,-8971.06,19108.2)">
                    <g transform="matrix(50,0,0,50,12410.5,10283.6)">
                        <path d="M0.124,-0L0.124,-0.079L0.289,-0.079L0.289,-0.626L0.336,-0.626L0.139,-0.504L0.139,-0.595L0.315,-0.705L0.382,-0.705L0.382,-0.079L0.537,-0.079L0.537,-0L0.124,-0Z" style="fill:rgb(54,102,177);fill-rule:nonzero;"/>
                    </g>
                    <g transform="matrix(50,0,0,50,12440.5,10283.6)">
                        <path d="M0.379,-0L0.379,-0.149L0.048,-0.149L0.048,-0.216L0.394,-0.705L0.47,-0.705L0.47,-0.223L0.576,-0.223L0.576,-0.149L0.47,-0.149L0.47,-0L0.379,-0ZM0.379,-0.223L0.379,-0.595L0.402,-0.595L0.123,-0.201L0.123,-0.223L0.379,-0.223Z" style="fill:rgb(54,102,177);fill-rule:nonzero;"/>
                    </g>
                    <g transform="matrix(50,0,0,50,12470.5,10283.6)">
                        <path d="M0.252,0.009C0.215,0.009 0.177,0.001 0.14,-0.014C0.103,-0.029 0.072,-0.05 0.047,-0.075L0.081,-0.146C0.106,-0.121 0.133,-0.103 0.163,-0.09C0.192,-0.077 0.222,-0.071 0.253,-0.071C0.318,-0.071 0.369,-0.095 0.404,-0.142C0.439,-0.189 0.457,-0.258 0.457,-0.351L0.457,-0.44L0.467,-0.44C0.463,-0.403 0.452,-0.372 0.433,-0.345C0.413,-0.318 0.39,-0.297 0.361,-0.282C0.332,-0.267 0.3,-0.26 0.263,-0.26C0.221,-0.26 0.184,-0.27 0.151,-0.289C0.118,-0.308 0.093,-0.335 0.074,-0.369C0.055,-0.402 0.046,-0.441 0.046,-0.484C0.046,-0.529 0.056,-0.568 0.076,-0.603C0.095,-0.638 0.122,-0.665 0.157,-0.685C0.192,-0.704 0.232,-0.714 0.277,-0.714C0.364,-0.714 0.43,-0.684 0.477,-0.624C0.524,-0.563 0.547,-0.478 0.547,-0.369C0.547,-0.288 0.535,-0.22 0.512,-0.164C0.488,-0.107 0.454,-0.064 0.41,-0.035C0.366,-0.006 0.313,0.009 0.252,0.009ZM0.283,-0.337C0.312,-0.337 0.338,-0.343 0.361,-0.356C0.383,-0.369 0.4,-0.386 0.413,-0.409C0.426,-0.432 0.432,-0.458 0.432,-0.487C0.432,-0.517 0.426,-0.543 0.413,-0.566C0.4,-0.588 0.383,-0.606 0.361,-0.619C0.338,-0.632 0.312,-0.638 0.283,-0.638C0.254,-0.638 0.228,-0.632 0.206,-0.619C0.183,-0.606 0.166,-0.588 0.154,-0.566C0.141,-0.543 0.135,-0.517 0.135,-0.487C0.135,-0.458 0.141,-0.432 0.154,-0.409C0.166,-0.386 0.183,-0.369 0.206,-0.356C0.228,-0.343 0.254,-0.337 0.283,-0.337Z" style="fill:rgb(54,102,177);fill-rule:nonzero;"/>
                    </g>
                    <g transform="matrix(50,0,0,50,12500.5,10283.6)">
                        <path d="M0.076,-0L0.076,-0.384C0.076,-0.403 0.075,-0.423 0.074,-0.443C0.073,-0.463 0.071,-0.483 0.068,-0.503L0.156,-0.503L0.166,-0.395L0.154,-0.395C0.167,-0.432 0.189,-0.461 0.218,-0.482C0.247,-0.502 0.282,-0.512 0.323,-0.512C0.364,-0.512 0.398,-0.502 0.425,-0.483C0.452,-0.463 0.47,-0.432 0.479,-0.39L0.464,-0.39C0.477,-0.427 0.499,-0.457 0.531,-0.479C0.563,-0.501 0.6,-0.512 0.643,-0.512C0.698,-0.512 0.74,-0.496 0.768,-0.464C0.796,-0.431 0.81,-0.381 0.81,-0.313L0.81,-0L0.719,-0L0.719,-0.308C0.719,-0.354 0.711,-0.387 0.695,-0.408C0.679,-0.428 0.654,-0.438 0.619,-0.438C0.578,-0.438 0.546,-0.424 0.523,-0.397C0.5,-0.369 0.488,-0.331 0.488,-0.284L0.488,-0L0.397,-0L0.397,-0.308C0.397,-0.354 0.389,-0.387 0.374,-0.408C0.358,-0.428 0.332,-0.438 0.297,-0.438C0.256,-0.438 0.225,-0.424 0.202,-0.397C0.179,-0.369 0.167,-0.331 0.167,-0.284L0.167,-0L0.076,-0Z" style="fill:rgb(54,102,177);fill-rule:nonzero;"/>
                    </g>
                    <g transform="matrix(50,0,0,50,12544.6,10283.6)">
                        <path d="M0.076,-0L0.076,-0.384C0.076,-0.403 0.075,-0.423 0.074,-0.443C0.073,-0.463 0.071,-0.483 0.068,-0.503L0.156,-0.503L0.166,-0.395L0.154,-0.395C0.167,-0.432 0.189,-0.461 0.218,-0.482C0.247,-0.502 0.282,-0.512 0.323,-0.512C0.364,-0.512 0.398,-0.502 0.425,-0.483C0.452,-0.463 0.47,-0.432 0.479,-0.39L0.464,-0.39C0.477,-0.427 0.499,-0.457 0.531,-0.479C0.563,-0.501 0.6,-0.512 0.643,-0.512C0.698,-0.512 0.74,-0.496 0.768,-0.464C0.796,-0.431 0.81,-0.381 0.81,-0.313L0.81,-0L0.719,-0L0.719,-0.308C0.719,-0.354 0.711,-0.387 0.695,-0.408C0.679,-0.428 0.654,-0.438 0.619,-0.438C0.578,-0.438 0.546,-0.424 0.523,-0.397C0.5,-0.369 0.488,-0.331 0.488,-0.284L0.488,-0L0.397,-0L0.397,-0.308C0.397,-0.354 0.389,-0.387 0.374,-0.408C0.358,-0.428 0.332,-0.438 0.297,-0.438C0.256,-0.438 0.225,-0.424 0.202,-0.397C0.179,-0.369 0.167,-0.331 0.167,-0.284L0.167,-0L0.076,-0Z" style="fill:rgb(54,102,177);fill-rule:nonzero;"/>
                    </g>
                </g>
            </g>
            <g id="Wheel-center" serif:id="Wheel center" transform="matrix(0.96976,0,0,2.32647,43.5974,-8718.41)">
                <g transform="matrix(1,0,0,1,-11353.3,-7078.82)">
                    <path d="M11868.8,13712.1L11868.8,13733.1" style="fill:none;stroke:rgb(54,102,177);stroke-width:4.17px;stroke-linecap:butt;"/>
                </g>
                <g transform="matrix(6.12323e-17,-1,1,6.12323e-17,-13207.2,18512.6)">
                    <path d="M11868.8,13712.1L11868.8,13733.1" style="fill:none;stroke:rgb(54,102,177);stroke-width:4.17px;stroke-linecap:butt;"/>
                </g>
            </g>
            <g transform="matrix(0.96976,0,0,2.32647,-1189.61,-8649.2)">
                <g transform="matrix(0.779954,0,0,1,-8439.4,-3763.92)">
                    <path d="M12232.2,10160.7L12537.4,10160.7" style="fill:none;stroke:rgb(54,102,177);stroke-width:4.65px;stroke-linecap:butt;"/>
                </g>
                <g transform="matrix(2.93269e-17,-0.464051,1.40526,8.33716e-17,-13152,12214.9)">
                    <g transform="matrix(1.27849e-16,0.711612,-2.15494,4.49721e-17,12930.5,9979.63)">
                        <path d="M245.075,210.541L254.45,182.416L263.825,210.541L245.075,210.541Z" style="fill:rgb(54,102,177);"/>
                        <path d="M254.45,324.059L254.45,204.916" style="fill:none;stroke:rgb(54,102,177);stroke-width:4.17px;stroke-linecap:butt;"/>
                    </g>
                </g>
                <g transform="matrix(3.06387e-17,0.475485,1.46812,-8.54259e-17,-13790.7,771.172)">
                    <g transform="matrix(1.22375e-16,0.681144,2.10312,-4.38907e-17,11447.9,9987.38)">
                        <path d="M263.825,489.96L254.45,518.085L245.075,489.96L263.825,489.96Z" style="fill:rgb(54,102,177);"/>
                        <path d="M254.45,372.951L254.45,495.585" style="fill:none;stroke:rgb(54,102,177);stroke-width:4.17px;stroke-linecap:butt;"/>
                    </g>
                </g>
                <g transform="matrix(2.17367,0,0,1,-25487.6,-3428.18)">
                    <path d="M12232.2,10160.7L12537.4,10160.7" style="fill:none;stroke:rgb(54,102,177);stroke-width:2.46px;stroke-linecap:butt;"/>
                </g>
                <g transform="matrix(1,0,0,1,-11357.3,-3704.66)">
                    <g transform="matrix(50,0,0,50,12410.5,10283.6)">
                        <path d="M0.379,-0L0.379,-0.149L0.048,-0.149L0.048,-0.216L0.394,-0.705L0.47,-0.705L0.47,-0.223L0.576,-0.223L0.576,-0.149L0.47,-0.149L0.47,-0L0.379,-0ZM0.379,-0.223L0.379,-0.595L0.402,-0.595L0.123,-0.201L0.123,-0.223L0.379,-0.223Z" style="fill:rgb(54,102,177);fill-rule:nonzero;"/>
                    </g>
                    <g transform="matrix(50,0,0,50,12440.5,10283.6)">
                        <path d="M0.312,0.009C0.281,0.009 0.251,0.006 0.222,-0.001C0.192,-0.008 0.164,-0.017 0.138,-0.03C0.112,-0.042 0.089,-0.057 0.07,-0.075L0.103,-0.147C0.136,-0.121 0.169,-0.102 0.203,-0.09C0.237,-0.077 0.273,-0.071 0.31,-0.071C0.359,-0.071 0.398,-0.084 0.426,-0.11C0.454,-0.136 0.468,-0.171 0.468,-0.214C0.468,-0.259 0.455,-0.295 0.428,-0.323C0.401,-0.35 0.364,-0.364 0.317,-0.364C0.284,-0.364 0.255,-0.358 0.229,-0.345C0.202,-0.332 0.179,-0.311 0.159,-0.283L0.093,-0.283L0.093,-0.705L0.516,-0.705L0.516,-0.626L0.183,-0.626L0.183,-0.359L0.159,-0.359C0.177,-0.386 0.202,-0.406 0.233,-0.421C0.264,-0.436 0.298,-0.443 0.337,-0.443C0.382,-0.443 0.422,-0.434 0.455,-0.415C0.488,-0.396 0.513,-0.37 0.532,-0.337C0.55,-0.303 0.559,-0.264 0.559,-0.219C0.559,-0.174 0.549,-0.135 0.529,-0.101C0.509,-0.066 0.481,-0.039 0.444,-0.02C0.407,-0.001 0.363,0.009 0.312,0.009Z" style="fill:rgb(54,102,177);fill-rule:nonzero;"/>
                    </g>
                    <g transform="matrix(50,0,0,50,12470.5,10283.6)">
                        <path d="M0.076,-0L0.076,-0.384C0.076,-0.403 0.075,-0.423 0.074,-0.443C0.073,-0.463 0.071,-0.483 0.068,-0.503L0.156,-0.503L0.166,-0.395L0.154,-0.395C0.167,-0.432 0.189,-0.461 0.218,-0.482C0.247,-0.502 0.282,-0.512 0.323,-0.512C0.364,-0.512 0.398,-0.502 0.425,-0.483C0.452,-0.463 0.47,-0.432 0.479,-0.39L0.464,-0.39C0.477,-0.427 0.499,-0.457 0.531,-0.479C0.563,-0.501 0.6,-0.512 0.643,-0.512C0.698,-0.512 0.74,-0.496 0.768,-0.464C0.796,-0.431 0.81,-0.381 0.81,-0.313L0.81,-0L0.719,-0L0.719,-0.308C0.719,-0.354 0.711,-0.387 0.695,-0.408C0.679,-0.428 0.654,-0.438 0.619,-0.438C0.578,-0.438 0.546,-0.424 0.523,-0.397C0.5,-0.369 0.488,-0.331 0.488,-0.284L0.488,-0L0.397,-0L0.397,-0.308C0.397,-0.354 0.389,-0.387 0.374,-0.408C0.358,-0.428 0.332,-0.438 0.297,-0.438C0.256,-0.438 0.225,-0.424 0.202,-0.397C0.179,-0.369 0.167,-0.331 0.167,-0.284L0.167,-0L0.076,-0Z" style="fill:rgb(54,102,177);fill-rule:nonzero;"/>
                    </g>
                    <g transform="matrix(50,0,0,50,12514.6,10283.6)">
                        <path d="M0.076,-0L0.076,-0.384C0.076,-0.403 0.075,-0.423 0.074,-0.443C0.073,-0.463 0.071,-0.483 0.068,-0.503L0.156,-0.503L0.166,-0.395L0.154,-0.395C0.167,-0.432 0.189,-0.461 0.218,-0.482C0.247,-0.502 0.282,-0.512 0.323,-0.512C0.364,-0.512 0.398,-0.502 0.425,-0.483C0.452,-0.463 0.47,-0.432 0.479,-0.39L0.464,-0.39C0.477,-0.427 0.499,-0.457 0.531,-0.479C0.563,-0.501 0.6,-0.512 0.643,-0.512C0.698,-0.512 0.74,-0.496 0.768,-0.464C0.796,-0.431 0.81,-0.381 0.81,-0.313L0.81,-0L0.719,-0L0.719,-0.308C0.719,-0.354 0.711,-0.387 0.695,-0.408C0.679,-0.428 0.654,-0.438 0.619,-0.438C0.578,-0.438 0.546,-0.424 0.523,-0.397C0.5,-0.369 0.488,-0.331 0.488,-0.284L0.488,-0L0.397,-0L0.397,-0.308C0.397,-0.354 0.389,-0.387 0.374,-0.408C0.358,-0.428 0.332,-0.438 0.297,-0.438C0.256,-0.438 0.225,-0.424 0.202,-0.397C0.179,-0.369 0.167,-0.331 0.167,-0.284L0.167,-0L0.076,-0Z" style="fill:rgb(54,102,177);fill-rule:nonzero;"/>
                    </g>
                </g>
            </g>
            <g transform="matrix(-0.96976,0,0,2.32647,2290.44,-8649.2)">
                <g transform="matrix(0.779954,0,0,1,-8439.4,-3763.92)">
                    <path d="M12232.2,10160.7L12537.4,10160.7" style="fill:none;stroke:rgb(54,102,177);stroke-width:4.65px;stroke-linecap:butt;"/>
                </g>
                <g transform="matrix(2.93269e-17,-0.437723,1.40526,7.86415e-17,-13152,11884.8)">
                    <g transform="matrix(-1.27849e-16,-0.711612,-2.28455,4.76771e-17,12954.2,11292.2)">
                        <path d="M1580.7,210.541L1590.08,182.416L1599.45,210.541L1580.7,210.541Z" style="fill:rgb(54,102,177);"/>
                        <path d="M1590.08,316.023L1590.08,204.916" style="fill:none;stroke:rgb(54,102,177);stroke-width:4.17px;stroke-linecap:butt;"/>
                    </g>
                </g>
                <g transform="matrix(3.06387e-17,0.434719,1.46812,-7.81019e-17,-13790.7,1266.92)">
                    <g transform="matrix(-1.22375e-16,-0.681144,2.30034,-4.80065e-17,11381,11243.8)">
                        <path d="M1599.45,474.606L1590.08,502.731L1580.7,474.606L1599.45,474.606Z" style="fill:rgb(54,102,177);"/>
                        <path d="M1590.08,370.04L1590.08,480.231" style="fill:none;stroke:rgb(54,102,177);stroke-width:4.17px;stroke-linecap:butt;"/>
                    </g>
                </g>
                <g transform="matrix(0.495603,0,0,1,-4961.16,-3443.52)">
                    <path d="M12232.2,10160.7L12537.4,10160.7" style="fill:none;stroke:rgb(54,102,177);stroke-width:5.28px;stroke-linecap:butt;"/>
                </g>
                <g transform="matrix(-1,0,0,1,13610.5,-3710.44)">
                    <g transform="matrix(50,0,0,50,12410.5,10283.6)">
                        <path d="M0.379,-0L0.379,-0.149L0.048,-0.149L0.048,-0.216L0.394,-0.705L0.47,-0.705L0.47,-0.223L0.576,-0.223L0.576,-0.149L0.47,-0.149L0.47,-0L0.379,-0ZM0.379,-0.223L0.379,-0.595L0.402,-0.595L0.123,-0.201L0.123,-0.223L0.379,-0.223Z" style="fill:rgb(54,102,177);fill-rule:nonzero;"/>
                    </g>
                    <g transform="matrix(50,0,0,50,12440.5,10283.6)">
                        <path d="M0.295,0.009C0.247,0.009 0.201,0.002 0.158,-0.013C0.114,-0.028 0.077,-0.048 0.048,-0.075L0.081,-0.147C0.114,-0.12 0.147,-0.101 0.182,-0.089C0.217,-0.077 0.253,-0.071 0.292,-0.071C0.343,-0.071 0.382,-0.082 0.409,-0.104C0.436,-0.125 0.449,-0.156 0.449,-0.197C0.449,-0.237 0.436,-0.267 0.409,-0.288C0.382,-0.309 0.342,-0.319 0.29,-0.319L0.182,-0.319L0.182,-0.396L0.283,-0.396C0.327,-0.396 0.362,-0.407 0.389,-0.43C0.416,-0.453 0.429,-0.484 0.429,-0.523C0.429,-0.559 0.417,-0.587 0.393,-0.606C0.368,-0.624 0.334,-0.634 0.289,-0.634C0.214,-0.634 0.148,-0.608 0.093,-0.555L0.06,-0.626C0.088,-0.654 0.123,-0.676 0.164,-0.691C0.205,-0.706 0.249,-0.714 0.295,-0.714C0.365,-0.714 0.42,-0.698 0.46,-0.666C0.5,-0.634 0.52,-0.589 0.52,-0.532C0.52,-0.489 0.508,-0.452 0.484,-0.421C0.459,-0.389 0.426,-0.369 0.384,-0.359L0.384,-0.37C0.433,-0.361 0.472,-0.341 0.499,-0.31C0.526,-0.278 0.54,-0.238 0.54,-0.191C0.54,-0.129 0.518,-0.08 0.475,-0.045C0.431,-0.009 0.371,0.009 0.295,0.009Z" style="fill:rgb(54,102,177);fill-rule:nonzero;"/>
                    </g>
                    <g transform="matrix(50,0,0,50,12470.5,10283.6)">
                        <path d="M0.076,-0L0.076,-0.384C0.076,-0.403 0.075,-0.423 0.074,-0.443C0.073,-0.463 0.071,-0.483 0.068,-0.503L0.156,-0.503L0.166,-0.395L0.154,-0.395C0.167,-0.432 0.189,-0.461 0.218,-0.482C0.247,-0.502 0.282,-0.512 0.323,-0.512C0.364,-0.512 0.398,-0.502 0.425,-0.483C0.452,-0.463 0.47,-0.432 0.479,-0.39L0.464,-0.39C0.477,-0.427 0.499,-0.457 0.531,-0.479C0.563,-0.501 0.6,-0.512 0.643,-0.512C0.698,-0.512 0.74,-0.496 0.768,-0.464C0.796,-0.431 0.81,-0.381 0.81,-0.313L0.81,-0L0.719,-0L0.719,-0.308C0.719,-0.354 0.711,-0.387 0.695,-0.408C0.679,-0.428 0.654,-0.438 0.619,-0.438C0.578,-0.438 0.546,-0.424 0.523,-0.397C0.5,-0.369 0.488,-0.331 0.488,-0.284L0.488,-0L0.397,-0L0.397,-0.308C0.397,-0.354 0.389,-0.387 0.374,-0.408C0.358,-0.428 0.332,-0.438 0.297,-0.438C0.256,-0.438 0.225,-0.424 0.202,-0.397C0.179,-0.369 0.167,-0.331 0.167,-0.284L0.167,-0L0.076,-0Z" style="fill:rgb(54,102,177);fill-rule:nonzero;"/>
                    </g>
                    <g transform="matrix(50,0,0,50,12514.6,10283.6)">
                        <path d="M0.076,-0L0.076,-0.384C0.076,-0.403 0.075,-0.423 0.074,-0.443C0.073,-0.463 0.071,-0.483 0.068,-0.503L0.156,-0.503L0.166,-0.395L0.154,-0.395C0.167,-0.432 0.189,-0.461 0.218,-0.482C0.247,-0.502 0.282,-0.512 0.323,-0.512C0.364,-0.512 0.398,-0.502 0.425,-0.483C0.452,-0.463 0.47,-0.432 0.479,-0.39L0.464,-0.39C0.477,-0.427 0.499,-0.457 0.531,-0.479C0.563,-0.501 0.6,-0.512 0.643,-0.512C0.698,-0.512 0.74,-0.496 0.768,-0.464C0.796,-0.431 0.81,-0.381 0.81,-0.313L0.81,-0L0.719,-0L0.719,-0.308C0.719,-0.354 0.711,-0.387 0.695,-0.408C0.679,-0.428 0.654,-0.438 0.619,-0.438C0.578,-0.438 0.546,-0.424 0.523,-0.397C0.5,-0.369 0.488,-0.331 0.488,-0.284L0.488,-0L0.397,-0L0.397,-0.308C0.397,-0.354 0.389,-0.387 0.374,-0.408C0.358,-0.428 0.332,-0.438 0.297,-0.438C0.256,-0.438 0.225,-0.424 0.202,-0.397C0.179,-0.369 0.167,-0.331 0.167,-0.284L0.167,-0L0.076,-0Z" style="fill:rgb(54,102,177);fill-rule:nonzero;"/>
                    </g>
                </g>
            </g>
            <g transform="matrix(0.96976,0,0,2.32647,-10966.7,-24932.2)">
                <path d="M11874.3,13624.7L11943.7,13780.1L11993.7,13780.1" style="fill:none;stroke:rgb(54,102,177);stroke-width:4.17px;stroke-linecap:butt;"/>
            </g>
            <g transform="matrix(0.96976,0,0,2.32647,-10966.7,-24932.2)">
                <g transform="matrix(1,-0,-0,1,10954,13213.5)">
                    <path d="M961.59,480.738L964.502,510.241L944.47,488.386L961.59,480.738Z" style="fill:rgb(54,102,177);"/>
                    <path d="M921.677,414.38C921.677,414.38 942.742,461.533 955.324,489.698" style="fill:none;stroke:rgb(54,102,177);stroke-width:4.17px;"/>
                </g>
            </g>
            <g transform="matrix(0.96976,0,0,2.32647,-11375.9,-16756.6)">
                <g transform="matrix(50,0,0,50,12424.5,10283.6)">
                    <path d="M0.086,-0L0.086,-0.705L0.378,-0.705C0.453,-0.705 0.511,-0.687 0.553,-0.652C0.594,-0.617 0.614,-0.567 0.614,-0.504C0.614,-0.462 0.605,-0.426 0.586,-0.397C0.567,-0.368 0.541,-0.345 0.508,-0.33C0.474,-0.315 0.435,-0.307 0.39,-0.307L0.407,-0.321L0.431,-0.321C0.458,-0.321 0.483,-0.314 0.504,-0.301C0.525,-0.287 0.543,-0.265 0.557,-0.234L0.657,-0L0.554,-0L0.457,-0.232C0.446,-0.261 0.429,-0.279 0.408,-0.288C0.386,-0.297 0.359,-0.301 0.326,-0.301L0.179,-0.301L0.179,-0L0.086,-0ZM0.179,-0.373L0.364,-0.373C0.415,-0.373 0.454,-0.384 0.482,-0.406C0.509,-0.428 0.522,-0.46 0.522,-0.502C0.522,-0.543 0.509,-0.575 0.482,-0.597C0.454,-0.618 0.415,-0.629 0.364,-0.629L0.179,-0.629L0.179,-0.373Z" style="fill:rgb(54,102,177);fill-rule:nonzero;"/>
                </g>
                <g transform="matrix(50,0,0,50,12459.3,10283.6)">
                    <path d="M0.124,-0L0.124,-0.079L0.289,-0.079L0.289,-0.626L0.336,-0.626L0.139,-0.504L0.139,-0.595L0.315,-0.705L0.382,-0.705L0.382,-0.079L0.537,-0.079L0.537,-0L0.124,-0Z" style="fill:rgb(54,102,177);fill-rule:nonzero;"/>
                </g>
                <g transform="matrix(50,0,0,50,12489.3,10283.6)">
                    <path d="M0.312,0.009C0.281,0.009 0.251,0.006 0.222,-0.001C0.192,-0.008 0.164,-0.017 0.138,-0.03C0.112,-0.042 0.089,-0.057 0.07,-0.075L0.103,-0.147C0.136,-0.121 0.169,-0.102 0.203,-0.09C0.237,-0.077 0.273,-0.071 0.31,-0.071C0.359,-0.071 0.398,-0.084 0.426,-0.11C0.454,-0.136 0.468,-0.171 0.468,-0.214C0.468,-0.259 0.455,-0.295 0.428,-0.323C0.401,-0.35 0.364,-0.364 0.317,-0.364C0.284,-0.364 0.255,-0.358 0.229,-0.345C0.202,-0.332 0.179,-0.311 0.159,-0.283L0.093,-0.283L0.093,-0.705L0.516,-0.705L0.516,-0.626L0.183,-0.626L0.183,-0.359L0.159,-0.359C0.177,-0.386 0.202,-0.406 0.233,-0.421C0.264,-0.436 0.298,-0.443 0.337,-0.443C0.382,-0.443 0.422,-0.434 0.455,-0.415C0.488,-0.396 0.513,-0.37 0.532,-0.337C0.55,-0.303 0.559,-0.264 0.559,-0.219C0.559,-0.174 0.549,-0.135 0.529,-0.101C0.509,-0.066 0.481,-0.039 0.444,-0.02C0.407,-0.001 0.363,0.009 0.312,0.009Z" style="fill:rgb(54,102,177);fill-rule:nonzero;"/>
                </g>
                <g transform="matrix(50,0,0,50,12519.3,10283.6)">
                    <rect x="0.061" y="-0.111" width="0.111" height="0.111" style="fill:rgb(54,102,177);fill-rule:nonzero;"/>
                </g>
                <g transform="matrix(50,0,0,50,12530.9,10283.6)">
                    <path d="M0.252,0.009C0.215,0.009 0.177,0.001 0.14,-0.014C0.103,-0.029 0.072,-0.05 0.047,-0.075L0.081,-0.146C0.106,-0.121 0.133,-0.103 0.163,-0.09C0.192,-0.077 0.222,-0.071 0.253,-0.071C0.318,-0.071 0.369,-0.095 0.404,-0.142C0.439,-0.189 0.457,-0.258 0.457,-0.351L0.457,-0.44L0.467,-0.44C0.463,-0.403 0.452,-0.372 0.433,-0.345C0.413,-0.318 0.39,-0.297 0.361,-0.282C0.332,-0.267 0.3,-0.26 0.263,-0.26C0.221,-0.26 0.184,-0.27 0.151,-0.289C0.118,-0.308 0.093,-0.335 0.074,-0.369C0.055,-0.402 0.046,-0.441 0.046,-0.484C0.046,-0.529 0.056,-0.568 0.076,-0.603C0.095,-0.638 0.122,-0.665 0.157,-0.685C0.192,-0.704 0.232,-0.714 0.277,-0.714C0.364,-0.714 0.43,-0.684 0.477,-0.624C0.524,-0.563 0.547,-0.478 0.547,-0.369C0.547,-0.288 0.535,-0.22 0.512,-0.164C0.488,-0.107 0.454,-0.064 0.41,-0.035C0.366,-0.006 0.313,0.009 0.252,0.009ZM0.283,-0.337C0.312,-0.337 0.338,-0.343 0.361,-0.356C0.383,-0.369 0.4,-0.386 0.413,-0.409C0.426,-0.432 0.432,-0.458 0.432,-0.487C0.432,-0.517 0.426,-0.543 0.413,-0.566C0.4,-0.588 0.383,-0.606 0.361,-0.619C0.338,-0.632 0.312,-0.638 0.283,-0.638C0.254,-0.638 0.228,-0.632 0.206,-0.619C0.183,-0.606 0.166,-0.588 0.154,-0.566C0.141,-0.543 0.135,-0.517 0.135,-0.487C0.135,-0.458 0.141,-0.432 0.154,-0.409C0.166,-0.386 0.183,-0.369 0.206,-0.356C0.228,-0.343 0.254,-0.337 0.283,-0.337Z" style="fill:rgb(54,102,177);fill-rule:nonzero;"/>
                </g>
                <g transform="matrix(50,0,0,50,12560.9,10283.6)">
                    <path d="M0.076,-0L0.076,-0.384C0.076,-0.403 0.075,-0.423 0.074,-0.443C0.073,-0.463 0.071,-0.483 0.068,-0.503L0.156,-0.503L0.166,-0.395L0.154,-0.395C0.167,-0.432 0.189,-0.461 0.218,-0.482C0.247,-0.502 0.282,-0.512 0.323,-0.512C0.364,-0.512 0.398,-0.502 0.425,-0.483C0.452,-0.463 0.47,-0.432 0.479,-0.39L0.464,-0.39C0.477,-0.427 0.499,-0.457 0.531,-0.479C0.563,-0.501 0.6,-0.512 0.643,-0.512C0.698,-0.512 0.74,-0.496 0.768,-0.464C0.796,-0.431 0.81,-0.381 0.81,-0.313L0.81,-0L0.719,-0L0.719,-0.308C0.719,-0.354 0.711,-0.387 0.695,-0.408C0.679,-0.428 0.654,-0.438 0.619,-0.438C0.578,-0.438 0.546,-0.424 0.523,-0.397C0.5,-0.369 0.488,-0.331 0.488,-0.284L0.488,-0L0.397,-0L0.397,-0.308C0.397,-0.354 0.389,-0.387 0.374,-0.408C0.358,-0.428 0.332,-0.438 0.297,-0.438C0.256,-0.438 0.225,-0.424 0.202,-0.397C0.179,-0.369 0.167,-0.331 0.167,-0.284L0.167,-0L0.076,-0Z" style="fill:rgb(54,102,177);fill-rule:nonzero;"/>
                </g>
                <g transform="matrix(50,0,0,50,12605.1,10283.6)">
                    <path d="M0.076,-0L0.076,-0.384C0.076,-0.403 0.075,-0.423 0.074,-0.443C0.073,-0.463 0.071,-0.483 0.068,-0.503L0.156,-0.503L0.166,-0.395L0.154,-0.395C0.167,-0.432 0.189,-0.461 0.218,-0.482C0.247,-0.502 0.282,-0.512 0.323,-0.512C0.364,-0.512 0.398,-0.502 0.425,-0.483C0.452,-0.463 0.47,-0.432 0.479,-0.39L0.464,-0.39C0.477,-0.427 0.499,-0.457 0.531,-0.479C0.563,-0.501 0.6,-0.512 0.643,-0.512C0.698,-0.512 0.74,-0.496 0.768,-0.464C0.796,-0.431 0.81,-0.381 0.81,-0.313L0.81,-0L0.719,-0L0.719,-0.308C0.719,-0.354 0.711,-0.387 0.695,-0.408C0.679,-0.428 0.654,-0.438 0.619,-0.438C0.578,-0.438 0.546,-0.424 0.523,-0.397C0.5,-0.369 0.488,-0.331 0.488,-0.284L0.488,-0L0.397,-0L0.397,-0.308C0.397,-0.354 0.389,-0.387 0.374,-0.408C0.358,-0.428 0.332,-0.438 0.297,-0.438C0.256,-0.438 0.225,-0.424 0.202,-0.397C0.179,-0.369 0.167,-0.331 0.167,-0.284L0.167,-0L0.076,-0Z" style="fill:rgb(54,102,177);fill-rule:nonzero;"/>
                </g>
                <g transform="matrix(50,0,0,50,12410.5,10333.6)">
                    <path d="M0.226,0.18C0.197,0.131 0.174,0.082 0.156,0.035C0.137,-0.013 0.124,-0.062 0.116,-0.111C0.107,-0.16 0.103,-0.21 0.103,-0.263C0.103,-0.316 0.107,-0.367 0.116,-0.416C0.124,-0.465 0.137,-0.513 0.156,-0.56C0.174,-0.607 0.197,-0.656 0.226,-0.705L0.3,-0.705C0.266,-0.63 0.24,-0.556 0.223,-0.483C0.206,-0.409 0.197,-0.336 0.197,-0.263C0.197,-0.19 0.206,-0.116 0.223,-0.043C0.24,0.03 0.266,0.105 0.3,0.18L0.226,0.18Z" style="fill:rgb(54,102,177);fill-rule:nonzero;"/>
                </g>
                <g transform="matrix(50,0,0,50,12426.8,10333.6)">
                    <path d="M0.519,-0.579L0.567,-0.531L0.509,-0.473C0.524,-0.455 0.535,-0.435 0.544,-0.415C0.557,-0.384 0.563,-0.35 0.563,-0.313C0.563,-0.278 0.557,-0.245 0.544,-0.214C0.531,-0.183 0.512,-0.155 0.486,-0.129C0.461,-0.104 0.432,-0.084 0.401,-0.071C0.37,-0.058 0.337,-0.052 0.301,-0.052C0.265,-0.052 0.232,-0.058 0.201,-0.071C0.18,-0.08 0.16,-0.091 0.142,-0.106L0.084,-0.048L0.036,-0.097L0.093,-0.154C0.079,-0.173 0.067,-0.193 0.058,-0.214C0.045,-0.245 0.039,-0.278 0.039,-0.313C0.039,-0.35 0.045,-0.384 0.058,-0.415C0.071,-0.445 0.09,-0.474 0.116,-0.5C0.141,-0.525 0.17,-0.545 0.201,-0.558C0.232,-0.571 0.265,-0.577 0.301,-0.577C0.337,-0.577 0.37,-0.571 0.401,-0.558C0.423,-0.549 0.443,-0.537 0.461,-0.522L0.519,-0.579ZM0.375,-0.494C0.352,-0.503 0.328,-0.508 0.301,-0.508C0.274,-0.508 0.25,-0.503 0.227,-0.494C0.204,-0.484 0.183,-0.47 0.165,-0.451C0.145,-0.432 0.131,-0.411 0.122,-0.388C0.113,-0.365 0.108,-0.34 0.108,-0.313C0.108,-0.287 0.112,-0.263 0.122,-0.24C0.127,-0.227 0.134,-0.215 0.143,-0.203L0.412,-0.473C0.4,-0.481 0.388,-0.488 0.375,-0.494ZM0.46,-0.424L0.191,-0.155C0.202,-0.147 0.214,-0.14 0.227,-0.135C0.25,-0.125 0.274,-0.12 0.301,-0.12C0.328,-0.12 0.352,-0.125 0.375,-0.135C0.398,-0.145 0.419,-0.159 0.438,-0.177C0.457,-0.196 0.471,-0.217 0.48,-0.24C0.49,-0.263 0.494,-0.287 0.494,-0.313C0.494,-0.34 0.49,-0.365 0.48,-0.388C0.475,-0.401 0.469,-0.413 0.46,-0.424Z" style="fill:rgb(54,102,177);fill-rule:nonzero;"/>
                </g>
                <g transform="matrix(50,0,0,50,12456.9,10333.6)">
                    <path d="M0.295,0.009C0.247,0.009 0.201,0.002 0.158,-0.013C0.114,-0.028 0.077,-0.048 0.048,-0.075L0.081,-0.147C0.114,-0.12 0.147,-0.101 0.182,-0.089C0.217,-0.077 0.253,-0.071 0.292,-0.071C0.343,-0.071 0.382,-0.082 0.409,-0.104C0.436,-0.125 0.449,-0.156 0.449,-0.197C0.449,-0.237 0.436,-0.267 0.409,-0.288C0.382,-0.309 0.342,-0.319 0.29,-0.319L0.182,-0.319L0.182,-0.396L0.283,-0.396C0.327,-0.396 0.362,-0.407 0.389,-0.43C0.416,-0.453 0.429,-0.484 0.429,-0.523C0.429,-0.559 0.417,-0.587 0.393,-0.606C0.368,-0.624 0.334,-0.634 0.289,-0.634C0.214,-0.634 0.148,-0.608 0.093,-0.555L0.06,-0.626C0.088,-0.654 0.123,-0.676 0.164,-0.691C0.205,-0.706 0.249,-0.714 0.295,-0.714C0.365,-0.714 0.42,-0.698 0.46,-0.666C0.5,-0.634 0.52,-0.589 0.52,-0.532C0.52,-0.489 0.508,-0.452 0.484,-0.421C0.459,-0.389 0.426,-0.369 0.384,-0.359L0.384,-0.37C0.433,-0.361 0.472,-0.341 0.499,-0.31C0.526,-0.278 0.54,-0.238 0.54,-0.191C0.54,-0.129 0.518,-0.08 0.475,-0.045C0.431,-0.009 0.371,0.009 0.295,0.009Z" style="fill:rgb(54,102,177);fill-rule:nonzero;"/>
                </g>
                <g transform="matrix(50,0,0,50,12486.9,10333.6)">
                    <path d="M0.124,-0L0.124,-0.079L0.289,-0.079L0.289,-0.626L0.336,-0.626L0.139,-0.504L0.139,-0.595L0.315,-0.705L0.382,-0.705L0.382,-0.079L0.537,-0.079L0.537,-0L0.124,-0Z" style="fill:rgb(54,102,177);fill-rule:nonzero;"/>
                </g>
                <g transform="matrix(50,0,0,50,12516.9,10333.6)">
                    <rect x="0.061" y="-0.111" width="0.111" height="0.111" style="fill:rgb(54,102,177);fill-rule:nonzero;"/>
                </g>
                <g transform="matrix(50,0,0,50,12528.6,10333.6)">
                    <path d="M0.106,-0L0.453,-0.663L0.453,-0.625L0.063,-0.625L0.063,-0.705L0.538,-0.705L0.538,-0.636L0.209,-0L0.106,-0Z" style="fill:rgb(54,102,177);fill-rule:nonzero;"/>
                </g>
                <g transform="matrix(50,0,0,50,12558.6,10333.6)">
                    <path d="M0.076,-0L0.076,-0.384C0.076,-0.403 0.075,-0.423 0.074,-0.443C0.073,-0.463 0.071,-0.483 0.068,-0.503L0.156,-0.503L0.166,-0.395L0.154,-0.395C0.167,-0.432 0.189,-0.461 0.218,-0.482C0.247,-0.502 0.282,-0.512 0.323,-0.512C0.364,-0.512 0.398,-0.502 0.425,-0.483C0.452,-0.463 0.47,-0.432 0.479,-0.39L0.464,-0.39C0.477,-0.427 0.499,-0.457 0.531,-0.479C0.563,-0.501 0.6,-0.512 0.643,-0.512C0.698,-0.512 0.74,-0.496 0.768,-0.464C0.796,-0.431 0.81,-0.381 0.81,-0.313L0.81,-0L0.719,-0L0.719,-0.308C0.719,-0.354 0.711,-0.387 0.695,-0.408C0.679,-0.428 0.654,-0.438 0.619,-0.438C0.578,-0.438 0.546,-0.424 0.523,-0.397C0.5,-0.369 0.488,-0.331 0.488,-0.284L0.488,-0L0.397,-0L0.397,-0.308C0.397,-0.354 0.389,-0.387 0.374,-0.408C0.358,-0.428 0.332,-0.438 0.297,-0.438C0.256,-0.438 0.225,-0.424 0.202,-0.397C0.179,-0.369 0.167,-0.331 0.167,-0.284L0.167,-0L0.076,-0Z" style="fill:rgb(54,102,177);fill-rule:nonzero;"/>
                </g>
                <g transform="matrix(50,0,0,50,12602.7,10333.6)">
                    <path d="M0.076,-0L0.076,-0.384C0.076,-0.403 0.075,-0.423 0.074,-0.443C0.073,-0.463 0.071,-0.483 0.068,-0.503L0.156,-0.503L0.166,-0.395L0.154,-0.395C0.167,-0.432 0.189,-0.461 0.218,-0.482C0.247,-0.502 0.282,-0.512 0.323,-0.512C0.364,-0.512 0.398,-0.502 0.425,-0.483C0.452,-0.463 0.47,-0.432 0.479,-0.39L0.464,-0.39C0.477,-0.427 0.499,-0.457 0.531,-0.479C0.563,-0.501 0.6,-0.512 0.643,-0.512C0.698,-0.512 0.74,-0.496 0.768,-0.464C0.796,-0.431 0.81,-0.381 0.81,-0.313L0.81,-0L0.719,-0L0.719,-0.308C0.719,-0.354 0.711,-0.387 0.695,-0.408C0.679,-0.428 0.654,-0.438 0.619,-0.438C0.578,-0.438 0.546,-0.424 0.523,-0.397C0.5,-0.369 0.488,-0.331 0.488,-0.284L0.488,-0L0.397,-0L0.397,-0.308C0.397,-0.354 0.389,-0.387 0.374,-0.408C0.358,-0.428 0.332,-0.438 0.297,-0.438C0.256,-0.438 0.225,-0.424 0.202,-0.397C0.179,-0.369 0.167,-0.331 0.167,-0.284L0.167,-0L0.076,-0Z" style="fill:rgb(54,102,177);fill-rule:nonzero;"/>
                </g>
                <g transform="matrix(50,0,0,50,12646.9,10333.6)">
                    <path d="M0.101,0.18L0.026,0.18C0.06,0.105 0.086,0.03 0.104,-0.043C0.121,-0.116 0.13,-0.19 0.13,-0.263C0.13,-0.336 0.121,-0.409 0.104,-0.482C0.086,-0.555 0.06,-0.63 0.026,-0.705L0.101,-0.705C0.13,-0.656 0.153,-0.607 0.172,-0.56C0.19,-0.512 0.203,-0.464 0.212,-0.415C0.22,-0.366 0.224,-0.316 0.224,-0.263C0.224,-0.21 0.22,-0.159 0.212,-0.11C0.203,-0.061 0.19,-0.013 0.172,0.035C0.153,0.082 0.13,0.131 0.101,0.18Z" style="fill:rgb(54,102,177);fill-rule:nonzero;"/>
                </g>
            </g>
        </g>
    </g>
</svg>
