<?xml version="1.0" encoding="UTF-8" standalone="no"?><!DOCTYPE svg PUBLIC "-//W3C//DTD SVG 1.1//EN" "http://www.w3.org/Graphics/SVG/1.1/DTD/svg11.dtd"><svg width="100%" height="100%" viewBox="0 0 1831 1466" version="1.1" xmlns="http://www.w3.org/2000/svg" xmlns:xlink="http://www.w3.org/1999/xlink" xml:space="preserve" xmlns:serif="http://www.serif.com/" style="fill-rule:evenodd;clip-rule:evenodd;stroke-linecap:round;stroke-linejoin:round;stroke-miterlimit:10;"><rect id="Bottom" x="0.222" y="0.294" width="1830.65" height="1464.82" style="fill:none;"/><g id="Plain-line-drawing" serif:id="Plain line drawing"><g id="Bumper"><path d="M1007.03,204.363l1.904,5.714l2.222,5.554l2.539,5.396" style="fill:none;fill-rule:nonzero;stroke:#000;stroke-width:5px;"/><path d="M1229.05,329.735l3.174,4.285l2.698,4.444l2.222,4.919l1.587,4.92" style="fill:none;fill-rule:nonzero;stroke:#000;stroke-width:5px;"/><path d="M1197.47,314.5l3.174,0.318l3.174,0.476" style="fill:none;fill-rule:nonzero;stroke:#000;stroke-width:5px;"/><path d="M821.67,221.027l2.539,-5.396l2.222,-5.554l1.904,-5.714" style="fill:none;fill-rule:nonzero;stroke:#000;stroke-width:5px;"/><path d="M631.548,315.294l3.174,-0.476l3.174,-0.318" style="fill:none;fill-rule:nonzero;stroke:#000;stroke-width:5px;"/><path d="M596.635,348.303l1.587,-4.92l2.221,-4.919l2.698,-4.444l3.174,-4.285" style="fill:none;fill-rule:nonzero;stroke:#000;stroke-width:5px;"/><path d="M467.454,460.503l-4.602,9.522l-4.285,9.839l-3.65,9.84l-3.016,10.156l-2.539,10.316l-2.063,10.474l-1.269,10.474l-0.953,10.474l-0.317,10.633" style="fill:none;fill-rule:nonzero;stroke:#000;stroke-width:5px;"/><path d="M444.443,860.424l0.317,10.792l0.952,10.791l1.428,10.792l2.064,10.632l2.697,10.475l3.333,10.474l3.809,10.156l4.285,9.84l4.919,9.68l5.396,9.522l6.031,9.046l6.348,8.729l6.982,8.411l7.301,7.934l7.776,7.618l8.093,7.141l8.57,6.666l9.046,6.189l9.205,5.555" style="fill:none;fill-rule:nonzero;stroke:#000;stroke-width:5px;"/><path d="M819.13,1190.36l8.888,4.761l9.045,4.443l9.205,3.809l9.363,3.333l9.522,3.015l9.681,2.381l9.839,1.904l9.998,1.428l9.839,0.952" style="fill:none;fill-rule:nonzero;stroke:#000;stroke-width:5px;"/><path d="M930.854,1216.38l9.84,-0.952l9.998,-1.428l9.839,-1.904l9.681,-2.381l9.522,-3.015l9.363,-3.333l9.204,-3.809l9.046,-4.443l8.887,-4.761" style="fill:none;fill-rule:nonzero;stroke:#000;stroke-width:5px;"/><path d="M1292.37,1030.87l9.205,-5.555l9.045,-6.189l8.57,-6.666l8.094,-7.141l7.776,-7.618l7.3,-7.934l6.983,-8.411l6.348,-8.729l6.03,-9.046l5.396,-9.522l4.92,-9.68l4.285,-9.84l3.809,-10.156l3.332,-10.474l2.698,-10.475l2.063,-10.632l1.428,-10.792l0.953,-10.791l0.317,-10.792" style="fill:none;fill-rule:nonzero;stroke:#000;stroke-width:5px;"/><path d="M1390.61,552.231l-0.318,-10.633l-0.952,-10.474l-1.27,-10.474l-2.063,-10.474l-2.539,-10.316l-3.015,-10.156l-3.65,-9.84l-4.285,-9.839l-4.602,-9.522" style="fill:none;fill-rule:nonzero;stroke:#000;stroke-width:5px;"/><path d="M930.854,1216.38l-8.728,0.318l-8.887,-0l-8.729,-0.318" style="fill:none;fill-rule:nonzero;stroke:#000;stroke-width:5px;"/><path d="M1145.41,1175.44l-113.628,65.701" style="fill:none;fill-rule:nonzero;stroke:#000;stroke-width:5px;"/><path d="M1155.1,1158.62l0.793,1.27" style="fill:none;fill-rule:nonzero;stroke:#000;stroke-width:5px;"/><path d="M1011.32,1239.56l1.587,2.857" style="fill:none;fill-rule:nonzero;stroke:#000;stroke-width:5px;"/><path d="M689.95,1175.44l113.628,65.701" style="fill:none;fill-rule:nonzero;stroke:#000;stroke-width:5px;"/><path d="M680.269,1158.62l-0.794,1.27" style="fill:none;fill-rule:nonzero;stroke:#000;stroke-width:5px;"/><path d="M824.05,1239.56l-1.587,2.857" style="fill:none;fill-rule:nonzero;stroke:#000;stroke-width:5px;"/><path d="M1421.71,537.472l-0,322.635" style="fill:none;fill-rule:nonzero;stroke:#000;stroke-width:5px;"/><path d="M1292.53,366.553l-276.136,-159.492" style="fill:none;fill-rule:nonzero;stroke:#000;stroke-width:5px;"/><path d="M1154.14,1169.41l-1.11,0.793l-0.953,0.794l-3.332,2.38l-1.111,0.635l-1.111,0.793l-1.111,0.635" style="fill:none;fill-rule:nonzero;stroke:#000;stroke-width:5px;"/><path d="M1031.79,1241.14l-1.27,0.635l-1.111,0.635l-1.269,0.476l-1.111,0.635l-1.27,0.635l-1.269,0.476l-1.111,0.476l-1.27,0.476" style="fill:none;fill-rule:nonzero;stroke:#000;stroke-width:5px;"/><path d="M1155.89,1159.89l0.318,0.476l0.634,2.539l0,1.428l-0.476,1.905l-0.317,0.634l-0.318,0.476l-0.317,0.635l-0.317,0.476l-0.953,0.953" style="fill:none;fill-rule:nonzero;stroke:#000;stroke-width:5px;"/><path d="M1022.11,1245.59l-1.904,0.476l-2.063,0l-0.635,-0.159l-0.635,-0.317l-0.635,-0.159l-0.476,-0.317l-0.635,-0.318l-1.428,-1.428l-0.317,-0.476l-0.476,-0.476" style="fill:none;fill-rule:nonzero;stroke:#000;stroke-width:5px;"/><path d="M689.95,1175.44l-1.111,-0.635l-1.111,-0.793l-1.111,-0.635l-3.333,-2.38l-0.952,-0.794l-1.111,-0.793" style="fill:none;fill-rule:nonzero;stroke:#000;stroke-width:5px;"/><path d="M813.259,1245.59l-1.27,-0.476l-1.111,-0.476l-1.27,-0.476l-1.269,-0.635l-1.111,-0.635l-1.27,-0.476l-1.11,-0.635l-1.27,-0.635" style="fill:none;fill-rule:nonzero;stroke:#000;stroke-width:5px;"/><path d="M681.221,1169.41l-0.952,-0.953l-0.317,-0.476l-0.318,-0.635l-0.317,-0.476l-0.318,-0.634l-0.476,-1.905l0,-1.428l0.635,-2.539l0.317,-0.476" style="fill:none;fill-rule:nonzero;stroke:#000;stroke-width:5px;"/><path d="M919.587,1218.77l1.745,-1.905" style="fill:none;fill-rule:nonzero;stroke:#000;stroke-width:5px;"/><path d="M822.463,1242.41l-0.476,0.476l-0.317,0.476l-1.429,1.428l-1.269,0.635l-0.476,0.159l-0.635,0.317l-0.635,0.159l-2.063,0l-1.904,-0.476" style="fill:none;fill-rule:nonzero;stroke:#000;stroke-width:5px;"/><path d="M681.221,1169.41l0,-0" style="fill:none;fill-rule:nonzero;stroke:#000;stroke-width:5px;"/><path d="M813.259,1245.59l-0,-0" style="fill:none;fill-rule:nonzero;stroke:#000;stroke-width:5px;"/><path d="M932.759,155.643l-0,-6.189" style="fill:none;fill-rule:nonzero;stroke:#000;stroke-width:5px;"/><path d="M1413.62,954.532l-0,-0.317l0.476,-0.952l0.159,-0.476l0.158,-0.318l0.318,-0.476l0.159,-0.476l-0.159,0.476l-0.318,0.476l-0.158,0.318l-0.159,0.476" style="fill:none;fill-rule:nonzero;stroke:#000;stroke-width:5px;"/><path d="M1419.96,916.921l-0.159,1.269l0,2.54l-0.158,1.11l-0,1.27l-0.159,1.27l-0,1.111l-0.159,1.11l0,1.27l-0.159,1.111l0,1.111l-0.158,1.111l-0.159,2.063l-0.317,2.063l-0.159,2.063l-0.952,5.713l-0.318,1.111l-0.158,0.952l-0.318,0.952l-0.317,1.111l-0.318,0.952l-0.634,2.222l-0.476,1.111" style="fill:none;fill-rule:nonzero;stroke:#000;stroke-width:5px;"/><path d="M1037.18,1226.54l276.294,-159.333" style="fill:none;fill-rule:nonzero;stroke:#000;stroke-width:5px;"/><path d="M1313.48,330.37l-276.294,-159.492" style="fill:none;fill-rule:nonzero;stroke:#000;stroke-width:5px;"/><path d="M1421.71,860.107l-0,9.68l-0.159,1.905l-0,5.872l-0.159,1.745l0,3.809l-0.158,1.904l-0,3.65l-0.159,1.905l-0,1.746l-0.159,1.745l0,1.746l-0.159,1.746l0,1.745l-0.158,1.746l-0,1.746l-0.159,1.587l0,1.745l-0.159,1.587l0,1.587l-0.158,1.587l-0,3.016l-0.159,1.428l-0,1.587" style="fill:none;fill-rule:nonzero;stroke:#000;stroke-width:5px;"/><path d="M1173.51,313.231l23.963,1.269" style="fill:none;fill-rule:nonzero;stroke:#000;stroke-width:5px;"/><path d="M1414.89,445.903l0.476,1.269l0.317,1.111l0.317,0.953l0.318,1.11l0.317,0.953l0.318,1.111l0.158,0.952l0.318,0.952l0.635,3.809l0.317,2.063l0.159,1.904l0.317,2.063l0,1.111l0.159,0.952l0.158,1.111l0,1.111l0.159,1.111l0,1.27l0.159,1.11l-0,1.111l0.159,1.27l-0,1.27l0.158,1.269l0,2.539l0.159,1.27" style="fill:none;fill-rule:nonzero;stroke:#000;stroke-width:5px;"/><path d="M1006.39,201.665l0.635,2.698" style="fill:none;fill-rule:nonzero;stroke:#000;stroke-width:5px;"/><path d="M921.65,1259.23l16.822,-1.428" style="fill:none;fill-rule:nonzero;stroke:#000;stroke-width:5px;"/><path d="M1413.62,442.888l-0,0.317l0.476,0.952l0.317,0.952l0.159,0.318l0.318,0.476" style="fill:none;fill-rule:nonzero;stroke:#000;stroke-width:5px;"/><path d="M919.587,1257.33l2.063,1.904" style="fill:none;fill-rule:nonzero;stroke:#000;stroke-width:5px;"/><path d="M1419.96,480.658l-0,1.428l0.159,1.428l-0,3.174l0.158,1.587l0,1.587l0.159,1.587l0,1.587l0.159,1.746l-0,1.746l0.158,1.587l0,1.745l0.159,1.746l0,1.746l0.159,1.904l-0,1.746l0.159,1.746l-0,3.65l0.158,1.904l0,3.809l0.159,1.904l-0,5.713l0.159,1.905l-0,9.839" style="fill:none;fill-rule:nonzero;stroke:#000;stroke-width:5px;"/><path d="M1016.39,207.061l-3.809,-2.222l-2.063,-0.952l-1.904,-1.111l-2.063,-0.952l-1.905,-1.111l-2.063,-0.952l-1.904,-0.952l-2.063,-0.794l-4.126,-1.904l-12.379,-4.761l-2.222,-0.635l-2.063,-0.635l-2.063,-0.793l-2.222,-0.635l-2.063,-0.635l-2.222,-0.476l-2.063,-0.635l-2.221,-0.476l-2.064,-0.634l-2.221,-0.477l-2.063,-0.476l-2.222,-0.476l-2.222,-0.317l-2.063,-0.476l-2.222,-0.318l-3.967,-0.793l-0.635,-0.159l-0.794,-0.317l-0.634,-0.159l-0.794,-0.159l-0.635,-0.317l-0.634,-0.159l-1.27,-0.634l-0.635,-0.159l-1.269,-0.635l-0.477,-0.476l-0.634,-0.317l-0.476,-0.477l-0.635,-0.317l-0.476,-0.476l-0.476,-0.635l-0.477,-0.476l-0.952,-1.27l-0.317,-0.634l-0.317,-0.794l-0.159,-0.635l-0.318,-0.793l-0.158,-0.794l-0,-1.587" style="fill:none;fill-rule:nonzero;stroke:#000;stroke-width:5px;"/><path d="M932.759,170.084l-0,-20.63" style="fill:none;fill-rule:nonzero;stroke:#000;stroke-width:5px;"/><path d="M1389.65,532.711l1.587,2.222" style="fill:none;fill-rule:nonzero;stroke:#000;stroke-width:5px;"/><path d="M413.655,537.472l0,322.635" style="fill:none;fill-rule:nonzero;stroke:#000;stroke-width:5px;"/><path d="M1391.08,537.551c-0,-70.505 -37.616,-135.655 -98.677,-170.906" style="fill:none;fill-rule:nonzero;stroke:#000;stroke-width:5px;"/><path d="M919.587,1257.33l-0,-6.348" style="fill:none;fill-rule:nonzero;stroke:#000;stroke-width:5px;"/><path d="M919.587,1234.16l-0,-15.394" style="fill:none;fill-rule:nonzero;stroke:#000;stroke-width:5px;"/><path d="M542.836,366.553l276.136,-159.492" style="fill:none;fill-rule:nonzero;stroke:#000;stroke-width:5px;"/><path d="M1037.14,171.007c-28.909,-16.69 -60.992,-27.14 -94.184,-30.679" style="fill:none;fill-rule:nonzero;stroke:#000;stroke-width:5px;"/><path d="M919.587,1250.98l-0,-16.822" style="fill:none;fill-rule:nonzero;stroke:#000;stroke-width:5px;"/><path d="M1239.52,351.318l-0.317,-1.269" style="fill:none;fill-rule:nonzero;stroke:#000;stroke-width:5px;"/><path d="M885.466,183.256l-2.221,0.318l-2.063,0.476l-2.222,0.317l-2.222,0.476l-2.063,0.476l-2.222,0.477l-2.222,0.634l-2.063,0.476l-2.221,0.635l-2.064,0.476l-2.221,0.635l-2.063,0.635l-2.063,0.793l-2.222,0.635l-2.063,0.794l-2.063,0.635l-2.064,0.793l-2.221,0.794l-4.126,1.587l-2.064,0.952l-1.904,0.793l-4.126,1.905l-2.063,0.793l-1.905,1.111l-2.063,0.952l-1.904,0.952l-1.904,1.111l-2.064,0.952l-3.808,2.222" style="fill:none;fill-rule:nonzero;stroke:#000;stroke-width:5px;"/><path d="M421.273,953.263l-0.159,-0.476l-0.159,-0.318l-0.317,-0.476l-0.159,-0.476l0.159,0.476l0.317,0.476l0.159,0.318l0.159,0.476l0.476,0.952l-0,0.317" style="fill:none;fill-rule:nonzero;stroke:#000;stroke-width:5px;"/><path d="M914.032,1216.86l1.746,1.905" style="fill:none;fill-rule:nonzero;stroke:#000;stroke-width:5px;"/><path d="M420.479,951.517l-0.476,-1.111l-0.952,-3.332l-0.635,-1.905l-0.159,-1.111l-0.317,-0.952l-0.952,-5.713l-0.159,-2.063l-0.317,-2.063l-0,-0.952l-0.318,-2.222l0,-1.111l-0.158,-1.111l-0,-1.111l-0.159,-1.269l-0,-1.111l-0.159,-1.27l0,-1.111l-0.159,-1.269l0,-2.54l-0.158,-1.269" style="fill:none;fill-rule:nonzero;stroke:#000;stroke-width:5px;"/><path d="M818.972,1190.36l-276.136,-159.334" style="fill:none;fill-rule:nonzero;stroke:#000;stroke-width:5px;"/><path d="M913.715,1259.23l-16.822,-1.428" style="fill:none;fill-rule:nonzero;stroke:#000;stroke-width:5px;"/><path d="M415.401,916.921l-0,-1.587l-0.159,-1.428l0,-3.016l-0.159,-1.587l0,-1.587l-0.158,-1.745l-0,-1.587l-0.159,-1.746l-0,-1.587l-0.159,-1.746l0,-1.745l-0.158,-1.746l-0,-1.746l-0.159,-1.745l-0,-1.905l-0.159,-1.746l0,-3.65l-0.159,-1.904l0,-3.809l-0.158,-1.904l-0,-5.713l-0.159,-1.905l0,-9.68" style="fill:none;fill-rule:nonzero;stroke:#000;stroke-width:5px;"/><path d="M521.888,1067.21l276.294,159.333" style="fill:none;fill-rule:nonzero;stroke:#000;stroke-width:5px;"/><path d="M798.182,170.878l-276.294,159.492" style="fill:none;fill-rule:nonzero;stroke:#000;stroke-width:5px;"/><path d="M828.335,204.363l0.635,-2.698" style="fill:none;fill-rule:nonzero;stroke:#000;stroke-width:5px;"/><path d="M637.896,314.5l23.964,-1.269" style="fill:none;fill-rule:nonzero;stroke:#000;stroke-width:5px;"/><path d="M915.778,1257.33l-2.063,1.904" style="fill:none;fill-rule:nonzero;stroke:#000;stroke-width:5px;"/><path d="M915.778,1247.81l3.809,-0" style="fill:none;fill-rule:nonzero;stroke:#000;stroke-width:5px;"/><path d="M943.045,140.144c-2.669,-0.285 -5.332,0.579 -7.325,2.375c-1.993,1.797 -3.127,4.357 -3.12,7.04" style="fill:none;fill-rule:nonzero;stroke:#000;stroke-width:5px;"/><path d="M420.479,445.903l0.317,-0.476l0.159,-0.318l0.318,-0.952l0.476,-0.952l-0,-0.317" style="fill:none;fill-rule:nonzero;stroke:#000;stroke-width:5px;"/><path d="M420.479,445.903l0.317,-0.476l0.318,-0.952l0.317,-0.477" style="fill:none;fill-rule:nonzero;stroke:#000;stroke-width:5px;"/><path d="M415.401,480.658l0.158,-1.27l0,-2.539l0.159,-1.269l0,-1.27l0.159,-1.111l-0,-1.27l0.159,-1.11l-0,-1.111l0.158,-1.111l0,-1.111l0.159,-1.111l0.159,-2.222l0.317,-2.063l0.159,-1.904l0.317,-2.063l0.635,-3.809l0.317,-0.952l0.159,-0.952l0.317,-1.111l0.318,-0.953l0.635,-2.221l0.317,-0.953l0.476,-1.269" style="fill:none;fill-rule:nonzero;stroke:#000;stroke-width:5px;"/><path d="M1313.27,1067.24c45.608,-26.331 81.247,-66.983 101.382,-115.646" style="fill:none;fill-rule:nonzero;stroke:#000;stroke-width:5px;"/><path d="M1414.66,446.144c-20.135,-48.663 -55.774,-89.316 -101.383,-115.646" style="fill:none;fill-rule:nonzero;stroke:#000;stroke-width:5px;"/><path d="M1239.03,350.198c-0.126,-0.599 -0.265,-1.196 -0.416,-1.789" style="fill:none;fill-rule:nonzero;stroke:#000;stroke-width:5px;"/><path d="M938.343,1257.7c34.81,-3.031 68.532,-13.656 98.793,-31.125" style="fill:none;fill-rule:nonzero;stroke:#000;stroke-width:5px;"/><path d="M1239.03,350.199c-0.126,-0.6 -0.265,-1.196 -0.416,-1.79" style="fill:none;fill-rule:nonzero;stroke:#000;stroke-width:5px;"/><path d="M413.655,537.472l0,-9.839l0.159,-1.905l-0,-5.713l0.158,-1.904l0,-3.809l0.159,-1.904l0,-3.65l0.159,-1.746l-0,-1.904l0.159,-1.746l-0,-1.746l0.158,-1.746l0,-1.745l0.159,-1.746l-0,-1.587l0.159,-1.746l-0,-1.587l0.158,-1.587l0,-1.587l0.159,-1.587l0,-3.174l0.159,-1.428l-0,-1.428" style="fill:none;fill-rule:nonzero;stroke:#000;stroke-width:5px;"/><path d="M902.606,149.454l-0,6.189" style="fill:none;fill-rule:nonzero;stroke:#000;stroke-width:5px;"/><path d="M542.802,366.645c-61.061,35.251 -98.676,100.401 -98.676,170.906" style="fill:none;fill-rule:nonzero;stroke:#000;stroke-width:5px;"/><path d="M819.13,222.455l-268.359,154.89" style="fill:none;fill-rule:nonzero;stroke:#000;stroke-width:5px;"/><path d="M902.606,155.643l-0,14.441" style="fill:none;fill-rule:nonzero;stroke:#000;stroke-width:5px;"/><path d="M902.606,170.084l-0,1.587l-0.159,0.794l-0.317,0.793l-0.159,0.635l-0.317,0.794l-0.318,0.634l-0.952,1.27l-0.476,0.476l-0.476,0.635l-0.476,0.476l-0.635,0.317l-0.476,0.477l-0.635,0.317l-0.476,0.476l-1.269,0.635l-0.635,0.159l-1.27,0.634l-0.635,0.159l-0.634,0.317l-0.794,0.159l-0.635,0.159l-0.793,0.317l-0.635,0.159l-3.968,0.793" style="fill:none;fill-rule:nonzero;stroke:#000;stroke-width:5px;"/><path d="M798.07,1226.57c30.261,17.47 63.983,28.094 98.793,31.125" style="fill:none;fill-rule:nonzero;stroke:#000;stroke-width:5px;"/><path d="M420.55,951.593c20.135,48.663 55.774,89.316 101.383,115.647" style="fill:none;fill-rule:nonzero;stroke:#000;stroke-width:5px;"/><path d="M521.934,330.499c-45.608,26.33 -81.247,66.983 -101.382,115.645" style="fill:none;fill-rule:nonzero;stroke:#000;stroke-width:5px;"/><path d="M892.253,140.328c-33.192,3.539 -65.275,13.99 -94.183,30.679" style="fill:none;fill-rule:nonzero;stroke:#000;stroke-width:5px;"/><path d="M1284.59,377.345l-268.36,-154.89" style="fill:none;fill-rule:nonzero;stroke:#000;stroke-width:5px;"/><path d="M902.073,152.661c1.073,-3.056 0.504,-6.45 -1.506,-8.989c-2.011,-2.54 -5.184,-3.872 -8.405,-3.528" style="fill:none;fill-rule:nonzero;stroke:#000;stroke-width:5px;"/><path d="M596.593,348.409c-0.151,0.594 -0.29,1.19 -0.416,1.79" style="fill:none;fill-rule:nonzero;stroke:#000;stroke-width:5px;"/><path d="M596.593,348.409c-0.151,0.593 -0.29,1.19 -0.416,1.789" style="fill:none;fill-rule:nonzero;stroke:#000;stroke-width:5px;"/><path d="M550.678,377.498c-1.248,0.718 -2.488,1.45 -3.72,2.195" style="fill:none;fill-rule:nonzero;stroke:#000;stroke-width:5px;"/><path d="M444.76,699.662l0,-147.431" style="fill:none;fill-rule:nonzero;stroke:#000;stroke-width:5px;"/><path d="M444.76,699.662l-0.317,160.762" style="fill:none;fill-rule:nonzero;stroke:#000;stroke-width:5px;"/><path d="M1288.25,379.693c-1.232,-0.745 -2.472,-1.477 -3.72,-2.195" style="fill:none;fill-rule:nonzero;stroke:#000;stroke-width:5px;"/><path d="M444.125,534.933l1.587,-2.222" style="fill:none;fill-rule:nonzero;stroke:#000;stroke-width:5px;"/><path d="M915.778,1250.98l-0,6.348" style="fill:none;fill-rule:nonzero;stroke:#000;stroke-width:5px;"/><path d="M915.778,1234.16l-0,16.822" style="fill:none;fill-rule:nonzero;stroke:#000;stroke-width:5px;"/><path d="M1016.23,1190.36l276.136,-159.492" style="fill:none;fill-rule:nonzero;stroke:#000;stroke-width:5px;"/><path d="M1013.66,221.022c-3.482,-1.947 -7.022,-3.787 -10.616,-5.519" style="fill:none;fill-rule:nonzero;stroke:#000;stroke-width:5px;"/><path d="M1390.92,860.424l-0.317,-160.762" style="fill:none;fill-rule:nonzero;stroke:#000;stroke-width:5px;"/><path d="M915.778,1226.23l-0,7.935" style="fill:none;fill-rule:nonzero;stroke:#000;stroke-width:5px;"/><path d="M1390.61,699.662l-0,-147.431" style="fill:none;fill-rule:nonzero;stroke:#000;stroke-width:5px;"/><path d="M915.778,1218.77l-0,7.459" style="fill:none;fill-rule:nonzero;stroke:#000;stroke-width:5px;"/><path d="M596.159,350.049l-0.318,1.269" style="fill:none;fill-rule:nonzero;stroke:#000;stroke-width:5px;"/><path d="M543.312,381.63l3.65,-2.063" style="fill:none;fill-rule:nonzero;stroke:#000;stroke-width:5px;"/><path d="M543.312,381.63l-3.015,1.904l-3.016,1.746l-3.015,1.904l-3.015,2.063l-2.857,1.905l-2.856,2.063l-2.857,2.222l-2.698,2.063l-2.856,2.222l-2.698,2.221l-2.539,2.222l-2.698,2.381l-5.079,4.761l-2.38,2.539l-2.381,2.38l-4.761,5.079l-2.221,2.697l-2.222,2.54l-2.222,2.698l-4.126,5.395l-2.063,2.857l-1.905,2.698l-5.713,8.569l-1.745,2.857l-1.587,3.015l-1.746,2.857l-1.587,3.015" style="fill:none;fill-rule:nonzero;stroke:#000;stroke-width:5px;"/><path d="M1288.4,379.567l3.65,2.063" style="fill:none;fill-rule:nonzero;stroke:#000;stroke-width:5px;"/><path d="M1367.91,460.503l-1.587,-3.015l-1.746,-2.857l-1.587,-3.015l-1.746,-2.857l-5.713,-8.569l-1.904,-2.698l-2.063,-2.857l-4.126,-5.395l-2.222,-2.698l-2.222,-2.54l-2.222,-2.697l-4.761,-5.079l-2.38,-2.38l-2.381,-2.539l-5.078,-4.761l-2.698,-2.381l-2.539,-2.222l-2.698,-2.221l-2.857,-2.222l-2.697,-2.063l-2.857,-2.222l-2.857,-2.063l-2.856,-1.905l-3.015,-2.063l-3.016,-1.904l-3.015,-1.746l-3.015,-1.904" style="fill:none;fill-rule:nonzero;stroke:#000;stroke-width:5px;"/><path d="M1016.23,222.455l-2.063,-1.27l-2.063,-1.11l-2.222,-1.111l-2.063,-1.111l-2.222,-1.111l-9.521,-4.444l-2.54,-1.111l-2.539,-0.952l-2.698,-1.111l-2.698,-0.952l-2.697,-1.111l-2.857,-0.952l-2.857,-0.793l-2.856,-0.953l-3.015,-0.952l-3.016,-0.793l-3.174,-0.794l-3.015,-0.635l-3.174,-0.793l-3.015,-0.635l-3.174,-0.635l-9.522,-1.428l-3.015,-0.317l-3.174,-0.476l-3.174,-0.159l-3.333,-0.318l-6.348,-0.317l-3.174,0l-3.174,-0.159l-3.174,0l-3.333,0.159l-3.174,0.159l-3.332,0.158l-3.492,0.318l-3.332,0.317l-5.237,0.476l-1.905,0.318l-1.745,0.317l-1.746,0.159l-1.905,0.317l-1.745,0.318l-1.905,0.317l-1.904,0.476l-1.746,0.317l-1.904,0.318l-7.618,1.904l-2.063,0.476l-1.904,0.476l-1.904,0.635l-1.905,0.476l-3.809,1.27l-1.745,0.635l-1.905,0.476l-5.237,1.904l-1.745,0.794l-3.492,1.269l-1.587,0.635l-1.587,0.794l-1.587,0.634l-1.587,0.794l-1.587,0.635l-1.587,0.793l-1.587,0.635l-2.856,1.587l-1.587,0.635l-1.429,0.793l-1.269,0.794l-1.428,0.635l-1.429,0.793l-1.269,0.794l-1.429,0.793" style="fill:none;fill-rule:nonzero;stroke:#000;stroke-width:5px;"/><path d="M947.042,198.174l3.808,0.635l2.063,0.317l1.905,0.476l2.063,0.318l2.063,0.476l1.904,0.476l2.063,0.476l9.522,2.381l1.746,0.634l1.904,0.476l1.746,0.635l1.746,0.476l5.237,1.905l1.587,0.476l1.746,0.635l4.761,1.904l1.428,0.635l1.587,0.793l1.428,0.635l1.587,0.635l4.285,1.904" style="fill:none;fill-rule:nonzero;stroke:#000;stroke-width:5px;"/><path d="M821.67,221.027l2.221,-1.27l4.761,-2.539l2.54,-1.111l5.078,-2.539l2.698,-1.111l2.856,-1.27l2.698,-1.11l3.015,-1.111l2.857,-1.111l3.015,-1.111l3.174,-0.952l3.174,-1.111l3.174,-0.952l3.333,-0.794l3.174,-0.952l3.174,-0.794l9.522,-1.904l3.015,-0.635l3.015,-0.476l3.016,-0.317l3.015,-0.476l3.015,-0.318l2.857,-0.317l8.57,-0.476l2.697,-0.159l2.857,0" style="fill:none;fill-rule:nonzero;stroke:#000;stroke-width:5px;"/></g><g id="Marker"><path d="M985.129,700.694c0,-37.294 -30.232,-67.527 -67.526,-67.527c-37.294,0 -67.526,30.233 -67.526,67.527c-0,37.294 30.232,67.526 67.526,67.526c37.294,0 67.526,-30.232 67.526,-67.526" style="fill:none;fill-rule:nonzero;stroke:#000;stroke-width:5px;"/><path d="M943.452,696.04c-1.083,-6.013 -4.227,-11.46 -8.893,-15.404" style="fill:none;fill-rule:nonzero;stroke:#000;stroke-width:5px;"/><path d="M958.399,706.322c2.573,-18.651 -7.831,-36.673 -25.27,-43.772" style="fill:none;fill-rule:nonzero;stroke:#000;stroke-width:5px;"/><path d="M892.332,733.21c14.866,11.554 35.676,11.554 50.542,0" style="fill:none;fill-rule:nonzero;stroke:#000;stroke-width:5px;"/><path d="M902.077,662.55c-17.439,7.099 -27.843,25.12 -25.27,43.772" style="fill:none;fill-rule:nonzero;stroke:#000;stroke-width:5px;"/><path d="M908.71,725.407c5.748,2.069 12.038,2.069 17.786,-0" style="fill:none;fill-rule:nonzero;stroke:#000;stroke-width:5px;"/><path d="M869.077,747.641c-1.275,-1.316 -3.262,-2.058 -8.242,1.667" style="fill:none;fill-rule:nonzero;stroke:#000;stroke-width:5px;"/><path d="M852.505,736.813c5.313,-2.61 5.139,-4.996 4.338,-6.644" style="fill:none;fill-rule:nonzero;stroke:#000;stroke-width:5px;"/><path d="M975.502,735.437c-1.508,2.776 -0.616,4.383 3.671,7.251" style="fill:none;fill-rule:nonzero;stroke:#000;stroke-width:5px;"/><path d="M970.058,754.045c-2.605,-2.257 -5.718,-4.459 -8.24,-2.371" style="fill:none;fill-rule:nonzero;stroke:#000;stroke-width:5px;"/><path d="M992.429,700.694c0,-41.326 -33.5,-74.827 -74.826,-74.827c-41.326,0 -74.826,33.501 -74.826,74.827c-0,41.325 33.5,74.826 74.826,74.826c41.326,0 74.826,-33.501 74.826,-74.826" style="fill:none;fill-rule:nonzero;stroke:#000;stroke-width:5px;"/><path d="M934.431,738.261l-1.111,-1.745l-0.952,-1.587l-1.111,-1.746l-3.809,-6.348l-0.952,-1.428" style="fill:none;fill-rule:nonzero;stroke:#000;stroke-width:5px;"/><path d="M908.795,725.371l-0.952,1.429l-3.809,6.348l-1.111,1.745l-0.952,1.587l-1.111,1.746" style="fill:none;fill-rule:nonzero;stroke:#000;stroke-width:5px;"/><path d="M943.452,696.04l15.005,0.19" style="fill:none;fill-rule:nonzero;stroke:#000;stroke-width:5px;"/><path d="M941.924,667.496l-7.365,13.14" style="fill:none;fill-rule:nonzero;stroke:#000;stroke-width:5px;"/><path d="M908.795,675.857l-0.952,-1.428l-3.809,-6.348l-1.111,-1.746l-0.952,-1.587l-1.014,-1.634" style="fill:none;fill-rule:nonzero;stroke:#000;stroke-width:5px;"/><path d="M926.476,675.871c-5.331,-2.093 -12.209,-2.154 -17.612,-0.014" style="fill:none;fill-rule:nonzero;stroke:#000;stroke-width:5px;"/><path d="M933.107,662.541c-9.941,-4.04 -21.067,-4.04 -31.008,0" style="fill:none;fill-rule:nonzero;stroke:#000;stroke-width:5px;"/><path d="M942.89,733.199c8.47,-6.589 14.033,-16.224 15.506,-26.853" style="fill:none;fill-rule:nonzero;stroke:#000;stroke-width:5px;"/><path d="M876.81,706.342c1.471,10.629 7.034,20.264 15.503,26.854" style="fill:none;fill-rule:nonzero;stroke:#000;stroke-width:5px;"/><path d="M941.963,733.941l-7.3,-13.331" style="fill:none;fill-rule:nonzero;stroke:#000;stroke-width:5px;"/><path d="M943.55,705.217l14.961,-0.479" style="fill:none;fill-rule:nonzero;stroke:#000;stroke-width:5px;"/><path d="M934.663,720.61c4.334,-3.699 7.874,-9.793 8.887,-15.393" style="fill:none;fill-rule:nonzero;stroke:#000;stroke-width:5px;"/><path d="M876.738,704.899l15.056,0.433" style="fill:none;fill-rule:nonzero;stroke:#000;stroke-width:5px;"/><path d="M900.702,680.618l-7.233,-13.206" style="fill:none;fill-rule:nonzero;stroke:#000;stroke-width:5px;"/><path d="M876.738,696.33l14.937,-0.295" style="fill:none;fill-rule:nonzero;stroke:#000;stroke-width:5px;"/><path d="M900.647,680.636c-4.666,3.944 -7.811,9.391 -8.893,15.404" style="fill:none;fill-rule:nonzero;stroke:#000;stroke-width:5px;"/><path d="M908.71,725.407c5.748,2.069 12.038,2.069 17.786,-0" style="fill:none;fill-rule:nonzero;stroke:#000;stroke-width:5px;"/><path d="M943.452,696.04c-1.083,-6.013 -4.227,-11.46 -8.893,-15.404" style="fill:none;fill-rule:nonzero;stroke:#000;stroke-width:5px;"/><path d="M900.647,680.636c-4.666,3.944 -7.811,9.391 -8.893,15.404" style="fill:none;fill-rule:nonzero;stroke:#000;stroke-width:5px;"/><path d="M908.71,725.407c5.748,2.069 12.038,2.069 17.786,-0" style="fill:none;fill-rule:nonzero;stroke:#000;stroke-width:5px;"/><path d="M943.452,696.04c-1.083,-6.013 -4.227,-11.46 -8.893,-15.404" style="fill:none;fill-rule:nonzero;stroke:#000;stroke-width:5px;"/><path d="M934.388,663.169l-0.994,1.579l-0.953,1.587l-1.111,1.746l-3.808,6.348l-0.953,1.428" style="fill:none;fill-rule:nonzero;stroke:#000;stroke-width:5px;"/><path d="M900.632,720.796l-7.231,13.145" style="fill:none;fill-rule:nonzero;stroke:#000;stroke-width:5px;"/><path d="M891.814,705.349c0.946,5.767 4.431,11.886 8.818,15.447" style="fill:none;fill-rule:nonzero;stroke:#000;stroke-width:5px;"/><path d="M900.647,680.636c-4.666,3.944 -7.811,9.391 -8.893,15.404" style="fill:none;fill-rule:nonzero;stroke:#000;stroke-width:5px;"/></g><g id="Cliff-sensor" serif:id="Cliff sensor"><path d="M957.212,310.216l-0,21.761c-0,6.136 -4.982,11.118 -11.118,11.118l-57.758,-0c-6.136,-0 -11.118,-4.982 -11.118,-11.118l0,-21.761c0,-6.136 4.982,-11.118 11.118,-11.118l57.758,0c6.136,0 11.118,4.982 11.118,11.118Z" style="fill:none;"/><clipPath id="_clip1"><path d="M957.212,310.216l-0,21.761c-0,6.136 -4.982,11.118 -11.118,11.118l-57.758,-0c-6.136,-0 -11.118,-4.982 -11.118,-11.118l0,-21.761c0,-6.136 4.982,-11.118 11.118,-11.118l57.758,0c6.136,0 11.118,4.982 11.118,11.118Z"/></clipPath><g clip-path="url(#_clip1)"><rect x="867.36" y="307.008" width="43.555" height="28.61" style="fill:none;stroke:#080605;stroke-width:4.17px;stroke-miterlimit:1.5;"/><rect x="923.225" y="307.008" width="43.555" height="28.61" style="fill:none;stroke:#080605;stroke-width:4.17px;stroke-miterlimit:1.5;"/></g><path d="M957.212,310.216l-0,21.761c-0,6.136 -4.982,11.118 -11.118,11.118l-57.758,-0c-6.136,-0 -11.118,-4.982 -11.118,-11.118l0,-21.761c0,-6.136 4.982,-11.118 11.118,-11.118l57.758,0c6.136,0 11.118,4.982 11.118,11.118Z" style="fill:none;stroke:#080605;stroke-width:4.17px;stroke-miterlimit:1.5;"/></g><g id="Color-sensor" serif:id="Color sensor"><path d="M1253.87,453.202l-0,29.528c-0,8.327 -6.76,15.087 -15.087,15.087l-643.553,-0c-8.326,-0 -15.086,-6.76 -15.086,-15.087l-0,-29.528c-0,-8.327 6.76,-15.087 15.086,-15.087l643.553,0c8.327,0 15.087,6.76 15.087,15.087Z" style="fill:none;stroke:#080605;stroke-width:4.17px;stroke-miterlimit:1.5;"/><rect x="585.727" y="477.651" width="662.989" height="12.82" style="fill:none;stroke:#080605;stroke-width:4.17px;stroke-miterlimit:1.5;"/><rect x="590.179" y="444.251" width="9.219" height="20.273" style="fill:none;stroke:#080605;stroke-width:4.17px;stroke-miterlimit:1.5;"/><rect x="610.975" y="444.251" width="9.219" height="20.273" style="fill:none;stroke:#080605;stroke-width:4.17px;stroke-miterlimit:1.5;"/><rect x="735.746" y="444.251" width="9.219" height="20.273" style="fill:none;stroke:#080605;stroke-width:4.17px;stroke-miterlimit:1.5;"/><rect x="860.518" y="444.251" width="9.219" height="20.273" style="fill:none;stroke:#080605;stroke-width:4.17px;stroke-miterlimit:1.5;"/><rect x="985.29" y="444.251" width="9.219" height="20.273" style="fill:none;stroke:#080605;stroke-width:4.17px;stroke-miterlimit:1.5;"/><rect x="1130.86" y="444.251" width="9.219" height="20.273" style="fill:none;stroke:#080605;stroke-width:4.17px;stroke-miterlimit:1.5;"/><rect x="1110.06" y="444.251" width="9.219" height="20.273" style="fill:none;stroke:#080605;stroke-width:4.17px;stroke-miterlimit:1.5;"/><rect x="631.77" y="444.251" width="9.219" height="20.273" style="fill:none;stroke:#080605;stroke-width:4.17px;stroke-miterlimit:1.5;"/><rect x="756.542" y="444.251" width="9.219" height="20.273" style="fill:none;stroke:#080605;stroke-width:4.17px;stroke-miterlimit:1.5;"/><rect x="881.313" y="444.251" width="9.219" height="20.273" style="fill:none;stroke:#080605;stroke-width:4.17px;stroke-miterlimit:1.5;"/><rect x="1006.09" y="444.251" width="9.219" height="20.273" style="fill:none;stroke:#080605;stroke-width:4.17px;stroke-miterlimit:1.5;"/><rect x="1151.65" y="444.251" width="9.219" height="20.273" style="fill:none;stroke:#080605;stroke-width:4.17px;stroke-miterlimit:1.5;"/><rect x="652.565" y="444.251" width="9.219" height="20.273" style="fill:none;stroke:#080605;stroke-width:4.17px;stroke-miterlimit:1.5;"/><rect x="777.337" y="444.251" width="9.219" height="20.273" style="fill:none;stroke:#080605;stroke-width:4.17px;stroke-miterlimit:1.5;"/><rect x="902.109" y="444.251" width="9.219" height="20.273" style="fill:none;stroke:#080605;stroke-width:4.17px;stroke-miterlimit:1.5;"/><rect x="1026.88" y="444.251" width="9.219" height="20.273" style="fill:none;stroke:#080605;stroke-width:4.17px;stroke-miterlimit:1.5;"/><rect x="1172.45" y="444.251" width="9.219" height="20.273" style="fill:none;stroke:#080605;stroke-width:4.17px;stroke-miterlimit:1.5;"/><rect x="673.36" y="444.251" width="9.219" height="20.273" style="fill:none;stroke:#080605;stroke-width:4.17px;stroke-miterlimit:1.5;"/><rect x="798.132" y="444.251" width="9.219" height="20.273" style="fill:none;stroke:#080605;stroke-width:4.17px;stroke-miterlimit:1.5;"/><rect x="922.904" y="444.251" width="9.219" height="20.273" style="fill:none;stroke:#080605;stroke-width:4.17px;stroke-miterlimit:1.5;"/><rect x="1047.68" y="444.251" width="9.219" height="20.273" style="fill:none;stroke:#080605;stroke-width:4.17px;stroke-miterlimit:1.5;"/><rect x="1193.24" y="444.251" width="9.219" height="20.273" style="fill:none;stroke:#080605;stroke-width:4.17px;stroke-miterlimit:1.5;"/><rect x="694.156" y="444.251" width="9.219" height="20.273" style="fill:none;stroke:#080605;stroke-width:4.17px;stroke-miterlimit:1.5;"/><rect x="818.927" y="444.251" width="9.219" height="20.273" style="fill:none;stroke:#080605;stroke-width:4.17px;stroke-miterlimit:1.5;"/><rect x="943.699" y="444.251" width="9.219" height="20.273" style="fill:none;stroke:#080605;stroke-width:4.17px;stroke-miterlimit:1.5;"/><rect x="1068.47" y="444.251" width="9.219" height="20.273" style="fill:none;stroke:#080605;stroke-width:4.17px;stroke-miterlimit:1.5;"/><rect x="1214.04" y="444.251" width="9.219" height="20.273" style="fill:none;stroke:#080605;stroke-width:4.17px;stroke-miterlimit:1.5;"/><rect x="714.951" y="444.251" width="9.219" height="20.273" style="fill:none;stroke:#080605;stroke-width:4.17px;stroke-miterlimit:1.5;"/><rect x="839.723" y="444.251" width="9.219" height="20.273" style="fill:none;stroke:#080605;stroke-width:4.17px;stroke-miterlimit:1.5;"/><rect x="964.494" y="444.251" width="9.219" height="20.273" style="fill:none;stroke:#080605;stroke-width:4.17px;stroke-miterlimit:1.5;"/><rect x="1089.27" y="444.251" width="9.219" height="20.273" style="fill:none;stroke:#080605;stroke-width:4.17px;stroke-miterlimit:1.5;"/><rect x="1234.83" y="444.251" width="9.219" height="20.273" style="fill:none;stroke:#080605;stroke-width:4.17px;stroke-miterlimit:1.5;"/></g><g id="Eraser"><path d="M1253.49,910.483l-0,33.86c-0,17.059 -13.851,30.909 -30.91,30.909l-610.845,0c-17.06,0 -30.91,-13.85 -30.91,-30.909l0,-33.86c0,-17.059 13.85,-30.91 30.91,-30.91l610.845,0c17.059,0 30.91,13.851 30.91,30.91Z" style="fill:none;stroke:#080605;stroke-width:4.17px;stroke-miterlimit:1.5;"/><path d="M1258.53,908.503l-0,37.82c-0,19.055 -15.471,34.526 -34.526,34.526l-613.707,-0c-19.056,-0 -34.526,-15.471 -34.526,-34.526l0,-37.82c0,-19.056 15.47,-34.526 34.526,-34.526l613.707,0c19.055,0 34.526,15.47 34.526,34.526Z" style="fill:none;stroke:#080605;stroke-width:4.17px;stroke-miterlimit:1.5;"/></g><g id="Wheel"><path d="M591.711,580.368l-0,240.035c-0,4.1 -3.329,7.429 -7.429,7.429l-96.059,-0c-4.1,-0 -7.429,-3.329 -7.429,-7.429l-0,-240.035c-0,-4.101 3.329,-7.429 7.429,-7.429l96.059,-0c4.1,-0 7.429,3.328 7.429,7.429Z" style="fill:none;stroke:#080605;stroke-width:4.17px;stroke-miterlimit:1.5;"/><path d="M583.406,584.679l-0,229.65c-0,2.002 -1.626,3.628 -3.628,3.628l-87.75,-0c-2.002,-0 -3.627,-1.626 -3.627,-3.628l0,-229.65c0,-2.002 1.625,-3.627 3.627,-3.627l87.75,0c2.002,0 3.628,1.625 3.628,3.627Z" style="fill:none;stroke:#080605;stroke-width:4.17px;stroke-miterlimit:1.5;"/><path d="M481.003,688.088l6.49,-0" style="fill:none;stroke:#080605;stroke-width:4.17px;stroke-linecap:butt;stroke-miterlimit:1.5;"/><path d="M481.462,710.682l6.363,-0" style="fill:none;stroke:#080605;stroke-width:4.17px;stroke-linecap:butt;stroke-miterlimit:1.5;"/><path d="M583.571,776.35l7.855,0" style="fill:none;stroke:#080605;stroke-width:4.17px;stroke-linecap:butt;stroke-miterlimit:1.5;"/><path d="M583.406,629.723l7.892,-0" style="fill:none;stroke:#080605;stroke-width:4.17px;stroke-linecap:butt;stroke-miterlimit:1.5;"/></g><g id="Wheel1" serif:id="Wheel"><path d="M1242.57,580.368l0,240.035c0,4.1 3.329,7.429 7.429,7.429l96.06,-0c4.1,-0 7.428,-3.329 7.428,-7.429l0,-240.035c0,-4.101 -3.328,-7.429 -7.428,-7.429l-96.06,-0c-4.1,-0 -7.429,3.328 -7.429,7.429Z" style="fill:none;stroke:#080605;stroke-width:4.17px;stroke-miterlimit:1.5;"/><path d="M1250.87,584.679l-0,229.65c-0,2.002 1.625,3.628 3.627,3.628l87.75,-0c2.002,-0 3.627,-1.626 3.627,-3.628l0,-229.65c0,-2.002 -1.625,-3.627 -3.627,-3.627l-87.75,0c-2.002,0 -3.627,1.625 -3.627,3.627Z" style="fill:none;stroke:#080605;stroke-width:4.17px;stroke-miterlimit:1.5;"/><path d="M1353.27,688.088l-6.49,-0" style="fill:none;stroke:#080605;stroke-width:4.17px;stroke-linecap:butt;stroke-miterlimit:1.5;"/><path d="M1352.82,710.682l-6.363,-0" style="fill:none;stroke:#080605;stroke-width:4.17px;stroke-linecap:butt;stroke-miterlimit:1.5;"/><path d="M1250.71,776.35l-7.855,0" style="fill:none;stroke:#080605;stroke-width:4.17px;stroke-linecap:butt;stroke-miterlimit:1.5;"/><path d="M1250.87,629.723l-7.892,-0" style="fill:none;stroke:#080605;stroke-width:4.17px;stroke-linecap:butt;stroke-miterlimit:1.5;"/></g><g id="Slide-points" serif:id="Slide points"><circle cx="537.192" cy="447.456" r="26.217" style="fill:none;stroke:#080605;stroke-width:4.17px;stroke-miterlimit:1.5;"/><circle cx="1296.99" cy="447.456" r="26.217" style="fill:none;stroke:#080605;stroke-width:4.17px;stroke-miterlimit:1.5;"/><circle cx="537.075" cy="951.735" r="26.217" style="fill:none;stroke:#080605;stroke-width:4.17px;stroke-miterlimit:1.5;"/><circle cx="1296.87" cy="951.735" r="26.217" style="fill:none;stroke:#080605;stroke-width:4.17px;stroke-miterlimit:1.5;"/></g><path id="Label" d="M1063.14,1020.59l-0,89.623c-0,8.192 -6.651,14.843 -14.843,14.843l-262.336,-0c-8.192,-0 -14.843,-6.651 -14.843,-14.843l0,-89.623c0,-8.192 6.651,-14.843 14.843,-14.843l262.336,-0c8.192,-0 14.843,6.651 14.843,14.843Z" style="fill:none;stroke:#080605;stroke-width:4.17px;stroke-miterlimit:1.5;"/><g id="Screws"><g><g><path d="M1186.34,363.519c0.092,0.077 0.193,0.144 0.3,0.2" style="fill:none;fill-rule:nonzero;stroke:#080605;stroke-width:4.17px;"/><path d="M1188.56,369.841c0.555,0.465 1.349,0.518 1.961,0.129" style="fill:none;fill-rule:nonzero;stroke:#080605;stroke-width:4.17px;"/><path d="M1195.21,370.947c0.505,0.423 1.213,0.509 1.804,0.218c0.592,-0.291 0.955,-0.903 0.927,-1.56" style="fill:none;fill-rule:nonzero;stroke:#080605;stroke-width:4.17px;"/><path d="M1201.83,365.685c0.324,-0.385 0.455,-0.896 0.357,-1.39c-0.098,-0.493 -0.415,-0.916 -0.862,-1.148" style="fill:none;fill-rule:nonzero;stroke:#080605;stroke-width:4.17px;"/><path d="M1199.78,358.955c-0.643,1.551 0.008,3.335 1.499,4.111" style="fill:none;fill-rule:nonzero;stroke:#080605;stroke-width:4.17px;"/><path d="M1200.78,366.264c0.412,-0.055 0.789,-0.261 1.056,-0.579" style="fill:none;fill-rule:nonzero;stroke:#080605;stroke-width:4.17px;"/><path d="M1200.77,366.306c-1.667,0.22 -2.89,1.674 -2.818,3.351" style="fill:none;fill-rule:nonzero;stroke:#080605;stroke-width:4.17px;"/><path d="M1194.96,370.687c0.073,0.096 0.157,0.183 0.249,0.26" style="fill:none;fill-rule:nonzero;stroke:#080605;stroke-width:4.17px;"/><path d="M1194.9,370.705c-1.025,-1.331 -2.898,-1.661 -4.317,-0.76" style="fill:none;fill-rule:nonzero;stroke:#080605;stroke-width:4.17px;"/><path d="M1188.09,367.936c-0.277,0.669 -0.088,1.44 0.468,1.905" style="fill:none;fill-rule:nonzero;stroke:#080605;stroke-width:4.17px;"/><path d="M1188.04,367.911c0.642,-1.551 -0.008,-3.335 -1.5,-4.111" style="fill:none;fill-rule:nonzero;stroke:#080605;stroke-width:4.17px;"/><path d="M1187.19,360.602c-0.654,0.087 -1.194,0.55 -1.379,1.182c-0.184,0.631 0.023,1.312 0.528,1.735" style="fill:none;fill-rule:nonzero;stroke:#080605;stroke-width:4.17px;"/><path d="M1187.21,360.56c1.667,-0.22 2.89,-1.675 2.818,-3.351" style="fill:none;fill-rule:nonzero;stroke:#080605;stroke-width:4.17px;"/><path d="M1193.01,356.179c-0.442,-0.574 -1.206,-0.796 -1.888,-0.549c-0.682,0.248 -1.124,0.908 -1.093,1.631" style="fill:none;fill-rule:nonzero;stroke:#080605;stroke-width:4.17px;"/><path d="M1193.08,356.161c1.025,1.331 2.898,1.66 4.317,0.76" style="fill:none;fill-rule:nonzero;stroke:#080605;stroke-width:4.17px;"/><path d="M1199.72,358.93c0.277,-0.669 0.088,-1.44 -0.468,-1.905c-0.556,-0.465 -1.349,-0.518 -1.962,-0.129" style="fill:none;fill-rule:nonzero;stroke:#080605;stroke-width:4.17px;"/></g><circle cx="1193.84" cy="363.652" r="18.744" style="fill:none;stroke:#080605;stroke-width:4.17px;stroke-linecap:butt;stroke-miterlimit:1.5;"/><circle cx="1193.84" cy="363.652" r="23.572" style="fill:none;stroke:#080605;stroke-width:4.17px;stroke-linecap:butt;stroke-miterlimit:1.5;"/></g><g><g><path d="M1220.17,1016.76c0.092,0.077 0.193,0.144 0.3,0.2" style="fill:none;fill-rule:nonzero;stroke:#080605;stroke-width:4.17px;"/><path d="M1222.39,1023.08c0.556,0.465 1.35,0.518 1.962,0.129" style="fill:none;fill-rule:nonzero;stroke:#080605;stroke-width:4.17px;"/><path d="M1229.04,1024.19c0.505,0.423 1.212,0.509 1.804,0.218c0.591,-0.291 0.955,-0.903 0.926,-1.56" style="fill:none;fill-rule:nonzero;stroke:#080605;stroke-width:4.17px;"/><path d="M1235.66,1018.93c0.324,-0.385 0.455,-0.896 0.357,-1.39c-0.098,-0.493 -0.415,-0.915 -0.862,-1.148" style="fill:none;fill-rule:nonzero;stroke:#080605;stroke-width:4.17px;"/><path d="M1233.61,1012.2c-0.642,1.551 0.008,3.335 1.5,4.111" style="fill:none;fill-rule:nonzero;stroke:#080605;stroke-width:4.17px;"/><path d="M1234.61,1019.51c0.412,-0.055 0.788,-0.261 1.056,-0.579" style="fill:none;fill-rule:nonzero;stroke:#080605;stroke-width:4.17px;"/><path d="M1234.6,1019.55c-1.667,0.22 -2.89,1.675 -2.818,3.351" style="fill:none;fill-rule:nonzero;stroke:#080605;stroke-width:4.17px;"/><path d="M1228.79,1023.93c0.074,0.096 0.157,0.183 0.25,0.261" style="fill:none;fill-rule:nonzero;stroke:#080605;stroke-width:4.17px;"/><path d="M1228.73,1023.95c-1.025,-1.331 -2.899,-1.66 -4.318,-0.76" style="fill:none;fill-rule:nonzero;stroke:#080605;stroke-width:4.17px;"/><path d="M1221.92,1021.18c-0.277,0.669 -0.088,1.44 0.468,1.905" style="fill:none;fill-rule:nonzero;stroke:#080605;stroke-width:4.17px;"/><path d="M1221.87,1021.15c0.642,-1.551 -0.009,-3.335 -1.5,-4.111" style="fill:none;fill-rule:nonzero;stroke:#080605;stroke-width:4.17px;"/><path d="M1221.02,1013.85c-0.653,0.087 -1.194,0.55 -1.378,1.182c-0.185,0.631 0.023,1.312 0.528,1.735" style="fill:none;fill-rule:nonzero;stroke:#080605;stroke-width:4.17px;"/><path d="M1221.03,1013.8c1.668,-0.22 2.89,-1.674 2.818,-3.351" style="fill:none;fill-rule:nonzero;stroke:#080605;stroke-width:4.17px;"/><path d="M1226.84,1009.42c-0.442,-0.574 -1.206,-0.796 -1.888,-0.549c-0.681,0.248 -1.123,0.908 -1.092,1.631" style="fill:none;fill-rule:nonzero;stroke:#080605;stroke-width:4.17px;"/><path d="M1226.9,1009.4c1.024,1.331 2.898,1.66 4.317,0.76" style="fill:none;fill-rule:nonzero;stroke:#080605;stroke-width:4.17px;"/><path d="M1233.55,1012.17c0.277,-0.669 0.087,-1.44 -0.468,-1.905c-0.556,-0.465 -1.35,-0.518 -1.962,-0.129" style="fill:none;fill-rule:nonzero;stroke:#080605;stroke-width:4.17px;"/></g><circle cx="1227.67" cy="1016.89" r="18.744" style="fill:none;stroke:#080605;stroke-width:4.17px;stroke-linecap:butt;stroke-miterlimit:1.5;"/><circle cx="1227.67" cy="1016.89" r="23.572" style="fill:none;stroke:#080605;stroke-width:4.17px;stroke-linecap:butt;stroke-miterlimit:1.5;"/></g><g><g><path d="M632.574,363.519c0.092,0.077 0.193,0.144 0.3,0.2" style="fill:none;fill-rule:nonzero;stroke:#080605;stroke-width:4.17px;"/><path d="M634.791,369.841c0.556,0.465 1.35,0.518 1.962,0.129" style="fill:none;fill-rule:nonzero;stroke:#080605;stroke-width:4.17px;"/><path d="M641.444,370.947c0.505,0.423 1.213,0.509 1.804,0.218c0.591,-0.291 0.955,-0.903 0.926,-1.56" style="fill:none;fill-rule:nonzero;stroke:#080605;stroke-width:4.17px;"/><path d="M648.064,365.685c0.324,-0.385 0.455,-0.896 0.357,-1.39c-0.098,-0.493 -0.415,-0.916 -0.862,-1.148" style="fill:none;fill-rule:nonzero;stroke:#080605;stroke-width:4.17px;"/><path d="M646.006,358.955c-0.642,1.551 0.009,3.335 1.5,4.111" style="fill:none;fill-rule:nonzero;stroke:#080605;stroke-width:4.17px;"/><path d="M647.008,366.264c0.412,-0.055 0.788,-0.261 1.056,-0.579" style="fill:none;fill-rule:nonzero;stroke:#080605;stroke-width:4.17px;"/><path d="M646.997,366.306c-1.667,0.22 -2.89,1.674 -2.818,3.351" style="fill:none;fill-rule:nonzero;stroke:#080605;stroke-width:4.17px;"/><path d="M641.194,370.687c0.074,0.096 0.157,0.183 0.25,0.26" style="fill:none;fill-rule:nonzero;stroke:#080605;stroke-width:4.17px;"/><path d="M641.128,370.705c-1.025,-1.331 -2.899,-1.661 -4.318,-0.76" style="fill:none;fill-rule:nonzero;stroke:#080605;stroke-width:4.17px;"/><path d="M634.323,367.936c-0.277,0.669 -0.088,1.44 0.468,1.905" style="fill:none;fill-rule:nonzero;stroke:#080605;stroke-width:4.17px;"/><path d="M634.268,367.911c0.642,-1.551 -0.009,-3.335 -1.5,-4.111" style="fill:none;fill-rule:nonzero;stroke:#080605;stroke-width:4.17px;"/><path d="M633.425,360.602c-0.654,0.087 -1.195,0.55 -1.379,1.182c-0.184,0.631 0.023,1.312 0.528,1.735" style="fill:none;fill-rule:nonzero;stroke:#080605;stroke-width:4.17px;"/><path d="M633.435,360.56c1.668,-0.22 2.89,-1.675 2.818,-3.351" style="fill:none;fill-rule:nonzero;stroke:#080605;stroke-width:4.17px;"/><path d="M639.238,356.179c-0.442,-0.574 -1.206,-0.796 -1.887,-0.549c-0.682,0.248 -1.124,0.908 -1.093,1.631" style="fill:none;fill-rule:nonzero;stroke:#080605;stroke-width:4.17px;"/><path d="M639.305,356.161c1.024,1.331 2.898,1.66 4.317,0.76" style="fill:none;fill-rule:nonzero;stroke:#080605;stroke-width:4.17px;"/><path d="M645.951,358.93c0.277,-0.669 0.087,-1.44 -0.468,-1.905c-0.556,-0.465 -1.35,-0.518 -1.962,-0.129" style="fill:none;fill-rule:nonzero;stroke:#080605;stroke-width:4.17px;"/></g><circle cx="640.073" cy="363.652" r="18.744" style="fill:none;stroke:#080605;stroke-width:4.17px;stroke-linecap:butt;stroke-miterlimit:1.5;"/><circle cx="640.073" cy="363.652" r="23.572" style="fill:none;stroke:#080605;stroke-width:4.17px;stroke-linecap:butt;stroke-miterlimit:1.5;"/></g><g><g><path d="M598.943,1016.76c0.093,0.077 0.193,0.144 0.3,0.2" style="fill:none;fill-rule:nonzero;stroke:#080605;stroke-width:4.17px;"/><path d="M601.161,1023.08c0.556,0.465 1.349,0.518 1.962,0.129" style="fill:none;fill-rule:nonzero;stroke:#080605;stroke-width:4.17px;"/><path d="M607.813,1024.19c0.505,0.423 1.213,0.509 1.805,0.218c0.591,-0.291 0.954,-0.903 0.926,-1.56" style="fill:none;fill-rule:nonzero;stroke:#080605;stroke-width:4.17px;"/><path d="M614.433,1018.93c0.324,-0.385 0.456,-0.896 0.358,-1.39c-0.099,-0.493 -0.416,-0.915 -0.863,-1.148" style="fill:none;fill-rule:nonzero;stroke:#080605;stroke-width:4.17px;"/><path d="M612.376,1012.2c-0.643,1.551 0.008,3.335 1.5,4.111" style="fill:none;fill-rule:nonzero;stroke:#080605;stroke-width:4.17px;"/><path d="M613.377,1019.51c0.412,-0.055 0.789,-0.261 1.056,-0.579" style="fill:none;fill-rule:nonzero;stroke:#080605;stroke-width:4.17px;"/><path d="M613.367,1019.55c-1.668,0.22 -2.891,1.675 -2.818,3.351" style="fill:none;fill-rule:nonzero;stroke:#080605;stroke-width:4.17px;"/><path d="M607.564,1023.93c0.073,0.096 0.157,0.183 0.249,0.261" style="fill:none;fill-rule:nonzero;stroke:#080605;stroke-width:4.17px;"/><path d="M607.497,1023.95c-1.024,-1.331 -2.898,-1.66 -4.317,-0.76" style="fill:none;fill-rule:nonzero;stroke:#080605;stroke-width:4.17px;"/><path d="M600.693,1021.18c-0.277,0.669 -0.088,1.44 0.468,1.905" style="fill:none;fill-rule:nonzero;stroke:#080605;stroke-width:4.17px;"/><path d="M600.637,1021.15c0.643,-1.551 -0.008,-3.335 -1.499,-4.111" style="fill:none;fill-rule:nonzero;stroke:#080605;stroke-width:4.17px;"/><path d="M599.794,1013.85c-0.653,0.087 -1.194,0.55 -1.379,1.182c-0.184,0.631 0.023,1.312 0.528,1.735" style="fill:none;fill-rule:nonzero;stroke:#080605;stroke-width:4.17px;"/><path d="M599.805,1013.8c1.667,-0.22 2.89,-1.674 2.818,-3.351" style="fill:none;fill-rule:nonzero;stroke:#080605;stroke-width:4.17px;"/><path d="M605.608,1009.42c-0.442,-0.574 -1.206,-0.796 -1.888,-0.549c-0.682,0.248 -1.124,0.908 -1.093,1.631" style="fill:none;fill-rule:nonzero;stroke:#080605;stroke-width:4.17px;"/><path d="M605.674,1009.4c1.025,1.331 2.899,1.66 4.318,0.76" style="fill:none;fill-rule:nonzero;stroke:#080605;stroke-width:4.17px;"/><path d="M612.32,1012.17c0.277,-0.669 0.088,-1.44 -0.468,-1.905c-0.555,-0.465 -1.349,-0.518 -1.961,-0.129" style="fill:none;fill-rule:nonzero;stroke:#080605;stroke-width:4.17px;"/></g><circle cx="606.443" cy="1016.89" r="18.744" style="fill:none;stroke:#080605;stroke-width:4.17px;stroke-linecap:butt;stroke-miterlimit:1.5;"/><circle cx="606.443" cy="1016.89" r="23.572" style="fill:none;stroke:#080605;stroke-width:4.17px;stroke-linecap:butt;stroke-miterlimit:1.5;"/></g></g></g><g><path d="M167.204,320.318l705.539,-0" style="fill:none;stroke:#3666b1;stroke-width:4.17px;stroke-linecap:butt;stroke-miterlimit:1.5;"/><path d="M177.352,350.293l9.375,-28.125l9.375,28.125l-18.75,0Z" style="fill:#3666b1;"/><path d="M186.727,479.27l0,-134.602" style="fill:none;stroke:#3666b1;stroke-width:4.17px;stroke-linecap:butt;stroke-miterlimit:1.5;"/><path d="M196.102,672.062l-9.375,28.125l-9.375,-28.125l18.75,0Z" style="fill:#3666b1;"/><path d="M186.727,536.983l0,140.704" style="fill:none;stroke:#3666b1;stroke-width:4.17px;stroke-linecap:butt;stroke-miterlimit:1.5;"/><path d="M167.204,700.652l669.952,-0" style="fill:none;stroke:#3666b1;stroke-width:4.17px;stroke-linecap:butt;stroke-miterlimit:1.5;"/><path d="M129.014,524.351c-1.534,-0 -3.042,-0.167 -4.525,-0.5c-1.484,-0.334 -2.875,-0.809 -4.175,-1.425c-1.3,-0.617 -2.434,-1.375 -3.4,-2.275l1.65,-3.6c1.633,1.3 3.3,2.258 5,2.875c1.7,0.616 3.483,0.925 5.35,0.925c2.466,-0 4.4,-0.65 5.8,-1.95c1.4,-1.3 2.1,-3.034 2.1,-5.2c-0,-2.234 -0.667,-4.042 -2,-5.425c-1.334,-1.384 -3.184,-2.075 -5.55,-2.075c-1.634,-0 -3.109,0.325 -4.425,0.975c-1.317,0.65 -2.475,1.675 -3.475,3.075l-3.3,-0l-0,-21.1l21.15,-0l-0,3.95l-16.65,-0l-0,13.35l-1.2,-0c0.9,-1.334 2.125,-2.367 3.675,-3.1c1.55,-0.734 3.291,-1.1 5.225,-1.1c2.266,-0 4.225,0.466 5.875,1.4c1.65,0.933 2.933,2.241 3.85,3.925c0.916,1.683 1.375,3.641 1.375,5.875c-0,2.233 -0.5,4.208 -1.5,5.925c-1,1.716 -2.425,3.058 -4.275,4.025c-1.85,0.966 -4.042,1.45 -6.575,1.45Z" style="fill:#3666b1;fill-rule:nonzero;"/><path d="M149.614,523.901l-0,-3.95l8.25,-0l-0,-27.35l2.35,-0l-9.85,6.1l-0,-4.55l8.8,-5.5l3.35,-0l-0,31.3l7.75,-0l-0,3.95l-20.65,-0Z" style="fill:#3666b1;fill-rule:nonzero;"/><path d="M177.214,523.901l-0,-19.2c-0,-0.967 -0.034,-1.95 -0.1,-2.95c-0.067,-1 -0.167,-2 -0.3,-3l4.4,-0l0.5,5.4l-0.6,-0c0.666,-1.867 1.733,-3.309 3.2,-4.325c1.466,-1.017 3.216,-1.525 5.25,-1.525c2.066,-0 3.766,0.491 5.1,1.475c1.333,0.983 2.233,2.525 2.7,4.625l-0.75,-0c0.633,-1.867 1.75,-3.35 3.35,-4.45c1.6,-1.1 3.466,-1.65 5.6,-1.65c2.766,-0 4.85,0.808 6.25,2.425c1.4,1.616 2.1,4.125 2.1,7.525l-0,15.65l-4.55,-0l-0,-15.4c-0,-2.3 -0.4,-3.959 -1.2,-4.975c-0.8,-1.017 -2.067,-1.525 -3.8,-1.525c-2.034,-0 -3.634,0.691 -4.8,2.075c-1.167,1.383 -1.75,3.258 -1.75,5.625l-0,14.2l-4.55,-0l-0,-15.4c-0,-2.3 -0.392,-3.959 -1.175,-4.975c-0.784,-1.017 -2.059,-1.525 -3.825,-1.525c-2.034,-0 -3.625,0.691 -4.775,2.075c-1.15,1.383 -1.725,3.258 -1.725,5.625l-0,14.2l-4.55,-0Z" style="fill:#3666b1;fill-rule:nonzero;"/><path d="M221.364,523.901l-0,-19.2c-0,-0.967 -0.034,-1.95 -0.1,-2.95c-0.067,-1 -0.167,-2 -0.3,-3l4.4,-0l0.5,5.4l-0.6,-0c0.666,-1.867 1.733,-3.309 3.2,-4.325c1.466,-1.017 3.216,-1.525 5.25,-1.525c2.066,-0 3.766,0.491 5.1,1.475c1.333,0.983 2.233,2.525 2.7,4.625l-0.75,-0c0.633,-1.867 1.75,-3.35 3.35,-4.45c1.6,-1.1 3.466,-1.65 5.6,-1.65c2.766,-0 4.85,0.808 6.25,2.425c1.4,1.616 2.1,4.125 2.1,7.525l-0,15.65l-4.55,-0l-0,-15.4c-0,-2.3 -0.4,-3.959 -1.2,-4.975c-0.8,-1.017 -2.067,-1.525 -3.8,-1.525c-2.034,-0 -3.634,0.691 -4.8,2.075c-1.167,1.383 -1.75,3.258 -1.75,5.625l-0,14.2l-4.55,-0l-0,-15.4c-0,-2.3 -0.392,-3.959 -1.175,-4.975c-0.784,-1.017 -2.059,-1.525 -3.825,-1.525c-2.034,-0 -3.625,0.691 -4.775,2.075c-1.15,1.383 -1.725,3.258 -1.725,5.625l-0,14.2l-4.55,-0Z" style="fill:#3666b1;fill-rule:nonzero;"/></g><g><path d="M311.735,456.158l262.283,0" style="fill:none;stroke:#3666b1;stroke-width:4.17px;stroke-linecap:butt;stroke-miterlimit:1.5;"/><path d="M320.339,484.729l9.375,-28.125l9.375,28.125l-18.75,-0Z" style="fill:#3666b1;"/><path d="M329.714,553.064l-0,-73.96" style="fill:none;stroke:#3666b1;stroke-width:4.17px;stroke-linecap:butt;stroke-miterlimit:1.5;"/><path d="M339.089,672.062l-9.375,28.125l-9.375,-28.125l18.75,0Z" style="fill:#3666b1;"/><path d="M329.714,605.546l-0,72.141" style="fill:none;stroke:#3666b1;stroke-width:4.17px;stroke-linecap:butt;stroke-miterlimit:1.5;"/><path d="M271.15,595.146c-2.4,0 -4.691,-0.366 -6.875,-1.1c-2.183,-0.733 -4.008,-1.766 -5.475,-3.1l1.65,-3.6c1.634,1.334 3.317,2.3 5.05,2.9c1.734,0.6 3.567,0.9 5.5,0.9c2.567,0 4.517,-0.541 5.85,-1.625c1.334,-1.083 2,-2.641 2,-4.675c0,-2 -0.675,-3.516 -2.025,-4.55c-1.35,-1.033 -3.325,-1.55 -5.925,-1.55l-5.4,0l0,-3.85l5.05,0c2.2,0 3.967,-0.566 5.3,-1.7c1.334,-1.133 2,-2.683 2,-4.65c0,-1.8 -0.608,-3.175 -1.825,-4.125c-1.216,-0.95 -2.941,-1.425 -5.175,-1.425c-3.766,0 -7.033,1.317 -9.8,3.95l-1.65,-3.55c1.4,-1.4 3.134,-2.483 5.2,-3.25c2.067,-0.766 4.25,-1.15 6.55,-1.15c3.5,0 6.25,0.8 8.25,2.4c2,1.6 3,3.834 3,6.7c0,2.167 -0.608,4.025 -1.825,5.575c-1.216,1.55 -2.875,2.575 -4.975,3.075l0,-0.55c2.467,0.434 4.384,1.442 5.75,3.025c1.367,1.584 2.05,3.559 2.05,5.925c0,3.1 -1.091,5.542 -3.275,7.325c-2.183,1.784 -5.175,2.675 -8.975,2.675Z" style="fill:#3666b1;fill-rule:nonzero;"/><path d="M301.15,595.146c-2.4,0 -4.691,-0.366 -6.875,-1.1c-2.183,-0.733 -4.008,-1.766 -5.475,-3.1l1.65,-3.6c1.634,1.334 3.317,2.3 5.05,2.9c1.734,0.6 3.567,0.9 5.5,0.9c2.567,0 4.517,-0.541 5.85,-1.625c1.334,-1.083 2,-2.641 2,-4.675c0,-2 -0.675,-3.516 -2.025,-4.55c-1.35,-1.033 -3.325,-1.55 -5.925,-1.55l-5.4,0l0,-3.85l5.05,0c2.2,0 3.967,-0.566 5.3,-1.7c1.334,-1.133 2,-2.683 2,-4.65c0,-1.8 -0.608,-3.175 -1.825,-4.125c-1.216,-0.95 -2.941,-1.425 -5.175,-1.425c-3.766,0 -7.033,1.317 -9.8,3.95l-1.65,-3.55c1.4,-1.4 3.134,-2.483 5.2,-3.25c2.067,-0.766 4.25,-1.15 6.55,-1.15c3.5,0 6.25,0.8 8.25,2.4c2,1.6 3,3.834 3,6.7c0,2.167 -0.608,4.025 -1.825,5.575c-1.216,1.55 -2.875,2.575 -4.975,3.075l0,-0.55c2.467,0.434 4.384,1.442 5.75,3.025c1.367,1.584 2.05,3.559 2.05,5.925c0,3.1 -1.091,5.542 -3.275,7.325c-2.183,1.784 -5.175,2.675 -8.975,2.675Z" style="fill:#3666b1;fill-rule:nonzero;"/><path d="M320.2,594.696l0,-19.2c0,-0.966 -0.033,-1.95 -0.1,-2.95c-0.066,-1 -0.166,-2 -0.3,-3l4.4,0l0.5,5.4l-0.6,0c0.667,-1.866 1.734,-3.308 3.2,-4.325c1.467,-1.016 3.217,-1.525 5.25,-1.525c2.067,0 3.767,0.492 5.1,1.475c1.334,0.984 2.234,2.525 2.7,4.625l-0.75,0c0.634,-1.866 1.75,-3.35 3.35,-4.45c1.6,-1.1 3.467,-1.65 5.6,-1.65c2.767,0 4.85,0.809 6.25,2.425c1.4,1.617 2.1,4.125 2.1,7.525l0,15.65l-4.55,0l0,-15.4c0,-2.3 -0.4,-3.958 -1.2,-4.975c-0.8,-1.016 -2.066,-1.525 -3.8,-1.525c-2.033,0 -3.633,0.692 -4.8,2.075c-1.166,1.384 -1.75,3.259 -1.75,5.625l0,14.2l-4.55,0l0,-15.4c0,-2.3 -0.391,-3.958 -1.175,-4.975c-0.783,-1.016 -2.058,-1.525 -3.825,-1.525c-2.033,0 -3.625,0.692 -4.775,2.075c-1.15,1.384 -1.725,3.259 -1.725,5.625l0,14.2l-4.55,0Z" style="fill:#3666b1;fill-rule:nonzero;"/><path d="M364.35,594.696l0,-19.2c0,-0.966 -0.033,-1.95 -0.1,-2.95c-0.066,-1 -0.166,-2 -0.3,-3l4.4,0l0.5,5.4l-0.6,0c0.667,-1.866 1.734,-3.308 3.2,-4.325c1.467,-1.016 3.217,-1.525 5.25,-1.525c2.067,0 3.767,0.492 5.1,1.475c1.334,0.984 2.234,2.525 2.7,4.625l-0.75,0c0.634,-1.866 1.75,-3.35 3.35,-4.45c1.6,-1.1 3.467,-1.65 5.6,-1.65c2.767,0 4.85,0.809 6.25,2.425c1.4,1.617 2.1,4.125 2.1,7.525l0,15.65l-4.55,0l0,-15.4c0,-2.3 -0.4,-3.958 -1.2,-4.975c-0.8,-1.016 -2.066,-1.525 -3.8,-1.525c-2.033,0 -3.633,0.692 -4.8,2.075c-1.166,1.384 -1.75,3.259 -1.75,5.625l0,14.2l-4.55,0l0,-15.4c0,-2.3 -0.391,-3.958 -1.175,-4.975c-0.783,-1.016 -2.058,-1.525 -3.825,-1.525c-2.033,0 -3.625,0.692 -4.775,2.075c-1.15,1.384 -1.725,3.259 -1.725,5.625l0,14.2l-4.55,0Z" style="fill:#3666b1;fill-rule:nonzero;"/></g><g><path d="M312.112,927.024l269.07,0" style="fill:none;stroke:#3666b1;stroke-width:4.17px;stroke-linecap:butt;stroke-miterlimit:1.5;"/><path d="M320.339,728.404l9.375,-28.125l9.375,28.125l-18.75,-0Z" style="fill:#3666b1;"/><path d="M329.714,793.877l-0,-71.098" style="fill:none;stroke:#3666b1;stroke-width:4.17px;stroke-linecap:butt;stroke-miterlimit:1.5;"/><path d="M339.089,898.847l-9.375,28.125l-9.375,-28.125l18.75,0Z" style="fill:#3666b1;"/><path d="M329.714,845.915l-0,58.557" style="fill:none;stroke:#3666b1;stroke-width:4.17px;stroke-linecap:butt;stroke-miterlimit:1.5;"/><path d="M271.15,836.469c-2.4,-0 -4.691,-0.367 -6.875,-1.1c-2.183,-0.734 -4.008,-1.767 -5.475,-3.1l1.65,-3.6c1.634,1.333 3.317,2.3 5.05,2.9c1.734,0.6 3.567,0.9 5.5,0.9c2.567,-0 4.517,-0.542 5.85,-1.625c1.334,-1.084 2,-2.642 2,-4.675c0,-2 -0.675,-3.517 -2.025,-4.55c-1.35,-1.034 -3.325,-1.55 -5.925,-1.55l-5.4,-0l0,-3.85l5.05,-0c2.2,-0 3.967,-0.567 5.3,-1.7c1.334,-1.134 2,-2.684 2,-4.65c0,-1.8 -0.608,-3.175 -1.825,-4.125c-1.216,-0.95 -2.941,-1.425 -5.175,-1.425c-3.766,-0 -7.033,1.316 -9.8,3.95l-1.65,-3.55c1.4,-1.4 3.134,-2.484 5.2,-3.25c2.067,-0.767 4.25,-1.15 6.55,-1.15c3.5,-0 6.25,0.8 8.25,2.4c2,1.6 3,3.833 3,6.7c0,2.166 -0.608,4.025 -1.825,5.575c-1.216,1.55 -2.875,2.575 -4.975,3.075l0,-0.55c2.467,0.433 4.384,1.441 5.75,3.025c1.367,1.583 2.05,3.558 2.05,5.925c0,3.1 -1.091,5.541 -3.275,7.325c-2.183,1.783 -5.175,2.675 -8.975,2.675Z" style="fill:#3666b1;fill-rule:nonzero;"/><path d="M292.6,836.019l0,-3.95l8.25,-0l0,-27.35l2.35,-0l-9.85,6.1l0,-4.55l8.8,-5.5l3.35,-0l0,31.3l7.75,-0l0,3.95l-20.65,-0Z" style="fill:#3666b1;fill-rule:nonzero;"/><path d="M320.2,836.019l0,-19.2c0,-0.967 -0.033,-1.95 -0.1,-2.95c-0.066,-1 -0.166,-2 -0.3,-3l4.4,-0l0.5,5.4l-0.6,-0c0.667,-1.867 1.734,-3.309 3.2,-4.325c1.467,-1.017 3.217,-1.525 5.25,-1.525c2.067,-0 3.767,0.491 5.1,1.475c1.334,0.983 2.234,2.525 2.7,4.625l-0.75,-0c0.634,-1.867 1.75,-3.35 3.35,-4.45c1.6,-1.1 3.467,-1.65 5.6,-1.65c2.767,-0 4.85,0.808 6.25,2.425c1.4,1.616 2.1,4.125 2.1,7.525l0,15.65l-4.55,-0l0,-15.4c0,-2.3 -0.4,-3.959 -1.2,-4.975c-0.8,-1.017 -2.066,-1.525 -3.8,-1.525c-2.033,-0 -3.633,0.691 -4.8,2.075c-1.166,1.383 -1.75,3.258 -1.75,5.625l0,14.2l-4.55,-0l0,-15.4c0,-2.3 -0.391,-3.959 -1.175,-4.975c-0.783,-1.017 -2.058,-1.525 -3.825,-1.525c-2.033,-0 -3.625,0.691 -4.775,2.075c-1.15,1.383 -1.725,3.258 -1.725,5.625l0,14.2l-4.55,-0Z" style="fill:#3666b1;fill-rule:nonzero;"/><path d="M364.35,836.019l0,-19.2c0,-0.967 -0.033,-1.95 -0.1,-2.95c-0.066,-1 -0.166,-2 -0.3,-3l4.4,-0l0.5,5.4l-0.6,-0c0.667,-1.867 1.734,-3.309 3.2,-4.325c1.467,-1.017 3.217,-1.525 5.25,-1.525c2.067,-0 3.767,0.491 5.1,1.475c1.334,0.983 2.234,2.525 2.7,4.625l-0.75,-0c0.634,-1.867 1.75,-3.35 3.35,-4.45c1.6,-1.1 3.467,-1.65 5.6,-1.65c2.767,-0 4.85,0.808 6.25,2.425c1.4,1.616 2.1,4.125 2.1,7.525l0,15.65l-4.55,-0l0,-15.4c0,-2.3 -0.4,-3.959 -1.2,-4.975c-0.8,-1.017 -2.066,-1.525 -3.8,-1.525c-2.033,-0 -3.633,0.691 -4.8,2.075c-1.166,1.383 -1.75,3.258 -1.75,5.625l0,14.2l-4.55,-0l0,-15.4c0,-2.3 -0.391,-3.959 -1.175,-4.975c-0.783,-1.017 -2.058,-1.525 -3.825,-1.525c-2.033,-0 -3.625,0.691 -4.775,2.075c-1.15,1.383 -1.725,3.258 -1.725,5.625l0,14.2l-4.55,-0Z" style="fill:#3666b1;fill-rule:nonzero;"/></g><g><path d="M1297.54,707.059l-0,711.198" style="fill:none;stroke:#3666b1;stroke-width:4.17px;stroke-linecap:butt;stroke-miterlimit:1.5;"/><path d="M1268.86,1391.08l28.125,9.375l-28.125,9.375l0,-18.75Z" style="fill:#3666b1;"/><path d="M1009.78,1400.46l264.702,-0" style="fill:none;stroke:#3666b1;stroke-width:4.17px;stroke-linecap:butt;stroke-miterlimit:1.5;"/><path d="M564.834,1409.83l-28.125,-9.375l28.125,-9.375l-0,18.75Z" style="fill:#3666b1;"/><path d="M820.007,1400.46l-260.798,-0" style="fill:none;stroke:#3666b1;stroke-width:4.17px;stroke-linecap:butt;stroke-miterlimit:1.5;"/><path d="M537.159,707.059l-0,711.198" style="fill:none;stroke:#3666b1;stroke-width:4.17px;stroke-linecap:butt;stroke-miterlimit:1.5;"/><path d="M830.609,1417.44l-0,-3.95l8.25,-0l-0,-27.35l2.35,-0l-9.85,6.1l-0,-4.55l8.8,-5.5l3.35,-0l-0,31.3l7.75,-0l-0,3.95l-20.65,-0Z" style="fill:#3666b1;fill-rule:nonzero;"/><path d="M869.409,1417.89c-4.033,-0 -7.133,-1.558 -9.3,-4.675c-2.167,-3.117 -3.25,-7.592 -3.25,-13.425c-0,-5.933 1.083,-10.425 3.25,-13.475c2.167,-3.05 5.267,-4.575 9.3,-4.575c4.067,-0 7.175,1.525 9.325,4.575c2.15,3.05 3.225,7.525 3.225,13.425c-0,5.867 -1.083,10.358 -3.25,13.475c-2.167,3.117 -5.267,4.675 -9.3,4.675Zm-0,-3.95c2.667,-0 4.658,-1.15 5.975,-3.45c1.317,-2.3 1.975,-5.883 1.975,-10.75c-0,-4.867 -0.658,-8.425 -1.975,-10.675c-1.317,-2.25 -3.308,-3.375 -5.975,-3.375c-2.633,-0 -4.617,1.125 -5.95,3.375c-1.333,2.25 -2,5.808 -2,10.675c-0,4.867 0.667,8.45 2,10.75c1.333,2.3 3.317,3.45 5.95,3.45Z" style="fill:#3666b1;fill-rule:nonzero;"/><path d="M888.659,1417.44l-0,-3.45l12.3,-12.9c1.6,-1.633 2.792,-3.2 3.575,-4.7c0.783,-1.5 1.175,-3.05 1.175,-4.65c-0,-1.967 -0.608,-3.458 -1.825,-4.475c-1.217,-1.017 -2.992,-1.525 -5.325,-1.525c-1.8,-0 -3.492,0.325 -5.075,0.975c-1.583,0.65 -3.092,1.642 -4.525,2.975l-1.65,-3.55c1.367,-1.333 3.092,-2.4 5.175,-3.2c2.083,-0.8 4.275,-1.2 6.575,-1.2c3.6,-0 6.383,0.825 8.35,2.475c1.967,1.65 2.95,4.008 2.95,7.075c-0,2.233 -0.542,4.358 -1.625,6.375c-1.083,2.017 -2.675,4.092 -4.775,6.225l-10.75,10.9l-0,-1.3l18.6,-0l-0,3.95l-23.15,-0Z" style="fill:#3666b1;fill-rule:nonzero;"/><path d="M918.209,1417.44l-0,-19.2c-0,-0.967 -0.033,-1.95 -0.1,-2.95c-0.067,-1 -0.167,-2 -0.3,-3l4.4,-0l0.5,5.4l-0.6,-0c0.667,-1.867 1.733,-3.308 3.2,-4.325c1.467,-1.017 3.217,-1.525 5.25,-1.525c2.067,-0 3.767,0.492 5.1,1.475c1.333,0.983 2.233,2.525 2.7,4.625l-0.75,-0c0.633,-1.867 1.75,-3.35 3.35,-4.45c1.6,-1.1 3.467,-1.65 5.6,-1.65c2.767,-0 4.85,0.808 6.25,2.425c1.4,1.617 2.1,4.125 2.1,7.525l-0,15.65l-4.55,-0l-0,-15.4c-0,-2.3 -0.4,-3.958 -1.2,-4.975c-0.8,-1.017 -2.067,-1.525 -3.8,-1.525c-2.033,-0 -3.633,0.692 -4.8,2.075c-1.167,1.383 -1.75,3.258 -1.75,5.625l-0,14.2l-4.55,-0l-0,-15.4c-0,-2.3 -0.392,-3.958 -1.175,-4.975c-0.783,-1.017 -2.058,-1.525 -3.825,-1.525c-2.033,-0 -3.625,0.692 -4.775,2.075c-1.15,1.383 -1.725,3.258 -1.725,5.625l-0,14.2l-4.55,-0Z" style="fill:#3666b1;fill-rule:nonzero;"/><path d="M962.359,1417.44l-0,-19.2c-0,-0.967 -0.033,-1.95 -0.1,-2.95c-0.067,-1 -0.167,-2 -0.3,-3l4.4,-0l0.5,5.4l-0.6,-0c0.667,-1.867 1.733,-3.308 3.2,-4.325c1.467,-1.017 3.217,-1.525 5.25,-1.525c2.067,-0 3.767,0.492 5.1,1.475c1.333,0.983 2.233,2.525 2.7,4.625l-0.75,-0c0.633,-1.867 1.75,-3.35 3.35,-4.45c1.6,-1.1 3.467,-1.65 5.6,-1.65c2.767,-0 4.85,0.808 6.25,2.425c1.4,1.617 2.1,4.125 2.1,7.525l-0,15.65l-4.55,-0l-0,-15.4c-0,-2.3 -0.4,-3.958 -1.2,-4.975c-0.8,-1.017 -2.067,-1.525 -3.8,-1.525c-2.033,-0 -3.633,0.692 -4.8,2.075c-1.167,1.383 -1.75,3.258 -1.75,5.625l-0,14.2l-4.55,-0l-0,-15.4c-0,-2.3 -0.392,-3.958 -1.175,-4.975c-0.783,-1.017 -2.058,-1.525 -3.825,-1.525c-2.033,-0 -3.625,0.692 -4.775,2.075c-1.15,1.383 -1.725,3.258 -1.725,5.625l-0,14.2l-4.55,-0Z" style="fill:#3666b1;fill-rule:nonzero;"/></g><g><path d="M1239.4,41.774l0,399.649" style="fill:none;stroke:#3666b1;stroke-width:4.17px;stroke-linecap:butt;stroke-miterlimit:1.5;"/><path d="M1210.72,57.934l28.125,9.375l-28.125,9.375l0,-18.75Z" style="fill:#3666b1;"/><path d="M995.069,67.309l221.273,0" style="fill:none;stroke:#3666b1;stroke-width:4.17px;stroke-linecap:butt;stroke-miterlimit:1.5;"/><path d="M623.826,76.684l-28.125,-9.375l28.125,-9.375l-0,18.75Z" style="fill:#3666b1;"/><path d="M831.246,67.309l-213.045,0" style="fill:none;stroke:#3666b1;stroke-width:4.17px;stroke-linecap:butt;stroke-miterlimit:1.5;"/><path d="M594.623,41.774l-0,399.649" style="fill:none;stroke:#3666b1;stroke-width:4.17px;stroke-linecap:butt;stroke-miterlimit:1.5;"/><path d="M855.466,84.74c-4.067,0 -7.217,-0.867 -9.45,-2.6c-2.234,-1.733 -3.35,-4.15 -3.35,-7.25c-0,-2.433 0.758,-4.458 2.275,-6.075c1.516,-1.617 3.491,-2.592 5.925,-2.925l-0,0.8c-2.234,-0.467 -4.009,-1.483 -5.325,-3.05c-1.317,-1.567 -1.975,-3.45 -1.975,-5.65c-0,-2.933 1.058,-5.233 3.175,-6.9c2.116,-1.667 5.025,-2.5 8.725,-2.5c3.733,0 6.658,0.833 8.775,2.5c2.116,1.667 3.175,3.967 3.175,6.9c-0,2.2 -0.625,4.1 -1.875,5.7c-1.25,1.6 -2.975,2.6 -5.175,3l-0,-0.8c2.433,0.333 4.358,1.308 5.775,2.925c1.416,1.617 2.125,3.642 2.125,6.075c-0,3.1 -1.109,5.517 -3.325,7.25c-2.217,1.733 -5.375,2.6 -9.475,2.6Zm-0,-3.75c2.833,0 4.941,-0.533 6.325,-1.6c1.383,-1.067 2.075,-2.65 2.075,-4.75c-0,-2.133 -0.692,-3.717 -2.075,-4.75c-1.384,-1.033 -3.492,-1.55 -6.325,-1.55c-2.8,0 -4.9,0.517 -6.3,1.55c-1.4,1.033 -2.1,2.617 -2.1,4.75c-0,2.1 0.7,3.683 2.1,4.75c1.4,1.067 3.5,1.6 6.3,1.6Zm-0,-16.45c2.433,0 4.291,-0.542 5.575,-1.625c1.283,-1.083 1.925,-2.592 1.925,-4.525c-0,-1.9 -0.642,-3.383 -1.925,-4.45c-1.284,-1.067 -3.142,-1.6 -5.575,-1.6c-2.4,0 -4.25,0.533 -5.55,1.6c-1.3,1.067 -1.95,2.55 -1.95,4.45c-0,1.933 0.65,3.442 1.95,4.525c1.3,1.083 3.15,1.625 5.55,1.625Z" style="fill:#3666b1;fill-rule:nonzero;"/><path d="M886.616,84.74c-4.3,0 -7.617,-1.517 -9.95,-4.55c-2.334,-3.033 -3.5,-7.267 -3.5,-12.7c-0,-4.067 0.591,-7.5 1.775,-10.3c1.183,-2.8 2.875,-4.933 5.075,-6.4c2.2,-1.467 4.833,-2.2 7.9,-2.2c1.866,0 3.733,0.367 5.6,1.1c1.866,0.733 3.416,1.75 4.65,3.05l-1.7,3.6c-1.234,-1.267 -2.592,-2.208 -4.075,-2.825c-1.484,-0.617 -2.992,-0.925 -4.525,-0.925c-3.3,0 -5.825,1.175 -7.575,3.525c-1.75,2.35 -2.625,5.842 -2.625,10.475l-0,4.45l-0.5,0c0.233,-1.867 0.808,-3.467 1.725,-4.8c0.916,-1.333 2.1,-2.367 3.55,-3.1c1.45,-0.733 3.091,-1.1 4.925,-1.1c2.1,0 3.966,0.483 5.6,1.45c1.633,0.967 2.916,2.283 3.85,3.95c0.933,1.667 1.4,3.6 1.4,5.8c-0,2.2 -0.5,4.175 -1.5,5.925c-1,1.75 -2.367,3.117 -4.1,4.1c-1.734,0.983 -3.734,1.475 -6,1.475Zm-0.25,-3.85c1.466,0 2.758,-0.317 3.875,-0.95c1.116,-0.633 1.983,-1.517 2.6,-2.65c0.616,-1.133 0.925,-2.433 0.925,-3.9c-0,-1.467 -0.309,-2.767 -0.925,-3.9c-0.617,-1.133 -1.484,-2.017 -2.6,-2.65c-1.117,-0.633 -2.409,-0.95 -3.875,-0.95c-1.467,0 -2.759,0.317 -3.875,0.95c-1.117,0.633 -1.992,1.517 -2.625,2.65c-0.634,1.133 -0.95,2.433 -0.95,3.9c-0,1.467 0.316,2.767 0.95,3.9c0.633,1.133 1.508,2.017 2.625,2.65c1.116,0.633 2.408,0.95 3.875,0.95Z" style="fill:#3666b1;fill-rule:nonzero;"/><path d="M904.266,84.29l-0,-19.2c-0,-0.967 -0.034,-1.95 -0.1,-2.95c-0.067,-1 -0.167,-2 -0.3,-3l4.4,0l0.5,5.4l-0.6,0c0.666,-1.867 1.733,-3.308 3.2,-4.325c1.466,-1.017 3.216,-1.525 5.25,-1.525c2.066,0 3.766,0.492 5.1,1.475c1.333,0.983 2.233,2.525 2.7,4.625l-0.75,0c0.633,-1.867 1.75,-3.35 3.35,-4.45c1.6,-1.1 3.466,-1.65 5.6,-1.65c2.766,0 4.85,0.808 6.25,2.425c1.4,1.617 2.1,4.125 2.1,7.525l-0,15.65l-4.55,0l-0,-15.4c-0,-2.3 -0.4,-3.958 -1.2,-4.975c-0.8,-1.017 -2.067,-1.525 -3.8,-1.525c-2.034,0 -3.634,0.692 -4.8,2.075c-1.167,1.383 -1.75,3.258 -1.75,5.625l-0,14.2l-4.55,0l-0,-15.4c-0,-2.3 -0.392,-3.958 -1.175,-4.975c-0.784,-1.017 -2.059,-1.525 -3.825,-1.525c-2.034,0 -3.625,0.692 -4.775,2.075c-1.15,1.383 -1.725,3.258 -1.725,5.625l-0,14.2l-4.55,0Z" style="fill:#3666b1;fill-rule:nonzero;"/><path d="M948.416,84.29l-0,-19.2c-0,-0.967 -0.034,-1.95 -0.1,-2.95c-0.067,-1 -0.167,-2 -0.3,-3l4.4,0l0.5,5.4l-0.6,0c0.666,-1.867 1.733,-3.308 3.2,-4.325c1.466,-1.017 3.216,-1.525 5.25,-1.525c2.066,0 3.766,0.492 5.1,1.475c1.333,0.983 2.233,2.525 2.7,4.625l-0.75,0c0.633,-1.867 1.75,-3.35 3.35,-4.45c1.6,-1.1 3.466,-1.65 5.6,-1.65c2.766,0 4.85,0.808 6.25,2.425c1.4,1.617 2.1,4.125 2.1,7.525l-0,15.65l-4.55,0l-0,-15.4c-0,-2.3 -0.4,-3.958 -1.2,-4.975c-0.8,-1.017 -2.067,-1.525 -3.8,-1.525c-2.034,0 -3.634,0.692 -4.8,2.075c-1.167,1.383 -1.75,3.258 -1.75,5.625l-0,14.2l-4.55,0l-0,-15.4c-0,-2.3 -0.392,-3.958 -1.175,-4.975c-0.784,-1.017 -2.059,-1.525 -3.825,-1.525c-2.034,0 -3.625,0.692 -4.775,2.075c-1.15,1.383 -1.725,3.258 -1.725,5.625l-0,14.2l-4.55,0Z" style="fill:#3666b1;fill-rule:nonzero;"/></g><g><path d="M1253.44,973.383l0,365.519" style="fill:none;stroke:#3666b1;stroke-width:4.17px;stroke-linecap:butt;stroke-miterlimit:1.5;"/><path d="M1225.4,1312.03l28.125,9.375l-28.125,9.375l0,-18.75Z" style="fill:#3666b1;"/><path d="M995.069,1321.4l235.957,0" style="fill:none;stroke:#3666b1;stroke-width:4.17px;stroke-linecap:butt;stroke-miterlimit:1.5;"/><path d="M609.445,1330.78l-28.125,-9.375l28.125,-9.375l-0,18.75Z" style="fill:#3666b1;"/><path d="M831.246,1321.4l-227.426,0" style="fill:none;stroke:#3666b1;stroke-width:4.17px;stroke-linecap:butt;stroke-miterlimit:1.5;"/><path d="M580.797,973.383l0,365.519" style="fill:none;stroke:#3666b1;stroke-width:4.17px;stroke-linecap:butt;stroke-miterlimit:1.5;"/><path d="M855.466,1338.83c-4.067,0 -7.217,-0.866 -9.45,-2.6c-2.234,-1.733 -3.35,-4.15 -3.35,-7.25c-0,-2.433 0.758,-4.458 2.275,-6.075c1.516,-1.616 3.491,-2.591 5.925,-2.925l-0,0.8c-2.234,-0.466 -4.009,-1.483 -5.325,-3.05c-1.317,-1.566 -1.975,-3.45 -1.975,-5.65c-0,-2.933 1.058,-5.233 3.175,-6.9c2.116,-1.666 5.025,-2.5 8.725,-2.5c3.733,0 6.658,0.834 8.775,2.5c2.116,1.667 3.175,3.967 3.175,6.9c-0,2.2 -0.625,4.1 -1.875,5.7c-1.25,1.6 -2.975,2.6 -5.175,3l-0,-0.8c2.433,0.334 4.358,1.309 5.775,2.925c1.416,1.617 2.125,3.642 2.125,6.075c-0,3.1 -1.109,5.517 -3.325,7.25c-2.217,1.734 -5.375,2.6 -9.475,2.6Zm-0,-3.75c2.833,0 4.941,-0.533 6.325,-1.6c1.383,-1.066 2.075,-2.65 2.075,-4.75c-0,-2.133 -0.692,-3.716 -2.075,-4.75c-1.384,-1.033 -3.492,-1.55 -6.325,-1.55c-2.8,0 -4.9,0.517 -6.3,1.55c-1.4,1.034 -2.1,2.617 -2.1,4.75c-0,2.1 0.7,3.684 2.1,4.75c1.4,1.067 3.5,1.6 6.3,1.6Zm-0,-16.45c2.433,0 4.291,-0.541 5.575,-1.625c1.283,-1.083 1.925,-2.591 1.925,-4.525c-0,-1.9 -0.642,-3.383 -1.925,-4.45c-1.284,-1.066 -3.142,-1.6 -5.575,-1.6c-2.4,0 -4.25,0.534 -5.55,1.6c-1.3,1.067 -1.95,2.55 -1.95,4.45c-0,1.934 0.65,3.442 1.95,4.525c1.3,1.084 3.15,1.625 5.55,1.625Z" style="fill:#3666b1;fill-rule:nonzero;"/><path d="M883.066,1338.83c-1.867,0 -3.734,-0.383 -5.6,-1.15c-1.867,-0.766 -3.417,-1.783 -4.65,-3.05l1.7,-3.55c1.233,1.234 2.591,2.167 4.075,2.8c1.483,0.634 2.991,0.95 4.525,0.95c3.266,0 5.783,-1.175 7.55,-3.525c1.766,-2.35 2.65,-5.841 2.65,-10.475l-0,-4.45l0.5,0c-0.2,1.834 -0.775,3.425 -1.725,4.775c-0.95,1.35 -2.142,2.392 -3.575,3.125c-1.434,0.734 -3.067,1.1 -4.9,1.1c-2.1,0 -3.967,-0.483 -5.6,-1.45c-1.634,-0.966 -2.917,-2.291 -3.85,-3.975c-0.934,-1.683 -1.4,-3.608 -1.4,-5.775c-0,-2.233 0.491,-4.216 1.475,-5.95c0.983,-1.733 2.341,-3.091 4.075,-4.075c1.733,-0.983 3.733,-1.475 6,-1.475c4.333,0 7.666,1.509 10,4.525c2.333,3.017 3.5,7.259 3.5,12.725c-0,4.034 -0.592,7.459 -1.775,10.275c-1.184,2.817 -2.875,4.959 -5.075,6.425c-2.2,1.467 -4.834,2.2 -7.9,2.2Zm1.55,-17.3c1.466,0 2.758,-0.316 3.875,-0.95c1.116,-0.633 1.991,-1.516 2.625,-2.65c0.633,-1.133 0.95,-2.433 0.95,-3.9c-0,-1.5 -0.317,-2.808 -0.95,-3.925c-0.634,-1.116 -1.509,-2 -2.625,-2.65c-1.117,-0.65 -2.409,-0.975 -3.875,-0.975c-1.467,0 -2.759,0.325 -3.875,0.975c-1.117,0.65 -1.984,1.534 -2.6,2.65c-0.617,1.117 -0.925,2.425 -0.925,3.925c-0,1.467 0.308,2.767 0.925,3.9c0.616,1.134 1.483,2.017 2.6,2.65c1.116,0.634 2.408,0.95 3.875,0.95Z" style="fill:#3666b1;fill-rule:nonzero;"/><path d="M904.266,1338.38l-0,-19.2c-0,-0.966 -0.034,-1.95 -0.1,-2.95c-0.067,-1 -0.167,-2 -0.3,-3l4.4,0l0.5,5.4l-0.6,0c0.666,-1.866 1.733,-3.308 3.2,-4.325c1.466,-1.016 3.216,-1.525 5.25,-1.525c2.066,0 3.766,0.492 5.1,1.475c1.333,0.984 2.233,2.525 2.7,4.625l-0.75,0c0.633,-1.866 1.75,-3.35 3.35,-4.45c1.6,-1.1 3.466,-1.65 5.6,-1.65c2.766,0 4.85,0.809 6.25,2.425c1.4,1.617 2.1,4.125 2.1,7.525l-0,15.65l-4.55,0l-0,-15.4c-0,-2.3 -0.4,-3.958 -1.2,-4.975c-0.8,-1.016 -2.067,-1.525 -3.8,-1.525c-2.034,0 -3.634,0.692 -4.8,2.075c-1.167,1.384 -1.75,3.259 -1.75,5.625l-0,14.2l-4.55,0l-0,-15.4c-0,-2.3 -0.392,-3.958 -1.175,-4.975c-0.784,-1.016 -2.059,-1.525 -3.825,-1.525c-2.034,0 -3.625,0.692 -4.775,2.075c-1.15,1.384 -1.725,3.259 -1.725,5.625l-0,14.2l-4.55,0Z" style="fill:#3666b1;fill-rule:nonzero;"/><path d="M948.416,1338.38l-0,-19.2c-0,-0.966 -0.034,-1.95 -0.1,-2.95c-0.067,-1 -0.167,-2 -0.3,-3l4.4,0l0.5,5.4l-0.6,0c0.666,-1.866 1.733,-3.308 3.2,-4.325c1.466,-1.016 3.216,-1.525 5.25,-1.525c2.066,0 3.766,0.492 5.1,1.475c1.333,0.984 2.233,2.525 2.7,4.625l-0.75,0c0.633,-1.866 1.75,-3.35 3.35,-4.45c1.6,-1.1 3.466,-1.65 5.6,-1.65c2.766,0 4.85,0.809 6.25,2.425c1.4,1.617 2.1,4.125 2.1,7.525l-0,15.65l-4.55,0l-0,-15.4c-0,-2.3 -0.4,-3.958 -1.2,-4.975c-0.8,-1.016 -2.067,-1.525 -3.8,-1.525c-2.034,0 -3.634,0.692 -4.8,2.075c-1.167,1.384 -1.75,3.259 -1.75,5.625l-0,14.2l-4.55,0l-0,-15.4c-0,-2.3 -0.392,-3.958 -1.175,-4.975c-0.784,-1.016 -2.059,-1.525 -3.825,-1.525c-2.034,0 -3.625,0.692 -4.775,2.075c-1.15,1.384 -1.725,3.259 -1.725,5.625l-0,14.2l-4.55,0Z" style="fill:#3666b1;fill-rule:nonzero;"/></g><g><path d="M1344.97,504.876l0,72.172" style="fill:none;stroke:#3666b1;stroke-width:4.17px;stroke-linecap:butt;stroke-miterlimit:1.5;"/><path d="M1316.96,514.431l28.125,9.375l-28.125,9.375l0,-18.75Z" style="fill:#3666b1;"/><path d="M1304.56,523.806l18.03,0" style="fill:none;stroke:#3666b1;stroke-width:4.17px;stroke-linecap:butt;stroke-miterlimit:1.5;"/><path d="M1280.22,533.181l-28.125,-9.375l28.125,-9.375l0,18.75Z" style="fill:#3666b1;"/><path d="M1458.14,523.806l-183.548,0" style="fill:none;stroke:#3666b1;stroke-width:4.17px;stroke-linecap:butt;stroke-miterlimit:1.5;"/><path d="M1252.12,504.876l0,72.172" style="fill:none;stroke:#3666b1;stroke-width:4.17px;stroke-linecap:butt;stroke-miterlimit:1.5;"/><path d="M1465.38,540.787l0,-3.95l8.25,0l0,-27.35l2.35,0l-9.85,6.1l0,-4.55l8.8,-5.5l3.35,0l0,31.3l7.75,0l0,3.95l-20.65,0Z" style="fill:#3666b1;fill-rule:nonzero;"/><path d="M1493.43,540.787l0,-3.45l12.3,-12.9c1.6,-1.633 2.792,-3.2 3.575,-4.7c0.784,-1.5 1.175,-3.05 1.175,-4.65c0,-1.966 -0.608,-3.458 -1.825,-4.475c-1.216,-1.016 -2.991,-1.525 -5.325,-1.525c-1.8,0 -3.491,0.325 -5.075,0.975c-1.583,0.65 -3.091,1.642 -4.525,2.975l-1.65,-3.55c1.367,-1.333 3.092,-2.4 5.175,-3.2c2.084,-0.8 4.275,-1.2 6.575,-1.2c3.6,0 6.384,0.825 8.35,2.475c1.967,1.65 2.95,4.009 2.95,7.075c0,2.234 -0.541,4.359 -1.625,6.375c-1.083,2.017 -2.675,4.092 -4.775,6.225l-10.75,10.9l0,-1.3l18.6,0l0,3.95l-23.15,0Z" style="fill:#3666b1;fill-rule:nonzero;"/><rect x="1522.23" y="535.237" width="5.55" height="5.55" style="fill:#3666b1;fill-rule:nonzero;"/><path d="M1536.13,540.787l17.35,-33.15l0,1.9l-19.5,0l0,-4l23.75,0l0,3.45l-16.45,31.8l-5.15,0Z" style="fill:#3666b1;fill-rule:nonzero;"/><path d="M1564.63,540.787l0,-19.2c0,-0.966 -0.033,-1.95 -0.1,-2.95c-0.066,-1 -0.166,-2 -0.3,-3l4.4,0l0.5,5.4l-0.6,0c0.667,-1.866 1.734,-3.308 3.2,-4.325c1.467,-1.016 3.217,-1.525 5.25,-1.525c2.067,0 3.767,0.492 5.1,1.475c1.334,0.984 2.234,2.525 2.7,4.625l-0.75,0c0.634,-1.866 1.75,-3.35 3.35,-4.45c1.6,-1.1 3.467,-1.65 5.6,-1.65c2.767,0 4.85,0.809 6.25,2.425c1.4,1.617 2.1,4.125 2.1,7.525l0,15.65l-4.55,0l0,-15.4c0,-2.3 -0.4,-3.958 -1.2,-4.975c-0.8,-1.016 -2.066,-1.525 -3.8,-1.525c-2.033,0 -3.633,0.692 -4.8,2.075c-1.166,1.384 -1.75,3.259 -1.75,5.625l0,14.2l-4.55,0l0,-15.4c0,-2.3 -0.391,-3.958 -1.175,-4.975c-0.783,-1.016 -2.058,-1.525 -3.825,-1.525c-2.033,0 -3.625,0.692 -4.775,2.075c-1.15,1.384 -1.725,3.259 -1.725,5.625l0,14.2l-4.55,0Z" style="fill:#3666b1;fill-rule:nonzero;"/><path d="M1608.78,540.787l0,-19.2c0,-0.966 -0.033,-1.95 -0.1,-2.95c-0.066,-1 -0.166,-2 -0.3,-3l4.4,0l0.5,5.4l-0.6,0c0.667,-1.866 1.734,-3.308 3.2,-4.325c1.467,-1.016 3.217,-1.525 5.25,-1.525c2.067,0 3.767,0.492 5.1,1.475c1.334,0.984 2.234,2.525 2.7,4.625l-0.75,0c0.634,-1.866 1.75,-3.35 3.35,-4.45c1.6,-1.1 3.467,-1.65 5.6,-1.65c2.767,0 4.85,0.809 6.25,2.425c1.4,1.617 2.1,4.125 2.1,7.525l0,15.65l-4.55,0l0,-15.4c0,-2.3 -0.4,-3.958 -1.2,-4.975c-0.8,-1.016 -2.066,-1.525 -3.8,-1.525c-2.033,0 -3.633,0.692 -4.8,2.075c-1.166,1.384 -1.75,3.259 -1.75,5.625l0,14.2l-4.55,0l0,-15.4c0,-2.3 -0.391,-3.958 -1.175,-4.975c-0.783,-1.016 -2.058,-1.525 -3.825,-1.525c-2.033,0 -3.625,0.692 -4.775,2.075c-1.15,1.384 -1.725,3.259 -1.725,5.625l0,14.2l-4.55,0Z" style="fill:#3666b1;fill-rule:nonzero;"/></g><g><path d="M1349.65,581.417l206.583,0" style="fill:none;stroke:#3666b1;stroke-width:4.17px;stroke-linecap:butt;stroke-miterlimit:1.5;"/><path d="M1519.6,609.123l9.375,-28.125l9.375,28.125l-18.75,-0Z" style="fill:#3666b1;"/><path d="M1528.98,671.569l0,-68.071" style="fill:none;stroke:#3666b1;stroke-width:4.17px;stroke-linecap:butt;stroke-miterlimit:1.5;"/><path d="M1538.35,789.357l-9.375,28.125l-9.375,-28.125l18.75,0Z" style="fill:#3666b1;"/><path d="M1528.98,727.702l0,67.28" style="fill:none;stroke:#3666b1;stroke-width:4.17px;stroke-linecap:butt;stroke-miterlimit:1.5;"/><path d="M1349.65,817.948l206.583,-0" style="fill:none;stroke:#3666b1;stroke-width:4.17px;stroke-linecap:butt;stroke-miterlimit:1.5;"/><g transform="matrix(1,0,0,1,-10965.4,-9568.86)"><g transform="matrix(50,0,0,50,12410.5,10283.6)"><path d="M0.519,-0.579l0.048,0.048l-0.058,0.058c0.015,0.018 0.026,0.038 0.035,0.058c0.013,0.031 0.019,0.065 0.019,0.102c-0,0.035 -0.006,0.068 -0.019,0.099c-0.013,0.031 -0.032,0.059 -0.058,0.085c-0.025,0.025 -0.054,0.045 -0.085,0.058c-0.031,0.013 -0.064,0.019 -0.1,0.019c-0.036,0 -0.069,-0.006 -0.1,-0.019c-0.021,-0.009 -0.041,-0.02 -0.059,-0.035l-0.058,0.058l-0.048,-0.049l0.057,-0.057c-0.014,-0.019 -0.026,-0.039 -0.035,-0.06c-0.013,-0.031 -0.019,-0.064 -0.019,-0.099c0,-0.037 0.006,-0.071 0.019,-0.102c0.013,-0.03 0.032,-0.059 0.058,-0.085c0.025,-0.025 0.054,-0.045 0.085,-0.058c0.031,-0.013 0.064,-0.019 0.1,-0.019c0.036,-0 0.069,0.006 0.1,0.019c0.022,0.009 0.042,0.021 0.06,0.036l0.058,-0.057Zm-0.144,0.085c-0.023,-0.009 -0.047,-0.014 -0.074,-0.014c-0.027,-0 -0.051,0.005 -0.074,0.014c-0.023,0.01 -0.044,0.024 -0.062,0.043c-0.02,0.019 -0.034,0.04 -0.043,0.063c-0.009,0.023 -0.014,0.048 -0.014,0.075c-0,0.026 0.004,0.05 0.014,0.073c0.005,0.013 0.012,0.025 0.021,0.037l0.269,-0.27c-0.012,-0.008 -0.024,-0.015 -0.037,-0.021Zm0.085,0.07l-0.269,0.269c0.011,0.008 0.023,0.015 0.036,0.02c0.023,0.01 0.047,0.015 0.074,0.015c0.027,-0 0.051,-0.005 0.074,-0.015c0.023,-0.01 0.044,-0.024 0.063,-0.042c0.019,-0.019 0.033,-0.04 0.042,-0.063c0.01,-0.023 0.014,-0.047 0.014,-0.073c0,-0.027 -0.004,-0.052 -0.014,-0.075c-0.005,-0.013 -0.011,-0.025 -0.02,-0.036Z" style="fill:#3666b1;fill-rule:nonzero;"/></g><g transform="matrix(50,0,0,50,12440.6,10283.6)"><path d="M0.295,0.009c-0.048,0 -0.094,-0.007 -0.137,-0.022c-0.044,-0.015 -0.081,-0.035 -0.11,-0.062l0.033,-0.072c0.033,0.027 0.066,0.046 0.101,0.058c0.035,0.012 0.071,0.018 0.11,0.018c0.051,0 0.09,-0.011 0.117,-0.032c0.027,-0.022 0.04,-0.053 0.04,-0.094c0,-0.04 -0.013,-0.07 -0.04,-0.091c-0.027,-0.021 -0.067,-0.031 -0.119,-0.031l-0.108,0l0,-0.077l0.101,0c0.044,0 0.079,-0.011 0.106,-0.034c0.027,-0.023 0.04,-0.054 0.04,-0.093c0,-0.036 -0.012,-0.064 -0.036,-0.083c-0.025,-0.018 -0.059,-0.028 -0.104,-0.028c-0.075,0 -0.141,0.026 -0.196,0.079l-0.033,-0.071c0.028,-0.028 0.063,-0.05 0.104,-0.065c0.041,-0.015 0.085,-0.023 0.131,-0.023c0.07,0 0.125,0.016 0.165,0.048c0.04,0.032 0.06,0.077 0.06,0.134c0,0.043 -0.012,0.081 -0.037,0.112c-0.024,0.031 -0.057,0.051 -0.099,0.061l0,-0.011c0.049,0.009 0.088,0.029 0.115,0.061c0.027,0.031 0.041,0.071 0.041,0.118c0,0.062 -0.022,0.111 -0.066,0.147c-0.043,0.035 -0.103,0.053 -0.179,0.053Z" style="fill:#3666b1;fill-rule:nonzero;"/></g><g transform="matrix(50,0,0,50,12470.6,10283.6)"><path d="M0.124,-0l0,-0.079l0.165,0l-0,-0.547l0.047,0l-0.197,0.122l0,-0.091l0.176,-0.11l0.067,0l0,0.626l0.155,-0l0,0.079l-0.413,-0Z" style="fill:#3666b1;fill-rule:nonzero;"/></g><g transform="matrix(50,0,0,50,12500.6,10283.6)"><rect x="0.061" y="-0.111" width="0.111" height="0.111" style="fill:#3666b1;fill-rule:nonzero;"/></g><g transform="matrix(50,0,0,50,12512.2,10283.6)"><path d="M0.106,-0l0.347,-0.663l0,0.038l-0.39,0l0,-0.08l0.475,0l0,0.069l-0.329,0.636l-0.103,-0Z" style="fill:#3666b1;fill-rule:nonzero;"/></g><g transform="matrix(50,0,0,50,12542.2,10283.6)"><path d="M0.076,-0l0,-0.384c0,-0.019 -0.001,-0.039 -0.002,-0.059c-0.001,-0.02 -0.003,-0.04 -0.006,-0.06l0.088,0l0.01,0.108l-0.012,0c0.013,-0.037 0.035,-0.066 0.064,-0.086c0.029,-0.021 0.064,-0.031 0.105,-0.031c0.041,0 0.075,0.01 0.102,0.03c0.027,0.019 0.045,0.05 0.054,0.092l-0.015,0c0.013,-0.037 0.035,-0.067 0.067,-0.089c0.032,-0.022 0.069,-0.033 0.112,-0.033c0.055,0 0.097,0.016 0.125,0.048c0.028,0.033 0.042,0.083 0.042,0.151l0,0.313l-0.091,0l0,-0.308c0,-0.046 -0.008,-0.079 -0.024,-0.099c-0.016,-0.021 -0.041,-0.031 -0.076,-0.031c-0.041,0 -0.073,0.014 -0.096,0.042c-0.023,0.027 -0.035,0.065 -0.035,0.112l0,0.284l-0.091,0l0,-0.308c0,-0.046 -0.008,-0.079 -0.024,-0.099c-0.015,-0.021 -0.041,-0.031 -0.076,-0.031c-0.041,0 -0.072,0.014 -0.095,0.042c-0.023,0.027 -0.035,0.065 -0.035,0.112l0,0.284l-0.091,0Z" style="fill:#3666b1;fill-rule:nonzero;"/></g><g transform="matrix(50,0,0,50,12586.4,10283.6)"><path d="M0.076,-0l0,-0.384c0,-0.019 -0.001,-0.039 -0.002,-0.059c-0.001,-0.02 -0.003,-0.04 -0.006,-0.06l0.088,0l0.01,0.108l-0.012,0c0.013,-0.037 0.035,-0.066 0.064,-0.086c0.029,-0.021 0.064,-0.031 0.105,-0.031c0.041,0 0.075,0.01 0.102,0.03c0.027,0.019 0.045,0.05 0.054,0.092l-0.015,0c0.013,-0.037 0.035,-0.067 0.067,-0.089c0.032,-0.022 0.069,-0.033 0.112,-0.033c0.055,0 0.097,0.016 0.125,0.048c0.028,0.033 0.042,0.083 0.042,0.151l0,0.313l-0.091,0l0,-0.308c0,-0.046 -0.008,-0.079 -0.024,-0.099c-0.016,-0.021 -0.041,-0.031 -0.076,-0.031c-0.041,0 -0.073,0.014 -0.096,0.042c-0.023,0.027 -0.035,0.065 -0.035,0.112l0,0.284l-0.091,0l0,-0.308c0,-0.046 -0.008,-0.079 -0.024,-0.099c-0.015,-0.021 -0.041,-0.031 -0.076,-0.031c-0.041,0 -0.072,0.014 -0.095,0.042c-0.023,0.027 -0.035,0.065 -0.035,0.112l0,0.284l-0.091,0Z" style="fill:#3666b1;fill-rule:nonzero;"/></g></g></g><g id="Wheel-center" serif:id="Wheel center"><path d="M917.634,689.905l-0,21.006" style="fill:none;stroke:#3666b1;stroke-width:4.17px;stroke-linecap:butt;stroke-miterlimit:1.5;"/><path d="M907.13,700.408l21.007,-0" style="fill:none;stroke:#3666b1;stroke-width:4.17px;stroke-linecap:butt;stroke-miterlimit:1.5;"/></g></svg>