<?xml version="1.0" encoding="UTF-8" standalone="no"?><!DOCTYPE svg PUBLIC "-//W3C//DTD SVG 1.1//EN" "http://www.w3.org/Graphics/SVG/1.1/DTD/svg11.dtd"><svg width="100%" height="100%" viewBox="0 0 1580 1027" version="1.1" xmlns="http://www.w3.org/2000/svg" xmlns:xlink="http://www.w3.org/1999/xlink" xml:space="preserve" xmlns:serif="http://www.serif.com/" style="fill-rule:evenodd;clip-rule:evenodd;stroke-linecap:round;stroke-linejoin:round;stroke-miterlimit:10;"><rect id="Top-Features" serif:id="Top Features" x="0.364" y="0.953" width="1579.22" height="1026.04" style="fill:none;"/><g id="Top"><path id="Outline" d="M1070.32,526.954c-6.884,3.512 -10.959,8.521 -11.25,13.846c-0.3,5.316 3.208,10.47 9.683,14.237m37.267,21.625c12.937,7.517 33.916,7.517 46.858,0c12.938,-7.521 12.938,-19.712 0,-27.229m-84.162,5.612l37.262,21.625m-113.371,56.267l1.404,-2.817l0.88,-2.987l0.354,-2.988l-0,-3.166m-551.579,-57.492l0.175,2.633l0.354,2.467l1.054,2.283m705.379,-124.629c-0.187,2.904 0.154,7.279 1.288,10.113m23.32,116.629l0,2.812l-0.175,0.53l0,0.7l-0.179,0.704l-0.175,0.7l0,0.708l-0.175,0.7l-0.35,0.529l-0.175,0.704l-0.179,0.7l-0.346,0.709l-0.354,0.525l-0.179,0.7m-690.592,-398.692c3.421,-2.712 3.292,-6.812 -0.812,-9.204m-13.367,23.929c8.942,0.696 17.938,-1.05 24.321,-4.712c6.379,-3.671 9.417,-8.838 8.208,-13.98m754.321,300.038l0.158,-0.325l10.071,-22.646l1.104,-3.096l0.63,-3.258l-0,-3.258m-804.855,-263.146c5.455,3.125 14.305,3.125 19.763,-0m-13.8,14.533l-1.054,0l-0.529,-0.175l-1.055,0l-0.529,0.175l-1.933,0l-0.525,0.179l-1.408,0l-0.525,0.175l-0.355,0m39.725,-21.1l0.175,0.354l0,0.175l0.18,0.175l-0,0.525l0.175,0.18l-0,0.345l0.175,0.18m-55.93,-26.55c-4.495,-2.575 -11.783,-2.575 -16.279,-0m16.138,-0l37.087,21.275m228.509,200.962l-0,2.642l0.17,0.879l0.18,0.875l0.175,0.879l0.175,1.054l0.179,0.354l0.171,0.525l0.179,0.355l0.175,0.525l0.175,0.529l0.179,0.354l0.175,0.525l0.171,0.529l0.179,0.35l0.175,0.529l0.354,0.35l0.171,0.529l0.354,0.525l0.175,0.355l0.35,0.529l0.354,0.525l0.354,0.354l0.175,0.525l0.35,0.529l0.35,0.35l0.35,0.529l0.355,0.525l0.529,0.529l0.35,0.355l0.35,0.525l0.529,0.525l0.35,0.354l0.525,0.529l0.354,0.525l0.525,0.354l0.529,0.525l0.525,0.529l0.534,0.346l0.525,0.533l0.529,0.525l0.525,0.35l0.529,0.534l0.525,0.525l0.529,0.346l0.704,0.529l0.525,0.354l0.704,0.525l0.525,0.354l0.705,0.525l0.7,0.354l0.708,0.525l0.525,0.354l0.7,0.53l0.708,0.35l0.7,0.529l0.704,0.346l0.705,0.354l0.879,0.529l0.7,0.35l0.704,0.354l0.879,0.346l0.704,0.533l0.879,0.35l0.705,0.35l0.875,0.354l0.704,0.35l0.879,0.35l0.883,0.355l0.875,0.354l0.879,0.346l0.705,0.354l0.879,0.354l0.875,0.35l1.058,0.35l0.875,0.354l0.879,0.171l1.759,0.708l0.883,0.175l1.05,0.35l0.883,0.354l1.05,0.175l0.884,0.35l0.879,0.175l1.054,0.355l1.05,0.175l0.879,0.179l1.054,0.346l0.884,0.179l1.05,0.175l1.054,0.354l0.879,0.171l1.054,0.179l1.058,0.175l1.055,0.175l1.054,0.179l1.054,0.171l0.879,0.179l1.054,0.175l1.059,0.175l1.054,0l1.054,0.179l1.054,0.175l1.05,0.171l1.058,0l1.055,0.179l1.054,0l1.054,0.175l1.054,0l1.233,0.175l2.109,0l1.058,0.179l12.825,0l1.233,-0.179l2.109,0l1.058,-0.175l1.054,0l1.05,-0.175l1.054,0l1.055,-0.179l1.058,0l3.162,-0.525l1.059,0l4.212,-0.7l0.879,-0.179l4.221,-0.7l0.879,-0.354l2.109,-0.354l0.879,-0.346l1.054,-0.179l0.879,-0.175l1.054,-0.355l0.88,-0.175l1.054,-0.35l0.879,-0.175l0.879,-0.354l1.054,-0.35l0.879,-0.175l0.88,-0.354l1.054,-0.354l0.879,-0.171l5.275,-2.108l0.704,-0.354l2.633,-1.055l0.709,-0.354l0.875,-0.35l0.704,-0.35l0.879,-0.533l1.408,-0.7l0.875,-0.35l0.705,-0.529l1.408,-0.7l0.7,-0.529l0.704,-0.35l0.7,-0.53l0.708,-0.354l0.7,-0.525l0.525,-0.354l0.709,-0.525l0.7,-0.354l0.525,-0.525l0.529,-0.354l0.704,-0.529l0.529,-0.346l0.525,-0.525l0.704,-0.534l0.53,-0.35l1.054,-1.058l0.525,-0.346l0.354,-0.529l0.525,-0.525l0.529,-0.354l0.525,-0.525l0.354,-0.529l0.525,-0.354l0.7,-1.05l0.529,-0.355l1.059,-1.583l0.346,-0.35l0.708,-1.054l0.35,-0.354l0.175,-0.525l0.354,-0.529l0.346,-0.355l0.354,-1.054l0.354,-0.35l0.35,-1.054l0.35,-0.354l0.354,-1.054l0.175,-0.354l0.175,-0.525l0.175,-0.355l0,-0.525l0.18,-0.529l0.345,-0.879l0.18,-0.879l-0,-0.875l0.35,-1.758l-0,-1.763m-165.575,0l-0,-2.633l0.525,-2.642l0.175,-1.054l0.179,-0.35l0.171,-0.529l0.179,-0.35l0.35,-1.054l0.179,-0.355l0.346,-1.054l0.179,-0.35l0.175,-0.529l0.354,-0.35l0.171,-0.525l0.354,-0.533l0.175,-0.346l0.704,-1.054l0.354,-0.354l0.175,-0.53l0.35,-0.525l0.35,-0.354l0.705,-1.054l0.879,-0.879l0.35,-0.525l1.404,-1.408l0.354,-0.525l0.525,-0.355l1.054,-1.054l0.534,-0.354l1.054,-1.054l0.525,-0.35l1.054,-1.054l0.529,-0.354l0.704,-0.53l0.525,-0.35l0.704,-0.529l0.525,-0.35l0.705,-0.529l0.7,-0.346l0.708,-0.533l0.525,-0.346l0.7,-0.529l0.708,-0.354l0.7,-0.525l1.409,-0.704l0.879,-0.53l1.404,-0.7l0.879,-0.354l0.704,-0.525l0.879,-0.354l0.705,-0.354l0.875,-0.346l0.704,-0.354l3.516,-1.408l0.705,-0.35l1.754,-0.705l1.058,-0.35l0.875,-0.354l0.879,-0.175l1.759,-0.7l0.883,-0.179l1.05,-0.354l0.883,-0.346l1.05,-0.179l0.884,-0.35l0.879,-0.179l1.054,-0.35l1.05,-0.175l0.879,-0.175l1.054,-0.354l0.884,-0.171l1.05,-0.179l1.054,-0.35l0.879,-0.18l5.275,-0.879l0.879,-0.175l2.113,-0.35l1.054,0l3.158,-0.529l1.058,0l1.055,-0.175l1.054,0l1.054,-0.179l1.054,-0l1.233,-0.171l2.109,0l1.058,-0.175l12.825,0l1.233,0.175l2.109,0l1.058,0.171l1.054,-0l1.05,0.179l1.054,0l1.055,0.175l1.058,0l1.054,0.175l1.054,0.179l1.054,0.175l1.059,0l2.108,0.35l1.05,0.175l1.054,0.179l0.879,0.175l1.055,0.175l1.058,0.175l1.054,0.175l1.054,0.18l0.879,0.35l1.055,0.179l1.054,0.171l0.879,0.354l1.054,0.175l0.879,0.175l1.054,0.35l0.88,0.179l1.054,0.35l0.879,0.179l0.879,0.346l1.054,0.354l0.879,0.179l0.88,0.35l1.054,0.35l0.879,0.175l0.879,0.354l0.883,0.35l0.88,0.355l0.875,0.35l0.879,0.35l0.879,0.354l0.704,0.354l0.875,0.346l1.758,0.708l0.709,0.346l0.875,0.354l0.704,0.354l0.879,0.525l0.7,0.354l0.708,0.35l0.875,0.35l0.705,0.53l1.408,0.704l0.7,0.525l0.704,0.354l0.7,0.529l0.708,0.346l0.7,0.533l0.525,0.346l0.709,0.529l0.7,0.35l0.525,0.529l0.529,0.35l0.704,0.53l0.529,0.354l0.525,0.525l0.704,0.529l0.53,0.35l0.525,0.529l0.529,0.525l0.525,0.354l0.354,0.525l0.525,0.529l0.529,0.355l0.525,0.525l0.354,0.529l0.525,0.35l0.354,0.529l0.346,0.525l0.529,0.354l0.355,0.525l0.35,0.529l0.354,0.525l0.346,0.354l0.354,0.525l0.354,0.53l0.35,0.354l0.175,0.525l0.354,0.529l0.346,0.346l0.179,0.533l0.175,0.525l0.354,0.35l0.171,0.529l0.179,0.529l0.35,0.35l0.179,0.525l0.175,0.534l0.175,0.346l0.175,0.529l0.175,0.35l0,0.529l0.18,0.525l0.345,0.879l0.18,0.883l-0,0.88l0.35,1.758l-0,1.754m-38.317,230.154l-0.175,1.934m-430.296,-444.305l-0.525,9.321m430.996,433.05l-0,-1.587l0.179,-0.7l0.171,-0.879l0.175,-0.7l0.179,-0.884l0.175,-0.704l0.35,-0.7l0.175,-0.708l0.354,-0.7l0.171,-0.704l1.063,-2.109l0.345,-0.525l0.53,-0.708l0.35,-0.525l0.354,-0.704l0.525,-0.525l0.354,-0.529l0.525,-0.525l0.354,-0.534l3.517,-3.512l1.05,-0.704l0.529,-0.525l0.704,-0.355l2.108,-1.404l0.705,-0.354l0.529,-0.354l0.525,-0.171l0.7,-0.354l1.054,-0.7l0.708,-0.183l0.525,-0.346l0.7,-0.179l0.534,-0.175l0.7,-0.35l0.525,-0.175l0.708,-0.18l0.525,-0.35l0.7,-0.175l0.529,-0.175l1.404,-0.354l0.529,-0.175l1.405,-0.35l0.529,0l1.404,-0.354l0.529,-0.175l0.704,0l0.7,-0.175l42.367,-6.504l0.704,-0.175l0.875,-0.179l0.879,-0l0.704,-0.175l0.875,-0l0.88,-0.175l1.587,-0l0.875,-0.179l1.583,-0l0.88,-0.171l6.504,-0l0.879,0.171l1.758,-0l0.7,0.179l1.759,-0l0.7,0.175l0.883,-0l0.879,0.175l0.704,-0l0.875,0.179l0.704,0.175l0.884,0.171l0.879,-0l0.7,0.179l0.879,0.175l0.7,0.179l0.879,0.175l0.709,0.175l0.875,0.175l0.704,0.175l0.879,0.175l0.7,0.179l0.708,0.354l0.879,0.171l0.7,0.175l0.7,0.354l0.88,0.175l0.708,0.18l0.7,0.345l0.879,0.18l0.704,0.354l0.7,0.346l0.709,0.179l2.108,1.054l0.7,0.354l0.704,0.175l0.7,0.35l0.708,0.35l0.7,0.533l0.705,0.346l0.7,0.354m33.75,32.525l0.354,7.209m-551.229,-63.471l-0.35,5.979m488.125,-135.558l146.416,84.566l0.529,0.18l0.35,0.35l0.53,0.179l0.525,0.346l0.529,0.179l0.525,0.354l0.533,0.175l0.525,0.175l0.7,0.35l0.529,0.175l0.525,0.179l0.704,0.175l0.53,0.35l0.7,0.175l0.529,0.179l0.704,0.175l0.7,0.175l0.533,0.179l0.7,0.171l0.7,0.175l0.709,0.179l0.525,0l1.408,0.35l0.7,0.18l0.704,-0l0.7,0.17l0.704,0l0.704,0.18l0.705,-0l0.7,0.175l0.879,-0l0.708,0.175l0.875,-0l0.879,0.179l0.879,-0l0.88,0.175l0.7,0.171l0.879,-0l0.879,0.179l0.883,0.175l0.7,0.179l0.879,0.175l0.705,0.171l0.879,0.179l0.875,0.175l0.708,0.175l0.879,0.354l0.7,0.171l0.704,0.179l0.875,0.354l0.709,0.175l0.7,0.35l0.879,0.175l1.408,0.709l0.704,0.17l0.7,0.355l1.409,0.7l0.704,0.354l0.7,0.354l0.708,0.346l0.525,0.354l17.046,9.85m35.333,37.8l-0.354,-5.804l-0.175,-0.704l0,-0.7l-0.175,-0.88l-0.175,-0.708l-0.175,-0.879l-0.175,-0.7l-0.354,-0.7l-0.171,-0.883l-0.354,-0.705l-0.354,-0.7l-0.35,-0.708l-0.35,-0.7l-0.354,-0.704l-0.525,-0.704l-0.354,-0.525l-0.525,-0.704l-0.53,-0.705l-0.525,-0.525l-0.525,-0.708l-1.062,-1.054l-0.7,-0.7l-0.525,-0.529l-0.708,-0.529l-0.7,-0.525l-0.525,-0.53l-0.709,-0.525l-0.7,-0.529l-0.704,-0.35l-0.7,-0.529l-0.708,-0.525l-0.875,-0.354l-8.788,-5.096l-5.629,-3.342l-2.808,-1.583l-2.992,-1.754m-159.775,56.962l-18.987,-10.9m-517.125,-23.737l0.179,-0.529l-0,-0.525l0.175,-0.529l-0,-0.7l0.879,-2.642l0.35,-0.525l0.175,-0.525l0.35,-0.529l0.179,-0.354l0.704,-1.05l0.35,-0.355l0.35,-0.529l0.354,-0.35l0.35,-0.529l1.934,-1.933l0.529,-0.354l0.35,-0.346l0.525,-0.354l0.354,-0.35l0.525,-0.175l1.054,-0.709l0.354,-0.175l201.705,-116.966m324.387,165.67l0.525,0.355l0.708,0.525l0.7,0.35l0.7,0.525l0.534,0.354l0.7,0.529l0.704,0.525l0.529,0.533l0.525,0.525l0.7,0.525l0.529,0.529l0.525,0.53l0.704,0.7l0.53,0.529l0.525,0.704l0.529,0.7l0.525,0.704l0.354,0.7l0.525,0.708l0.529,0.7l0.35,0.88l0.354,0.708l0.35,0.879l0.35,0.7l0.709,1.758l0.17,0.88l0.355,0.879l0.175,1.058l-0,0.875l0.35,1.758m-495.505,-435.508l193.7,111.825l1.409,0.879l1.404,0.7l1.587,0.879l1.4,0.709l1.584,0.7l1.583,0.879l1.404,0.7l1.584,0.708l1.583,0.7l1.754,0.704l1.588,0.7l1.579,0.709l1.758,0.7l1.583,0.525l1.759,0.708l1.754,0.7m149.054,0l1.583,-0.7l1.759,-0.708l1.758,-0.525l3.163,-1.409l1.758,-0.7l6.325,-2.812l1.408,-0.879l1.588,-0.7l1.404,-0.709l1.583,-0.879l1.404,-0.7l1.405,-0.879l199.858,-115.517m-592.538,4.571l-0.35,-0.704l-0.35,-0.7l-0.529,-0.708l-0.35,-0.7l-0.529,-0.529l-0.525,-0.705l-0.529,-0.525l-0.525,-0.529l-0.704,-0.525l-1.054,-1.054l-0.705,-0.529l-0.704,-0.525l-0.525,-0.354l-0.704,-0.525l-0.704,-0.354m650.542,18.637l-0,-0.354l-0.175,-0.525l-0,-0.879l-0.18,-0.35l0,-0.529l-0.175,-0.35l-0.175,-0.53l-0.179,-0.35l0,-0.354l-0.171,-0.529l-0.179,-0.35l-0.175,-0.35l-0.354,-0.525l-0.171,-0.354l-0.175,-0.354l-0.179,-0.35l-0.354,-0.35l-0.175,-0.354l-0.171,-0.35l-0.354,-0.355l-0.175,-0.35l-0.704,-0.704l-0.529,-0.7l-0.525,-0.529l-0.705,-0.525l-0.704,-0.708l-0.7,-0.525l-0.704,-0.529l-0.7,-0.35l-0.708,-0.53l-0.879,-0.525l-0.7,-0.354l-0.88,-0.35l-0.704,-0.35l-0.875,-0.529l-0.883,-0.179l-2.638,-1.05l-0.879,-0.175l-0.875,-0.179l-0.879,-0.35l-0.879,-0.179l-1.054,-0.171l-0.879,-0.179l-1.055,-0.175l-0.879,-0l-0.879,-0.175l-1.054,-0l-0.879,-0.18l-4.042,0l-0.879,0.18l-1.933,-0l-1.059,0.175l-0.875,0.175l-0.879,0.179l-1.054,-0l-0.879,0.35l-1.759,0.35l-1.054,0.179l-0.879,0.346l-0.883,0.354l-0.879,0.175l-0.88,0.35l-0.7,0.354l-0.879,0.354l-0.879,0.35l-0.704,0.529l-0.875,0.35m58.179,271.113l0,-1.404l0.175,-0.704l0,-0.525l1.054,-4.221l0.179,-0.525l0.175,-0.704l0.35,-0.705l0.175,-0.529l0.355,-0.704l0.17,-0.7l11.43,-24.442l0.175,-0.525l0.704,-1.054l0.171,-0.533l1.408,-2.104l0.354,-0.354l0.704,-1.055l0.35,-0.354l0.35,-0.525l0.529,-0.35l0.35,-0.35l0.355,-0.529l0.35,-0.354l0.525,-0.35l1.583,-1.583l0.883,-0.705l1.05,-0.529l0.884,-0.7l1.754,-1.054l1.05,-0.525l0.883,-0.533l1.058,-0.525l0.875,-0.529l3.163,-1.055l1.054,-0.525l0.879,-0.175l2.109,-0.704l1.058,-0.175l1.054,-0.354l1.229,-0.175l4.217,-0.704l1.054,-0l1.233,-0.175l1.055,-0l1.054,-0.179l4.396,-0l1.229,0.179l1.054,-0l1.058,0.175l1.054,-0l1.055,0.179l1.229,0.175l1.054,0.171l1.054,0.179l1.054,0.175l1.054,0.354l1.059,0.175l1.054,0.35l1.054,0.354l1.054,0.175l1.05,0.525l1.059,0.355l0.883,0.35l1.05,0.35l1.054,0.529l0.879,0.525l1.054,0.533l0.88,0.525m38.67,39.029l0.705,11.959m-125.325,-259.688l0.35,6.154m124.27,241.575l0,-0.525l-0.175,-0.529l0,-0.7l-0.175,-0.525l0,-0.533l-0.175,-0.525l0,-0.704l-0.179,-0.525l-0.175,-0.53l-0.171,-0.525l0,-0.533l-0.179,-0.7l-0.175,-0.525l-0.179,-0.529l-0.35,-0.529l-0.179,-0.525l-0.346,-1.059l-0.525,-1.054l-0.533,-1.054l-0.525,-0.879l-0.529,-1.054l-0.7,-0.879l-0.525,-0.88l-0.709,-0.883l-0.7,-0.875l-2.112,-2.637l-0.879,-0.7l-0.7,-0.709l-0.884,-0.7l-0.7,-0.879l-0.879,-0.708l-0.879,-0.525l-0.879,-0.7l-0.879,-0.709l-0.88,-0.525l-0.875,-0.7l-1.058,-0.529l-0.875,-0.533l-18.987,-10.896m-736.492,-227.337l-35.504,-20.396l-0.704,-0.529l-0.88,-0.346l-0.704,-0.354l-0.879,-0.355l-0.879,-0.35l-0.7,-0.35l-0.879,-0.354l-0.879,-0.35l-0.88,-0.175l-0.879,-0.354l-1.758,-0.35l-1.054,-0.175l-0.879,-0.175l-0.88,-0.179l-0.879,-0l-1.054,-0.175l-0.879,-0l-0.879,-0.179l-5.8,-0l-0.879,0.179l-0.88,-0l-1.054,0.175l-0.879,0.179l-3.517,0.7l-1.054,0.175l-0.879,0.354l-0.879,0.179l-0.7,0.346l-1.758,0.709l-0.88,0.345l-0.704,0.355l-0.879,0.354l-0.704,0.525l-0.879,0.354l-0.7,0.525l-0.704,0.529l-0.705,0.525l-0.7,0.525l-0.704,0.529l-0.704,0.704l-0.525,0.53l-0.704,0.7l-0.354,0.354l-0.175,0.35l-0.35,0.354l-0.175,0.35l-0.354,0.354l-0.175,0.35l-0.35,0.35l-0.18,0.529l-0.175,0.35l-0.35,0.354l-0.175,0.525l-0.175,0.355l-0.179,0.354l-0.175,0.525l-0.175,0.346l-0.175,0.533l0,0.529l-0.175,0.346l-0.179,0.533l0,0.346l-0.175,0.529l0,0.525l-0.175,0.534l0,0.345m787.467,465.05l1.583,-0.879l1.408,-0.883l1.405,-1.054l1.404,-0.879l7.033,-5.275l1.404,-1.225l1.409,-1.055l1.404,-1.233l1.408,-1.054l2.813,-2.463l1.225,-1.233m26.9,-33.758l0.7,-1.4m-766.725,-47.825l173.662,-100.396l6.504,-4.046l6.154,-4.217l5.45,-4.57l4.917,-4.746l4.221,-4.929l3.867,-4.921l2.987,-5.275l2.467,-5.271l1.929,-5.45l1.229,-5.454l0.354,-5.629l-0.175,-5.446m-213.521,160.312c-1.42,0.817 -2.841,1.671 -4.258,2.559m222.525,-240.409l-196.867,-113.754m390.396,113.754l173.834,-100.391m-367.363,100.391l4.217,2.288l4.396,2.283m176.304,0l4.391,-2.283l4.221,-2.288m173.834,-100.391l4.22,-2.288m-34.141,342.513l-0,-0.009m-139.171,-162.287l-0.175,5.446l0.525,5.629l1.054,5.454l1.933,5.45l2.467,5.271l3.158,5.275l3.696,4.921l4.392,4.929l4.921,4.746l5.45,4.57l5.975,4.217l6.504,4.046m191.596,97.758l14.237,8.263m-14.229,-8.346c-1.296,-0.746 -2.662,-1.45 -4.104,-2.108m-187.5,-95.567l146.946,84.921l0.533,0.354m58.354,20.746l1.229,0.704l1.234,0.879l1.225,0.7l1.233,0.708m99.488,39.209l88.766,-191.646m0.071,-0.017c0.413,-1.116 0.808,-2.237 1.192,-3.358m-830.388,179.192l-7.383,5.979m643.333,-371.509l-7.383,2.634m-441.546,167.912l0.179,2.638m-284.929,-195.163l14.588,5.979l1.583,0.705l1.404,0.525l1.408,0.529l1.58,0.7l1.408,0.704l1.404,0.529l1.583,0.7l1.409,0.708l1.404,0.7l1.583,0.88l1.404,0.704l1.409,0.704l1.579,0.879l1.408,0.704l1.404,0.875l1.584,0.879l203.721,117.625l1.054,0.709l1.233,0.7l1.054,0.704l1.054,0.529l1.23,0.7l2.108,1.408l1.054,0.88l1.054,0.704l0.879,0.7l1.059,0.704l1.054,0.879l0.879,0.704l1.054,0.7l0.879,0.884l1.055,0.704l0.879,0.875l0.875,0.704l1.762,1.762l0.879,0.7l0.875,0.88l0.88,0.879l0.879,0.883l0.704,0.875l0.875,0.704l0.708,0.879l0.879,0.88l0.7,0.875l0.705,1.058l0.704,0.875l0.704,0.883l0.7,0.879l0.704,0.88l0.704,1.054l0.525,0.879l0.704,0.879l0.53,1.054l0.7,0.879l0.525,1.055l0.529,0.883l0.529,1.05l0.529,0.883l0.525,1.054l0.529,1.055l0.354,1.058l0.525,0.871l0.35,1.062l0.53,1.054l0.345,1.05l0.355,1.055l0.354,0.883l0.346,1.054l0.354,1.054l0.179,1.059l0.346,1.054l0.179,1.05l0.35,1.054l0.179,1.062l0.175,1.05l0.179,1.055l0.171,1.054l0,1.054l0.175,1.058m-245.729,204.659l0.175,0.17l0.35,0.175l0.175,0.18l0.354,0.354l0.35,0.175l0.179,0.171l0.35,0.179l0.35,0.35l0.354,0.179l0.35,0.175l0.35,0.171l0.53,0.179l0.35,0.175l0.354,0.354l0.525,0.175l0.354,0.175l0.525,0.175l0.35,0.175l0.529,0.179l0.529,0.175l0.35,0.179l0.525,0.171l0.529,0.175l0.53,0l0.525,0.179l0.529,0.175l0.525,0.175l0.529,0l0.525,0.18l0.529,0.17l0.529,0l0.7,0.175l0.529,0l0.525,0.18l0.53,-0l0.704,0.175l1.758,-0l0.7,0.179l4.921,-0l0.704,-0.179l1.758,-0l0.705,-0.175l0.704,-0l0.525,-0.18l0.704,0l0.704,-0.175l0.525,0l0.704,-0.17l0.525,-0.18l0.704,0l0.705,-0.175l0.529,-0.175l0.7,-0.179l0.529,-0.175l0.704,-0.171l0.525,-0.179l0.704,-0.175l0.529,-0.179l0.7,-0.175l1.055,-0.35l0.704,-0.175l0.529,-0.175l0.525,-0.354l0.704,-0.179l0.525,-0.171l0.529,-0.354l0.529,-0.175l0.7,-0.354l0.53,-0.171l0.525,-0.354l0.529,-0.175l0.529,-0.355l0.525,-0.17l0.529,-0.355l0.35,-0.175l1.054,-0.704l0.529,-0.175l0.35,-0.354l1.055,-0.7l0.354,-0.354l0.525,-0.179l0.704,-0.7m-161.888,-361.838l0.35,-1.233l0.705,-1.054l1.054,-2.109l0.529,-1.233l0.525,-1.054l0.704,-1.054l0.525,-1.054l0.704,-1.059l0.704,-1.229l0.705,-1.054l0.525,-1.058l2.812,-4.213l0.879,-1.058l0.704,-0.879l0.705,-1.059l0.879,-1.054l0.7,-1.054l0.879,-1.05l0.879,-0.883l0.704,-1.055l0.879,-1.058l0.88,-0.875l1.754,-2.112l0.883,-0.88l0.875,-1.054l5.625,-5.625l1.058,-0.879l0.875,-0.879l1.055,-0.879l1.058,-1.054l6.325,-5.271l1.058,-0.709l1.054,-0.879l1.23,-0.879l1.054,-0.875l1.229,-0.883l1.054,-0.704l1.233,-0.88l1.055,-0.875l1.229,-0.708l1.229,-0.879l1.233,-0.7l1.229,-0.879l1.23,-0.7l1.233,-0.879l2.458,-1.409l1.234,-0.879l2.458,-1.408l1.408,-0.7l2.459,-1.409l1.408,-0.704l1.229,-0.7l1.404,-0.708l1.234,-0.7l4.216,-2.113l1.229,-0.529l2.817,-1.404l1.404,-0.529l1.404,-0.7l1.409,-0.525l1.404,-0.708l1.408,-0.525l1.404,-0.705l1.584,-0.529l1.408,-0.7l2.813,-1.054l1.579,-0.529l1.408,-0.525l1.579,-0.708l1.409,-0.525l3.162,-1.055l1.408,-0.529l1.58,-0.525l1.583,-0.354l1.408,-0.525l3.163,-1.058l1.579,-0.35l3.167,-1.054l1.583,-0.355l1.579,-0.525l1.583,-0.354l1.584,-0.525l3.162,-0.708l1.579,-0.525l3.167,-0.7l1.758,-0.354l4.746,-1.054l1.759,-0.355l3.162,-0.7l1.758,-0.354l1.584,-0.171l1.754,-0.354l1.583,-0.354l1.759,-0.175l1.583,-0.35l1.754,-0.175l1.583,-0.354l1.759,-0.171m14.062,448.338l2.813,-2.109l1.404,-0.879l2.812,-2.108l1.234,-1.054l1.404,-0.88l1.404,-1.054l11.25,-7.033l172.613,-99.692m-208.996,-333.529l0.35,-0.179l225.871,-34.988m-471.78,321.925l90,-194.108l0.175,-0.171m-100.262,232.429l0.192,-1.204l-0,-1.208l0.191,-1.204l0.192,-1.009l-0,-1.204l0.575,-3.612l0.192,-1.009l0.579,-3.616l0.383,-1.2l0.192,-1.009l0.191,-1.204l0.384,-1.208l0.191,-1l0.767,-2.413l0.192,-1.004l0.766,-2.412l0.384,-1.004l0.771,-2.413l0.383,-1.004l0.575,-1.204l0.383,-1.004l0.384,-1.205l0.575,-1.004l0.383,-1.204l0.387,-1.004m455.43,45.183l2.458,-1.408l1.233,-0.529l2.463,-1.404l1.225,-0.53l1.233,-0.7l1.229,-0.525l1.404,-0.708l1.234,-0.525l1.408,-0.529l1.225,-0.704l1.408,-0.529l1.234,-0.525l4.216,-1.584l1.23,-0.525l2.812,-1.054l1.408,-0.354l2.813,-1.054l1.579,-0.35l1.404,-0.529l1.409,-0.35l1.408,-0.53l1.583,-0.354l2.809,-0.7l1.583,-0.525l1.408,-0.354l1.579,-0.354l1.409,-0.35l1.579,-0.175l1.587,-0.354l1.4,-0.35l1.588,-0.35l1.579,-0.175l3.167,-0.704l1.404,-0.175l1.579,-0.18l1.583,-0.35l14.238,-1.583l1.758,0l3.163,-0.35l1.583,0l1.583,-0.179l4.746,-0l1.759,-0.171l6.329,0l1.758,0.171l3.158,-0l1.584,0.179l3.162,0l1.763,0.175l1.579,0.175l1.579,0l1.588,0.179l1.579,0.171l1.579,0.175l1.587,0.179l3.159,0.35l1.587,0.179l1.579,0.175l1.584,0.175l1.579,0.35l1.583,0.18l1.409,0.345l1.579,0.18l1.579,0.354l1.587,0.175l1.409,0.35l1.579,0.35l1.579,0.354l1.408,0.354l1.58,0.35l1.583,0.35l1.408,0.35l1.579,0.354l1.409,0.354l1.408,0.346l1.579,0.529l1.404,0.355l1.409,0.35l1.579,0.529l1.408,0.35l1.404,0.529l1.409,0.525l1.404,0.529l1.408,0.35l1.409,0.529l1.229,0.525l1.408,0.529l1.404,0.525l1.404,0.53l1.234,0.525l1.404,0.708l1.233,0.525l1.404,0.529l1.23,0.525l1.233,0.708l1.229,0.525l1.404,0.7l1.234,0.53l1.225,0.704l1.233,0.7l1.229,0.708l1.058,0.525l1.23,0.704m169.095,110.592l-0.529,-0.354l-0.7,-0.35l-0.533,-0.529l-0.7,-0.35l-0.525,-0.35l-0.529,-0.355l-0.525,-0.35l-0.529,-0.529l-0.53,-0.354l-0.35,-0.346l-0.525,-0.354l-0.354,-0.525l-0.35,-0.354l-0.529,-0.354l-0.354,-0.35l-0.346,-0.35l-0.179,-0.354l-0.354,-0.35l-0.175,-0.35l-0.35,-0.35l-0.35,-0.709l-0.179,-0.35l-0.171,-0.35l-0.175,-0.354l-0.179,-0.175l-0.175,-0.35l-0.18,-0.354l0,-0.175l-0.175,-0.35l0,-0.354m27.071,20.75l2.109,1.404l2.112,1.408l2.108,1.409l1.055,0.7l1.054,0.704l1.058,0.875l1.054,0.708l1.05,0.7l1.054,0.879l1.055,0.709l1.058,0.7l1.054,0.879l1.054,0.7m-44.116,-32.7l-0.18,-0.7l-0.35,-1.059l-0.179,-0.529l-0.175,-0.525l-0.175,-0.529l-0.35,-0.7l-0.179,-0.525l-0.346,-0.533l-0.354,-0.529l-0.175,-0.346l-0.35,-0.534l-0.354,-0.525l-0.354,-0.529l-0.346,-0.346l-0.354,-0.533l-0.354,-0.525l-0.525,-0.35l-0.355,-0.529l-0.345,-0.35l-0.534,-0.354l-0.346,-0.525l-0.529,-0.354l-0.354,-0.35l-0.525,-0.35l-0.525,-0.355l-0.354,-0.35l-0.529,-0.354l-1.05,-0.7l-0.529,-0.354l-0.534,-0.35l-146.766,-84.746m-17.05,-390.146l2.808,-0.175l2.812,0l2.817,-0.179l11.25,0l2.813,0.179l2.812,0l2.633,0.175l2.817,0l2.813,0.171l2.812,0.179l2.813,0.175l2.812,0.18l2.633,0.175l2.813,0.35l2.812,0.175l2.813,0.354l2.637,0.346l5.625,0.708l2.634,0.354l2.812,0.346l2.638,0.533l2.812,0.346l2.638,0.529l2.637,0.525l2.813,0.534l2.633,0.525l2.642,0.529l2.633,0.525l2.638,0.529l2.633,0.7l2.462,0.529l2.638,0.704l2.633,0.704l2.467,0.7l2.633,0.705l2.463,0.704l2.637,0.879l2.459,0.7l2.462,0.883l2.458,0.704l2.463,0.875l4.925,1.759l2.279,0.879l2.467,0.883l2.279,1.054l2.467,0.88l2.279,1.054l2.287,0.879l2.288,1.054l4.566,2.108l2.113,1.059l2.283,1.054l2.109,1.229l2.108,1.058l2.112,1.225l2.109,1.055l2.112,1.233l2.104,1.233m-790.1,308.392l0.875,-1.588m601.934,222.846l19.079,15.567l0.704,0.354l0.7,0.529l0.704,0.525l0.704,0.529l0.7,0.525l0.705,0.355l0.879,0.525l0.7,0.525l0.708,0.354l0.879,0.529l0.875,0.354l0.704,0.525l0.88,0.354l0.879,0.525l0.875,0.354l0.708,0.346l0.879,0.354l0.879,0.53l0.875,0.35l1.059,0.354l0.875,0.346l1.758,0.708l0.879,0.175l1.054,0.35l0.88,0.354l0.879,0.175l1.054,0.354l0.883,0.346l1.05,0.179l0.879,0.175l1.055,0.35l1.054,0.175l0.879,0.179l1.054,0.175l1.058,0.175l0.875,0.18l1.059,0.17l1.054,0.18l0.879,0.175l1.054,0.175l1.054,0.179l1.055,-0l1.058,0.175l0.875,-0l1.058,0.171l10.192,-0l1.054,-0.171l1.054,-0l1.059,-0.175l0.875,-0l1.058,-0.179l1.054,-0l0.879,-0.175l1.054,-0.175m147.121,-84.921l-1.933,-1.234l-1.933,-1.229l-2.109,-1.058l-1.933,-1.229l-8.613,-4.921m33.396,21.446l5.979,4.575m-127.437,62.066l-42.538,6.505m110.384,-557.705l238.354,138.546m67.846,91.075l1.404,18.817m-309.363,-249.492l1.759,1.054m59.591,489.134l0.7,0.525l0.88,0.529l0.879,0.704l0.7,0.529l0.883,0.525l1.054,0.529l0.879,0.525l0.88,0.53l0.879,0.525l1.054,0.525l0.879,0.354l1.054,0.529l1.054,0.35l1.05,0.529l1.059,0.354l1.054,0.525l1.054,0.354l1.054,0.346l1.054,0.354l1.059,0.355l1.229,0.35l1.05,0.35l1.233,0.179l1.054,0.346l1.234,0.179l1.054,0.354l1.233,0.175l1.05,0.175l1.229,0.179l1.234,0.171l1.054,0.175l1.233,0.179l1.225,0.175l1.234,0l1.054,0.179l2.458,0l1.054,0.175l2.467,0l1.054,-0.175l2.458,0l1.055,-0.179l1.233,0l2.104,-0.354l1.233,-0l3.163,-0.525l1.054,-0.35l2.113,-0.354l1.05,-0.354l1.054,-0.171l0.883,-0.354l1.05,-0.355l0.883,-0.17l1.05,-0.355l2.642,-1.054l0.879,-0.525m-194.933,54.504l2.417,-0.441l0.641,-0.146l1.613,-0.296l0.646,-0.142l0.804,-0.295l0.646,-0.146l0.808,-0.146l0.642,-0.296l0.804,-0.142l0.65,-0.295l0.641,-0.146l1.934,-0.879l0.65,-0.146l1.283,-0.584l0.483,-0.295l1.292,-0.588l0.967,-0.583l0.646,-0.438l1.933,-1.171l0.804,-0.733l0.483,-0.292l1.938,-1.754l0.321,-0.441l0.321,-0.296l0.325,-0.434l0.641,-0.591l0.163,-0.434l0.321,-0.295l0.162,-0.442l0.321,-0.288l0.158,-0.441l0.167,-0.296l0.325,-0.288l0.158,-0.441l0.159,-0.292l0.166,-0.442l0,-0.291l0.159,-0.296l0.158,-0.438l0.167,-0.291l-0,-0.292l0.158,-0.442l-0,-0.587l0.158,-0.438l0,-0.729m278.967,-393.475l1.579,0.875l1.404,0.884l1.409,0.879l1.579,0.879m-0.171,-0l1.754,0.879l1.583,1.054l1.755,1.054l1.587,1.055l1.579,1.233l1.579,1.054l1.588,1.054l1.404,1.059l1.583,1.229l1.405,1.05l1.579,1.233l1.408,1.054l1.408,1.234l1.405,1.229l1.408,1.233l1.404,1.233l1.408,1.05l1.405,1.23l1.229,1.408l1.233,1.233l1.404,1.225l1.229,1.234l1.234,1.408l1.233,1.229l1.05,1.233l1.229,1.405l1.059,1.233l1.229,1.408l1.054,1.4l1.058,1.234l1.054,1.408l1.05,1.404l0.88,1.408l1.054,1.409l0.879,1.404l0.883,1.408l0.875,1.409l0.879,1.579l0.88,1.408l0.879,1.404l0.7,1.584l0.879,1.404l0.708,1.583l0.7,1.404l0.704,1.588l0.53,1.579l0.7,1.408l0.525,1.579l0.704,1.588l0.529,1.583l0.525,1.404l0.529,1.58l0.35,1.583l0.529,1.587l0.354,1.58l0.35,1.579l0.35,1.587l0.355,1.579l0.17,1.584l0.355,1.583l0.175,1.583l0.179,1.58l0.171,1.758l0.179,1.583m-208.996,-125.187l-1.408,0.529l-1.405,0.525l-1.408,0.533l-1.408,0.7l-1.4,0.529l-1.404,0.705l-1.409,0.529l-1.408,0.7l-1.404,0.704l-1.409,0.704l-1.404,0.704l-1.408,0.7l-1.404,0.704l-1.409,0.875l-1.404,0.709l-1.408,0.879l-172.783,99.687m-42.892,57.496l-0.175,2.638m0.175,-2.638l0.354,-2.112l0,-1.054l0.35,-2.105l0.35,-1.062l0.354,-2.104l0.7,-2.113l0.179,-1.054l1.055,-3.162l0.529,-0.88l0.7,-2.116l0.525,-1.05l0.533,-0.879l0.346,-1.055l0.529,-1.054l0.529,-0.883l0.529,-1.05l0.525,-0.883l0.7,-1.055l0.53,-0.879l0.525,-1.054l1.408,-1.758l0.525,-1.054l2.112,-2.642l0.7,-1.05l0.709,-0.883l0.879,-0.875l1.404,-1.759l5.096,-5.1l0.879,-0.7l0.879,-0.883l0.879,-0.704l1.055,-0.875l0.879,-0.704l0.879,-0.884l1.054,-0.7l1.054,-0.879l0.879,-0.704l3.167,-2.108l1.054,-0.88l3.159,-2.108l1.062,-0.529l1.05,-0.704l1.229,-0.7l1.059,-0.709m213.212,142.563l0,0.967l0.142,0.408l0.146,0.279l-0,0.408l0.141,0.275l0.142,0.417l0.146,0.413l0.283,0.275l0.146,0.416l0.287,0.409l0.142,0.416l0.288,0.409l0.283,0.412l0.429,0.417l0.288,0.55l0.429,0.412l0.429,0.417l0.433,0.408l0.429,0.554l0.43,0.409l0.57,0.416l0.575,0.55l0.571,0.413l0.575,0.417l0.717,0.545l0.575,0.417l0.712,0.408l0.717,0.417l0.717,0.55l0.858,0.413m32.346,18.816l1.212,0.525l1.209,0.529l1.037,0.525l1.213,0.355l1.216,0.525l1.213,0.35l1.212,0.525l1.213,0.354l1.387,0.354l1.213,0.35l1.208,0.35l1.213,0.354l1.387,0.35l1.213,0.175l1.212,0.354l1.384,0.175l1.212,0.35l1.388,0.175l1.212,0.179l1.388,0.175l1.216,0l1.209,0.18l1.212,-0l1.388,0.175l6.058,-0l1.212,-0.175l1.213,-0l0.525,-0.18l1.212,0l0.517,-0.175l0.521,0l0.517,-0.179l0.695,0l0.521,-0.175l0.521,0l0.517,-0.171l0.521,0l1.041,-0.354l0.517,0l1.037,-0.354l0.35,-0.175l0.517,0l1.042,-0.35l0.346,-0.175l0.52,-0.179l0.342,-0.175l0.525,-0.175l0.346,-0l0.517,-0.175l1.041,-0.529l0.521,-0.175l0.692,-0.35l0.346,-0.354l1.041,-0.53l0.175,-0.17l0.688,-0.355l0.175,-0.175l0.691,-0.354l0.346,-0.35l0.35,-0.175l0.171,-0.354l0.346,-0.346l0.521,-0.354l0.171,-0.354l0.695,-0.7l0.175,-0.354l0.517,-0.525l0.175,-0.354l0,-0.35m-60.454,2.991l-0.708,-0.354l-0.88,-0.525l-0.875,-0.354l-0.704,-0.354l-0.879,-0.354l-0.7,-0.525l-0.883,-0.35l-0.704,-0.525l-0.7,-0.355l-0.88,-0.35l-0.7,-0.529l-1.408,-0.704l-0.704,-0.529l-0.7,-0.346l-0.529,-0.529l-1.404,-0.879l-2.817,-1.759l-1.404,-0.879l-1.409,-0.883l-1.404,-0.879l-1.408,-0.7l-1.404,-0.879l-9.142,-5.275m-91.579,62.066l1.758,-1.054l0.709,-0.529l0.87,-0.525l1.763,-0.708l0.704,-0.525l0.875,-0.355l0.879,-0.175l1.759,-0.704l0.883,-0.175l0.879,-0.35l3.513,-0.704l1.054,-0.179l0.879,-0l0.879,-0.171l0.879,0l0.875,-0.175l4.571,0l0.879,0.175l0.884,0l0.879,0.171l0.875,-0l1.058,0.179l0.875,0.175l0.879,0.179l2.638,0.525l0.879,0.35l0.875,0.354l0.879,0.18l0.883,0.345l0.88,0.355l0.7,0.354l0.879,0.525l0.879,0.354l0.879,0.525l37.267,21.45l4.116,2.542m-761,-402.888l0,-0.879l-0.175,-0.525l0,-0.883l-0.179,-0.346l-0.175,-0.534l-0.175,-0.345l0,-0.53l-0.175,-0.354l-0.175,-0.525l-0.354,-0.354l-0.175,-0.525l-0.175,-0.354l-0.175,-0.525l-0.354,-0.354l-0.175,-0.525l-0.35,-0.354l-0.175,-0.35l-0.354,-0.525l-0.35,-0.355l-0.175,-0.354l-0.354,-0.35l-0.7,-0.7l-0.355,-0.175l-0.35,-0.354l-0.354,-0.354l-0.35,-0.175l-0.175,-0.35l-0.35,-0.175l-0.354,-0.179l-0.35,-0.175l-0.354,-0.171l-0.35,-0.179l-0.175,-0l-0.354,-0.175l-0.35,-0.179l-0.35,-0l-0.175,-0.175l-2.288,-0l-0.175,0.175l-0.175,-0l-0.354,0.179l-0.175,0.175l-0.175,-0l-0.175,0.179l-0.175,0.171l-0.704,0.704l-0.175,0.35l-0.175,0.175l-0,0.179l-0.179,0.354l-0.175,0.175l-0,0.879m2.108,-3.341l1.758,-0.879l1.934,-0.884l3.516,-1.933l7.384,-3.513l2.458,-1.054l2.463,-1.233l2.462,-1.054l2.633,-1.054l2.463,-1.234l2.637,-1.054l2.634,-0.879l5.275,-2.108l2.637,-0.88l2.638,-1.058l2.812,-0.875l2.634,-0.879l11.25,-3.521l2.812,-0.7l2.813,-0.879l5.625,-1.408l2.987,-0.7l2.813,-0.705l2.991,-0.704l2.988,-0.525l2.987,-0.708l2.813,-0.525l2.987,-0.7l5.975,-1.063l3.167,-0.525l2.987,-0.345l233.955,-36.221m-0,-0l144.462,-20.034l9.8,-0.962m180.763,39.804l252.762,145.933l1.579,1.059l1.409,0.875l1.579,0.879l1.587,1.058l1.579,0.875l1.409,0.879l1.579,1.055l1.408,0.879l1.404,1.054l1.409,1.058l1.404,0.879l1.583,1.055l1.229,1.054l1.409,1.054l1.404,1.054l1.408,1.058l1.229,1.055l1.405,1.054l1.233,1.054l1.408,1.054l1.225,1.058l1.234,1.055l1.233,1.229l1.225,1.058l1.233,1.054l1.229,1.229l1.055,1.059l1.233,1.054l1.05,1.225l2.287,2.287l1.055,1.234l1.054,1.054l1.058,1.229l1.054,1.233l1.054,1.23l0.88,1.229l1.054,1.054l0.879,1.233l1.054,1.234l0.879,1.225l0.879,1.233l0.88,1.229l0.875,1.408l0.879,1.234l0.879,1.225l0.708,1.233l0.871,1.233l0.708,1.405l0.7,1.229l0.88,1.233l0.704,1.408l0.704,1.23l0.525,1.233l0.704,1.404l0.704,1.229l0.525,1.409l0.529,1.229l0.705,1.408l0.525,1.408l0.529,1.225l0.525,1.409l0.354,1.408l0.525,1.233m-501.833,-259.866l2.987,-0.175l3.167,-0l3.162,-0.179l9.317,-0l2.987,0.179l6.325,-0l2.992,0.175l3.163,0.175l3.166,0.179l2.984,0.171l3.166,0.175l2.988,0.179l3.166,0.354l2.988,0.175l3.162,0.35l2.988,0.35l2.987,0.354l3.167,0.35l2.988,0.354l2.987,0.525l2.988,0.35l2.991,0.534l2.988,0.525l2.983,0.529l2.988,0.525l2.991,0.529l5.975,1.05l2.813,0.708l2.987,0.7l2.813,0.525l2.987,0.709l2.813,0.7l2.812,0.879l2.813,0.708l2.812,0.7l2.817,0.879l2.808,0.88l2.817,0.7l2.633,0.883l2.813,0.879l2.637,1.054l2.809,0.879l2.641,0.88l2.638,1.054l2.633,0.879l2.638,1.054l2.462,1.054l2.633,1.054l2.459,1.059l2.641,1.054l2.459,1.229l2.462,1.058l2.459,1.23l2.287,1.054l2.458,1.229l2.463,1.229l2.283,1.233l2.288,1.234l2.287,1.229l2.284,1.404m320.433,220.133l18.458,55.205m-156.787,361.487l-0,-1.229l-0.179,-1.233l-0,-5.096l-0.175,-1.234l-0,-1.229l-0.175,-1.408l-0,-1.229l-0.18,-1.409l0,-1.229l-0.17,-1.408l-0,-1.229l-0.18,-1.404l-0.175,-1.234l-0.175,-1.408l-0.179,-1.229l-0.175,-1.404l-0.171,-1.409l-0.179,-1.233l-0.175,-1.404l-0.179,-1.409l-0.175,-1.229l-0.171,-1.404l-0.354,-1.408l-0.175,-1.409l-0.179,-1.225l-0.346,-1.408l-0.179,-1.408l-0.354,-1.404l-0.175,-1.409l-1.404,-6.858l-1.409,-6.858l-2.812,-13.713l-1.404,-6.858l-1.409,-7.034l-0.7,-3.341l-0.708,-3.513l-0.871,-3.341l-0.708,-3.513l-0.175,-0.883l-0.179,-0.704l-0,-0.88l-0.171,-0.875l-0,-4.4l0.35,-1.754l-0,-0.879l0.354,-1.762l0.35,-0.7l0.179,-0.88l0.346,-0.879l0.179,-0.883l0.346,-0.7l0.354,-0.879l0.708,-1.409l0.525,-0.879l0.346,-0.7l1.059,-1.408l0.35,-0.525l0.704,-0.708l0.529,-0.7l0.879,-0.88l0.354,-0.179l0.171,-0.35l0.354,-0.175m164.875,-34.108l2.109,-6.329l0.525,-2.113l0.708,-2.283l1.054,-4.221l0.7,-2.287l0.525,-2.105l0.533,-2.287l0.346,-2.113l1.059,-4.57l0.704,-4.571l0.525,-2.109l0.704,-4.575l0.175,-2.287l0.354,-2.279l0.346,-2.463l0.354,-4.575l0.354,-2.283l0.175,-2.288l0,-2.462l0.35,-4.567l0,-2.287l0.175,-2.463l0,-65.404m-32.541,195.038l-92.45,199.716l-0.717,1.604l-0.888,1.6l-0.712,1.605l-0.888,1.604l-0.891,1.604l-0.884,1.425l-1.066,1.604l-0.892,1.604l-1.067,1.6l-1.066,1.425l-0.888,1.604l-1.246,1.425l-1.066,1.605l-1.063,1.425l-1.25,1.604l-1.241,1.425l-1.067,1.425l-1.25,1.604l-1.417,1.425l-2.491,2.85l-2.842,2.85l-1.425,1.425l-1.421,1.425l-1.421,1.25l-1.425,1.425l-1.6,1.425l-1.421,1.246l-1.6,1.425l-1.6,1.246l-1.6,1.25l-0.358,0.354l-0.175,0.179l-0.179,0.179l-0.538,0.354l-0.35,0.179l-0.537,0.359l-0.533,0.354l-0.35,0.179l-0.538,0.179l-0.533,0.354l-0.359,0.18l-0.529,0.179l-0.533,0.175l-1.067,0.358l-0.537,0l-0.529,0.179l-0.534,0l-0.537,0.175l-2.309,0l-0.533,-0.175l-0.537,0l-0.53,-0.179l-0.712,-0.179l-0.529,-0.179l-0.538,-0.175l-0.533,-0.359l-0.529,-0.179l-0.359,-0.354l-0.533,-0.358l-0.533,-0.175l-0.354,-0.538l-0.538,-0.354l-0.35,-0.358l-0.358,-0.354l-0.534,-0.534l-0.179,-0.358l-0.358,-0.533l-0.35,-0.538l-0.358,-0.533l-0.175,-0.354l-0.18,-0.538l-0.358,-0.533l-0.179,-0.534l-0,-0.533l-0.175,-0.537l-0.175,-0.534l-0,-0.533l-0.179,-0.538l-0,-3.204l0.179,-0.533l-0,-0.538l0.175,-0.533l-0,-0.533l0.354,-1.071l0,-0.533l0.358,-1.246l0.355,-1.071l1.425,-4.988l0.354,-1.425l0.708,-2.495l0.358,-1.425l1.421,-5.346l0.713,-2.85l2.133,-8.017l0.354,-1.425l0.359,-1.246l2.841,-10.512m140.459,-190.629l20.766,-62.117m0,-205.008l0.7,2.112l0.709,2.108l0.7,2.109l0.525,2.287l0.708,2.113l0.525,2.104l0.529,2.108l0.7,2.288l0.525,2.112l0.533,2.284l0.346,2.287l0.529,2.113l0.53,2.279l0.35,2.287l0.354,2.288l0.525,2.287l0.354,2.284l0.35,2.283l0.175,2.287l0.354,2.288l0.346,2.287l0.179,2.28l0.175,2.287l0.354,2.288l0.175,2.462l0,2.283l0.175,2.288l0.175,2.283l0,2.467l0.175,2.279l0,4.575m-173.137,386.454l0.354,-1.054l0.175,-1.054l0.35,-1.058l0.175,-1.055l0.354,-1.054l0.7,-4.221l0.354,-1.054l0.179,-1.054l0.171,-1.229l0.175,-1.054l0,-1.059l0.179,-1.229l0.175,-1.054l0.175,-1.233l0.18,-1.054l-0,-1.23l0.17,-1.054l0.18,-1.233l-0,-1.229l0.175,-1.234l-0,-2.283l0.175,-1.233l-0,-4.921l0.179,-1.229l-0,-61.892m-8.088,-122.371l0.838,-0.612l0.837,-0.517l0.734,-0.521l0.837,-0.608l0.738,-0.608l0.729,-0.525l1.471,-1.217l0.733,-0.521l0.733,-0.612l0.629,-0.609l0.73,-0.608l2.516,-2.433l0.525,-0.609l0.629,-0.608l0.525,-0.608l0.63,-0.609l1.05,-1.221l0.416,-0.608l0.525,-0.692l0.521,-0.608l1.679,-2.437l0.421,-0.696l0.313,-0.609l0.42,-0.608m-799.525,-422.658c-4.562,-2.646 -11.966,-2.646 -16.529,-0m0.125,-0.229l-1.408,0.879m1.55,-0.813l-1.404,0.884m-0.271,0.158c-4.563,2.637 -4.563,6.929 -0,9.571m48.079,19.912l-39.375,-22.679l-5.425,3.254m-3.25,-0.525l36.008,20.609m759.959,651.991l-0.879,0.879l-0.7,0.88l-3.517,3.516l-0.883,0.879l-0.875,0.88l-0.88,0.879l-1.05,0.879l-0.883,0.879l-0.879,0.704l-1.054,0.879l-1.759,1.759l-1.054,0.704m-828.596,-713.308l0.175,0.175l0.35,0.179l0.35,0.175l0.18,0.35l0.35,0.175l0.35,0.354l0.179,0.171l0.35,0.354l0.175,0.354l0.35,0.175l0.179,0.35l0.35,0.354l0.175,0.346l0.175,0.354l0.354,0.354l0.175,0.355l0.175,0.345l0.175,0.355l0.179,0.354l0.35,0.7l0,0.354l0.175,0.35l0.175,0.354l0,0.35l0.175,0.35l0,0.708l0.179,0.346l0,0.879m-13.183,-11.25l0.175,-0.179l0.704,-0.35l0.35,0l0.35,-0.175l1.409,0l0.35,0.175l0.529,0l0.35,0.179l0.354,0.171l0.525,0.179l0.354,0.175l0.35,0.175l0.35,0.18l0.35,0.345l0.354,0.18l0.35,0.35l0.354,0.179l1.759,1.758l0.175,0.35l0.35,0.35l0.35,0.354l0.179,0.525l0.35,0.354l0.175,0.53l0.354,0.345l0.175,0.534l0.35,0.346l0.175,0.529l0.179,0.354l0.175,0.525l0.175,0.354l0.175,0.525l0,0.529l0.175,0.35l0.175,0.529l0,0.355l0.179,0.525l0,1.229m-25.312,-4.75l2.987,-2.109l3.163,-1.933l1.408,-1.054l1.584,-1.054l1.404,-0.879l1.583,-1.055m13.183,11.25l0,1.584m-7.383,-12.484l1.583,0.88m-67.145,60.658l0.35,-0.879l0.525,-1.054l0.354,-0.88l0.525,-0.879l0.529,-1.054l1.583,-2.637l0.525,-1.059l2.109,-3.512l0.529,-1.054l0.704,-0.88l0.525,-0.883l0.704,-0.879l0.529,-0.879l0.7,-0.875l0.529,-0.879l1.405,-1.759l0.529,-0.883l3.516,-4.392l1.405,-1.583l1.583,-1.758l1.404,-1.759l1.583,-1.583l1.584,-1.758l1.758,-1.584l1.579,-1.579l8.788,-7.912l1.933,-1.409l3.867,-3.162l3.871,-2.813l2.108,-1.408m-47.813,53.8l-91.4,197.1m73.825,123.071l-1.033,-0.671l-1.204,-0.679l-1.029,-0.671l-1.204,-0.679l-1.034,-0.671l-1.204,-0.675l-1.033,-0.675l-1.029,-0.675l-1.034,-0.671l-1.204,-0.679l-1.029,-0.671l-2.067,-1.35l-1.033,-0.846l-0.858,-0.671l-1.03,-0.675l-1.033,-0.675l-1.033,-0.845l-0.859,-0.671l-1.033,-0.679l-0.858,-0.838l-1.034,-0.675l-0.858,-0.675l-0.858,-0.842l-1.034,-0.675l-0.862,-0.841l-0.858,-0.679l-0.859,-0.842l-0.862,-0.675l-0.859,-0.842l-0.858,-0.671l-0.692,-0.845l-0.858,-0.675l-0.858,-0.846l-0.688,-0.838l-0.862,-0.675l-0.688,-0.846l-0.858,-0.67l-0.688,-0.846l-0.687,-0.842l-0.863,-0.679l-0.687,-0.838l-0.688,-0.841l-0.687,-0.846l-0.688,-0.675l-0.687,-0.846l-0.517,-0.842l-0.687,-0.837l-0.688,-0.679l-0.516,-0.842l-0.688,-0.846l-0.517,-0.841l-0.687,-0.842l-0.517,-0.675l-0.516,-0.842l-0.517,-0.846l-0.513,-0.841l-0.516,-0.842l-0.517,-0.846l-0.517,-0.841l-0.516,-0.675l-0.517,-0.842l-0.512,-0.842l-0.346,-0.846l-0.517,-0.841l-0.342,-0.842l-0.516,-0.846l-0.346,-0.841l-0.342,-0.846l-0.516,-0.842l-0.346,-0.671l-0.342,-0.846l-0.346,-0.841l-0.341,-0.842l-0.346,-0.846l-0.342,-0.841l-0.175,-0.846l-0.342,-0.842l-0.345,-0.837l-0.171,-0.85l-0.346,-0.838l-0.171,-0.842l-0.171,-0.845l-0.346,-0.842l-0.17,-0.846l-0.171,-0.842l-0.175,-0.841l-0.171,-0.675l-0.171,-0.842l-0.171,-0.846l-0.175,-0.841l-0.171,-0.842l0,-0.846l-0.17,-0.842l-0,-0.841l-0.171,-0.846l-0,-0.842l-0.175,-0.846l-0,-2.529l-0.171,-0.841l-0,-1.688l0.171,-0.842l-0,-2.525l0.175,-0.845l-0,-0.675l0.171,-0.846l-0,-0.842l0.17,-0.842l0,-0.845l1.375,-6.742l0.346,-0.842l0.342,-1.687l0.346,-0.842l0.171,-0.842l0.345,-0.845m-20.945,-10.871l0.354,-1.234l0.529,-1.404l1.054,-2.466l0.525,-1.405l1.583,-3.687m73.825,123.071l252.588,145.754m-262.958,130.987l252.762,145.934l1.404,0.704l1.409,0.879l1.404,0.7l1.408,0.879l1.404,0.704l1.409,0.705l1.583,0.879l1.404,0.704l1.408,0.704l1.58,0.7l1.408,0.704l1.579,0.879l1.408,0.705l1.58,0.704l1.583,0.7l1.583,0.529l1.404,0.704l3.167,1.408l1.579,0.7l1.584,0.53l1.583,0.704l1.579,0.7l1.583,0.529l1.759,0.704l1.579,0.525l1.583,0.704l1.759,0.529l1.583,0.525l1.579,0.705l1.758,0.529l1.584,0.525l1.758,0.529l1.758,0.525l1.58,0.529l1.758,0.529l1.758,0.525l1.584,0.529l1.758,0.525l1.754,0.53l1.758,0.529l1.759,0.525l1.758,0.354l1.758,0.525l1.759,0.529l1.758,0.35l1.754,0.529l1.759,0.35l1.758,0.354l1.933,0.525l1.759,0.355l1.758,0.35l1.758,0.529l1.934,0.35l1.758,0.35l1.758,0.354l1.934,0.35l1.754,0.354l1.937,0.35l1.754,0.35l1.934,0.179l1.758,0.35l1.933,0.35l1.759,0.354l1.933,0.175l1.758,0.35l1.934,0.18l1.933,0.35l1.758,0.175l1.934,0.35l1.933,0.179l1.758,0.175l3.867,0.35l1.933,0.354l1.934,0.175l1.758,0.175l1.933,0.175l1.934,-0l1.933,0.175l1.933,0.179l1.934,0.175l1.758,0.175l1.933,0l1.934,0.175l1.933,0l1.933,0.175l1.934,0l1.933,0.179l3.867,0l1.933,0.175l15.296,0l1.929,-0.175l3.867,0l1.933,-0.179l1.933,0l1.934,-0.175l1.762,0l1.934,-0.175l1.933,0l7.733,-0.704l1.759,-0l5.8,-0.525l1.933,-0.354l1.758,-0.175l5.8,-0.529l1.759,-0.35l1.933,-0.175l1.933,-0.35l1.754,-0.18l1.934,-0.35l1.758,-0.175l341.179,-52.925m-887.129,-197.091l0.525,1.404l0.529,1.229l0.525,1.233l0.529,1.23l0.705,1.233l0.525,1.229l0.704,1.054l0.525,1.234l1.408,2.458l0.704,1.233l0.704,1.229l0.7,1.055l0.705,1.233l0.704,1.229l0.879,1.229l0.704,1.059l0.875,1.229l0.879,1.054l0.704,1.233l0.88,1.054l0.879,1.23l0.879,1.054l0.879,1.233l1.054,1.054l0.879,1.229l0.88,1.055l1.054,1.054l0.879,1.058l1.054,1.229l2.108,2.109l1.055,1.058l2.108,2.108l1.058,1.054l1.054,1.055l1.23,1.058l1.054,1.054l1.229,1.054l1.054,1.054l1.233,0.88l1.23,1.054l1.054,1.054l1.233,0.883l2.458,2.109l1.409,0.879l1.229,1.054l1.229,0.879l1.233,0.879l1.405,1.054l1.229,0.88l1.408,0.879l1.404,1.054l1.234,0.879l1.404,0.879l1.408,0.879l2.808,1.759l2.817,1.758l1.579,0.879l1.409,0.879m-65.492,-68.541l-20.288,-60.688m1017.21,135.384l-0,1.408l-0.175,1.404l-0,5.45l-0.18,1.408l0,1.23l-0.175,1.408l0,1.404l-0.175,1.233l-0.179,1.405l0,1.233l-0.171,1.404l-0.175,1.233l-0.179,1.405l-0.175,1.233l-0.171,1.404l-0.179,1.233l-0.175,1.23l-0.179,1.408l-0.175,1.229l-0.35,1.229l-0.175,1.234l-0.175,1.229l-0.354,1.229l-0.179,1.233l-0.346,1.229l-0.179,1.234l-0.7,2.458l-0.354,1.233l-0.7,2.638l-0.705,2.637l-1.408,5.096l-1.579,5.275l-1.408,5.275l-0.7,2.638l-2.113,7.912l-0.7,2.638l-0.704,2.462l-0.529,2.638l-0.7,2.462l-0.179,0.7l-0.175,0.879l-0.175,0.705l-0.35,0.704l-0.355,0.704l-0.354,0.7l-0.346,0.704l-0.354,0.529l-0.354,0.704l-0.35,0.7l-0.529,0.705l-0.525,0.529l-0.354,0.7l-0.525,0.704l-0.529,0.529l-0.525,0.704l-1.759,1.759l-0.7,0.525l-0.529,0.529l-0.704,0.525l-0.529,0.529l-0.7,0.529l-0.704,0.35l-0.705,0.529l-0.704,0.35l-0.7,0.529l-1.408,0.7l-0.7,0.355l-0.35,0.175l-0.354,0.175m-420.625,-205.713l340.996,-52.742l2.466,-0.354l2.279,-0.354l2.467,-0.525l2.458,-0.35l2.284,-0.533l2.466,-0.346l4.567,-1.054l2.458,-0.534l2.288,-0.345l2.283,-0.705l6.854,-1.583l2.288,-0.704l2.287,-0.529l2.284,-0.7l2.283,-0.525l2.113,-0.709l4.566,-1.404l2.113,-0.529l2.108,-0.879l2.108,-0.7l2.284,-0.708l4.221,-1.4l1.933,-0.88l2.112,-0.708l2.105,-0.879l1.933,-0.7l2.108,-0.879l0.534,-0.175l0.345,-0.179l1.588,-0.53l0.525,0l0.346,-0.17l0.533,-0.18l1.054,0l0.525,-0.175l3.517,0l0.525,0.175l0.529,0l0.529,0.18l0.35,-0l0.525,0.17l0.534,0.18l0.525,0.175l0.35,0.175l0.525,0.179l0.533,0.175l0.346,0.171l0.529,0.179l0.35,0.175l0.529,0.354l0.354,0.171l0.525,0.354l0.354,0.175l0.525,0.354l0.355,0.35l0.345,0.354l0.355,0.175l0.354,0.354l0.35,0.346l0.35,0.354l0.35,0.525l1.408,1.409l0.175,0.525l0.35,0.354l0.175,0.529l0.354,0.35l0.179,0.529l0.346,0.35l0.179,0.529l0.175,0.355l0.175,0.525l0.18,0.529l0.17,0.525l0.18,0.354l0.175,0.525l0.175,0.529l0.179,0.525l-0,0.529l0.175,0.35l0.35,1.754l0.175,1.763l0.354,1.579l0.35,1.763l0.35,1.758l0.354,1.754l0.704,3.342l1.579,7.033l0.7,3.342l0.709,3.516l5.625,27.6m-448.754,3.342l-1.755,0.354l-1.762,0.175l-1.758,0.35l-1.755,0.175l-1.758,0.354l-1.758,0.18l-1.759,0.175l-1.758,0.17l-1.758,0.18l-1.934,0.175l-1.754,0.354l-1.758,0.175l-1.763,-0l-1.929,0.171l-1.754,0.179l-1.762,0.175l-1.759,0.179l-1.933,0.175l-1.754,-0l-1.759,0.175l-1.933,-0l-1.758,0.179l-1.763,0l-1.933,0.171l-3.513,-0l-1.933,0.175l-18.279,-0l-1.758,-0.175l-3.696,-0l-1.75,-0.171l-1.763,0l-1.933,-0.179l-1.758,-0l-1.755,-0.175l-1.933,-0l-1.758,-0.175l-1.759,-0.179l-1.762,-0.175l-1.933,-0.179l-1.755,-0.171l-1.758,-0l-1.758,-0.175l-1.934,-0.354l-1.758,-0.175l-1.754,-0.18l-1.758,-0.17l-1.759,-0.175l-1.758,-0.18l-1.933,-0.354l-1.759,-0.175l-1.758,-0.35l-1.758,-0.175l-1.759,-0.354l-1.754,-0.171l-1.758,-0.354l-1.759,-0.175l-1.758,-0.354l-1.583,-0.35l-1.759,-0.35l-1.754,-0.354l-1.758,-0.179l-1.758,-0.346l-1.759,-0.354l-1.583,-0.355l-1.758,-0.525l-1.755,-0.354l-1.583,-0.346l-1.758,-0.354l-1.584,-0.354l-1.758,-0.525l-1.579,-0.354l-1.758,-0.346l-1.584,-0.529l-1.754,-0.35l-1.583,-0.529l-1.584,-0.354l-1.758,-0.525l-1.579,-0.53l-1.583,-0.35l-1.584,-0.529l-1.579,-0.525l-1.583,-0.529l-1.584,-0.525l-1.579,-0.354l-1.583,-0.525l-1.583,-0.529l-1.58,-0.525l-1.583,-0.709l-1.583,-0.525l-1.404,-0.529l-1.584,-0.525l-1.404,-0.529l-1.583,-0.525l-1.584,-0.704l-1.404,-0.529l-1.408,-0.7l-1.579,-0.534l-1.409,-0.525l-1.404,-0.704l-1.583,-0.525l-1.404,-0.704l-1.409,-0.704l-1.408,-0.525l-2.808,-1.408l-1.409,-0.525l-1.229,-0.709l-1.408,-0.7l-1.404,-0.704l-1.229,-0.7l-1.409,-0.708l-1.229,-0.7l-1.408,-0.709l-1.229,-0.7l-1.405,-0.704l-1.233,-0.7l-1.229,-0.708m-360.863,-70.675l0,4.567l0.175,2.462l0,2.288l0.175,2.287l0.175,2.283l0,2.463l0.175,2.287l0.355,2.284l0.175,2.283l0.175,2.288l0.35,2.287l0.354,2.463l0.175,2.283l0.35,2.283l0.354,2.113l0.525,2.287l0.354,2.284l0.35,2.283l0.529,2.287l0.525,2.109l0.354,2.287l0.525,2.288l0.53,2.108l0.7,2.283l0.529,2.117l0.529,2.104l0.7,2.288l0.529,2.108l0.704,2.113l0.7,2.108l0.704,2.108m18.455,-260.212l-18.455,55.208m0,0l-0.704,2.108l-0.7,2.109l-0.704,2.112l-0.529,2.109l-0.7,2.287l-1.058,4.217l-0.7,2.287l-0.53,2.109l-0.525,2.287l-0.354,2.288l-0.525,2.108l-0.529,2.287l-0.35,2.284l-0.354,2.283l-0.525,2.288l-0.354,2.112l-0.35,2.279l-0.175,2.463l-0.354,2.287l-0.35,2.288l-0.175,2.287l-0.175,2.284l-0.355,2.283l-0.175,2.287l0,2.459l-0.35,4.575l0,2.462l-0.175,2.288l0,65.404m1023.88,100.212l0.35,1.409l0.35,1.587l0.175,1.4l0.354,1.588l0.171,1.408l0.354,1.579l0.179,1.404l0.175,1.584l0.35,1.408l0.175,1.583l0.175,1.405l0.179,1.583l0.175,1.408l0.179,1.409l0.171,1.579l0.175,1.404l0.179,1.408l0.175,1.409l0.171,1.579l0,1.408l0.179,1.404l0.175,1.409l0,1.408l0.175,1.579l0,1.408l0.18,1.409l-0,5.625l0.175,1.404l-0,62.067m-33.046,101.8l-2.109,0.879l-2.287,0.879l-2.113,0.704l-2.279,0.879l-2.287,0.879l-2.284,0.88l-2.108,0.704l-2.287,0.879l-2.459,0.7l-2.287,0.704l-2.284,0.879l-2.287,0.704l-2.463,0.705l-2.283,0.704l-2.462,0.7l-2.459,0.529l-2.287,0.704l-2.459,0.704l-2.462,0.525l-2.458,0.704l-2.463,0.53l-2.458,0.525l-2.463,0.529l-2.462,0.525l-2.459,0.529l-2.462,0.525l-2.633,0.529l-2.467,0.529l-2.458,0.35l-2.634,0.529l-2.462,0.35l-2.638,0.35m110.559,-312.083l-1.225,1.233l-1.409,1.23l-1.404,1.233l-1.408,1.054l-1.234,1.233l-2.808,2.109l-1.404,1.233l-1.408,1.05l-1.405,1.054l-1.587,1.054l-1.404,0.884l-1.404,1.05l-1.405,1.054l-1.408,0.883l-1.583,0.879m138.862,-244.037l2.459,-5.275m-190.713,157.712l-1.233,-0.708l-1.225,-0.7l-1.234,-0.879l-1.229,-0.704l-14.237,-8.263m0.008,-0.083c-1.296,-0.746 -2.662,-1.45 -4.104,-2.108m-232.142,-233.059l-4.221,2.288l-4.391,2.283m-176.304,0l-4.396,-2.283l-4.217,-2.288l-196.867,-113.754m564.23,13.363l-173.834,100.391m-198.275,77.538l0.175,5.446l-0.354,5.629l-1.229,5.454l-1.929,5.45l-2.467,5.271l-2.987,5.275l-3.867,4.921l-4.221,4.929l-4.917,4.746l-5.45,4.57l-6.154,4.217l-6.504,4.046l-173.662,100.396m603.962,-15.121l-0.533,-0.354l-146.946,-84.921l-6.504,-4.046l-5.975,-4.217l-5.45,-4.57l-4.921,-4.746l-4.392,-4.929l-3.696,-4.921l-3.158,-5.275l-2.467,-5.271l-1.933,-5.45l-1.054,-5.454l-0.525,-5.629l0.175,-5.446m448.575,-14.063l-0.175,1.579l-0.35,1.58l-0.175,1.762l-0.354,1.579l-0.175,1.588l-0.529,1.579l-0.35,1.583l-0.35,1.579l-0.53,1.584l-0.525,1.583l-0.529,1.579l-0.525,1.588l-0.533,1.579l-0.7,1.583l-0.7,1.404l-0.708,1.588m-862.167,151.733l4.217,-2.637m585.675,-338.279l4.22,-2.288m-11.95,368.346l8.613,4.921l1.933,1.229l2.109,1.058l1.933,1.229l1.933,1.234l2.109,1.404l2.112,1.408l2.108,1.409l1.055,0.7l1.054,0.704l1.058,0.875l1.054,0.708l1.05,0.7l1.054,0.879l1.055,0.709l1.058,0.7l1.054,0.879l1.054,0.7l5.979,4.575l0.7,0.525l0.88,0.529l0.879,0.704l0.7,0.529l0.883,0.525l1.054,0.529l0.879,0.525l0.88,0.53l0.879,0.525l1.054,0.525l0.879,0.354l1.054,0.529l1.054,0.35l1.05,0.529l1.059,0.354l1.054,0.525l1.054,0.354l1.054,0.346l1.054,0.354l1.059,0.355l1.229,0.35l1.05,0.35l1.233,0.179l1.054,0.346l1.234,0.179l1.054,0.354l1.233,0.175l1.05,0.175l1.229,0.179l1.234,0.171l1.054,0.175l1.233,0.179l1.225,0.175l1.234,0l1.054,0.179l2.458,0l1.054,0.175l2.467,0l1.054,-0.175l2.458,0l1.055,-0.179l1.233,0l2.104,-0.354l1.233,-0l3.163,-0.525l1.054,-0.35l2.113,-0.354l1.05,-0.354l1.054,-0.171l0.883,-0.354l1.05,-0.355l0.883,-0.17l1.05,-0.355l2.642,-1.054l0.879,-0.525l0.346,-0.175l1.058,-0.354l0.35,-0.179l1.759,-1.054l0.708,-0.354l0.7,-0.525l0.879,-0.525l0.7,-0.53l0.525,-0.354l0.354,-0.346l0.53,-0.354l0.879,-0.879l0.525,-0.354m107.754,-348.65l1.754,0.879l1.583,1.054l1.755,1.054l1.587,1.055l1.579,1.233l1.579,1.054l1.588,1.054l1.404,1.059l1.583,1.229l1.405,1.05l1.579,1.233l1.408,1.054l1.408,1.234l1.405,1.229l1.408,1.233l1.404,1.233l1.408,1.05l1.405,1.23l1.229,1.408l1.233,1.233l1.404,1.225l1.229,1.234l1.234,1.408l1.233,1.229l1.05,1.233l1.229,1.405l1.059,1.233l1.229,1.408l1.054,1.4l1.058,1.234l1.054,1.408l1.05,1.404l0.88,1.408l1.054,1.409l0.879,1.404l0.883,1.408l0.875,1.409l0.879,1.579l0.88,1.408l0.879,1.404l0.7,1.584l0.879,1.404l0.708,1.583l0.7,1.404l0.704,1.588l0.53,1.579l0.7,1.408l0.525,1.579l0.704,1.588l0.529,1.583l0.525,1.404l0.529,1.58l0.35,1.583l0.529,1.587l0.354,1.58l0.35,1.579l0.35,1.587l0.355,1.579l0.17,1.584l0.355,1.583l0.175,1.583l0.179,1.58l0.171,1.758l0.179,1.583c1.162,7.4 1.65,20.788 1.412,31.013m-473.541,-298.259l2.808,-0.175l2.812,0l2.817,-0.179l11.25,0l2.813,0.179l2.812,0l2.633,0.175l2.817,0l2.813,0.171l2.812,0.179l2.813,0.175l2.812,0.18l2.633,0.175l2.813,0.35l2.812,0.175l2.813,0.354l2.637,0.346l5.625,0.708l2.634,0.354l2.812,0.346l2.638,0.533l2.812,0.346l2.638,0.529l2.637,0.525l2.813,0.534l2.633,0.525l2.642,0.529l2.633,0.525l2.638,0.529l2.633,0.7l2.462,0.529l2.638,0.704l2.633,0.704l2.467,0.7l2.633,0.705l2.463,0.704l2.637,0.879l2.459,0.7l2.462,0.883l2.458,0.704l2.463,0.875l4.925,1.759l2.279,0.879l2.467,0.883l2.279,1.054l2.467,0.88l2.279,1.054l2.287,0.879l2.288,1.054l4.566,2.108l2.113,1.059l2.283,1.054l2.109,1.229l2.108,1.058l2.112,1.225l2.109,1.055l2.112,1.233l2.104,1.233l1.759,1.054l238.354,138.546l1.579,0.875l1.404,0.884l1.409,0.879l1.579,0.879m-858.829,-56.263l1.583,0.705l1.404,0.525l1.408,0.529l1.58,0.7l1.408,0.704l1.404,0.529l1.583,0.7l1.409,0.708l1.404,0.7l1.583,0.88l1.404,0.704l1.409,0.704l1.579,0.879l1.408,0.704l1.404,0.875l1.584,0.879m588.837,340.042l-146.766,-84.746l-1.23,-0.704l-1.058,-0.525l-1.229,-0.708l-1.233,-0.7l-1.225,-0.704l-1.234,-0.53l-1.404,-0.7l-1.229,-0.525l-1.233,-0.708l-1.23,-0.525l-1.404,-0.529l-1.233,-0.525l-1.404,-0.708l-1.234,-0.525l-1.404,-0.53l-1.404,-0.525l-1.408,-0.529l-1.229,-0.525l-1.409,-0.529l-1.408,-0.35l-1.404,-0.529l-1.409,-0.525l-1.404,-0.529l-1.408,-0.35l-1.579,-0.529l-1.409,-0.35l-1.404,-0.355l-1.579,-0.529l-1.408,-0.346l-1.409,-0.354l-1.579,-0.354l-1.408,-0.35l-1.583,-0.35l-1.58,-0.35l-1.408,-0.354l-1.579,-0.354l-1.579,-0.35l-1.409,-0.35l-1.587,-0.175l-1.579,-0.354l-1.579,-0.18l-1.409,-0.345l-1.583,-0.18l-1.579,-0.35l-1.584,-0.175l-1.579,-0.175l-1.587,-0.179l-3.159,-0.35l-1.587,-0.179l-1.579,-0.175l-1.579,-0.171l-1.588,-0.179l-1.579,0l-1.579,-0.175l-1.763,-0.175l-3.162,0l-1.584,-0.179l-3.158,-0l-1.758,-0.171l-6.329,0l-1.759,0.171l-4.746,-0l-1.583,0.179l-1.583,0l-1.579,0.175l-1.584,0.175l-1.758,0l-1.579,0.179l-1.588,0.171l-1.579,0.175l-1.579,0.179l-3.167,0.35l-1.579,0.179l-3.167,0.35l-1.583,0.35l-1.579,0.18l-1.404,0.175l-1.588,0.35l-1.579,0.354l-1.579,0.175l-1.588,0.35l-1.4,0.35l-1.587,0.354l-1.579,0.175l-1.409,0.35l-1.579,0.354l-1.408,0.354l-1.583,0.525l-1.409,0.354l-1.4,0.346l-1.583,0.354l-1.408,0.53l-1.409,0.35l-1.404,0.529l-1.579,0.35l-1.408,0.529l-1.405,0.525l-1.408,0.354l-1.408,0.525l-1.404,0.529l-1.23,0.525l-1.404,0.529l-1.408,0.525l-1.404,0.53l-1.234,0.525l-1.408,0.529l-1.225,0.704l-1.408,0.529l-1.234,0.525l-1.404,0.708l-1.229,0.525l-1.233,0.7l-1.225,0.53l-1.234,0.704l-1.229,0.7l-1.233,0.529l-2.458,1.408l-172.613,99.692l-1.404,0.879l-1.408,0.875l-1.405,0.879l-1.408,0.879l-1.404,0.88l-1.404,0.883l-2.817,1.758l-1.404,1.054l-1.404,0.88l-1.234,1.054l-1.404,1.054l-1.408,1.054l-1.404,0.879l-1.409,1.054l-1.404,1.055l-7.383,5.979m-52.204,-376.084l203.721,117.625l1.054,0.709l1.233,0.7l1.054,0.704l1.054,0.529l1.23,0.7l2.108,1.408l1.054,0.88l1.054,0.704l0.879,0.7l1.059,0.704l1.054,0.879l0.879,0.704l1.054,0.7l0.879,0.884l1.055,0.704l0.879,0.875l0.875,0.704l1.762,1.762l0.879,0.7l0.875,0.88l0.88,0.879l0.879,0.883l0.704,0.875l0.875,0.704l0.708,0.879l0.879,0.88l0.7,0.875l0.705,1.058l0.704,0.875l0.704,0.883l0.7,0.879l0.704,0.88l0.704,1.054l0.525,0.879l0.704,0.879l0.53,1.054l0.7,0.879l0.525,1.055l0.529,0.883l0.529,1.05l0.529,0.883l0.525,1.054l0.529,1.055l0.354,1.058l0.525,0.871l0.35,1.062l0.53,1.054l0.345,1.05l0.355,1.055l0.354,0.883l0.346,1.054l0.354,1.054l0.179,1.059l0.346,1.054l0.179,1.05l0.35,1.054l0.179,1.062l0.175,1.05l0.179,1.055l0.171,1.054l0,1.054l0.175,1.058l0.179,2.638m203.017,-0l0.171,-2.617l0.35,-2.092l-0,-1.045l0.346,-2.092l0.35,-1.05l0.345,-2.096l0.696,-2.092l0.175,-1.045l1.046,-3.138l0.521,-0.875l0.692,-2.092l0.52,-1.045l0.525,-0.875l0.346,-1.042l0.521,-1.05l0.525,-0.871l0.521,-1.042l0.521,-0.879l0.691,-1.041l0.521,-0.875l0.525,-1.046l1.392,-1.746l0.521,-1.042l2.083,-2.616l0.696,-1.05l0.696,-0.871l0.871,-0.875l1.387,-1.738l5.042,-5.062l0.866,-0.696l0.871,-0.871l0.867,-0.7l1.042,-0.871l0.87,-0.696l0.871,-0.875l1.042,-0.695l1.042,-0.871l0.87,-0.7l3.125,-2.096l1.046,-0.871l3.125,-2.092l1.046,-0.52l1.042,-0.696l1.221,-0.704l1.037,-0.696l170.846,-98.888l1.392,-0.875l1.387,-0.7l1.392,-0.866l8.341,-4.188l1.392,-0.525l1.388,-0.7l1.391,-0.521l1.392,-0.696l4.171,-1.57l7.3,-2.617l0.521,-0.175l0.52,-0.346l0.521,-0.175l1.738,-0.875l0.175,-0.175l0.171,0l0.525,-0.521l0.175,0m-304.442,413.884l-0,0.691l0.158,0.167l0,0.35l0.159,0.175l-0,0.167l0.166,0.35l0,0.17l0.159,0.346l-0,0.175l0.162,0.342l0.163,0.35l0.158,0.342l0.158,0.175l0.163,0.341l0.162,0.35l0.159,0.342l0.162,0.35l0.321,0.342l0.162,0.516l0.317,0.35l0.167,0.342l0.316,0.35l0.325,0.342l0.159,0.516l0.325,0.35l0.321,0.342l0.32,0.517l0.321,0.35l0.325,0.341l0.317,0.517l0.483,0.35l0.484,0.517l0.32,0.516l0.484,0.521l0.641,0.346l0.967,1.033l0.483,0.521l0.642,0.346l18.171,14.85m305.846,-168.258l1.404,0.879l1.408,0.7l1.404,0.879l1.409,0.883l1.404,0.879l2.817,1.759l1.404,0.879m-149.238,54.504l0.534,0.35l0.529,0.354l1.05,0.7l0.529,0.354l0.354,0.35l0.525,0.355l0.525,0.35l0.354,0.35l0.529,0.354l0.346,0.525l0.534,0.354l0.345,0.35l0.355,0.529l0.525,0.35l0.354,0.525l0.354,0.533l0.346,0.346l0.354,0.529l0.354,0.525l0.35,0.534l0.175,0.346l0.354,0.529l0.346,0.533l0.179,0.525l0.35,0.7l0.175,0.529l0.175,0.525l0.179,0.529l0.35,1.059l0.18,0.7m10.72,11.254l-0.529,-0.354l-0.7,-0.35l-0.533,-0.529l-0.7,-0.35l-0.525,-0.35l-0.529,-0.355l-0.525,-0.35l-0.529,-0.529l-0.53,-0.354l-0.35,-0.346l-0.525,-0.354l-0.354,-0.525l-0.35,-0.354l-0.529,-0.354l-0.354,-0.35l-0.346,-0.35l-0.179,-0.354l-0.354,-0.35l-0.175,-0.35l-0.35,-0.35l-0.35,-0.709l-0.179,-0.35l-0.171,-0.35l-0.175,-0.354l-0.179,-0.175l-0.175,-0.35l-0.18,-0.354l0,-0.175l-0.175,-0.35l0,-0.354m-554.741,-433.221l225.871,-34.988m-0,0l147.391,-20.862l6.092,-0.567m353.096,781.325l-0.879,0.879l-0.7,0.88l-3.517,3.516l-0.883,0.879l-0.875,0.88l-0.88,0.879l-1.05,0.879l-0.883,0.879l-0.879,0.704l-1.054,0.879l-1.759,1.759l-1.054,0.704m14.413,-13.717l-0.879,0.879l-0.7,0.88l-3.517,3.516l-0.883,0.879l-0.875,0.88l-0.88,0.879l-1.05,0.879l-0.883,0.879l-0.879,0.704l-1.054,0.879l-1.759,1.759l-1.054,0.704m-490.058,-549.796c50.533,17.863 100.496,20.271 149.054,0" style="fill:none;fill-rule:nonzero;stroke:#080605;stroke-width:3.72px;"/><g id="Dashed"><g id="Magnets"><path d="M807.488,256.796c8.135,4.703 8.135,12.328 -0,17.03c-8.136,4.703 -21.326,4.703 -29.461,0c-8.136,-4.702 -8.136,-12.327 -0,-17.03c8.135,-4.703 21.325,-4.703 29.461,0" style="fill:none;fill-rule:nonzero;stroke:#080605;stroke-width:4.17px;stroke-dasharray:8.33,12.5,0,0,0,0;"/><path d="M431.632,473.731c8.135,4.703 8.135,12.327 -0,17.03c-8.136,4.703 -21.326,4.703 -29.461,0c-8.136,-4.703 -8.136,-12.327 -0,-17.03c8.135,-4.703 21.325,-4.703 29.461,-0" style="fill:none;fill-rule:nonzero;stroke:#080605;stroke-width:4.17px;stroke-dasharray:8.33,12.5,0,0,0,0;"/><path d="M995.416,365.263c8.135,4.703 8.135,12.328 -0,17.031c-8.136,4.702 -21.326,4.702 -29.461,-0c-8.136,-4.703 -8.136,-12.328 -0,-17.031c8.135,-4.702 21.325,-4.702 29.461,0" style="fill:none;fill-rule:nonzero;stroke:#080605;stroke-width:4.17px;stroke-dasharray:8.33,12.5,0,0,0,0;"/><path d="M995.416,148.329c8.135,4.703 8.135,12.327 -0,17.03c-8.136,4.703 -21.326,4.703 -29.461,-0c-8.136,-4.703 -8.136,-12.327 -0,-17.03c8.135,-4.703 21.325,-4.703 29.461,-0" style="fill:none;fill-rule:nonzero;stroke:#080605;stroke-width:4.17px;stroke-dasharray:8.33,12.5,0,0,0,0;"/><path d="M619.56,365.263c8.135,4.703 8.135,12.328 -0,17.031c-8.136,4.702 -21.326,4.702 -29.461,-0c-8.136,-4.703 -8.136,-12.328 -0,-17.031c8.135,-4.702 21.325,-4.702 29.461,0" style="fill:none;fill-rule:nonzero;stroke:#080605;stroke-width:4.17px;stroke-dasharray:8.33,12.5,0,0,0,0;"/><path d="M619.56,148.329c8.135,4.703 8.135,12.327 -0,17.03c-8.136,4.703 -21.326,4.703 -29.461,-0c-8.136,-4.703 -8.136,-12.327 -0,-17.03c8.135,-4.703 21.325,-4.703 29.461,-0" style="fill:none;fill-rule:nonzero;stroke:#080605;stroke-width:4.17px;stroke-dasharray:8.33,12.5,0,0,0,0;"/><path d="M807.488,473.731c8.135,4.703 8.135,12.327 -0,17.03c-8.136,4.703 -21.326,4.703 -29.461,0c-8.136,-4.703 -8.136,-12.327 -0,-17.03c8.135,-4.703 21.325,-4.703 29.461,-0" style="fill:none;fill-rule:nonzero;stroke:#080605;stroke-width:4.17px;stroke-dasharray:8.33,12.5,0,0,0,0;"/><path d="M619.56,582.198c8.135,4.703 8.135,12.328 -0,17.03c-8.136,4.703 -21.326,4.703 -29.461,0c-8.136,-4.702 -8.136,-12.327 -0,-17.03c8.135,-4.703 21.325,-4.703 29.461,0" style="fill:none;fill-rule:nonzero;stroke:#080605;stroke-width:4.17px;stroke-dasharray:8.33,12.5,0,0,0,0;"/><path d="M431.632,256.796c8.135,4.703 8.135,12.328 -0,17.03c-8.136,4.703 -21.326,4.703 -29.461,0c-8.136,-4.702 -8.136,-12.327 -0,-17.03c8.135,-4.703 21.325,-4.703 29.461,0" style="fill:none;fill-rule:nonzero;stroke:#080605;stroke-width:4.17px;stroke-dasharray:8.33,12.5,0,0,0,0;"/><path d="M1183.52,256.796c8.135,4.703 8.135,12.328 -0,17.03c-8.136,4.703 -21.326,4.703 -29.461,0c-8.136,-4.702 -8.136,-12.327 -0,-17.03c8.135,-4.703 21.325,-4.703 29.461,0" style="fill:none;fill-rule:nonzero;stroke:#080605;stroke-width:4.17px;stroke-dasharray:8.33,12.5,0,0,0,0;"/></g><g id="Touch-pads" serif:id="Touch pads"><path d="M963.369,199.123c0,0 -97.04,55.904 -97.04,55.904c-9.715,5.595 -25.447,5.595 -35.161,0c-0,0 -11.82,-6.877 -11.82,-6.877c-14.588,-8.41 -38.242,-8.41 -52.83,-0c-0,-0 -11.821,6.877 -11.821,6.877c-9.714,5.595 -25.543,5.442 -35.257,-0.153c-0,-0 -73.914,-42.566 -73.914,-42.566c-9.437,-5.44 -13.256,-13.524 -9.802,-20.956c3.454,-7.431 13.617,-13.087 26.509,-15.079c-0,0 178.395,-27.785 178.395,-27.785c34.429,-5.324 70.954,0.39 96.158,14.935l26.583,15.308c9.715,5.595 9.715,14.797 0,20.392Z" style="fill:none;fill-rule:nonzero;stroke:#080605;stroke-width:4.17px;stroke-dasharray:8.33,12.5,0,0,0,0;"/><path d="M997.65,330.972l96.864,-55.904c7.521,-4.315 25.726,-5.945 35.258,-0.199l0.168,0.079c0,0 25.833,14.989 26.241,15.225c38.961,22.484 38.961,58.938 0,81.422l-99.815,57.648c-9.714,5.595 -25.543,5.442 -35.257,-0.153c0,-0 -23.557,-13.537 -23.557,-13.537c-9.714,-5.595 -9.714,-14.667 0,-20.262c0,0 11.834,-6.812 11.834,-6.812c14.589,-8.41 14.589,-22.045 0,-30.455c0,-0 -11.834,-6.813 -11.834,-6.813c-9.714,-5.595 -9.732,-14.663 0.098,-20.239Z" style="fill:none;fill-rule:nonzero;stroke:#080605;stroke-width:4.17px;stroke-dasharray:8.33,12.5,0,0,0,0;"/><path d="M831.071,491.453c9.715,-5.596 25.465,-5.596 35.18,-0c-0,-0 23.635,13.559 23.635,13.559c9.714,5.595 9.714,14.797 -0,20.392c-0,0 -99.854,57.662 -99.854,57.662c-38.961,22.484 -102.166,22.322 -141.127,-0.162c-0,-0 -26.408,-15.132 -26.408,-15.132c-9.714,-5.596 -9.636,-14.82 0.078,-20.416l96.962,-55.881c9.715,-5.595 25.195,-5.743 34.909,-0.147c0,-0 11.923,6.922 11.923,6.922c14.589,8.411 38.543,8.422 53.132,0.012c0,-0 11.496,-6.773 11.57,-6.809Z" style="fill:none;fill-rule:nonzero;stroke:#080605;stroke-width:4.17px;stroke-dasharray:8.33,12.5,0,0,0,0;stroke-dashoffset:375;"/><path d="M491,471.61c-9.714,5.595 -25.465,5.595 -35.179,0c-0,0 -26.526,-15.294 -26.526,-15.294c-25.204,-14.545 -35.045,-35.745 -25.818,-55.614c-0,-0 47.817,-102.842 47.817,-102.842c3.454,-7.431 13.543,-13.211 26.434,-15.202c12.891,-1.991 26.646,0.133 36.084,5.574c-0,-0 74.229,42.74 74.229,42.74c9.714,5.595 9.715,14.678 0.001,20.274c-0,-0 -11.78,6.799 -11.78,6.799c-14.589,8.41 -14.722,22.024 -0.134,30.434c0,-0 11.914,6.811 11.914,6.811c9.714,5.596 9.459,14.668 -0.255,20.263c-0,0 -96.787,56.057 -96.787,56.057Z" style="fill:none;fill-rule:nonzero;stroke:#080605;stroke-width:4.17px;stroke-dasharray:8.33,12.5,0,0,0,0;stroke-dashoffset:8.33;"/></g><g id="Side-indent" serif:id="Side indent"><path d="M528.093,735.834l1.407,0.879l1.23,0.704l1.407,0.879l2.461,1.758l1.406,1.054l1.231,0.879l1.406,1.055l2.461,2.11l1.407,1.055l1.23,1.23l1.231,1.055l1.406,1.231l3.692,3.691l1.231,1.407l2.461,2.461l1.055,1.406l2.461,2.813l1.055,1.231l1.23,1.406l1.055,1.582l2.11,2.813l1.23,1.406l1.055,1.582l1.055,1.407l0.879,1.582l1.758,2.461l1.406,2.461l0.879,1.231l3.516,6.153l0.527,1.406l1.407,2.461l0.527,1.231l0.703,1.406l1.583,3.692l0.527,1.407l1.582,3.691l0.528,1.407l0.351,1.23l0.528,1.231l2.461,8.614l0.351,1.582l0.352,1.758l0.352,1.582l0.351,1.758l0.176,1.582l0.352,1.758l0.175,1.583l0.176,1.758l0.352,3.164l0.176,1.758l0.175,1.582l0,3.165l0.176,1.757l0,3.165l-0.176,1.582l0,3.34l-1.054,9.493l-0.352,1.582l-0.176,1.583l-1.055,4.746l-0.351,1.407l-0.352,1.23l-1.406,4.219l-0.352,0.879l-0.351,1.055l-0.528,0.879l-0.351,1.055l-2.11,3.516l-0.527,0.703l-1.055,1.758l-0.528,0.703l-0.703,0.703l-0.527,0.704l-2.637,2.637l-2.813,2.109l-0.879,0.528l-0.703,0.351l-0.703,0.528l-0.879,0.351l-0.9,0.443l-0.91,0.434l-1.003,0.354l-1.055,0.351l-1.23,0.352l-2.11,0.703l-1.055,0.176l-1.23,0.351l-1.055,0.176l-2.461,0.352l-1.055,-0l-1.231,0.176l-2.461,-0l-1.23,-0.176l-1.231,-0l-1.231,-0.176l-1.406,-0.176l-2.461,-0.351l-1.407,-0.352l-2.461,-0.703l-1.406,-0.528l-1.231,-0.351l-1.406,-0.528l-1.231,-0.527l-1.23,-0.703l-1.407,-0.527l-1.23,-0.704l-1.407,-0.703l-252.797,-145.912l-1.231,-0.879l-1.23,-0.703l-1.407,-0.879l-1.23,-0.879l-1.231,-1.055l-1.406,-0.879l-4.923,-4.219l-1.054,-1.231l-3.692,-3.692l-1.055,-1.23l-1.23,-1.231l-1.055,-1.406l-1.231,-1.407l-1.055,-1.23l-4.219,-5.626l-1.055,-1.582l-1.054,-1.406l-1.055,-1.582l-0.879,-1.407l-1.055,-1.582l-0.879,-1.582l-1.055,-1.407l-1.758,-3.164l-0.703,-1.231l-0.703,-1.406l-1.406,-2.461l-0.704,-1.406l-0.703,-1.231l-0.527,-1.231l-0.703,-1.406l-0.528,-1.231l-0.527,-1.406l-0.528,-1.231l-1.054,-2.812l-0.528,-1.231l-0.527,-1.406l-0.352,-1.407l-0.527,-1.23l-1.055,-4.219l-0.352,-1.231l-0.703,-2.813l-0.351,-1.23l-0.352,-2.813l-0.176,-1.231l-0.351,-1.406l-0,-1.406l-0.176,-1.231l-0.176,-1.406l0,-1.231l-0.176,-1.934l-0.176,-1.758l0,-1.758l-0.175,-1.934l-0,-3.516l-0.176,-1.757l-0,-5.099l-0.176,-1.758l0,-17.755l0.176,-1.582l-0,-2.989l0.176,-1.406l-0,-2.989l0.175,-1.406l0,-1.407l0.352,-2.812l0,-1.055l0.176,-0.879l0.176,-1.055l-0,-0.879l0.351,-0.879l0.528,-2.637l0.703,-1.758l0.351,-0.703l0.352,-0.879l1.055,-2.11l0.527,-0.703l0.352,-0.703l0.527,-0.703l0.528,-0.528l0.527,-0.703l2.11,-2.109l0.703,-0.528l0.527,-0.527l0.703,-0.352l0.704,-0.527l2.812,-1.407l1.758,-0.703l1.055,-0.351l0.879,-0.352l1.055,-0.176l0.879,-0.351l3.164,-0.528l1.055,0l1.055,-0.176l3.164,0l1.231,0.176l1.055,0l1.23,0.176l1.055,0.176l1.231,0.351l1.23,0.176l1.231,0.352l1.054,0.351l2.462,0.704l2.461,1.054l1.406,0.528l2.461,1.055l1.407,0.703l2.461,1.406c-0,0 252.797,145.912 252.797,145.912Z" style="fill:none;fill-rule:nonzero;stroke:#080605;stroke-width:4.17px;stroke-dasharray:8.33,12.5,0,0,0,0;"/><path d="M540.497,832.969c0,0 -254.209,-146.734 -252.797,-145.912c-13.621,-7.872 -24.668,-27.007 -24.674,-42.739c-0.118,-15.861 19.712,-16.506 24.752,-14.138l252.797,145.736c17.937,9.246 24.602,27.1 24.576,42.821c0.005,15.732 -11.032,22.104 -24.654,14.232Z" style="fill:none;fill-rule:nonzero;stroke:#080605;stroke-width:4.17px;stroke-dasharray:8.33,12.5,0,0,0,0;"/></g><g id="LEDs--moved-" serif:id="LEDs (moved)"><path d="M525.949,208.691l175.251,101.181c5.063,2.924 5.614,7.353 1.229,9.885c-4.386,2.532 -12.057,2.214 -17.121,-0.71l-175.251,-101.181c-5.064,-2.924 -5.614,-7.353 -1.229,-9.885c4.385,-2.532 12.057,-2.214 17.121,0.71Z" style="fill:none;stroke:#080605;stroke-width:4.17px;stroke-miterlimit:1.5;stroke-dasharray:8.33,12.5,0,0,0,0;stroke-dashoffset:4.17;"/><path d="M474.304,547.523l211.55,-122.139c5.064,-2.923 12.736,-3.241 17.121,-0.71c4.386,2.532 3.835,6.962 -1.229,9.885l-211.55,122.139c-5.064,2.923 -12.736,3.241 -17.121,0.709c-4.386,-2.532 -3.835,-6.961 1.229,-9.884Z" style="fill:none;stroke:#080605;stroke-width:4.17px;stroke-miterlimit:1.5;stroke-dasharray:8.33,12.5,0,0,0,0;stroke-dashoffset:4.17;"/><path d="M885.78,309.957l211.55,-122.138c5.064,-2.924 12.735,-3.242 17.121,-0.71c4.385,2.532 3.834,6.961 -1.229,9.885l-211.551,122.138c-5.063,2.924 -12.735,3.242 -17.12,0.71c-4.386,-2.532 -3.835,-6.961 1.229,-9.885Z" style="fill:none;stroke:#080605;stroke-width:4.17px;stroke-miterlimit:1.5;stroke-dasharray:8.33,12.5,0,0,0,0;stroke-dashoffset:4.17;"/><path d="M901.671,425.615l146.477,84.568c5.064,2.923 5.614,7.352 1.229,9.884c-4.386,2.532 -12.057,2.214 -17.121,-0.709l-146.476,-84.568c-5.064,-2.924 -5.615,-7.353 -1.229,-9.885c4.385,-2.532 12.057,-2.214 17.12,0.71Z" style="fill:none;stroke:#080605;stroke-width:4.17px;stroke-miterlimit:1.5;stroke-dasharray:8.33,12.5,0,0,0,0;stroke-dashoffset:4.17;"/></g></g></g><circle cx="1283.61" cy="719.292" r="11.811" style="fill:#3666b1;"/><circle cx="1133.52" cy="801.101" r="11.811" style="fill:#3666b1;"/><path d="M1133.52,801.119l37.736,-0l36.52,-36.52l320.004,-0" style="fill:none;stroke:#3666b1;stroke-width:4.17px;stroke-miterlimit:1.5;"/><circle cx="1202.34" cy="429.135" r="11.811" style="fill:#3666b1;"/><circle cx="913.937" cy="599.87" r="11.811" style="fill:#3666b1;"/><circle cx="1111.93" cy="546.62" r="11.811" style="fill:#3666b1;"/><path d="M1494.78,655.98l-141.622,0l-109.897,-109.897l-131.332,0.366" style="fill:none;stroke:#3666b1;stroke-width:4.17px;stroke-miterlimit:1.5;"/><circle cx="790.636" cy="374.741" r="11.811" style="fill:#3666b1;"/><circle cx="453.465" cy="167.373" r="11.811" style="fill:#3666b1;"/><circle cx="592.092" cy="252.346" r="11.811" style="fill:#3666b1;"/><circle cx="484.304" cy="368.331" r="11.811" style="fill:#3666b1;"/><circle cx="416.853" cy="265.077" r="11.811" style="fill:#3666b1;"/><path d="M74.151,105.186l243.623,-0l61.637,61.637l74.054,0.55" style="fill:none;stroke:#3666b1;stroke-width:4.17px;stroke-miterlimit:1.5;"/><path d="M591.092,252.691l-46.644,0l-42.286,-42.285l-424.011,-0" style="fill:none;stroke:#3666b1;stroke-width:4.17px;stroke-miterlimit:1.5;"/><path d="M416.853,265.077l-44.56,0l-51.18,51.18l-266.978,-0" style="fill:none;stroke:#3666b1;stroke-width:4.17px;stroke-miterlimit:1.5;"/><path d="M484.304,368.331l-103.742,0l-52.001,52.001l-274.41,0" style="fill:none;stroke:#3666b1;stroke-width:4.17px;stroke-miterlimit:1.5;"/><path d="M790.636,374.741l502.195,-0l70.025,70.024l131.921,0" style="fill:none;stroke:#3666b1;stroke-width:4.17px;stroke-miterlimit:1.5;"/><path d="M1202.34,429.135l36.656,-0l125.172,125.172l139.613,-0" style="fill:none;stroke:#3666b1;stroke-width:4.17px;stroke-miterlimit:1.5;"/><path d="M913.937,599.87l40.171,-0l114.69,-114.69l226.124,-0" style="fill:none;stroke:#3666b1;stroke-width:4.17px;stroke-miterlimit:1.5;"/><path d="M1283.61,719.292l29.892,-0l45.307,45.307" style="fill:none;stroke:#3666b1;stroke-width:4.17px;stroke-miterlimit:1.5;"/><g transform="matrix(0.698485,0,0,0.698485,-7408.77,-5224.6)"><g transform="matrix(59.6529,0,0,59.6529,11481.2,7860.97)"><path d="M0.172,-0.271l0.189,-0l0,-0.313c-0.007,0.013 -0.07,0.118 -0.189,0.313Zm0.188,0.271l0,-0.187l-0.308,-0l0,-0.078l0.288,-0.446l0.129,0l0,0.44l0.11,-0l0,0.084l-0.108,-0l-0,0.187l-0.111,0Z" style="fill:#3666b1;fill-rule:nonzero;"/></g><g transform="matrix(59.6529,0,0,59.6529,11517.8,7860.97)"><path d="M0.174,-0.063l-0.071,-0.07l0.135,-0.135l-0.135,-0.135l0.071,-0.071l0.135,0.136l0.135,-0.136l0.071,0.07l-0.136,0.136l0.136,0.135l-0.071,0.071l-0.135,-0.135l-0.135,0.135Z" style="fill:#3666b1;fill-rule:nonzero;"/></g><path d="M11517.4,7838.81l-1.899,-1.899l12.667,-12.667l8.061,8.089l8.06,-8.089l12.638,12.638c0,-0 -8.089,8.09 -8.089,8.09l8.097,8.068l-12.63,12.63l-8.076,-8.046l-8.062,8.032l-9.945,-9.876l-2.971,-0l0,11.156l-18.513,-0l-0,-5.966c-0,0 -0,-5.19 -0,-5.19l-18.38,-0l0,-12.355l19.901,-30.83l16.905,0l-0,26.215l2.236,0Zm4.317,8.021l1.852,-1.852l-1.852,-1.851l0,3.703Zm6.443,10.411l8.069,-8.039l8.068,8.039l4.194,-4.194l-8.097,-8.069l8.097,-8.097l-4.194,-4.194l-8.068,8.097l-8.069,-8.097l-4.223,4.223l8.068,8.068l-8.068,8.069l4.223,4.194Zm-25.457,3.728l6.583,0l-0,-11.156l6.466,0l0,-5.039l-6.554,0l0,-26.214l-7.689,-0l-17.185,26.622l-0,4.631l18.379,0l-0,11.156Zm-11.214,-16.195c7.049,-11.631 10.806,-17.845 11.272,-18.641l0,18.641l-11.272,0Z" style="fill:#fff;"/></g><g transform="matrix(0.698485,0,0,0.698485,-7514.03,-5110.51)"><g transform="matrix(59.6529,0,0,59.6529,11481.2,7860.97)"><path d="M0.172,-0.271l0.189,-0l0,-0.313c-0.007,0.013 -0.07,0.118 -0.189,0.313Zm0.188,0.271l0,-0.187l-0.308,-0l0,-0.078l0.288,-0.446l0.129,0l0,0.44l0.11,-0l0,0.084l-0.108,-0l-0,0.187l-0.111,0Z" style="fill:#3666b1;fill-rule:nonzero;"/></g><g transform="matrix(59.6529,0,0,59.6529,11517.8,7860.97)"><path d="M0.174,-0.063l-0.071,-0.07l0.135,-0.135l-0.135,-0.135l0.071,-0.071l0.135,0.136l0.135,-0.136l0.071,0.07l-0.136,0.136l0.136,0.135l-0.071,0.071l-0.135,-0.135l-0.135,0.135Z" style="fill:#3666b1;fill-rule:nonzero;"/></g><path d="M11517.4,7838.81l-1.899,-1.899l12.667,-12.667l8.061,8.089l8.06,-8.089l12.638,12.638c0,-0 -8.089,8.09 -8.089,8.09l8.097,8.068l-12.63,12.63l-8.076,-8.046l-8.062,8.032l-9.945,-9.876l-2.971,-0l0,11.156l-18.513,-0l-0,-5.966c-0,0 -0,-5.19 -0,-5.19l-18.38,-0l0,-12.355l19.901,-30.83l16.905,0l-0,26.215l2.236,0Zm10.76,18.432l8.069,-8.039l8.068,8.039l4.194,-4.194l-8.097,-8.069l8.097,-8.097l-4.194,-4.194l-8.068,8.097l-8.069,-8.097l-4.223,4.223l8.068,8.068l-8.068,8.069l4.223,4.194Zm-25.457,3.728l6.583,0l-0,-11.156l6.466,0l0,-5.039l-6.554,0l0,-26.214l-7.689,-0l-17.185,26.622l-0,4.631l18.379,0l-0,11.156Zm-11.214,-16.195c7.049,-11.631 10.806,-17.845 11.272,-18.641l0,18.641l-11.272,0Zm30.228,2.056l1.852,-1.852l-1.852,-1.851l0,3.703Z" style="fill:#fff;"/></g><g transform="matrix(0.698485,0,0,0.698485,-7581.74,-5215.46)"><g transform="matrix(59.6529,0,0,59.6529,11479.2,7860.97)"><path d="M0.141,-0l0,-0.089l0.131,0l0,-0.506c-0.036,0.019 -0.084,0.038 -0.143,0.059l0,-0.102c0.052,-0.018 0.106,-0.042 0.16,-0.073l0.096,0l-0,0.623l0.128,0l-0,0.088l-0.372,-0Z" style="fill:#3666b1;fill-rule:nonzero;"/></g><g transform="matrix(59.6529,0,0,59.6529,11515.8,7860.97)"><path d="M0.294,-0.723c0.065,-0 0.117,0.02 0.158,0.059c0.04,0.04 0.06,0.094 0.06,0.164c0,0.025 -0.003,0.049 -0.01,0.073c-0.006,0.023 -0.016,0.045 -0.029,0.067c-0.014,0.022 -0.028,0.041 -0.042,0.059c-0.014,0.017 -0.032,0.037 -0.054,0.06l-0.143,0.148l0.274,0l0,0.093l-0.411,-0l0,-0.084l0.209,-0.223c0.035,-0.038 0.06,-0.07 0.075,-0.098c0.015,-0.027 0.023,-0.056 0.023,-0.088c-0,-0.043 -0.011,-0.077 -0.032,-0.1c-0.021,-0.023 -0.05,-0.035 -0.087,-0.035c-0.01,0 -0.02,0.001 -0.03,0.002c-0.01,0.002 -0.02,0.004 -0.029,0.006c-0.009,0.003 -0.019,0.005 -0.028,0.008c-0.008,0.004 -0.017,0.007 -0.025,0.01c-0.007,0.004 -0.015,0.007 -0.022,0.01c-0.006,0.004 -0.013,0.007 -0.018,0.01c-0.005,0.003 -0.01,0.006 -0.014,0.009c-0.004,0.002 -0.007,0.004 -0.009,0.006l-0.003,0.002l-0.037,-0.089c0.003,-0.002 0.006,-0.004 0.011,-0.007c0.005,-0.003 0.014,-0.009 0.03,-0.017c0.015,-0.008 0.03,-0.015 0.047,-0.021c0.016,-0.006 0.036,-0.012 0.061,-0.017c0.025,-0.005 0.05,-0.007 0.075,-0.007Z" style="fill:#3666b1;fill-rule:nonzero;"/></g><g transform="matrix(59.6529,0,0,59.6529,11552.4,7860.97)"><path d="M0.174,-0.063l-0.071,-0.07l0.135,-0.135l-0.135,-0.135l0.071,-0.071l0.135,0.136l0.135,-0.136l0.071,0.07l-0.136,0.136l0.136,0.135l-0.071,0.071l-0.135,-0.135l-0.135,0.135Z" style="fill:#3666b1;fill-rule:nonzero;"/></g><path d="M11522.5,7833.1l-0.364,0.104l-3.222,1.841l-6.13,-14.792l3.285,-2.816c0.271,-0.232 0.678,-0.544 1.24,-0.912c0.36,-0.235 1.11,-0.669 2.265,-1.278c1.131,-0.596 2.305,-1.119 3.521,-1.569c1.204,-0.446 2.718,-0.868 4.548,-1.241c1.871,-0.381 3.754,-0.572 5.649,-0.572c5.597,0 10.095,1.826 13.583,5.244c3.478,3.408 5.402,8.029 5.402,14.004c0,1.338 -0.113,2.64 -0.336,3.906l10.777,-10.777l8.061,8.089l8.061,-8.089l12.638,12.638c-0,-0 -8.09,8.09 -8.09,8.09l8.097,8.068l-12.63,12.63l-8.076,-8.046l-8.061,8.032l-10.674,-10.6l0,11.88l-70.418,-0l-0,-17.232l7.835,-0c-0,-0 -0,-15.295 -0,-15.295c-0.201,0.071 -0.403,0.142 -0.608,0.213l-7.926,2.759l-0,-18.709l4.026,-1.383c2.773,-0.954 5.595,-2.259 8.471,-3.906l1.377,-0.788l13.29,0c-0,0 -0,37.167 -0,37.167l7.631,-0l0,3.669l13.918,-14.863l0.004,-0.004c1.684,-1.792 2.919,-3.308 3.63,-4.606c0.405,-0.739 0.606,-1.532 0.606,-2.377c0,-0.83 0.061,-1.53 -0.342,-1.973c-0.176,-0.195 -0.463,-0.13 -0.77,-0.13c-0.309,-0 -0.624,0.025 -0.948,0.071c-0.376,0.053 -0.734,0.123 -1.073,0.213c-0.408,0.107 -0.808,0.229 -1.202,0.364c-0.376,0.13 -0.728,0.266 -1.057,0.41c-0.367,0.161 -0.712,0.321 -1.034,0.482c-0.292,0.146 -0.553,0.284 -0.783,0.417c-0.249,0.143 -0.464,0.271 -0.645,0.384c0.063,-0.04 0.101,-0.086 0.133,-0.112l3.053,-2.544l-6.872,3.926c-0,0 0.056,0.009 0.16,0.013Zm-0,0l2.794,-0.795c-1.345,0.768 -2.406,0.811 -2.794,0.795Zm40.211,24.14l8.068,-8.039l8.068,8.039l4.195,-4.194l-8.098,-8.069l8.098,-8.097l-4.195,-4.194l-8.068,8.097l-8.068,-8.097l-4.224,4.223l8.068,8.068l-8.068,8.069l4.224,4.194Zm-10.667,-6.188l6.075,-6.075l-6.94,-6.939c-0.522,1.572 -1.236,3.1 -2.149,4.579c-0.941,1.527 -1.919,2.908 -2.929,4.148c-0.664,0.814 -1.449,1.715 -2.36,2.704l8.303,-0l0,1.583Zm-18.752,-33.221c-1.495,-0 -2.981,0.15 -4.457,0.451c-1.475,0.301 -2.699,0.631 -3.67,0.99c-0.971,0.36 -1.907,0.777 -2.81,1.253c-0.903,0.476 -1.496,0.806 -1.777,0.99c-0.282,0.185 -0.491,0.335 -0.626,0.452l2.184,5.272l0.204,-0.117c0.117,-0.097 0.291,-0.218 0.524,-0.364c0.233,-0.146 0.51,-0.311 0.83,-0.495c0.321,-0.185 0.685,-0.379 1.093,-0.583c0.407,-0.204 0.844,-0.407 1.31,-0.611c0.466,-0.204 0.966,-0.398 1.5,-0.583c0.534,-0.184 1.078,-0.349 1.632,-0.495c0.553,-0.146 1.136,-0.262 1.747,-0.35c0.612,-0.087 1.209,-0.131 1.792,-0.131c2.194,0 3.922,0.695 5.184,2.083c1.262,1.388 1.894,3.384 1.894,5.986c-0,1.864 -0.447,3.611 -1.34,5.243c-0.894,1.631 -2.398,3.573 -4.515,5.825l-12.437,13.282l-0,5.039l24.525,0l-0,-5.534l-16.341,0l8.506,-8.826c1.301,-1.359 2.378,-2.563 3.233,-3.611c0.854,-1.049 1.679,-2.219 2.476,-3.51c0.796,-1.292 1.388,-2.631 1.776,-4.02c0.389,-1.388 0.583,-2.84 0.583,-4.354c-0,-4.136 -1.204,-7.384 -3.612,-9.743c-2.408,-2.36 -5.544,-3.539 -9.408,-3.539Zm-45.701,43.137l22.166,0l-0,-5.243l-7.631,0l-0,-37.166l-5.739,-0c-3.223,1.844 -6.388,3.301 -9.495,4.369l-0,6.058c3.515,-1.223 6.359,-2.388 8.534,-3.495l0,30.176l-7.835,0l-0,5.301Z" style="fill:#fff;"/></g><g><ellipse cx="64.151" cy="104.961" rx="35.433" ry="35.208" style="fill:#3666b1;"/><path d="M64.151,69.753c19.556,-0 35.433,15.776 35.433,35.208c0,19.432 -15.877,35.209 -35.433,35.209c-19.556,-0 -35.433,-15.777 -35.433,-35.209c0,-19.432 15.877,-35.208 35.433,-35.208Zm0,25c-5.714,-0 -10.433,4.53 -10.433,10.208c0,5.679 4.719,10.209 10.433,10.209c5.715,-0 10.433,-4.53 10.433,-10.209c0,-5.678 -4.718,-10.208 -10.433,-10.208Z" style="fill:#3666b1;"/><path d="M57.254,120.129l0,-3.703l5.473,0l0,-21.077c-1.519,0.773 -3.506,1.587 -5.961,2.441l0,-4.231c2.17,-0.746 4.381,-1.764 6.633,-3.052l4.007,-0l0,25.96l5.331,0l-0,3.662l-15.483,0Z" style="fill:#fff;fill-rule:nonzero;"/></g><g><ellipse cx="64.151" cy="210.393" rx="35.433" ry="35.208" style="fill:#3666b1;"/><path d="M64.151,175.184c19.556,0 35.433,15.777 35.433,35.209c0,19.432 -15.877,35.208 -35.433,35.208c-19.556,0 -35.433,-15.776 -35.433,-35.208c0,-19.432 15.877,-35.209 35.433,-35.209Zm0,25c-5.714,0 -10.433,4.53 -10.433,10.209c0,5.678 4.719,10.208 10.433,10.208c5.715,0 10.433,-4.53 10.433,-10.208c0,-5.679 -4.718,-10.209 -10.433,-10.209Z" style="fill:#3666b1;"/><path d="M63.622,195.43c2.699,-0 4.89,0.824 6.572,2.472c1.682,1.648 2.523,3.916 2.523,6.805c-0,1.058 -0.136,2.072 -0.407,3.042c-0.272,0.969 -0.685,1.905 -1.241,2.807c-0.556,0.902 -1.133,1.719 -1.73,2.452c-0.597,0.732 -1.349,1.573 -2.258,2.523l-5.941,6.164l11.414,0l-0,3.866l-17.131,-0l0,-3.52l8.688,-9.277c1.478,-1.574 2.529,-2.93 3.153,-4.069c0.624,-1.14 0.936,-2.36 0.936,-3.662c-0,-1.818 -0.441,-3.212 -1.322,-4.181c-0.882,-0.97 -2.089,-1.455 -3.622,-1.455c-0.407,-0 -0.824,0.03 -1.251,0.091c-0.427,0.062 -0.834,0.143 -1.221,0.245c-0.386,0.101 -0.766,0.217 -1.139,0.346c-0.373,0.128 -0.722,0.264 -1.048,0.406c-0.325,0.143 -0.631,0.285 -0.915,0.428c-0.285,0.142 -0.54,0.278 -0.763,0.407c-0.224,0.128 -0.417,0.244 -0.58,0.345c-0.163,0.102 -0.285,0.187 -0.366,0.255l-0.143,0.081l-1.526,-3.682c0.095,-0.082 0.241,-0.187 0.438,-0.316c0.196,-0.129 0.61,-0.359 1.241,-0.691c0.63,-0.333 1.285,-0.624 1.963,-0.875c0.678,-0.251 1.533,-0.482 2.564,-0.692c1.03,-0.21 2.068,-0.315 3.112,-0.315Z" style="fill:#fff;fill-rule:nonzero;"/></g><g><ellipse cx="64.151" cy="315.824" rx="35.433" ry="35.208" style="fill:#3666b1;"/><path d="M64.151,280.616c19.556,-0 35.433,15.776 35.433,35.208c0,19.432 -15.877,35.209 -35.433,35.209c-19.556,-0 -35.433,-15.777 -35.433,-35.209c0,-19.432 15.877,-35.208 35.433,-35.208Zm0,25c-5.714,-0 -10.433,4.53 -10.433,10.208c0,5.679 4.719,10.209 10.433,10.209c5.715,-0 10.433,-4.53 10.433,-10.209c0,-5.678 -4.718,-10.208 -10.433,-10.208Z" style="fill:#3666b1;"/><path d="M63.704,331.46c-1.207,0 -2.364,-0.098 -3.469,-0.295c-1.106,-0.197 -2.048,-0.461 -2.828,-0.793c-0.78,-0.333 -1.323,-0.577 -1.628,-0.733c-0.305,-0.156 -0.6,-0.322 -0.885,-0.498l-0.04,-0.021l1.403,-3.56c2.523,1.261 4.795,1.892 6.816,1.892c1.872,0 3.333,-0.441 4.384,-1.322c1.052,-0.882 1.577,-2.096 1.577,-3.642c0,-1.682 -0.675,-2.933 -2.024,-3.754c-1.35,-0.82 -3.225,-1.231 -5.626,-1.231l-0.447,0l-1.343,0.041l-0.041,-3.967l1.384,-0c2.59,-0 4.455,-0.366 5.595,-1.099c1.139,-0.732 1.709,-2.028 1.709,-3.886c-0,-0.814 -0.268,-1.512 -0.804,-2.095c-0.536,-0.583 -1.2,-1.007 -1.994,-1.272c-0.793,-0.264 -1.651,-0.397 -2.573,-0.397c-0.746,0 -1.448,0.065 -2.106,0.194c-0.658,0.129 -1.279,0.335 -1.862,0.62c-0.583,0.285 -1.003,0.505 -1.261,0.661c-0.258,0.156 -0.617,0.397 -1.078,0.723c-0.082,0.054 -0.143,0.095 -0.184,0.122l-2.095,-3.276c1.397,-1.085 2.763,-1.865 4.099,-2.339c1.336,-0.475 3.035,-0.713 5.097,-0.713c1.221,0 2.387,0.163 3.499,0.489c1.112,0.325 2.116,0.797 3.011,1.414c0.896,0.617 1.611,1.424 2.147,2.421c0.535,0.997 0.803,2.119 0.803,3.367c0,1.695 -0.468,3.187 -1.403,4.476c-0.936,1.288 -2.299,2.102 -4.09,2.441c1.94,0.366 3.455,1.204 4.547,2.513c1.092,1.309 1.638,2.885 1.638,4.73c0,1.777 -0.458,3.343 -1.373,4.7c-0.916,1.356 -2.119,2.377 -3.611,3.062c-1.492,0.685 -3.14,1.027 -4.944,1.027Z" style="fill:#fff;fill-rule:nonzero;"/></g><g><ellipse cx="64.151" cy="421.256" rx="35.433" ry="35.208" style="fill:#3666b1;"/><path d="M64.151,386.047c19.556,0 35.433,15.777 35.433,35.209c0,19.432 -15.877,35.208 -35.433,35.208c-19.556,0 -35.433,-15.776 -35.433,-35.208c0,-19.432 15.877,-35.209 35.433,-35.209Zm0,25c-5.714,0 -10.433,4.53 -10.433,10.209c0,5.678 4.719,10.208 10.433,10.208c5.715,0 10.433,-4.53 10.433,-10.208c0,-5.679 -4.718,-10.209 -10.433,-10.209Z" style="fill:#3666b1;"/><path d="M58.556,425.112l7.874,-0l-0,-13.021c-0.326,0.556 -2.95,4.896 -7.874,13.021Zm7.833,11.312l0,-7.792l-12.837,-0l-0,-3.235l12.003,-18.596l5.371,0l0,18.311l4.578,-0l-0,3.52l-4.517,-0l0,7.792l-4.598,-0Z" style="fill:#fff;fill-rule:nonzero;"/></g><g><ellipse cx="1514.78" cy="445.094" rx="35.433" ry="35.208" style="fill:#3666b1;"/><path d="M1514.57,460.73c-1.722,0 -3.39,-0.319 -5.004,-0.956c-1.614,-0.638 -3.032,-1.594 -4.253,-2.869l2.381,-3.499c0.949,1.112 2.014,1.943 3.194,2.492c1.18,0.549 2.374,0.824 3.581,0.824c1.682,0 3.058,-0.546 4.13,-1.638c1.071,-1.092 1.607,-2.587 1.607,-4.486c0,-1.56 -0.403,-2.885 -1.211,-3.977c-0.807,-1.092 -1.902,-1.638 -3.285,-1.638c-0.814,0 -1.577,0.132 -2.289,0.397c-0.712,0.264 -1.244,0.654 -1.597,1.17l-4.578,-0.489l0,-15.421l16.256,-0l-0,4.008l-12.065,-0l-0.244,8.117c1.085,-1.302 2.842,-1.953 5.27,-1.953c2.427,0 4.458,0.943 6.093,2.828c1.634,1.886 2.451,4.232 2.451,7.04c0,1.559 -0.278,2.98 -0.834,4.262c-0.556,1.282 -1.312,2.34 -2.268,3.174c-0.956,0.834 -2.065,1.478 -3.327,1.933c-1.261,0.454 -2.597,0.681 -4.008,0.681Z" style="fill:#fff;fill-rule:nonzero;"/></g><g><ellipse cx="1514.78" cy="550.526" rx="35.433" ry="35.208" style="fill:#3666b1;"/><path d="M1515.67,562.154c1.573,-0 2.835,-0.567 3.784,-1.699c0.95,-1.133 1.424,-2.567 1.424,-4.303c0,-1.777 -0.437,-3.228 -1.312,-4.354c-0.875,-1.126 -2.126,-1.689 -3.754,-1.689c-1.681,0 -3.034,0.543 -4.058,1.628c-1.024,1.085 -1.536,2.475 -1.536,4.171c-0,1.899 0.525,3.414 1.576,4.547c1.052,1.132 2.343,1.699 3.876,1.699Zm0.061,4.008c-2.36,-0 -4.354,-0.621 -5.981,-1.862c-1.628,-1.241 -2.825,-2.94 -3.591,-5.096c-0.767,-2.157 -1.15,-4.714 -1.15,-7.671c0,-2.224 0.255,-4.296 0.763,-6.215c0.509,-1.919 1.241,-3.611 2.197,-5.076c0.957,-1.465 2.194,-2.618 3.713,-3.459c1.52,-0.841 3.229,-1.261 5.127,-1.261c3.025,-0 5.453,0.841 7.284,2.523l-1.546,3.479c-1.682,-1.329 -3.581,-1.994 -5.697,-1.994c-1.397,-0 -2.618,0.464 -3.662,1.394c-1.044,0.929 -1.831,2.139 -2.36,3.631c-0.529,1.492 -0.834,3.181 -0.916,5.066c1.533,-2.224 3.663,-3.337 6.389,-3.337c2.821,0 5.093,0.889 6.815,2.666c1.723,1.776 2.584,4.157 2.584,7.141c0,2.916 -0.909,5.323 -2.726,7.222c-1.818,1.899 -4.232,2.849 -7.243,2.849Z" style="fill:#fff;fill-rule:nonzero;"/></g><g><ellipse cx="1514.78" cy="655.957" rx="35.433" ry="35.208" style="fill:#3666b1;"/><path d="M1508.73,671.125l10.804,-25.757l-14.344,0l0,-3.865l19.715,-0l-0,3.54l-11.17,26.082l-5.005,0Z" style="fill:#fff;fill-rule:nonzero;"/></g><g><ellipse cx="1514.78" cy="761.389" rx="35.433" ry="35.208" style="fill:#3666b1;"/><path d="M1514.8,759.223c1.479,-0.394 2.632,-1.038 3.459,-1.933c0.827,-0.895 1.241,-1.98 1.241,-3.255c-0,-1.167 -0.451,-2.086 -1.353,-2.757c-0.902,-0.671 -2.024,-1.007 -3.367,-1.007c-1.384,-0 -2.513,0.336 -3.388,1.007c-0.874,0.671 -1.312,1.644 -1.312,2.919c0,1.221 0.421,2.276 1.262,3.164c0.841,0.888 1.993,1.509 3.458,1.862Zm0.021,13.895c1.627,0 2.919,-0.39 3.875,-1.17c0.957,-0.779 1.435,-1.936 1.435,-3.468c-0,-1.289 -0.502,-2.469 -1.506,-3.54c-1.004,-1.072 -2.245,-1.784 -3.723,-2.137c-1.573,0.339 -2.859,1.024 -3.855,2.055c-0.997,1.031 -1.496,2.252 -1.496,3.662c0,1.465 0.475,2.598 1.424,3.398c0.95,0.8 2.232,1.2 3.846,1.2Zm0.04,3.907c-2.875,-0 -5.262,-0.75 -7.161,-2.249c-1.899,-1.498 -2.848,-3.543 -2.848,-6.134c-0,-1.695 0.484,-3.207 1.454,-4.537c0.97,-1.329 2.309,-2.36 4.018,-3.092c-1.505,-0.732 -2.689,-1.675 -3.55,-2.828c-0.861,-1.153 -1.292,-2.509 -1.292,-4.069c0,-2.374 0.868,-4.255 2.604,-5.646c1.736,-1.39 3.961,-2.085 6.674,-2.085c2.848,-0 5.123,0.702 6.825,2.106c1.703,1.403 2.554,3.326 2.554,5.767c-0,1.587 -0.424,2.957 -1.272,4.11c-0.848,1.153 -2.018,2.055 -3.509,2.706c1.6,0.692 2.905,1.733 3.916,3.123c1.01,1.39 1.516,2.913 1.516,4.567c-0,1.289 -0.272,2.466 -0.814,3.53c-0.543,1.065 -1.278,1.937 -2.208,2.615c-0.929,0.678 -1.983,1.2 -3.163,1.566c-1.18,0.366 -2.428,0.55 -3.744,0.55Z" style="fill:#fff;fill-rule:nonzero;"/></g></svg>