<?xml version="1.0" encoding="UTF-8" standalone="no"?><!DOCTYPE svg PUBLIC "-//W3C//DTD SVG 1.1//EN" "http://www.w3.org/Graphics/SVG/1.1/DTD/svg11.dtd"><svg width="100%" height="100%" viewBox="0 0 1580 1038" version="1.1" xmlns="http://www.w3.org/2000/svg" xmlns:xlink="http://www.w3.org/1999/xlink" xml:space="preserve" xmlns:serif="http://www.serif.com/" style="fill-rule:evenodd;clip-rule:evenodd;stroke-linecap:round;stroke-linejoin:round;stroke-miterlimit:10;"><rect id="Bottom-Features" serif:id="Bottom Features" x="0.364" y="0.051" width="1579.22" height="1037.5" style="fill:none;"/><g id="Bottom"><g id="Color-sensor" serif:id="Color sensor"><path d="M728.546,895.272l-6.989,4.193l15.901,9.087l7.164,-4.019l-16.076,-9.261" style="fill:none;fill-rule:nonzero;stroke:#000;stroke-width:4.17px;"/><path d="M1224.29,609.045l15.901,9.261l7.165,-4.194l-15.902,-9.086l-7.164,4.019" style="fill:none;fill-rule:nonzero;stroke:#000;stroke-width:4.17px;"/><path d="M1208.04,618.481l16.076,9.086l6.99,-4.019l-15.902,-9.261l-7.164,4.194" style="fill:none;fill-rule:nonzero;stroke:#000;stroke-width:4.17px;"/><path d="M1191.96,627.742l15.901,9.262l6.99,-4.194l-15.902,-9.087l-6.989,4.019" style="fill:none;fill-rule:nonzero;stroke:#000;stroke-width:4.17px;"/><path d="M1175.71,637.178l15.901,9.262l7.165,-4.194l-16.077,-9.262l-6.989,4.194" style="fill:none;fill-rule:nonzero;stroke:#000;stroke-width:4.17px;"/><path d="M1159.46,646.614l15.901,9.087l7.165,-4.019l-15.902,-9.262l-7.164,4.194" style="fill:none;fill-rule:nonzero;stroke:#000;stroke-width:4.17px;"/><path d="M1143.21,655.876l15.901,9.261l7.165,-4.194l-15.902,-9.086l-7.164,4.019" style="fill:none;fill-rule:nonzero;stroke:#000;stroke-width:4.17px;"/><path d="M1126.96,665.312l15.901,9.086l7.165,-4.019l-15.902,-9.261l-7.164,4.194" style="fill:none;fill-rule:nonzero;stroke:#000;stroke-width:4.17px;"/><path d="M1110.71,674.573l16.076,9.261l6.99,-4.194l-15.902,-9.086l-7.164,4.019" style="fill:none;fill-rule:nonzero;stroke:#000;stroke-width:4.17px;"/><path d="M1094.63,684.009l15.901,9.261l7.165,-4.194l-16.077,-9.261l-6.989,4.194" style="fill:none;fill-rule:nonzero;stroke:#000;stroke-width:4.17px;"/><path d="M1078.38,693.27l15.901,9.262l7.165,-4.019l-15.902,-9.262l-7.164,4.019" style="fill:none;fill-rule:nonzero;stroke:#000;stroke-width:4.17px;"/><path d="M1062.13,702.706l15.901,9.262l7.165,-4.194l-15.902,-9.087l-7.164,4.019" style="fill:none;fill-rule:nonzero;stroke:#000;stroke-width:4.17px;"/><path d="M1045.88,712.142l15.901,9.087l7.165,-4.019l-15.902,-9.261l-7.164,4.193" style="fill:none;fill-rule:nonzero;stroke:#000;stroke-width:4.17px;"/><path d="M1029.63,721.404l15.901,9.261l7.165,-4.194l-15.902,-9.086l-7.164,4.019" style="fill:none;fill-rule:nonzero;stroke:#000;stroke-width:4.17px;"/><path d="M1013.38,730.84l16.076,9.261l6.99,-4.194l-15.902,-9.261l-7.164,4.194" style="fill:none;fill-rule:nonzero;stroke:#000;stroke-width:4.17px;"/><path d="M997.299,740.101l15.901,9.261l7.165,-4.019l-16.077,-9.261l-6.989,4.019" style="fill:none;fill-rule:nonzero;stroke:#000;stroke-width:4.17px;"/><path d="M981.048,749.537l15.901,9.261l7.165,-4.193l-15.902,-9.087l-7.164,4.019" style="fill:none;fill-rule:nonzero;stroke:#000;stroke-width:4.17px;"/><path d="M964.797,758.973l15.901,9.087l7.165,-4.019l-15.902,-9.262l-7.164,4.194" style="fill:none;fill-rule:nonzero;stroke:#000;stroke-width:4.17px;"/><path d="M948.546,768.234l15.901,9.262l7.165,-4.194l-15.902,-9.087l-7.164,4.019" style="fill:none;fill-rule:nonzero;stroke:#000;stroke-width:4.17px;"/><path d="M932.295,777.67l16.076,9.087l6.99,-4.019l-15.902,-9.261l-7.164,4.193" style="fill:none;fill-rule:nonzero;stroke:#000;stroke-width:4.17px;"/><path d="M916.219,786.932l15.901,9.261l6.99,-4.019l-15.902,-9.261l-6.989,4.019" style="fill:none;fill-rule:nonzero;stroke:#000;stroke-width:4.17px;"/><path d="M899.968,796.368l15.901,9.261l7.165,-4.194l-16.077,-9.261l-6.989,4.194" style="fill:none;fill-rule:nonzero;stroke:#000;stroke-width:4.17px;"/><path d="M883.717,805.804l15.901,9.086l7.165,-4.019l-15.902,-9.261l-7.164,4.194" style="fill:none;fill-rule:nonzero;stroke:#000;stroke-width:4.17px;"/><path d="M867.466,815.065l15.901,9.261l7.165,-4.193l-15.902,-9.087l-7.164,4.019" style="fill:none;fill-rule:nonzero;stroke:#000;stroke-width:4.17px;"/><path d="M851.215,824.501l15.901,9.087l7.165,-4.019l-15.902,-9.262l-7.164,4.194" style="fill:none;fill-rule:nonzero;stroke:#000;stroke-width:4.17px;"/><path d="M834.964,833.762l16.076,9.262l6.99,-4.019l-15.902,-9.262l-7.164,4.019" style="fill:none;fill-rule:nonzero;stroke:#000;stroke-width:4.17px;"/><path d="M818.888,843.199l15.901,9.261l7.164,-4.194l-16.076,-9.261l-6.989,4.194" style="fill:none;fill-rule:nonzero;stroke:#000;stroke-width:4.17px;"/><path d="M802.637,852.635l15.901,9.086l7.164,-4.019l-16.076,-9.261l-6.989,4.194" style="fill:none;fill-rule:nonzero;stroke:#000;stroke-width:4.17px;"/><path d="M786.386,861.896l15.901,9.261l7.165,-4.194l-15.902,-9.086l-7.164,4.019" style="fill:none;fill-rule:nonzero;stroke:#000;stroke-width:4.17px;"/><path d="M770.135,871.332l15.901,9.086l7.165,-4.019l-15.902,-9.261l-7.164,4.194" style="fill:none;fill-rule:nonzero;stroke:#000;stroke-width:4.17px;"/><path d="M753.884,880.593l15.901,9.262l7.165,-4.194l-15.902,-9.087l-7.164,4.019" style="fill:none;fill-rule:nonzero;stroke:#000;stroke-width:4.17px;"/><path d="M737.633,890.029l16.076,9.262l6.99,-4.194l-15.902,-9.262l-7.164,4.194" style="fill:none;fill-rule:nonzero;stroke:#000;stroke-width:4.17px;"/><path d="M1204.72,597.162l-506.925,292.693l10.135,5.941l516.011,-297.935" style="fill:none;fill-rule:nonzero;stroke:#000;stroke-width:4.17px;"/></g><path d="M697.792,889.855l506.925,-292.693" style="fill:none;fill-rule:nonzero;stroke:#000;stroke-width:4.17px;"/><path d="M365.783,347.806l13.105,64.48l0.175,0.349l0,0.175l0.175,0.35l-0,0.174l0.175,0.35l-0,0.175l0.174,0.349l0.175,0.175l0,0.175l0.175,0.174l1.223,2.447l0.524,0.524l0.175,0.349l2.097,2.097l0.349,0.175l0.35,0.349l0.349,0.175" style="fill:none;fill-rule:nonzero;stroke:#000;stroke-width:4.17px;"/><path d="M361.239,228.283l0,1.573l-0.174,1.572l-0,1.748l-0.175,1.572l-0,73.916l0.175,1.398l-0,1.398l0.174,1.398l0,1.398l0.175,1.398l0,1.398l0.175,1.398l-0,1.572l0.524,4.194l0.175,1.573l0.349,2.796l0.175,1.572l0.35,2.796l0.174,1.573l0.35,1.398l0.175,1.572l0.174,1.398l0.35,1.573l0.175,1.398l0.349,1.573l0.35,1.398l0.174,1.572l0.35,1.398" style="fill:none;fill-rule:nonzero;stroke:#000;stroke-width:4.17px;"/><path d="M385.004,420.848l1.224,0.699" style="fill:none;fill-rule:nonzero;stroke:#000;stroke-width:4.17px;"/><path d="M386.577,421.722l1.398,0.699l0.349,-0l0.35,0.175l0.699,-0l0.175,0.174l0.349,0l0.35,-0.174l0.524,-0l0.349,-0.175l0.35,-0l0.174,-0.175" style="fill:none;fill-rule:nonzero;stroke:#000;stroke-width:4.17px;"/><path d="M823.149,61.003c0.001,0 0.002,0 0.003,-0" style="fill:none;fill-rule:nonzero;stroke:#000;stroke-width:4.17px;"/><path d="M381.16,147.028l-0.175,0.175l-0.174,-0l-0.175,0.175l-0.175,-0l-0.175,0.174l0,0.175l-0.524,0.524l0,0.175l-0.175,0.175l0,0.175l-0.349,0.349l-0,0.175l-0.524,1.747" style="fill:none;fill-rule:nonzero;stroke:#000;stroke-width:4.17px;"/><path d="M826.331,338.597c-0.001,0.001 -0.002,0.001 -0.002,0.001" style="fill:none;fill-rule:nonzero;stroke:#000;stroke-width:4.17px;"/><path d="M1039.37,371.404c-0.002,-0.001 -0.003,-0.002 -0.005,-0.003" style="fill:none;fill-rule:nonzero;stroke:#000;stroke-width:4.17px;"/><path d="M1049.77,96.173c0.001,0.001 0.003,0.002 0.005,0.003" style="fill:none;fill-rule:nonzero;stroke:#000;stroke-width:4.17px;"/><path d="M1235.65,880.768l0,-0" style="fill:none;fill-rule:nonzero;stroke:#000;stroke-width:4.17px;"/><path d="M1273.39,834.636l0,0" style="fill:none;fill-rule:nonzero;stroke:#000;stroke-width:4.17px;stroke-linejoin:bevel;"/><path d="M381.16,147.028l1.747,-0.874l1.923,-1.048l3.494,-1.747l7.34,-3.495l1.223,-0.524l1.223,-0.699l4.893,-2.097l1.398,-0.525l1.223,-0.698l2.446,-1.049l1.398,-0.524l2.447,-1.049l1.397,-0.524l1.224,-0.349l1.398,-0.525l1.223,-0.524l1.398,-0.524l1.223,-0.524l1.398,-0.35l1.398,-0.524l1.223,-0.524l1.398,-0.35l2.796,-1.048l1.223,-0.35l1.398,-0.524l1.398,-0.349l1.398,-0.524l1.398,-0.35l1.398,-0.524l2.795,-0.699l1.398,-0.524l4.194,-1.049l1.398,-0.524l4.194,-1.049l1.573,-0.349l5.591,-1.398l1.573,-0.349l2.796,-0.699l1.573,-0.175l1.397,-0.35l1.573,-0.349l1.398,-0.35l1.398,-0.174l1.573,-0.35l1.398,-0.349l1.572,-0.175l1.398,-0.349l1.573,-0.175l1.398,-0.35l1.572,-0.174l1.573,-0.35l1.398,-0.175l1.573,-0.174l339.173,-52.598" style="fill:none;fill-rule:nonzero;stroke:#000;stroke-width:4.17px;"/><path d="M362.812,202.596c-1.12,11.329 -1.191,16.377 -1.456,24.403l-0.117,1.284" style="fill:none;fill-rule:nonzero;stroke:#000;stroke-width:4.17px;"/><path d="M1039.59,371.396l-1.223,-0.699l-1.398,-0.699l-2.446,-1.398l-1.398,-0.698l-1.223,-0.699l-2.796,-1.398l-1.224,-0.699l-1.397,-0.699l-1.398,-0.525l-4.194,-2.096l-1.398,-0.525l-2.796,-1.398l-1.398,-0.524l-1.398,-0.699l-1.573,-0.524l-1.397,-0.524l-1.398,-0.699l-1.573,-0.524l-1.398,-0.525l-1.573,-0.699l-1.398,-0.524l-4.718,-1.573l-1.398,-0.698l-3.145,-1.049l-1.573,-0.349l-7.863,-2.622l-1.747,-0.349l-3.146,-1.048l-1.572,-0.35l-1.748,-0.524l-1.572,-0.35l-1.748,-0.524l-3.145,-0.699l-1.748,-0.524l-1.747,-0.35l-1.573,-0.349l-1.747,-0.35l-1.573,-0.349l-1.747,-0.524l-3.495,-0.699l-1.573,-0.175l-6.989,-1.398l-1.748,-0.175l-3.495,-0.699l-1.747,-0.174l-1.748,-0.35l-1.747,-0.175l-1.747,-0.349l-3.495,-0.35l-1.748,-0.349l-3.494,-0.349l-1.923,-0.175l-1.747,-0.175l-1.747,-0.349l-1.748,-0.175l-1.747,-0l-1.922,-0.175l-5.243,-0.524l-1.922,-0l-3.495,-0.35l-1.922,0l-1.747,-0.174l-1.748,-0l-1.922,-0.175l-3.669,-0l-1.748,-0.175l-18.173,0l-1.747,0.175l-3.67,-0l-1.747,0.175l-1.748,-0l-1.922,0.174l-1.747,0l-1.748,0.175l-1.922,0.175l-1.747,-0l-1.748,0.175l-1.922,0.174l-3.495,0.35l-1.747,-0l-1.922,0.175l-1.748,0.349l-6.989,0.699l-1.922,0.349l-3.495,0.35l-1.748,0.349l-1.747,0.175l-1.748,0.35l-339.173,52.422l-1.747,0.175l-1.573,0.349l-1.747,0.35l-1.573,0.175l-3.495,0.699l-1.573,0.174l-1.747,0.35l-3.145,0.699l-1.748,0.349l-3.145,0.699l-1.748,0.35l-3.145,0.699l-1.573,0.524l-1.747,0.349l-3.145,0.699l-1.573,0.525l-1.573,0.349l-1.572,0.524l-1.573,0.35l-1.573,0.524l-1.572,0.349l-1.573,0.525l-1.398,0.349l-4.718,1.573l-1.398,0.349l-3.145,1.049l-1.398,0.524l-1.573,0.524l-2.796,1.049l-1.572,0.524l-2.796,1.048l-1.573,0.525l-1.398,0.699l-2.796,1.048l-1.398,0.699l-2.796,1.048l-1.397,0.699l-1.398,0.525l-1.398,0.699l-1.224,0.524l-1.397,0.699l-1.398,0.524l-1.224,0.699l-1.398,0.699l-1.223,0.524l-1.398,0.699l-2.446,1.398l-1.398,0.524l-3.67,2.097" style="fill:none;fill-rule:nonzero;stroke:#000;stroke-width:4.17px;"/><path d="M1039.76,371.571l251.103,144.861" style="fill:none;fill-rule:nonzero;stroke:#000;stroke-width:4.17px;"/><path d="M1301.35,241.563l2.796,1.748l1.573,0.874l5.591,3.494l1.223,0.874l1.398,0.874l1.398,1.048l1.223,0.874l1.398,0.874l1.224,1.048l1.398,0.874l1.223,0.873l1.223,1.049l1.398,0.874l2.446,2.097l1.223,0.873l1.049,1.049l1.223,1.048l1.223,0.874l1.049,1.048l1.223,1.049l1.048,1.048l1.224,1.049l7.339,7.339l0.873,1.223l2.097,2.097l0.874,1.048l0.874,1.224l1.048,1.048l0.874,1.223l0.874,1.049l0.873,1.223l0.874,1.048l0.699,1.223l0.874,1.049l0.873,1.223l0.699,1.049l0.874,1.223l1.398,2.446l0.699,1.049l2.796,4.892l0.524,1.049l0.699,1.223l0.524,1.223l0.699,1.223l1.573,3.67l2.621,6.99" style="fill:none;fill-rule:nonzero;stroke:#000;stroke-width:4.17px;"/><path d="M823.256,61.055l1.922,-0.174l1.748,-0.35l1.922,-0.175l1.922,-0.349l1.747,-0.175l1.923,-0.349l1.922,-0.175l1.747,-0.175l3.844,-0.349l1.923,-0.35l1.747,-0.174l3.844,-0.35l1.922,0l3.845,-0.349l1.747,-0.175l1.922,-0.175l1.923,0l1.922,-0.175l1.922,0l1.922,-0.174l1.922,-0l1.922,-0.175l3.845,-0l1.922,-0.175l15.202,0l1.922,0.175l3.845,-0l1.922,0.175l1.922,-0l1.748,0.174l1.922,0l1.922,0.175l1.922,0l7.689,0.699l1.747,0l5.766,0.524l1.923,0.35l1.747,0.174l5.767,0.525l1.747,0.349l1.922,0.175l1.922,0.349l1.748,0.175l1.922,0.35l1.747,0.174l3.845,0.699l1.747,0.35l1.922,0.175l1.748,0.349l1.922,0.35l3.495,0.698l1.922,0.35l3.495,0.699l1.922,0.524l3.495,0.699l1.747,0.524l1.747,0.35l1.923,0.349l1.747,0.525l1.747,0.349l3.495,1.048l1.748,0.35l3.494,1.048l1.573,0.525l5.242,1.572l1.573,0.525l3.495,1.048l1.573,0.524l1.747,0.524l1.573,0.525l1.747,0.699l3.145,1.048l1.748,0.699l1.572,0.524l1.573,0.699l1.573,0.524l1.747,0.699l1.573,0.699l1.573,0.525l1.572,0.699l1.398,0.699l3.146,1.397l1.572,0.525l1.573,0.699l1.398,0.699l1.572,0.699l1.398,0.873l1.573,0.699l1.398,0.699l1.573,0.699l1.398,0.699l1.398,0.874l1.572,0.699l1.398,0.699l1.398,0.874l1.398,0.698l1.398,0.874l1.398,0.699l251.278,145.036" style="fill:none;fill-rule:nonzero;stroke:#000;stroke-width:4.17px;"/><path d="M1368.28,315.13l18.348,54.868" style="fill:none;fill-rule:nonzero;stroke:#000;stroke-width:4.17px;"/><path d="M1386.62,573.747l2.097,-6.291l0.524,-2.097l0.699,-2.271l1.048,-4.194l0.699,-2.272l0.525,-2.097l0.524,-2.271l0.349,-2.097l1.049,-4.543l0.699,-4.544l0.524,-2.097l0.699,-4.543l0.175,-2.271l0.349,-2.447l0.35,-2.271l0.349,-4.544l0.35,-2.271l0.174,-2.272l0,-2.446l0.35,-4.544l-0,-2.271l0.175,-2.447l-0,-65.004" style="fill:none;fill-rule:nonzero;stroke:#000;stroke-width:4.17px;"/><path d="M1220.44,847.218l-0.699,2.446l-1.398,5.242l-0.524,2.447l-0.35,1.223l-0.349,1.398l-0.699,2.446l-0.35,1.049l-0.699,2.446l-0.524,1.573l-0,0.524l-0.35,1.048l0,0.525l-0.174,0.524l-0,3.669l0.174,0.525l0,0.524l0.175,0.524l0,0.524l0.35,1.049l0.349,0.524l0.175,0.524l0.175,0.35l0.699,1.048l0.174,0.524l0.35,0.35l0.349,0.524l0.525,0.349l1.223,1.224l0.524,0.174l0.349,0.35l0.525,0.349l0.524,0.175l0.524,0.35l1.573,0.524l0.699,0.175l0.524,-0l0.524,0.174l2.272,0l0.524,-0.174l0.524,-0l0.524,-0.175l0.525,-0l2.097,-0.699l0.349,-0.175l0.524,-0.349l0.525,-0.175l0.349,-0.175l0.524,-0.349l0.35,-0.175l0.524,-0.35l0.349,-0.349l0.35,-0.175l0.524,-0.524l3.146,-2.446l1.572,-1.398l1.398,-1.224l1.573,-1.397l2.796,-2.796l1.398,-1.224l4.193,-4.193l2.447,-2.796l1.398,-1.573l1.223,-1.398l1.048,-1.398l1.224,-1.398l1.223,-1.572l1.048,-1.398l1.049,-1.573l1.223,-1.398l0.874,-1.573l1.048,-1.397l1.048,-1.573l0.874,-1.573l1.049,-1.573l0.873,-1.397l0.874,-1.573l0.699,-1.573l0.874,-1.572l0.699,-1.573l0.873,-1.573l90.866,-195.885" style="fill:none;fill-rule:nonzero;stroke:#000;stroke-width:4.17px;"/><path d="M1339.97,560.816l-1.049,-1.747l-0.524,-0.699l-0.524,-0.874l-0.699,-0.874l-0.524,-0.873l-0.699,-0.874l-0.524,-0.874l-0.699,-0.699l-1.398,-1.747l-0.525,-0.874l-0.699,-0.699l-1.397,-1.747l-1.573,-1.573l-0.699,-0.874l-1.573,-1.572l-0.699,-0.874l-0.873,-0.699l-0.699,-0.874l-0.874,-0.873l-0.874,-0.699l-0.699,-0.874l-0.873,-0.699l-0.874,-0.874l-0.874,-0.699l-0.874,-0.873l-0.873,-0.699l-0.874,-0.874l-1.048,-0.699l-0.874,-0.874l-0.874,-0.699l-1.048,-0.699l-0.874,-0.873l-1.048,-0.699l-0.874,-0.699l-1.049,-0.874l-2.097,-1.398l-0.873,-0.699l-1.049,-0.699l-1.048,-0.874l-2.097,-1.398l-1.223,-0.698l-3.146,-2.097l-1.223,-0.699l-1.048,-0.699l-1.223,-0.699l-1.049,-0.699l-2.446,-1.398" style="fill:none;fill-rule:nonzero;stroke:#000;stroke-width:4.17px;"/><path d="M1364.26,638.751l1.573,-3.67l0.524,-1.398l1.048,-2.446l0.525,-1.398l0.349,-1.223l18.348,-54.869" style="fill:none;fill-rule:nonzero;stroke:#000;stroke-width:4.17px;"/><path d="M1386.62,369.998l2.097,6.291l0.524,2.272l0.699,2.097l1.048,4.193l0.699,2.272l0.525,2.097l0.524,2.272l0.349,2.271l0.525,2.097l0.524,2.272l0.699,4.543l0.524,2.272l0.349,2.271l0.35,2.097l0.175,2.447l0.699,4.543l0.349,4.543l0.35,2.272l0.174,2.271l0,2.447l0.35,4.543l-0,2.447l0.175,2.271l-0,4.543" style="fill:none;fill-rule:nonzero;stroke:#000;stroke-width:4.17px;"/><path d="M362.812,202.596l13.28,-49.102l0,-0.175l0.175,-0.175l0,-0.349l0.175,-0.175l-0,-0.175l0.175,0l-0,-0.175l0.174,-0.174l0.175,-0l0,-0.175l0.175,-0.175l0.175,0l0.349,-0.349l0.175,-0l0.175,-0.175l0.349,0l0.175,-0.175l0.175,0" style="fill:none;fill-rule:nonzero;stroke:#000;stroke-width:4.17px;"/><path d="M359.842,202.247l13.28,-49.278" style="fill:none;fill-rule:nonzero;stroke:#000;stroke-width:4.17px;"/><path d="M362.812,158.911l0,-0.175" style="fill:none;fill-rule:nonzero;stroke:#000;stroke-width:4.17px;"/><path d="M373.122,152.969l-0,-0.174l0.175,-0.175l-0,-0.175l0.174,-0.349l0.175,-0.175l0,-0.175l0.699,-0.699l0.175,0l0.524,-0.524l0.175,0l0.175,-0.175l0.174,0l0.175,-0.174l0.349,-0l0.35,-0.175l1.573,-0l0.174,0.175l0.525,-0l0.174,0.174" style="fill:none;fill-rule:nonzero;stroke:#000;stroke-width:4.17px;"/><path d="M334.063,478.082c-0,0.001 -0.001,0.002 -0.001,0.002" style="fill:none;fill-rule:nonzero;stroke:#000;stroke-width:4.17px;"/><path d="M387.975,422.421l-0.175,0.175l0,0.349l-0.175,0.35l0,0.174l-0.174,0.35l-0.175,0.175l-0.175,0.349l0,0.175l-0.175,0.175l-0.174,0.349l-0.175,0.175l-0.349,0.174l-0.175,0l-0.35,0.35l-0.349,-0l-0.175,0.175l-0.349,-0l-0.175,0.174l-1.223,0l-0.175,-0.174l-0.699,-0l-0.35,-0.175l-0.174,-0l-1.398,-0.699l-0.175,-0.175l-0.699,-0.349l-0.524,-0.524l-0.35,-0.175l-0.349,-0.35l-0.35,-0.174l-0.174,-0.35l-0.35,-0.349l-0.349,-0.175l-0.175,-0.35l-0.35,-0.349l-0.174,-0.35l-0.35,-0.349l-0.175,-0.35l-0.349,-0.349l-0.175,-0.349l-0.349,-0.35l-0.35,-0.699l-0.174,-0.524l-0.175,-0.35l-0.35,-0.349l-0.174,-0.35l-0.175,-0.524l-0.175,-0.349l0,-0.35l-0.175,-0.349l-0.174,-0.525l-0.175,-0.349l-0,-0.349" style="fill:none;fill-rule:nonzero;stroke:#000;stroke-width:4.17px;"/><path d="M373.122,414.558l-3.32,-16.077l-1.748,-8.038l-1.572,-8.038l-1.748,-8.213l-1.572,-8.038l-3.32,-16.076l-0.35,-1.398l-0.175,-1.573l-0.349,-1.572l-0.175,-1.398l-0.349,-1.573l-0.175,-1.573l-0.35,-1.398l-0.174,-1.572l-0.35,-1.398l-0.175,-1.573l-0.174,-1.398l-0.175,-1.572l-0.175,-1.398l-0.175,-1.573l-0.349,-2.796l-0.175,-1.573l-0.349,-2.796l-0,-1.572l-0.35,-2.796l0,-1.398l-0.174,-1.398l-0,-2.971l-0.175,-1.397l-0,-74.091l0.175,-1.398l-0,-2.621l0.174,-1.398l0,-1.223l0.175,-1.398l0.175,-1.223l-0,-1.398l0.174,-1.223l0.175,-1.398l0.35,-2.447l0.174,-1.398l0.874,-6.115l0.35,-1.224l0.174,-1.223l0.35,-1.223l0.175,-1.223l0.349,-1.223l0.175,-1.224l0.349,-1.223l0.175,-1.048l0.35,-1.223" style="fill:none;fill-rule:nonzero;stroke:#000;stroke-width:4.17px;"/><path d="M765.349,985.84c-0.001,-0 -0.002,-0 -0.003,0" style="fill:none;fill-rule:nonzero;stroke:#000;stroke-width:4.17px;"/><path d="M1104.59,933.365l-0,0" style="fill:none;fill-rule:nonzero;stroke:#000;stroke-width:4.17px;stroke-linejoin:bevel;"/><path d="M538.733,950.67c-0.001,-0.001 -0.003,-0.002 -0.005,-0.003" style="fill:none;fill-rule:nonzero;stroke:#000;stroke-width:4.17px;"/><path d="M374.869,150.698l-1.572,0.873l-1.398,1.049l-1.573,1.048l-1.398,1.049l-1.573,1.048l-1.572,0.874l-2.971,2.097" style="fill:none;fill-rule:nonzero;stroke:#000;stroke-width:4.17px;"/><path d="M333.98,478.338l-90.866,195.711" style="fill:none;fill-rule:nonzero;stroke:#000;stroke-width:4.17px;"/><path d="M385.878,425.566l-1.048,0.699l-2.447,1.398l-1.048,0.699l-1.223,0.874l-1.049,0.699l-1.223,0.699l-1.049,0.699l-1.048,0.873l-2.097,1.398l-1.223,0.874l-1.049,0.699l-0.873,0.699l-1.049,0.874l-1.048,0.699l-1.049,0.873l-1.048,0.699l-0.874,0.874l-1.048,0.699l-0.874,0.874l-1.048,0.699l-1.748,1.747l-0.873,0.699l-0.874,0.874l-1.049,0.873l-0.873,0.699l-0.699,0.874l-1.748,1.748l-0.873,0.699l-0.699,0.873l-1.748,1.748l-0.699,0.873l-1.572,1.573l-4.893,6.116l-0.524,0.874l-0.699,0.873l-0.525,0.874l-0.699,0.874l-0.524,0.874l-0.699,0.873l-4.718,7.864l-0.349,0.873l-0.525,0.874l-0.349,0.874l-0.524,0.873" style="fill:none;fill-rule:nonzero;stroke:#000;stroke-width:4.17px;"/><path d="M224.417,408.267l90.865,-195.885l0.525,-0.874l0.349,-1.049l1.049,-1.747l0.524,-1.048l0.349,-0.874l0.525,-0.874l0.524,-1.048l1.572,-2.621l0.699,-1.049l1.573,-2.621l0.699,-0.874l0.524,-0.873l0.699,-0.874l0.524,-0.874l0.699,-1.048l0.699,-0.874l0.525,-0.874l2.096,-2.621l0.699,-0.699l3.495,-4.368l0.874,-0.874l0.699,-0.874l1.573,-1.572l0.699,-0.874l4.892,-4.893l0.874,-0.699l1.747,-1.747l0.874,-0.699l0.874,-0.874l1.747,-1.398l0.874,-0.874l0.874,-0.699l0.873,-0.873l1.049,-0.699l0.874,-0.699l0.873,-0.874l1.049,-0.699l0.873,-0.699l1.049,-0.874l0.874,-0.699l2.097,-1.397l0.873,-0.699l2.097,-1.398" style="fill:none;fill-rule:nonzero;stroke:#000;stroke-width:4.17px;"/><path d="M221.105,416.28l1.739,-4.518l1.049,-2.097l0.349,-1.049" style="fill:none;fill-rule:nonzero;stroke:#000;stroke-width:4.17px;"/><path d="M765.417,985.962l339.173,-52.597" style="fill:none;fill-rule:nonzero;stroke:#000;stroke-width:4.17px;"/><path d="M538.952,950.665l1.398,0.873l1.397,0.699l1.398,0.874l1.398,0.699l1.573,0.874l2.796,1.398l1.398,0.873l1.572,0.699l1.398,0.699l1.573,0.699l1.398,0.699l3.145,1.398l1.398,0.699l4.718,2.097l1.573,0.524l4.718,2.097l1.573,0.524l1.572,0.699l1.573,0.524l1.573,0.699l1.747,0.525l1.573,0.524l1.572,0.699l1.748,0.524l1.573,0.524l1.747,0.525l1.573,0.698l3.494,1.049l1.573,0.524l5.242,1.573l1.573,0.349l5.242,1.573l1.748,0.349l1.747,0.525l1.748,0.349l1.747,0.524l1.747,0.35l1.923,0.524l3.494,0.699l1.748,0.524l1.747,0.35l1.922,0.349l3.495,0.699l1.922,0.35l1.748,0.349l1.922,0.35l1.747,0.349l1.923,0.35l1.747,0.174l1.922,0.35l1.748,0.349l1.922,0.175l1.747,0.35l1.922,0.174l1.922,0.35l1.748,0.175l1.922,0.349l1.922,0.175l1.748,0.175l1.922,0.174l1.922,0.35l1.922,0.174l1.747,0.175l5.767,0.524l1.922,0l1.747,0.175l3.845,0.35l1.922,-0l1.922,0.174l1.922,0l1.922,0.175l1.923,0l1.747,0.175l3.844,-0l1.922,0.175l15.203,-0l1.922,-0.175l3.844,-0l1.923,-0.175l1.922,0l1.922,-0.175l1.922,0l1.922,-0.174l1.922,-0l1.748,-0.175l5.766,-0.524l1.922,-0l1.748,-0.175l3.844,-0.35l1.922,-0.349l1.922,-0.175l1.748,-0.174l3.844,-0.35l1.748,-0.349l1.922,-0.175l1.922,-0.35l1.747,-0.174l1.923,-0.35l1.747,-0.175" style="fill:none;fill-rule:nonzero;stroke:#000;stroke-width:4.17px;"/><path d="M287.499,805.629l251.278,145.036" style="fill:none;fill-rule:nonzero;stroke:#000;stroke-width:4.17px;"/><path d="M243.114,674.049l-0.349,0.699l-0.699,1.747l-0.35,0.699l-0.174,0.874l-0.35,0.699l-0.349,0.873l-0.35,0.699l-0.175,0.874l-0.349,0.874l-0.175,0.699l-0.349,0.873l-0.175,0.699l-0.35,0.874l-0.699,3.146l-0.349,1.747l-0.35,1.573" style="fill:none;fill-rule:nonzero;stroke:#000;stroke-width:4.17px;"/><path d="M202.05,677.019l18.348,54.869l0.524,1.223l0.349,1.398l0.525,1.398l0.524,1.223l0.524,1.398l0.699,1.398l0.524,1.223l0.525,1.398l0.699,1.224l0.699,1.398l0.524,1.223l0.699,1.223l0.699,1.398l0.873,1.223l0.699,1.223l0.699,1.398l0.874,1.223l0.699,1.224l1.747,2.446l0.874,1.398l2.621,3.669l1.049,1.224l0.873,1.223l1.049,1.048l0.874,1.223l3.145,3.67l1.048,1.048l1.049,1.224l2.271,2.271l1.049,1.223l1.223,1.049l2.272,2.272l1.223,1.048l1.223,1.223l3.67,3.146l1.398,1.048l1.223,1.048l1.398,1.049l1.223,1.048l6.99,5.243l1.397,0.873l2.796,2.097l1.573,0.874l1.398,1.048l1.573,0.874l1.398,1.049l4.718,2.621l1.398,1.048" style="fill:none;fill-rule:nonzero;stroke:#000;stroke-width:4.17px;"/><path d="M1180.6,912.746l2.795,-1.398l0.699,-0.524l0.699,-0.35l0.699,-0.524l0.699,-0.35l0.525,-0.524l1.397,-1.048l0.525,-0.525l0.699,-0.524l0.524,-0.524l0.524,-0.699l0.699,-0.524l0.524,-0.699l0.525,-0.524l0.524,-0.699l0.349,-0.699l0.524,-0.525l0.35,-0.699l0.524,-0.699l0.699,-1.397l0.35,-0.525l0.699,-1.398l0.174,-0.699l0.35,-0.699l0.175,-0.873l0.174,-0.699l0.35,-1.049l0.175,-1.048l0.349,-0.874l0.175,-1.048l0.699,-2.097l0.524,-2.097l2.272,-8.388l4.543,-16.95" style="fill:none;fill-rule:nonzero;stroke:#000;stroke-width:4.17px;"/><path d="M190.342,605.375l0,4.544l0.175,2.271l-0,2.447l0.349,4.543l0,2.446l0.175,2.272l0.35,2.272l0.349,4.543l0.699,4.543l0.175,2.446l0.349,2.097l0.35,2.272l0.524,2.272l0.699,4.543l0.524,2.272l0.524,2.096l0.35,2.272l0.524,2.272l0.524,2.097l0.699,2.271l1.049,4.194l0.699,2.097l0.524,2.272l2.097,6.29" style="fill:none;fill-rule:nonzero;stroke:#000;stroke-width:4.17px;"/><path d="M221.105,416.28l-19.055,56.991" style="fill:none;fill-rule:nonzero;stroke:#000;stroke-width:4.17px;"/><path d="M202.05,473.271l-2.097,6.29l-0.524,2.097l-0.699,2.272l-1.049,4.194l-0.699,2.271l-0.524,2.097l-0.524,2.272l-0.35,2.097l-1.048,4.543l-0.699,4.543l-0.524,2.097l-0.699,4.544l-0.175,2.271l-0.349,2.447l-0.35,2.271l-0.349,4.543l-0.35,2.272l-0.175,2.272l0,2.446l-0.349,4.543l-0,2.272l-0.175,2.446l0,65.004" style="fill:none;fill-rule:nonzero;stroke:#000;stroke-width:4.17px;"/><path d="M1104.59,933.365l2.446,-0.349l2.622,-0.35l2.446,-0.524l2.621,-0.35l4.893,-1.048l2.621,-0.524l12.232,-2.621l2.446,-0.699l2.447,-0.524l2.446,-0.699l2.272,-0.699l2.446,-0.525l2.446,-0.699l2.272,-0.699l2.446,-0.699l2.272,-0.699l2.272,-0.873l4.543,-1.398l2.272,-0.874l2.271,-0.699l4.543,-1.747l2.097,-0.874l2.272,-0.699l2.097,-0.874l2.272,-0.873" style="fill:none;fill-rule:nonzero;stroke:#000;stroke-width:4.17px;"/><path d="M1339.27,559.768l0.175,0.873l0.174,1.049l0,0.874l0.175,1.048l0,0.874l0.175,1.048l-0,2.971l0.175,1.048l-0,1.922l-0.175,0.874l-0,2.971" style="fill:none;fill-rule:nonzero;stroke:#000;stroke-width:4.17px;"/><path d="M1339.97,560.816l0.175,8.737" style="fill:none;fill-rule:nonzero;stroke:#000;stroke-width:4.17px;"/><path d="M1330.36,623.548l0.35,-1.048l0.524,-0.874l0.349,-1.048l0.524,-0.874l0.35,-0.874l0.349,-1.048l0.35,-0.874l0.349,-1.048l0.35,-0.874l0.699,-2.097l0.349,-0.874l0.175,-1.048l0.35,-0.874l0.349,-1.048l0.175,-0.874l0.349,-1.048l0.175,-1.049l0.175,-0.873l0.349,-1.049l0.175,-0.874l0.175,-1.048l0.174,-0.874l0.35,-2.097l0.175,-0.873l0.174,-1.049l0,-0.874l0.35,-2.096l-0,-0.874l0.175,-1.049l1.223,-17.124" style="fill:none;fill-rule:nonzero;stroke:#000;stroke-width:4.17px;"/><path d="M1321.62,642.246l8.737,-18.698" style="fill:none;fill-rule:nonzero;stroke:#000;stroke-width:4.17px;"/><path d="M542.971,934.064l4.892,2.796l1.398,0.699l1.224,0.699l1.397,0.699l1.224,0.699l1.398,0.524l1.223,0.699l1.398,0.699l1.398,0.524l1.398,0.699l1.398,0.524l1.223,0.699l1.398,0.525l1.398,0.699l1.572,0.524l1.398,0.524l1.398,0.699l2.796,1.048l1.573,0.525l2.796,1.048l1.572,0.524l1.398,0.525l1.573,0.524l1.398,0.524l1.572,0.524l1.398,0.524l1.573,0.35l1.573,0.524l1.398,0.524l1.572,0.35l1.573,0.524l1.573,0.35l1.572,0.524l1.398,0.349l1.573,0.525l4.718,1.048l1.573,0.524l1.572,0.35l1.748,0.349l4.718,1.049l1.747,0.349l1.573,0.35l1.573,0.174l1.572,0.35l1.748,0.349l1.572,0.35l1.748,0.175l1.572,0.349l1.748,0.175l1.572,0.349l1.748,0.175l1.573,0.349l1.747,0.175l1.573,0.35l3.494,0.349l1.573,0.175l1.748,0.175l1.572,0.174l1.748,0.35l1.747,0.175l1.747,-0l1.573,0.174l3.495,0.35l1.573,0.175l1.747,0.174l1.747,0l1.748,0.175l1.573,0.175l1.747,-0l1.747,0.175l3.495,-0l1.573,0.174l3.495,0l1.747,0.175l17.3,0l1.572,-0.175l3.495,0l1.747,-0.174l3.495,-0l1.748,-0.175l1.747,-0l1.573,-0.175l1.747,-0.175l1.748,0l3.494,-0.349l1.573,-0.175l1.748,0l3.494,-0.349l1.573,-0.175l3.495,-0.35l1.573,-0.174l3.494,-0.35l1.573,-0.349l3.495,-0.35l1.573,-0.175l1.747,-0.349l1.573,-0.175l1.747,-0.175l1.573,-0.349l28.308,-4.369" style="fill:none;fill-rule:nonzero;stroke:#000;stroke-width:4.17px;"/><path d="M237.522,691.348l0.874,11.184l0.699,6.989l2.097,10.485l1.048,3.495l0.525,1.572l1.048,3.495l0.699,1.573l0.524,1.747l0.699,1.573l0.699,1.747l0.699,1.573l0.874,1.573l0.699,1.572l0.874,1.748l0.699,1.572l1.747,3.146l1.048,1.572l0.874,1.398l1.049,1.573l0.873,1.573l1.049,1.398l2.097,3.145l1.223,1.398l1.048,1.398l1.223,1.572l1.049,1.398l3.67,4.194l1.397,1.398l1.224,1.398l5.417,5.417l1.398,1.223l1.572,1.223l1.398,1.398l1.398,1.224l7.863,6.116l1.573,1.048l1.748,1.223l1.572,1.223l3.495,2.097l1.747,1.223l5.243,3.146l29.881,17.299l29.706,17.125l59.586,34.424l29.881,17.299l29.881,17.125l29.706,17.299l29.881,17.125" style="fill:none;fill-rule:nonzero;stroke:#000;stroke-width:4.17px;"/><path d="M776.076,958.178l48.578,-7.513" style="fill:none;fill-rule:nonzero;stroke:#000;stroke-width:4.17px;"/><path d="M1198.25,599.609l0.175,-0.175l1.398,-0.699l0.35,0l0.699,-0.349l0.524,-0.175l0.699,-0.35l0.524,-0.174l0.524,-0l0.35,-0.175l1.048,-0.35l0.524,0l0.525,-0.174l0.524,-0l1.048,-0.35l1.049,0l0.524,-0.175l1.048,0l0.699,-0.174l5.592,-0l0.524,0.174l1.224,0l0.524,0.175l1.048,0l1.049,0.35l0.524,-0l0.524,0.174l0.524,0l0.525,0.175l0.349,0.175l0.524,0.175l0.524,-0l0.35,0.174l0.524,0.175l0.699,0.35l0.524,0.174l0.35,0.175l0.349,0l1.049,0.524l0.175,0.175l0.349,0.175" style="fill:none;fill-rule:nonzero;stroke:#000;stroke-width:4.17px;"/><path d="M1228.31,599.609l23.415,13.63l0.35,-0l0.349,0.349l0.35,0.175l0.175,0.175l0.174,-0l0,0.174l0.175,0.175l0.175,0l-0,0.175l0.175,-0l-0,0.175l0.174,-0" style="fill:none;fill-rule:nonzero;stroke:#000;stroke-width:4.17px;"/><path d="M1198.25,599.609l-503.584,290.57" style="fill:none;fill-rule:nonzero;stroke:#000;stroke-width:4.17px;"/><path d="M868.165,944.024l217.378,-33.725" style="fill:none;fill-rule:nonzero;stroke:#000;stroke-width:4.17px;"/><path d="M824.654,950.665l3.495,-0.525" style="fill:none;fill-rule:nonzero;stroke:#000;stroke-width:4.17px;"/><path d="M828.149,950.14l0.524,-0.174l0.699,-0l0.524,-0.175l0.699,-0.175l0.524,-0.175l0.699,-0.174l0.525,-0l0.699,-0.35l0.524,-0.175l0.699,-0.174l0.524,-0.175l0.699,-0.175l0.524,-0.349l0.699,-0.175l0.524,-0.175l1.748,-0.873l0.699,-0.175l0.524,-0.35l0.699,-0.174l0.524,-0.35l0.699,-0.175l0.524,-0.349l0.699,-0.35l0.699,-0.174l0.525,-0.35l0.699,-0.175l0.699,-0.349l0.349,-0l0.175,-0.175l0.349,-0.175l0.699,0l0.35,-0.174l2.97,-0l0.699,0.174l0.524,0l0.525,0.175l6.29,1.049l0.874,-0l1.049,0.174l2.446,0l0.524,-0.174l0.874,-0l3.495,-0.525" style="fill:none;fill-rule:nonzero;stroke:#000;stroke-width:4.17px;"/><path d="M1085.54,910.299l1.573,-0.174l3.495,-0.699l1.572,-0.175l1.573,-0.35l1.747,-0.349l1.573,-0.175l1.748,-0.349l1.572,-0.35l1.748,-0.349l3.145,-0.699l1.747,-0.35l3.146,-0.699l1.572,-0.524l1.748,-0.349l3.145,-0.699l1.573,-0.525l1.573,-0.349l1.572,-0.524l1.573,-0.35l1.573,-0.524l1.572,-0.35l3.146,-1.048l1.572,-0.349l3.146,-1.049l1.398,-0.524l3.145,-1.049l1.398,-0.524l1.572,-0.524l1.398,-0.524l1.573,-0.524l1.398,-0.525l1.573,-0.524l1.398,-0.524l1.398,-0.699l1.572,-0.524l1.398,-0.525l1.398,-0.699l2.796,-1.048l2.796,-1.398l1.398,-0.524l1.398,-0.699l1.398,-0.524l2.795,-1.398l1.224,-0.699l2.796,-1.398l1.223,-0.524l1.398,-0.699l1.223,-0.699l1.398,-0.699l1.223,-0.874l1.398,-0.699l3.669,-2.097l1.398,-0.874l2.447,-1.398l1.223,-0.873l1.223,-0.699l1.049,-0.699l1.223,-0.874l1.223,-0.699l1.223,-0.874l1.049,-0.873l1.223,-0.699l1.048,-0.874l1.223,-0.874l1.049,-0.699l1.048,-0.873l1.224,-0.874l2.096,-1.747l1.049,-0.699l4.194,-3.495l1.922,-1.922l2.097,-1.748l5.591,-5.592l0.874,-1.048l0.874,-0.874l0.874,-1.048l0.873,-0.874l0.874,-1.048l0.874,-0.874l0.699,-1.048l0.873,-1.049l0.699,-0.874l0.874,-1.048l0.699,-1.048l0.874,-1.049l0.699,-0.874l1.398,-2.097l0.873,-1.048l0.525,-1.048l2.795,-4.194l0.525,-1.049l0.699,-1.048l0.524,-1.049l0.699,-1.048l0.524,-1.048l0.524,-1.224l1.573,-3.145l65.703,-141.366" style="fill:none;fill-rule:nonzero;stroke:#000;stroke-width:4.17px;"/><path d="M1309.74,668.107l-4.194,9.087" style="fill:none;fill-rule:nonzero;stroke:#000;stroke-width:4.17px;"/><path d="M1309.74,667.933l11.882,-25.687" style="fill:none;fill-rule:nonzero;stroke:#000;stroke-width:4.17px;"/><path d="M1248.23,619.18l-502.033,289.896" style="fill:none;fill-rule:nonzero;stroke:#000;stroke-width:4.17px;"/><path d="M722.78,909.076l-23.416,-13.455" style="fill:none;fill-rule:nonzero;stroke:#000;stroke-width:4.17px;"/><path d="M699.372,895.615c-2.47,-1.428 -4.169,-3.443 -4.705,-5.436" style="fill:none;fill-rule:nonzero;stroke:#000;stroke-width:4.17px;"/><path d="M746.061,909.092c-6.445,3.707 -16.877,3.707 -23.322,-0" style="fill:none;fill-rule:nonzero;stroke:#000;stroke-width:4.17px;"/><path d="M1252.75,613.913c-0.536,1.993 -2.156,3.836 -4.625,5.264" style="fill:none;fill-rule:nonzero;stroke:#000;stroke-width:4.17px;"/><path d="M1253.82,614.637c8.827,5.474 11.325,11.336 -0.526,18.077l-503.412,287.999c-8.113,5.433 -17.896,5.308 -29.636,-1.337l-23.169,-15.065c-6.605,-4.306 -6.731,-10.569 -2.258,-14.045" style="fill:none;stroke:#080605;stroke-width:4.17px;stroke-miterlimit:1.5;"/><g id="Wheel"><path d="M977.553,429.061l0.699,1.747l2.097,4.718l0.873,1.748l0.699,1.573l0.874,1.572l0.699,1.573l2.621,4.718l0.699,1.573l1.748,3.145l1.048,1.573l0.874,1.572l0.873,1.398l0.874,1.573l1.049,1.573l0.873,1.572l1.049,1.398l0.874,1.573l1.048,1.398l1.048,1.572l1.049,1.398l0.874,1.398l1.048,1.573l4.194,5.592l1.223,1.398l2.097,2.796l1.048,1.223l1.224,1.398l1.048,1.398l1.223,1.223l1.049,1.398l1.223,1.223l1.048,1.223l1.223,1.223l1.224,1.398l1.223,1.223l1.048,1.224l1.223,1.048l2.447,2.446l1.223,1.049l1.223,1.223l1.223,1.049l1.224,1.223l7.339,6.29l1.398,0.874l1.223,1.049l2.446,1.747l1.398,1.048l3.67,2.622l1.398,0.699l2.446,1.747l1.398,0.699l1.223,0.699l1.223,0.874l1.398,0.699l1.224,0.699l1.397,0.698l1.224,0.525l1.223,0.699l1.398,0.699l2.446,1.048l1.398,0.524l2.446,1.049l1.398,0.524l1.224,0.524l1.223,0.35l1.398,0.524l3.669,1.048l1.398,0.35l1.223,0.349l1.224,0.175l1.223,0.35l2.446,0.349l1.398,0.35l1.223,0.174l1.223,0l2.447,0.35l2.272,-0l1.223,0.175l2.446,-0l1.223,-0.175l1.049,-0l1.223,-0.175l1.223,0l1.049,-0.175l1.223,-0.174l1.048,-0.175l1.223,-0.175l1.049,-0.349l1.223,-0.175l1.048,-0.35l1.049,-0.174l2.097,-0.699l1.048,-0.525l2.097,-0.699l2.097,-1.048l1.049,-0.349l0.873,-0.525l1.049,-0.699l67.625,-38.967" style="fill:none;fill-rule:nonzero;stroke:#000;stroke-width:4.17px;"/><path d="M1231.28,512.238l-0,-0.175l-0.175,0l-0,-0.174l-0.35,-0l-0.174,-0.175l-189.245,-109.388l-0.175,-0l-0.175,-0.175l-0.349,-0l-0.175,-0.175l-0.175,0l-0.175,-0.175l-0.174,0l-0.35,-0.174l-0.175,-0l-0.174,-0.175l-0.35,-0l-0.175,-0.175l-0.349,0l-0.35,-0.175l-0.524,0l-0.349,-0.174l-0.175,-0l-0.349,-0.175l-1.049,-0l-0.349,-0.175l-5.417,0l-0.35,0.175l-0.874,-0l-0.349,0.175l-0.35,-0l-0.349,0.174l-0.524,0l-0.35,0.175l-0.174,0l-0.35,0.175l-0.175,-0l-0.349,0.175l-0.175,-0l-0.175,0.174l-0.174,0l-0.35,0.175l-0.175,0l-0.174,0.175l-0.35,-0l-0.175,0.175" style="fill:none;fill-rule:nonzero;stroke:#000;stroke-width:4.17px;"/><path d="M1023.86,402.326l-76.187,44.034" style="fill:none;fill-rule:nonzero;stroke:#000;stroke-width:4.17px;"/><path d="M947.148,446.71l0.175,-0.175l0.174,0l0,-0.175l0.175,0" style="fill:none;fill-rule:nonzero;stroke:#000;stroke-width:4.17px;"/><path d="M1189.57,487.983c-36.091,20.092 -93.911,-13.277 -129.983,-75.017" style="fill:none;fill-rule:nonzero;stroke:#000;stroke-width:4.17px;"/><path d="M947.612,446.471c-6.796,5.273 -8.052,9.648 -1.952,12.831l190.307,107.864c6.288,3.52 12.758,3.564 19.401,0.31l76.428,-44.785c5.285,-3.576 4.524,-7.083 -0.538,-10.541" style="fill:none;stroke:#080605;stroke-width:4.17px;stroke-miterlimit:1.5;"/></g><g id="Wheel1" serif:id="Wheel"><path d="M382.733,772.603l1.398,3.145l0.699,1.748l0.699,1.572l0.873,1.573l0.699,1.573l0.874,1.572l0.699,1.573l0.874,1.573l0.873,1.747l0.699,1.573l0.874,1.573l0.874,1.397l0.873,1.573l1.049,1.573l2.621,4.718l1.048,1.398l0.874,1.572l1.049,1.573l0.873,1.398l1.049,1.573l1.048,1.398l0.874,1.398l1.048,1.572l5.243,6.99l1.223,1.398l3.145,4.194l1.223,1.223l1.049,1.398l1.223,1.398l1.048,1.223l1.224,1.223l1.048,1.398l3.67,3.67l1.048,1.223l2.446,2.446l1.224,1.049l1.223,1.223l1.223,1.048l1.223,1.223l8.563,7.34l1.397,1.048l1.224,0.874l1.223,1.048l2.446,1.748l1.398,0.873l2.447,1.748l1.397,0.873l1.224,0.699l1.223,0.874l1.398,0.699l1.223,0.874l1.223,0.699l1.398,0.699l2.446,1.398l1.398,0.699l1.224,0.524l1.398,0.699l1.223,0.524l1.223,0.699l1.398,0.524l2.446,1.049l1.398,0.349l2.447,1.049l1.397,0.349l3.67,1.049l1.398,0.349l2.446,0.699l1.224,0.175l1.223,0.349l2.446,0.35l1.398,0.174l2.446,0.35l1.224,-0l1.048,0.175l6.116,-0l1.048,-0.175l1.224,-0l1.223,-0.175l1.048,-0.175l1.224,-0.174l1.048,-0.175l1.223,-0.175l1.049,-0.175l1.223,-0.349l1.048,-0.175l5.242,-1.747l1.049,-0.524l1.048,-0.35l2.097,-1.048l0.874,-0.525l1.048,-0.524l68.15,-39.317" style="fill:none;fill-rule:nonzero;stroke:#000;stroke-width:4.17px;"/><path d="M557.999,809.678c-16.471,-2.436 -34.608,-12.926 -51.089,-29.549" style="fill:none;fill-rule:nonzero;stroke:#000;stroke-width:4.17px;"/><path d="M353.376,789.553l76.013,-44.035l0.174,0l0.175,-0.175l0.175,0l0.175,-0.174l0.174,-0l0.175,-0.175l0.175,-0l0.175,-0.175l0.349,0l0.175,-0.175l0.175,0l0.349,-0.174l0.524,-0l0.35,-0.175l0.174,-0l0.35,-0.175l0.524,0l0.35,-0.175l0.699,0l0.349,-0.174l1.573,-0l0.349,-0.175l2.097,-0l0.35,0.175l1.747,-0l0.35,0.174l0.524,0l0.349,0.175l0.699,0l0.175,0.175l0.349,-0l0.35,0.175l0.524,-0l0.175,0.174l0.349,0l0.175,0.175l0.175,0l0.349,0.175l0.175,-0l0.175,0.175l0.175,-0l0.174,0.174l0.175,0l0.175,0.175l189.42,109.388l0.174,0l0.35,0.35l0.175,-0" style="fill:none;fill-rule:nonzero;stroke:#000;stroke-width:4.17px;"/><path d="M595.226,831.083c-36.204,20.748 -94.747,-13.039 -130.932,-75.565" style="fill:none;fill-rule:nonzero;stroke:#080605;stroke-width:4.17px;"/><path d="M353.376,789.553c-6.796,5.273 -8.052,9.648 -1.952,12.831l98.333,55.734c7.387,5.137 14.499,9.162 21.342,12.096l70.633,40.034c6.287,3.52 12.758,3.564 19.401,0.309l76.428,-44.784c5.285,-3.576 4.524,-7.083 -0.539,-10.541" style="fill:none;stroke:#080605;stroke-width:4.17px;stroke-miterlimit:1.5;"/></g><g id="Eraser"><path d="M817.418,388.605c12.175,-7.208 31.932,-7.092 44.181,-0.029c-0,-0 29.457,16.895 29.457,16.895c12.249,7.063 12.249,18.624 -0,25.687c-0,-0 -478.849,276.268 -478.849,276.268c-12.249,7.062 -32.078,7.236 -44.327,0.173c-0,0 -29.257,-17.005 -29.257,-17.005c-12.249,-7.063 -12.174,-18.569 0.075,-25.632c-0,0 478.72,-276.357 478.72,-276.357Z" style="fill:none;fill-rule:nonzero;stroke:#000;stroke-width:4.17px;"/><path d="M892.017,406.026l17.212,9.62c11.748,6.406 7.688,15.488 -8.76,26.667l-479.674,275.499c-18.137,10.319 -36.528,9.473 -60.334,-2.478l-27.959,-16.471c-18.454,-9.222 -11.412,-23.445 4.756,-33.038" style="fill:none;stroke:#080605;stroke-width:4.17px;stroke-miterlimit:1.5;"/></g><g id="Screw-holes" serif:id="Screw holes"><g><path d="M797.919,360.737l0.873,0.175l0.874,0.349l0.874,0.175l2.621,1.049l0.699,0.174l0.699,0.35l0.873,0.349l0.699,0.524l0.525,0.35l0.699,0.349l0.524,0.35l0.699,0.524l1.048,0.699l2.097,2.097l0.175,0.524l0.349,0.35l0.175,0.524l0.35,0.349l0.174,0.35l0.175,0.524l0,0.35l0.175,0.349l-0,0.35l0.175,0.349l-0,0.524" style="fill:none;fill-rule:nonzero;stroke:#000;stroke-width:4.17px;"/><path d="M813.471,372.794c1.402,7.551 -5.713,11.939 -14.463,15.72c-6.506,2.194 -13.127,2.452 -19.138,1.499c-5.973,-0.948 -13.152,-3.651 -16.9,-7.49c-2.616,-2.68 -2.858,-5.259 -2.271,-9.729" style="fill:none;stroke:#080605;stroke-width:4.17px;stroke-miterlimit:1.5;"/><path d="M760.699,372.794l-0,-0.873l0.174,-0.35l0,-0.524l0.175,-0.35l0.175,-0.524l0.349,-0.349l0.175,-0.525l0.35,-0.524l0.524,-0.524l0.175,-0.349l0.349,-0.35l0.175,-0.349l0.349,-0.175l0.175,-0.175l0.175,-0.349l0.349,-0.175l0.524,-0.524l0.35,-0.175" style="fill:none;fill-rule:nonzero;stroke:#000;stroke-width:4.17px;"/><path d="M765.242,365.63l0.524,-0.524l0.699,-0.35l1.398,-1.048l0.699,-0.35l0.699,-0.524l0.699,-0.349l0.874,-0.525l0.524,-0.174l0.524,-0.35l1.049,-0.349l0.524,-0.35l1.572,-0.524l0.699,-0.175l1.049,-0.349l0.699,-0.175l1.048,-0.35l0.699,0l0.524,-0.174l0.699,-0l0.525,-0.175l1.398,-0l0.524,-0.175l3.145,0l0.699,0.175l1.223,-0l0.699,0.175l0.525,-0l0.698,0.174l0.525,0l0.524,0.175l2.097,0.35l0.874,0.174l1.048,0.175l0.524,0.175l0.524,-0l1.049,0.349l0.349,0l0.525,0.175" style="fill:none;fill-rule:nonzero;stroke:#000;stroke-width:4.17px;"/></g><g><path d="M285.751,642.42l0.699,-0.174l0.699,-0.35l0.874,-0.349l0.699,-0.175l0.873,-0.349l1.748,-0.35l0.874,-0.349l1.747,-0.35l1.048,-0.175l0.874,0l0.874,-0.174l1.048,-0.175l0.874,-0l1.048,-0.175l4.718,0l1.049,0.175l1.922,-0l1.747,0.349l1.049,0.175l0.874,0l0.873,0.35l2.621,0.524l0.874,0.349l0.874,0.175l0.699,0.35l0.874,0.174l4.193,2.097l0.525,0.35l0.699,0.349l0.524,0.35l0.524,0.524l1.048,0.699l0.35,0.349l0.349,0.525l0.525,0.349l0.174,0.349l0.35,0.525l0.349,0.349l0.175,0.35l0.35,0.524l0.524,1.048l-0,0.35l0.175,0.524l-0,0.699l0.174,0.35" style="fill:none;fill-rule:nonzero;stroke:#000;stroke-width:4.17px;"/><path d="M328.912,652.556c0,-0 0.952,6.128 -0.709,9.428c-1.993,3.959 -17.464,10.502 -31.086,8.39c-8.053,-1.249 -15.554,-5.716 -18.967,-8.941c-2.653,-2.507 -2.064,-9.812 -2.064,-9.812" style="fill:none;stroke:#080605;stroke-width:4.17px;stroke-miterlimit:1.5;"/><path d="M276.14,651.682l0,-0.874l0.175,-0.524l0,-0.524l0.35,-0.699l0.174,-0.525l0.35,-0.349l0.175,-0.35l0.349,-0.349l0.175,-0.349l0.349,-0.35l0.35,-0.175l0.699,-0.699l0.349,-0.174l0.175,-0.175l0.349,-0.175" style="fill:none;fill-rule:nonzero;stroke:#000;stroke-width:4.17px;"/><path d="M280.159,645.216l0.35,-0.174l0.175,-0.175l0.699,-0.35l0.174,-0.174l2.097,-1.049l0.524,-0.175l1.049,-0.524l0.524,-0.175" style="fill:none;fill-rule:nonzero;stroke:#000;stroke-width:4.17px;"/></g><path d="M843.249,944.249c-11.588,3.085 -26.04,3.804 -29.953,-6.547c-0.677,-1.789 -0.483,-3.542 -0.175,-5.735l0.175,-0.175l-0,-0.698l0.175,-0.35l-0,-0.175l0.349,-0.699l0,-0.174l0.175,-0.35l0.175,-0.175l0.174,-0.349l0.175,-0.175l0.35,-0.699l0.524,-0.524l0.174,-0.35l0.35,-0.174l0.175,-0.35l0.349,-0.349l0.35,-0.175l0.349,-0.349l0.35,-0.175l0.699,-0.699l0.349,-0.175l0.524,-0.349l0.35,-0.175l0.349,-0.35l0.525,-0.174l0.524,-0.35l0.349,-0.175l0.524,-0.174l0.525,-0.35l1.048,-0.349l0.524,-0.35l1.049,-0.349l0.699,-0.175l1.048,-0.349l0.699,-0.175l1.049,-0.35l1.398,-0.349l0.524,-0.175l0.699,0l0.699,-0.175l0.524,-0.174l0.699,-0l0.699,-0.175l0.699,-0l0.524,-0.175l2.097,0l0.699,-0.175l4.019,0l0.699,0.175l2.097,0l0.524,0.175l0.699,-0l0.699,0.175l0.699,-0l0.524,0.174l0.699,0.175l0.699,0l0.524,0.175l0.699,0.175l0.525,0.174l0.698,0.175l0.525,0.175l0.699,0.175l1.048,0.349l0.699,0.175l1.049,0.349l0.524,0.35l1.048,0.349l0.524,0.35l0.525,0.174l0.349,0.175l0.524,0.35l0.35,0.174l0.524,0.35l0.35,0.175l0.524,0.349l0.349,0.175l0.699,0.699l0.35,0.175l0.349,0.349l0.35,0.175l0.174,0.349l0.35,0.35l0.349,0.174l0.35,0.699l0.349,0.175l0.35,0.699l0.175,0.175l0.174,0.349l0.175,0.175l0.175,0.35l-0,0.174l0.349,0.699l0,0.525l0.175,0.174l0,0.699l0.175,0.37c0.269,0.701 0.122,1.705 -0,2.927c-0.266,1.045 -0.682,1.806 -1.217,2.34c-0.162,0.388 -1.117,1.232 -2.453,2.295c-1.949,1.353 -5.192,2.479 -9.631,3.398" style="fill:none;fill-rule:nonzero;stroke:#000;stroke-width:4.17px;"/><g><path d="M1302.4,683.659l-4.368,9.262" style="fill:none;fill-rule:nonzero;stroke:#000;stroke-width:4.17px;"/><path d="M1245.26,682.786l-0,-0.699l0.175,-0.35l-0,-0.349l0.174,-0.524l0.35,-0.699l0.175,-0.525l0.349,-0.349l0.175,-0.35l0.349,-0.524l0.35,-0.349l0.349,-0.524l0.35,-0.35l0.524,-0.349l0.524,-0.525l0.524,-0.349l0.525,-0.524l0.524,-0.35l0.699,-0.349l0.524,-0.35l0.699,-0.524l2.097,-1.048l0.874,-0.35l0.699,-0.175l1.747,-0.699l0.874,-0.174l0.873,-0.35l1.748,-0.349l1.048,-0.175l0.874,-0.175l1.049,-0.175l0.873,-0.174l1.049,-0.175l0.873,-0l1.049,-0.175l6.989,0l2.097,0.35l0.874,-0l1.049,0.174l0.873,0.175l1.049,0.175l0.873,0.175l0.874,0.349l1.748,0.35l1.747,0.699l0.874,0.174l0.699,0.35l0.873,0.349l1.398,0.699l0.524,0.35l0.525,0.174" style="fill:none;fill-rule:nonzero;stroke:#000;stroke-width:4.17px;"/><path d="M1245.26,682.786c-0.006,3.688 1.072,6.541 3.282,8.52c6.618,5.238 12.921,7.988 17.733,8.46c13.719,1.345 21.162,-3.639 25.117,-8.372c2.51,-3.004 6.013,-9.083 6.018,-11.631c0.004,-2.361 -1.824,-3.071 -1.824,-3.071" style="fill:none;stroke:#080605;stroke-width:4.17px;stroke-miterlimit:1.5;"/><path d="M1291.39,674.223l0.524,0.35l0.699,0.349l0.524,0.175l0.524,0.35l0.525,0.174l0.524,0.35l0.524,0.175l0.35,0.174" style="fill:none;fill-rule:nonzero;stroke:#000;stroke-width:4.17px;"/></g></g><g id="Charging-contacts" serif:id="Charging contacts"><g><path d="M445.29,237.894l0,2.621l0.175,0.349l-0,0.525l0.175,0.349l-0,0.35l0.524,1.048l-0,0.35l0.699,1.397l0.349,0.35l0.175,0.349l0.175,0.175l0.175,0.35l1.397,1.398l0.35,0.174l0.175,0.35l1.048,0.524l0.175,0.35l1.398,0.698l0.524,0.175l0.35,0.175l0.349,-0l0.699,0.349l0.524,0.175l0.35,0l0.524,0.175l0.349,-0l0.525,0.175l0.873,-0l0.35,0.174l3.669,0l0.525,-0.174l0.873,-0l0.525,-0.175l0.349,-0" style="fill:none;fill-rule:nonzero;stroke:#000;stroke-width:4.17px;"/><path d="M463.554,250.488c4.206,-0.784 8.446,-1.507 12.715,-2.168" style="fill:none;fill-rule:nonzero;stroke:#000;stroke-width:4.17px;"/><path d="M603.257,228.807l-126.863,19.571" style="fill:none;fill-rule:nonzero;stroke:#000;stroke-width:4.17px;"/><path d="M615.233,198.57c6.188,3.332 8.511,10.082 5.803,16.869c-2.707,6.787 -9.861,12.148 -17.876,13.396" style="fill:none;fill-rule:nonzero;stroke:#000;stroke-width:4.17px;"/><path d="M445.29,238.418l0,-0.524l-0.175,-0.35l0,-1.048l-0.174,-0.524l-0,-2.097l0.174,-0.524l0,-0.525l0.175,-0.349l0,-0.524l0.175,-0.525l-0,-0.524l0.349,-1.048l0.175,-0.35l0.35,-1.048l0.349,-0.524l0.175,-0.35l0.175,-0.524l0.349,-0.35l0.175,-0.524l0.349,-0.524l0.35,-0.35l0.174,-0.349l0.35,-0.524l0.699,-0.699l0.349,-0.524l0.699,-0.699l0.525,-0.35l0.699,-0.699l0.524,-0.349l0.349,-0.35l0.525,-0.349l0.349,-0.175l0.524,-0.35l0.35,-0.349l1.048,-0.35l0.35,-0.349l1.048,-0.35l0.524,-0.349l1.049,-0.349l0.349,-0.175l0.524,-0.175l0.525,0l1.048,-0.349l0.524,-0l0.525,-0.175" style="fill:none;fill-rule:nonzero;stroke:#000;stroke-width:4.17px;"/><path d="M615.233,198.566l-0.793,-0.513l-1.573,-1.049l-0.699,-0.174l-0.524,-0.35l-0.699,-0.175l-0.699,-0.349l-0.524,-0.175l-1.398,-0.349l-0.699,-0l-0.524,-0.175l-0.699,-0l-0.699,-0.175l-2.097,0l-0.699,0.175l-0.699,-0l-0.699,0.175l-139.618,21.493" style="fill:none;fill-rule:nonzero;stroke:#000;stroke-width:4.17px;"/></g><g><path d="M284.425,320.285c0.001,0 0.001,-0 0.001,-0" style="fill:none;fill-rule:nonzero;stroke:#000;stroke-width:4.17px;"/><path d="M247.03,400.842c0.001,-0 0.001,-0.001 0.001,-0.001" style="fill:none;fill-rule:nonzero;stroke:#000;stroke-width:4.17px;"/><path d="M251.851,431.333l0,-0" style="fill:none;fill-rule:nonzero;stroke:#000;stroke-width:4.17px;stroke-linejoin:bevel;"/><path d="M299.381,314.605l-4.543,-0.699l-2.621,0l-0.35,0.175l-0.524,0l-0.699,0.35l-0.524,0.174l-1.398,0.699l-0.35,0.35l-0.349,0.175l-0.35,0.349l-0.349,0.175l-0.175,0.349l-0.349,0.35l-0.35,0.174l-0.524,1.049l-0.35,0.175l-0.699,1.398l-0.349,0.524l-37.395,80.556" style="fill:none;fill-rule:nonzero;stroke:#000;stroke-width:4.17px;"/><path d="M254.647,431.682l-2.796,-0.349l-1.048,-0.35l-0.699,-0.175l-1.049,-0.349l-0.524,-0.349l-0.349,-0.35l-0.525,-0.349l-0.349,-0.35l-0.524,-0.349l-0.35,-0.525l-0.349,-0.349l-0.35,-0.524l-0.174,-0.35l-0.35,-0.524l-0.175,-0.524l-0.174,-0.35l-0.35,-1.048l-0.175,-0.35l-0.174,-0.524l-0,-0.524l-0.175,-0.35l-0,-1.048l-0.175,-0.35l0,-5.766l0.175,-0.699l-0,-1.048l0.175,-0.699l-0,-0.525l0.174,-0.524l0,-0.699l0.175,-0.524l0,-0.524l0.175,-0.699l-0,-0.524l0.175,-0.525l0.174,-0.699l0,-0.524l0.699,-2.097l0,-0.524l0.525,-1.573l0.174,-0.349l0.35,-1.049l0.174,-0.349l0.175,-0.524" style="fill:none;fill-rule:nonzero;stroke:#000;stroke-width:4.17px;"/><path d="M290.011,355.874c1.144,-2.465 2.396,-4.913 3.753,-7.342" style="fill:none;fill-rule:nonzero;stroke:#000;stroke-width:4.17px;"/><path d="M295.537,314.431l-0,-0" style="fill:none;fill-rule:nonzero;stroke:#000;stroke-width:4.17px;"/><path d="M293.964,348.68l0.175,-0.524l0.699,-1.049l0.174,-0.524l0.35,-0.699l0.175,-0.524l0.349,-0.699l0.175,-0.699l0.524,-1.049l0.175,-0.524l0.175,-0.699l0.349,-0.699l0.175,-0.873l0.175,-0.699l0.349,-0.874l0.175,-0.699l0.349,-0.874l0.175,-0.873l0.175,-0.699l0.873,-4.369l0.175,-0.699l0,-0.524l0.175,-0.35l-0,-0.524l0.175,-0.349l-0,-0.874l0.174,-0.874l0,-0.699l0.175,-0.873l0,-2.272l0.175,-0.699l-0,-0.699l-0.175,-0.699l0,-1.922l-0.175,-0.524l0,-0.699l-0.174,-0.525l-0,-0.524l-0.175,-0.174l-0,-0.175l-0.175,-0.35l0,-0.174l-0.524,-1.049" style="fill:none;fill-rule:nonzero;stroke:#000;stroke-width:4.17px;"/><path d="M290.294,356.019l-34.074,73.217" style="fill:none;fill-rule:nonzero;stroke:#000;stroke-width:4.17px;"/><path d="M252.026,431.333l-0,-0" style="fill:none;fill-rule:nonzero;stroke:#000;stroke-width:4.17px;stroke-linejoin:bevel;"/><path d="M256.209,429.228c-0.514,1.116 -1.122,1.853 -1.6,2.421" style="fill:none;fill-rule:nonzero;stroke:#000;stroke-width:4.17px;"/></g></g><g id="Cliff-sensor" serif:id="Cliff sensor"><path d="M1072.96,813.318l22.192,12.756l-25.862,15.028" style="fill:none;fill-rule:nonzero;stroke:#000;stroke-width:4.17px;"/><path d="M1124.86,808.949l-20.095,11.533l-22.192,-12.756" style="fill:none;fill-rule:nonzero;stroke:#000;stroke-width:4.17px;"/><path d="M1089.39,803.183l0,-0" style="fill:none;fill-rule:nonzero;stroke:#000;stroke-width:4.17px;"/><path d="M1072.96,813.318l22.192,12.756l-25.862,15.028" style="fill:none;fill-rule:nonzero;stroke:#000;stroke-width:4.17px;"/><path d="M1124.86,808.949l-20.095,11.533" style="fill:none;fill-rule:nonzero;stroke:#000;stroke-width:4.17px;"/><path d="M1104.77,820.482l-22.192,-12.756" style="fill:none;fill-rule:nonzero;stroke:#000;stroke-width:4.17px;"/><path d="M1091.27,802.581c-0,-0 -0,-0 -0,-0" style="fill:none;fill-rule:nonzero;stroke:#000;stroke-width:4.17px;"/><path d="M1044.48,829.918l0.175,0l-0,-0.175l0.174,0l0,-0.174l0.175,-0l0.524,-0.525l0.175,0l0.35,-0.174" style="fill:none;fill-rule:nonzero;stroke:#000;stroke-width:4.17px;"/><path d="M1046.05,828.87l45.258,-26.212l0.174,-0.174l0.35,-0l0.349,-0.35l0.35,0l0.175,-0.174l0.349,-0.175l0.35,-0l0.174,-0.175l0.35,-0.175l0.349,0l0.35,-0.174l0.349,-0l0.699,-0.35l0.35,0l0.349,-0.175l0.524,0l0.35,-0.174l0.699,-0l0.524,-0.175l0.699,-0l0.524,-0.175l5.941,0l0.35,0.175l0.874,-0l0.349,0.175l0.874,-0l0.349,0.174l0.35,0l0.349,0.175l0.35,0l0.699,0.35l0.349,-0l0.35,0.174l0.349,0l0.699,0.35l0.175,-0l0.699,0.349l0.175,0l0.174,0.175l0.35,0.175l0.175,-0l0.174,0.174l19.143,10.975" style="fill:none;fill-rule:nonzero;stroke:#000;stroke-width:4.17px;"/><path d="M1044.5,829.61c-6.39,4.455 -6.169,8.666 1.551,12.601l17.309,9.993c9.933,4.422 17.239,3.529 23.295,0.109l45.01,-26.411c8.778,-4.018 8.802,-8.101 1.37,-12.241" style="fill:none;stroke:#080605;stroke-width:4.17px;stroke-miterlimit:1.5;"/><path d="M1128.36,813.667l-45.083,26.037" style="fill:none;fill-rule:nonzero;stroke:#000;stroke-width:4.17px;"/><path d="M1083.15,839.683c-3.703,2.175 -9.334,2.735 -14.046,1.399" style="fill:none;fill-rule:nonzero;stroke:#000;stroke-width:4.17px;"/><path d="M1130.27,812.137c-0.559,0.567 -1.253,1.088 -2.063,1.548" style="fill:none;fill-rule:nonzero;stroke:#000;stroke-width:4.17px;"/><path d="M1069.1,841.082c-1.242,-0.352 -2.376,-0.825 -3.352,-1.399" style="fill:none;fill-rule:nonzero;stroke:#000;stroke-width:4.17px;"/><path d="M1048.85,829.918c-0.81,-0.46 -1.374,-0.979 -1.933,-1.546" style="fill:none;fill-rule:nonzero;stroke:#000;stroke-width:4.17px;"/><path d="M1065.8,839.704l-16.95,-9.786" style="fill:none;fill-rule:nonzero;stroke:#000;stroke-width:4.17px;"/></g><g id="Slide-points" serif:id="Slide points"><g><path d="M869.991,385.443c-9.96,-6.755 -9.023,-16.825 2.132,-22.926c11.156,-6.101 28.632,-6.101 39.788,-0c11.155,6.101 12.092,16.171 2.132,22.926" style="fill:none;fill-rule:nonzero;stroke:#000;stroke-width:4.17px;"/><path d="M914.046,385.421c-13.3,9.026 -30.758,9.026 -44.058,0.001" style="fill:none;fill-rule:nonzero;stroke:#000;stroke-width:4.17px;"/></g><g><path d="M1264.21,612.956c-9.96,-6.755 -9.023,-16.825 2.132,-22.926c11.155,-6.1 28.632,-6.1 39.788,0c11.155,6.101 12.092,16.171 2.132,22.926" style="fill:none;fill-rule:nonzero;stroke:#000;stroke-width:4.17px;"/><path d="M1308.26,612.935c-13.299,9.025 -30.758,9.025 -44.057,0" style="fill:none;fill-rule:nonzero;stroke:#000;stroke-width:4.17px;"/></g><g><path d="M277.442,727.587c-9.96,-6.755 -9.023,-16.825 2.133,-22.926c11.155,-6.101 28.632,-6.101 39.787,-0c11.156,6.101 12.092,16.171 2.133,22.926" style="fill:none;fill-rule:nonzero;stroke:#000;stroke-width:4.17px;"/><path d="M321.497,727.565c-13.299,9.026 -30.758,9.026 -44.057,0" style="fill:none;fill-rule:nonzero;stroke:#000;stroke-width:4.17px;"/></g><g><path d="M671.484,955.1c-9.959,-6.755 -9.023,-16.825 2.133,-22.926c11.155,-6.101 28.632,-6.101 39.787,0c11.156,6.101 12.092,16.171 2.133,22.926" style="fill:none;fill-rule:nonzero;stroke:#000;stroke-width:4.17px;"/><path d="M715.539,955.079c-13.299,9.025 -30.758,9.025 -44.057,-0" style="fill:none;fill-rule:nonzero;stroke:#000;stroke-width:4.17px;"/></g></g><path id="Serial-Number-Label" serif:id="Serial Number Label" d="M451.272,580.228c-6.445,3.707 -16.877,3.707 -23.322,0c0,0 -70.277,-40.558 -70.277,-40.558c-6.428,-3.717 -6.428,-9.733 -0,-13.45c-0,-0 204.479,-117.969 204.479,-117.969c6.445,-3.707 16.876,-3.707 23.321,0c0,0 70.381,40.556 70.381,40.556c6.428,3.717 6.325,9.759 -0.103,13.476c-0,-0 -204.479,117.945 -204.479,117.945Z" style="fill:none;fill-rule:nonzero;stroke:#000;stroke-width:4.17px;"/><ellipse id="Marker-hole" serif:id="Marker hole" cx="792.951" cy="648.858" rx="76.611" ry="40.044" style="fill:none;stroke:#080605;stroke-width:4.17px;stroke-miterlimit:1.5;"/><g id="Side-indent" serif:id="Side indent"><path d="M1064.06,298.32l-1.406,-0.879l-1.231,-0.703l-1.406,-0.879l-2.461,-1.758l-1.407,-1.055l-1.23,-0.879l-1.407,-1.055l-2.461,-2.109l-1.406,-1.055l-1.231,-1.231l-1.23,-1.054l-1.407,-1.231l-3.692,-3.692l-1.23,-1.406l-2.461,-2.461l-1.055,-1.407l-2.461,-2.813l-1.055,-1.23l-1.231,-1.406l-1.054,-1.583l-2.11,-2.812l-1.231,-1.407l-1.054,-1.582l-1.055,-1.406l-0.879,-1.583l-1.758,-2.461l-1.407,-2.461l-0.879,-1.23l-3.516,-6.153l-0.527,-1.407l-1.406,-2.461l-0.528,-1.231l-0.703,-1.406l-1.582,-3.692l-0.527,-1.406l-1.583,-3.692l-0.527,-1.406l-0.352,-1.231l-0.527,-1.23l-2.461,-8.615l-0.352,-1.582l-0.351,-1.758l-0.352,-1.582l-0.352,-1.758l-0.175,-1.582l-0.352,-1.758l-0.176,-1.582l-0.176,-1.758l-0.351,-3.165l-0.176,-1.757l-0.176,-1.583l0,-3.164l-0.176,-1.758l0,-3.164l0.176,-1.583l0,-3.34l1.055,-9.493l0.352,-1.582l0.175,-1.582l1.055,-4.747l0.352,-1.406l0.351,-1.231l1.407,-4.219l0.351,-0.879l0.352,-1.055l0.527,-0.879l0.352,-1.054l2.11,-3.516l0.527,-0.704l1.055,-1.758l0.527,-0.703l0.703,-0.703l0.528,-0.703l2.637,-2.637l2.812,-2.11l0.879,-0.527l0.704,-0.352l0.703,-0.527l0.879,-0.352l0.899,-0.442l0.911,-0.434l1.003,-0.354l1.054,-0.352l1.231,-0.351l2.11,-0.704l1.054,-0.175l1.231,-0.352l1.055,-0.176l2.461,-0.351l1.055,-0l1.23,-0.176l2.461,-0l1.231,0.176l1.231,-0l1.23,0.175l1.407,0.176l2.461,0.352l1.406,0.351l2.461,0.704l1.407,0.527l1.23,0.352l1.407,0.527l1.23,0.527l1.231,0.704l1.406,0.527l1.231,0.703l1.406,0.703l252.798,145.913l1.23,0.879l1.231,0.703l1.406,0.879l1.231,0.879l1.23,1.055l1.407,0.879l4.922,4.219l1.055,1.23l3.692,3.692l1.054,1.231l1.231,1.23l1.055,1.407l1.23,1.406l1.055,1.231l4.219,5.625l1.055,1.582l1.055,1.407l1.055,1.582l0.879,1.406l1.054,1.582l0.879,1.583l1.055,1.406l1.758,3.164l0.703,1.231l0.704,1.406l1.406,2.462l0.703,1.406l0.703,1.23l0.528,1.231l0.703,1.406l0.527,1.231l0.528,1.406l0.527,1.231l1.055,2.813l0.527,1.23l0.528,1.407l0.351,1.406l0.528,1.231l1.054,4.219l0.352,1.23l0.703,2.813l0.352,1.231l0.351,2.813l0.176,1.23l0.352,1.407l-0,1.406l0.176,1.231l0.175,1.406l0,1.23l0.176,1.934l0.176,1.758l0,1.758l0.176,1.934l-0,3.516l0.176,1.758l-0,5.098l0.175,1.758l0,17.756l-0.175,1.582l-0,2.988l-0.176,1.407l-0,2.988l-0.176,1.407l0,1.406l-0.352,2.813l0,1.055l-0.175,0.879l-0.176,1.054l-0,0.879l-0.352,0.879l-0.527,2.637l-0.703,1.758l-0.352,0.704l-0.352,0.879l-1.054,2.109l-0.528,0.703l-0.351,0.704l-0.528,0.703l-0.527,0.527l-0.527,0.703l-2.11,2.11l-0.703,0.527l-0.528,0.528l-0.703,0.351l-0.703,0.528l-2.813,1.406l-1.758,0.703l-1.055,0.352l-0.879,0.351l-1.054,0.176l-0.879,0.352l-3.165,0.527l-1.054,0l-1.055,0.176l-3.165,0l-1.23,-0.176l-1.055,0l-1.231,-0.176l-1.054,-0.175l-1.231,-0.352l-1.231,-0.176l-1.23,-0.351l-1.055,-0.352l-2.461,-0.703l-2.461,-1.055l-1.407,-0.527l-2.461,-1.055l-1.406,-0.703l-2.461,-1.407c-0,0 -252.798,-145.912 -252.798,-145.912Z" style="fill:none;fill-rule:nonzero;stroke:#080605;stroke-width:4.17px;stroke-dasharray:8.33,12.5,0,0,0,0;"/><path d="M1051.65,201.185c0,0 254.209,146.734 252.798,145.912c13.621,7.872 24.668,27.007 24.673,42.74c0.118,15.861 -19.712,16.505 -24.751,14.138l-252.798,-145.737c-17.937,-9.246 -24.601,-27.099 -24.575,-42.821c-0.006,-15.732 11.032,-22.104 24.653,-14.232Z" style="fill:none;fill-rule:nonzero;stroke:#080605;stroke-width:4.17px;stroke-dasharray:8.33,12.5,0,0,0,0;"/></g><path d="M932.434,478.813l-125.873,72.673c-7.925,4.575 -8.787,11.507 -1.924,15.469l147.585,85.208c6.863,3.963 18.869,3.465 26.793,-1.11l125.873,-72.673c7.925,-4.575 8.787,-11.507 1.924,-15.469l-147.585,-85.208c-6.863,-3.963 -18.868,-3.465 -26.793,1.11Z" style="fill:none;stroke:#080605;stroke-width:4.17px;stroke-miterlimit:1.5;stroke-dasharray:8.33,12.5,0,0,0,0;stroke-dashoffset:4.17;"/><path d="M609.835,665.066l-125.874,72.673c-7.924,4.575 -8.786,11.507 -1.923,15.469l147.584,85.208c6.863,3.963 18.869,3.465 26.794,-1.11l125.873,-72.673c7.925,-4.576 8.787,-11.507 1.924,-15.47l-147.585,-85.208c-6.863,-3.962 -18.869,-3.464 -26.793,1.111Z" style="fill:none;stroke:#080605;stroke-width:4.17px;stroke-miterlimit:1.5;stroke-dasharray:8.33,12.5,0,0,0,0;stroke-dashoffset:4.17;"/></g><circle cx="518.224" cy="221.542" r="11.811" style="fill:#3666b1;"/><circle cx="1102.09" cy="490.376" r="11.811" style="fill:#3666b1;"/><circle cx="1185.62" cy="307.582" r="11.811" style="fill:#3666b1;"/><circle cx="1094" cy="825.478" r="11.811" style="fill:#3666b1;"/><circle cx="266.079" cy="371.087" r="11.811" style="fill:#3666b1;"/><circle cx="495.389" cy="496.268" r="11.811" style="fill:#3666b1;"/><path d="M495.389,496.268l-211.425,-0l-94.98,-94.98l-119.398,-0" style="fill:none;stroke:#3666b1;stroke-width:4.17px;stroke-miterlimit:1.5;"/><circle cx="601.371" cy="555.505" r="11.811" style="fill:#3666b1;"/><circle cx="619.317" cy="756.635" r="11.811" style="fill:#3666b1;"/><path d="M601.371,555.505l-347.425,0l-47.979,-47.979l-136.381,-0" style="fill:none;stroke:#3666b1;stroke-width:4.17px;stroke-miterlimit:1.5;"/><path d="M266.079,371.087l-32.045,-0l-76.21,-76.21" style="fill:none;stroke:#3666b1;stroke-width:4.17px;stroke-miterlimit:1.5;"/><path d="M518.224,221.542l-142.364,-0l-73.227,73.227l-248.482,-0" style="fill:none;stroke:#3666b1;stroke-width:4.17px;stroke-miterlimit:1.5;"/><path d="M64.151,612.21l365.7,-0l145.404,145.404l42.87,-0" style="fill:none;stroke:#3666b1;stroke-width:4.17px;stroke-miterlimit:1.5;"/><path d="M1095.15,825.787l48.95,0l28.743,-28.742l330.93,-0" style="fill:none;stroke:#3666b1;stroke-width:4.17px;stroke-miterlimit:1.5;"/><circle cx="1002.33" cy="738.623" r="11.811" style="fill:#3666b1;"/><path d="M1002.33,738.563l130.779,-0l50.743,-50.743l330.93,0" style="fill:none;stroke:#3666b1;stroke-width:4.17px;stroke-miterlimit:1.5;"/><g transform="matrix(0.698485,0,0,0.698485,-6982.05,-4988.44)"><g transform="matrix(59.6529,0,0,59.6529,11481.2,7860.97)"><path d="M0.294,-0.723c0.065,-0 0.117,0.02 0.158,0.059c0.04,0.04 0.06,0.094 0.06,0.164c0,0.025 -0.003,0.049 -0.01,0.073c-0.006,0.023 -0.016,0.045 -0.029,0.067c-0.014,0.022 -0.028,0.041 -0.042,0.059c-0.014,0.017 -0.032,0.037 -0.054,0.06l-0.143,0.148l0.274,0l0,0.093l-0.411,-0l0,-0.084l0.209,-0.223c0.035,-0.038 0.06,-0.07 0.075,-0.098c0.015,-0.027 0.023,-0.056 0.023,-0.088c-0,-0.043 -0.011,-0.077 -0.032,-0.1c-0.021,-0.023 -0.05,-0.035 -0.087,-0.035c-0.01,0 -0.02,0.001 -0.03,0.002c-0.01,0.002 -0.02,0.004 -0.029,0.006c-0.009,0.003 -0.019,0.005 -0.028,0.008c-0.008,0.004 -0.017,0.007 -0.025,0.01c-0.007,0.004 -0.015,0.007 -0.022,0.01c-0.006,0.004 -0.013,0.007 -0.018,0.01c-0.005,0.003 -0.01,0.006 -0.014,0.009c-0.004,0.002 -0.007,0.004 -0.009,0.006l-0.003,0.002l-0.037,-0.089c0.003,-0.002 0.006,-0.004 0.011,-0.007c0.005,-0.003 0.014,-0.009 0.03,-0.017c0.015,-0.008 0.03,-0.015 0.047,-0.021c0.016,-0.006 0.036,-0.012 0.061,-0.017c0.025,-0.005 0.05,-0.007 0.075,-0.007Z" style="fill:#3666b1;fill-rule:nonzero;"/></g><g transform="matrix(59.6529,0,0,59.6529,11517.8,7860.97)"><path d="M0.174,-0.063l-0.071,-0.07l0.135,-0.135l-0.135,-0.135l0.071,-0.071l0.135,0.136l0.135,-0.136l0.071,0.07l-0.136,0.136l0.136,0.135l-0.071,0.071l-0.135,-0.135l-0.135,0.135Z" style="fill:#3666b1;fill-rule:nonzero;"/></g><path d="M11488,7833.1l-0.364,0.104l-3.223,1.841l-6.129,-14.792l3.285,-2.816c0.271,-0.232 0.678,-0.544 1.239,-0.912c0.36,-0.235 1.111,-0.669 2.266,-1.278c1.131,-0.596 2.305,-1.119 3.521,-1.569c1.204,-0.446 2.718,-0.868 4.548,-1.241c1.871,-0.381 3.753,-0.572 5.649,-0.572c5.597,0 10.095,1.826 13.583,5.244c3.478,3.408 5.402,8.029 5.402,14.004c-0,1.338 -0.113,2.64 -0.336,3.906l10.777,-10.777l8.061,8.089l8.06,-8.089l12.638,12.638c0,-0 -8.089,8.09 -8.089,8.09l8.097,8.068l-12.63,12.63l-8.076,-8.046l-8.062,8.032l-10.673,-10.6l-0,11.88l-36.456,-0l-0,-13.362l14.052,-15.006l0.003,-0.004c1.685,-1.792 2.92,-3.308 3.63,-4.606c0.405,-0.739 0.607,-1.532 0.607,-2.377c0,-0.83 0.061,-1.53 -0.342,-1.973c-0.177,-0.195 -0.464,-0.13 -0.771,-0.13c-0.308,-0 -0.624,0.025 -0.947,0.071c-0.376,0.053 -0.734,0.123 -1.074,0.213c-0.407,0.107 -0.808,0.229 -1.201,0.364c-0.376,0.13 -0.729,0.266 -1.057,0.41c-0.367,0.161 -0.712,0.321 -1.034,0.482c-0.292,0.146 -0.554,0.284 -0.783,0.417c-0.249,0.143 -0.464,0.271 -0.645,0.384c0.063,-0.04 0.101,-0.086 0.133,-0.112l3.053,-2.544l-6.872,3.926c-0,0 0.056,0.009 0.16,0.013Zm-0,0l2.794,-0.795c-1.345,0.768 -2.406,0.811 -2.794,0.795Zm40.21,24.14l8.069,-8.039l8.068,8.039l4.194,-4.194l-8.097,-8.069l8.097,-8.097l-4.194,-4.194l-8.068,8.097l-8.069,-8.097l-4.223,4.223l8.068,8.068l-8.068,8.069l4.223,4.194Zm-29.418,-39.409c-1.496,-0 -2.981,0.15 -4.457,0.451c-1.476,0.301 -2.699,0.631 -3.67,0.99c-0.971,0.36 -1.908,0.777 -2.811,1.253c-0.903,0.476 -1.495,0.806 -1.776,0.99c-0.282,0.185 -0.491,0.335 -0.627,0.452l2.185,5.272l0.204,-0.117c0.116,-0.097 0.291,-0.218 0.524,-0.364c0.233,-0.146 0.51,-0.311 0.83,-0.495c0.321,-0.185 0.685,-0.379 1.092,-0.583c0.408,-0.204 0.845,-0.407 1.311,-0.611c0.466,-0.204 0.966,-0.398 1.5,-0.583c0.534,-0.184 1.078,-0.349 1.631,-0.495c0.554,-0.146 1.136,-0.262 1.748,-0.35c0.612,-0.087 1.209,-0.131 1.791,-0.131c2.195,0 3.923,0.695 5.185,2.083c1.262,1.388 1.893,3.384 1.893,5.986c0,1.864 -0.446,3.611 -1.34,5.243c-0.893,1.631 -2.398,3.573 -4.514,5.825l-12.438,13.282l0,5.039l24.526,0l-0,-5.534l-16.341,0l8.505,-8.826c1.301,-1.359 2.379,-2.563 3.233,-3.611c0.855,-1.049 1.68,-2.219 2.476,-3.51c0.796,-1.292 1.389,-2.631 1.777,-4.02c0.388,-1.388 0.583,-2.84 0.583,-4.354c-0,-4.136 -1.204,-7.384 -3.612,-9.743c-2.408,-2.36 -5.544,-3.539 -9.408,-3.539Zm10.449,31.638l8.303,-0l-0,1.583l6.075,-6.075l-6.94,-6.939c-0.522,1.572 -1.237,3.1 -2.149,4.579c-0.941,1.527 -1.919,2.908 -2.929,4.148c-0.664,0.814 -1.449,1.715 -2.36,2.704Z" style="fill:#fff;"/></g><g transform="matrix(0.698485,0,0,0.698485,-7378.44,-4722.92)"><g transform="matrix(59.6529,0,0,59.6529,11481.2,7860.97)"><path d="M0.294,-0.723c0.065,-0 0.117,0.02 0.158,0.059c0.04,0.04 0.06,0.094 0.06,0.164c0,0.025 -0.003,0.049 -0.01,0.073c-0.006,0.023 -0.016,0.045 -0.029,0.067c-0.014,0.022 -0.028,0.041 -0.042,0.059c-0.014,0.017 -0.032,0.037 -0.054,0.06l-0.143,0.148l0.274,0l0,0.093l-0.411,-0l0,-0.084l0.209,-0.223c0.035,-0.038 0.06,-0.07 0.075,-0.098c0.015,-0.027 0.023,-0.056 0.023,-0.088c-0,-0.043 -0.011,-0.077 -0.032,-0.1c-0.021,-0.023 -0.05,-0.035 -0.087,-0.035c-0.01,0 -0.02,0.001 -0.03,0.002c-0.01,0.002 -0.02,0.004 -0.029,0.006c-0.009,0.003 -0.019,0.005 -0.028,0.008c-0.008,0.004 -0.017,0.007 -0.025,0.01c-0.007,0.004 -0.015,0.007 -0.022,0.01c-0.006,0.004 -0.013,0.007 -0.018,0.01c-0.005,0.003 -0.01,0.006 -0.014,0.009c-0.004,0.002 -0.007,0.004 -0.009,0.006l-0.003,0.002l-0.037,-0.089c0.003,-0.002 0.006,-0.004 0.011,-0.007c0.005,-0.003 0.014,-0.009 0.03,-0.017c0.015,-0.008 0.03,-0.015 0.047,-0.021c0.016,-0.006 0.036,-0.012 0.061,-0.017c0.025,-0.005 0.05,-0.007 0.075,-0.007Z" style="fill:#3666b1;fill-rule:nonzero;"/></g><g transform="matrix(59.6529,0,0,59.6529,11517.8,7860.97)"><path d="M0.174,-0.063l-0.071,-0.07l0.135,-0.135l-0.135,-0.135l0.071,-0.071l0.135,0.136l0.135,-0.136l0.071,0.07l-0.136,0.136l0.136,0.135l-0.071,0.071l-0.135,-0.135l-0.135,0.135Z" style="fill:#3666b1;fill-rule:nonzero;"/></g><path d="M11488,7833.1l-0.364,0.104l-3.223,1.841l-6.129,-14.792l3.285,-2.816c0.271,-0.232 0.678,-0.544 1.239,-0.912c0.36,-0.235 1.111,-0.669 2.266,-1.278c1.131,-0.596 2.305,-1.119 3.521,-1.569c1.204,-0.446 2.718,-0.868 4.548,-1.241c1.871,-0.381 3.753,-0.572 5.649,-0.572c5.597,0 10.095,1.826 13.583,5.244c3.478,3.408 5.402,8.029 5.402,14.004c-0,1.338 -0.113,2.64 -0.336,3.906l10.777,-10.777l8.061,8.089l8.06,-8.089l12.638,12.638c0,-0 -8.089,8.09 -8.089,8.09l8.097,8.068l-12.63,12.63l-8.076,-8.046l-8.062,8.032l-10.673,-10.6l-0,11.88l-36.456,-0l-0,-13.362l14.052,-15.006l0.003,-0.004c1.685,-1.792 2.92,-3.308 3.63,-4.606c0.405,-0.739 0.607,-1.532 0.607,-2.377c0,-0.83 0.061,-1.53 -0.342,-1.973c-0.177,-0.195 -0.464,-0.13 -0.771,-0.13c-0.308,-0 -0.624,0.025 -0.947,0.071c-0.376,0.053 -0.734,0.123 -1.074,0.213c-0.407,0.107 -0.808,0.229 -1.201,0.364c-0.376,0.13 -0.729,0.266 -1.057,0.41c-0.367,0.161 -0.712,0.321 -1.034,0.482c-0.292,0.146 -0.554,0.284 -0.783,0.417c-0.249,0.143 -0.464,0.271 -0.645,0.384c0.063,-0.04 0.101,-0.086 0.133,-0.112l3.052,-2.544l-6.871,3.926c-0,0 0.056,0.009 0.16,0.013Zm-0,0l2.794,-0.795c-1.345,0.768 -2.406,0.811 -2.794,0.795Zm10.792,-15.269c-1.496,-0 -2.981,0.15 -4.457,0.451c-1.476,0.301 -2.699,0.631 -3.67,0.99c-0.971,0.36 -1.908,0.777 -2.811,1.253c-0.903,0.476 -1.495,0.806 -1.776,0.99c-0.282,0.185 -0.491,0.335 -0.627,0.452l2.185,5.272l0.204,-0.117c0.116,-0.097 0.291,-0.218 0.524,-0.364c0.233,-0.146 0.51,-0.311 0.83,-0.495c0.321,-0.185 0.685,-0.379 1.092,-0.583c0.408,-0.204 0.845,-0.407 1.311,-0.611c0.466,-0.204 0.966,-0.398 1.5,-0.583c0.534,-0.184 1.078,-0.349 1.631,-0.495c0.554,-0.146 1.136,-0.262 1.748,-0.35c0.612,-0.087 1.209,-0.131 1.791,-0.131c2.195,0 3.923,0.695 5.185,2.083c1.262,1.388 1.893,3.384 1.893,5.986c0,1.864 -0.446,3.611 -1.34,5.243c-0.893,1.631 -2.398,3.573 -4.514,5.825l-12.438,13.282l0,5.039l24.526,0l-0,-5.534l-16.341,0l8.505,-8.826c1.301,-1.359 2.379,-2.563 3.233,-3.611c0.855,-1.049 1.68,-2.219 2.476,-3.51c0.796,-1.292 1.389,-2.631 1.777,-4.02c0.388,-1.388 0.583,-2.84 0.583,-4.354c-0,-4.136 -1.204,-7.384 -3.612,-9.743c-2.408,-2.36 -5.544,-3.539 -9.408,-3.539Zm29.418,39.409l8.069,-8.039l8.068,8.039l4.194,-4.194l-8.097,-8.069l8.097,-8.097l-4.194,-4.194l-8.068,8.097l-8.069,-8.097l-4.223,4.223l8.068,8.068l-8.068,8.069l4.223,4.194Zm-18.969,-7.771l8.303,-0l-0,1.583l6.075,-6.075l-6.94,-6.939c-0.522,1.572 -1.237,3.1 -2.149,4.579c-0.941,1.527 -1.919,2.908 -2.929,4.148c-0.664,0.814 -1.449,1.715 -2.36,2.704Z" style="fill:#fff;"/></g><path d="M1102.09,490.376l29.287,0l92.882,92.881l299.476,0" style="fill:none;stroke:#3666b1;stroke-width:4.17px;stroke-miterlimit:1.5;"/><path d="M1185.62,307.582l27.417,-0l168.697,168.697l133.041,-0" style="fill:none;stroke:#3666b1;stroke-width:4.17px;stroke-miterlimit:1.5;"/><g><ellipse cx="64.151" cy="295.691" rx="35.433" ry="35.208" style="fill:#3666b1;"/><path d="M64.151,260.482c19.556,0 35.433,15.776 35.433,35.209c0,19.432 -15.877,35.208 -35.433,35.208c-19.556,0 -35.433,-15.776 -35.433,-35.208c0,-19.433 15.877,-35.209 35.433,-35.209Zm0,25c-5.714,0 -10.433,4.53 -10.433,10.209c0,5.678 4.719,10.208 10.433,10.208c5.715,0 10.433,-4.53 10.433,-10.208c0,-5.679 -4.718,-10.209 -10.433,-10.209Z" style="fill:#3666b1;"/><path d="M63.683,296.292c1.655,-0 2.991,-0.519 4.008,-1.557c1.018,-1.037 1.526,-2.499 1.526,-4.384c0,-1.574 -0.468,-2.91 -1.404,-4.008c-0.935,-1.099 -2.224,-1.648 -3.865,-1.648c-1.641,-0 -2.943,0.536 -3.906,1.607c-0.963,1.072 -1.445,2.475 -1.445,4.212c0,1.722 0.427,3.116 1.282,4.18c0.854,1.065 2.122,1.598 3.804,1.598Zm-0.874,15.055c-2.374,-0 -4.877,-0.658 -7.508,-1.974l1.628,-3.784c1.872,1.153 3.716,1.73 5.534,1.73c2.048,-0 3.709,-0.79 4.984,-2.371c1.275,-1.58 1.913,-3.93 1.913,-7.049l-0,-0.773c-1.235,2.034 -3.296,3.051 -6.185,3.051c-2.835,0 -5.093,-0.881 -6.775,-2.644c-1.682,-1.764 -2.523,-4.069 -2.523,-6.918c0,-1.871 0.397,-3.557 1.19,-5.055c0.794,-1.499 1.953,-2.686 3.479,-3.561c1.526,-0.875 3.293,-1.312 5.3,-1.312c3.296,-0 5.815,1.231 7.558,3.693c1.743,2.461 2.615,6.059 2.615,10.793c-0,5.045 -0.997,9.002 -2.991,11.871c-1.994,2.869 -4.734,4.303 -8.219,4.303Z" style="fill:#fff;fill-rule:nonzero;"/></g><g><ellipse cx="64.151" cy="401.122" rx="35.433" ry="35.208" style="fill:#3666b1;"/><path d="M64.151,365.914c19.556,-0 35.433,15.776 35.433,35.208c0,19.432 -15.877,35.209 -35.433,35.209c-19.556,-0 -35.433,-15.777 -35.433,-35.209c0,-19.432 15.877,-35.208 35.433,-35.208Zm0,25c-5.714,-0 -10.433,4.53 -10.433,10.208c0,5.678 4.719,10.209 10.433,10.209c5.715,-0 10.433,-4.531 10.433,-10.209c0,-5.678 -4.718,-10.208 -10.433,-10.208Z" style="fill:#3666b1;"/><path d="M44.478,416.29l-0,-3.703l5.472,0l0,-21.077c-1.519,0.773 -3.506,1.587 -5.961,2.441l0,-4.232c2.17,-0.746 4.381,-1.763 6.633,-3.051l4.008,-0l-0,25.96l5.33,-0l0,3.662l-15.482,0Z" style="fill:#fff;fill-rule:nonzero;"/><path d="M76.969,416.758c-2.198,0 -4.076,-0.654 -5.636,-1.963c-1.56,-1.309 -2.726,-3.116 -3.499,-5.422c-0.773,-2.306 -1.16,-4.998 -1.16,-8.077c0,-4.802 0.885,-8.532 2.655,-11.19c1.77,-2.658 4.33,-3.988 7.68,-3.988c2.225,0 4.103,0.628 5.636,1.882c1.533,1.255 2.672,3.008 3.418,5.26c0.746,2.251 1.119,4.93 1.119,8.036c-0,3.092 -0.373,5.785 -1.119,8.077c-0.746,2.292 -1.892,4.096 -3.438,5.412c-1.547,1.315 -3.432,1.973 -5.656,1.973Zm0.081,-4.008c3.54,0 5.31,-3.811 5.31,-11.434c0,-1.573 -0.091,-3.001 -0.275,-4.282c-0.183,-1.282 -0.471,-2.459 -0.864,-3.53c-0.394,-1.072 -0.946,-1.903 -1.658,-2.493c-0.712,-0.59 -1.557,-0.885 -2.533,-0.885c-1.004,0 -1.875,0.299 -2.615,0.896c-0.739,0.596 -1.315,1.424 -1.729,2.482c-0.414,1.058 -0.719,2.231 -0.915,3.519c-0.197,1.289 -0.295,2.713 -0.295,4.273c-0,7.636 1.858,11.454 5.574,11.454Z" style="fill:#fff;fill-rule:nonzero;"/></g><g><ellipse cx="64.151" cy="506.554" rx="35.433" ry="35.208" style="fill:#3666b1;"/><path d="M64.151,471.345c19.556,0 35.433,15.776 35.433,35.209c0,19.432 -15.877,35.208 -35.433,35.208c-19.556,0 -35.433,-15.776 -35.433,-35.208c0,-19.433 15.877,-35.209 35.433,-35.209Zm0,25c-5.714,0 -10.433,4.53 -10.433,10.209c0,5.678 4.719,10.208 10.433,10.208c5.715,0 10.433,-4.53 10.433,-10.208c0,-5.679 -4.718,-10.209 -10.433,-10.209Z" style="fill:#3666b1;"/><path d="M44.478,521.722l-0,-3.703l5.472,-0l0,-21.078c-1.519,0.773 -3.506,1.587 -5.961,2.442l0,-4.232c2.17,-0.746 4.381,-1.763 6.633,-3.052l4.008,0l-0,25.96l5.33,0l0,3.663l-15.482,-0Z" style="fill:#fff;fill-rule:nonzero;"/><path d="M70.031,521.722l0,-3.703l5.473,-0l-0,-21.078c-1.519,0.773 -3.506,1.587 -5.961,2.442l-0,-4.232c2.17,-0.746 4.381,-1.763 6.632,-3.052l4.008,0l0,25.96l5.331,0l-0,3.663l-15.483,-0Z" style="fill:#fff;fill-rule:nonzero;"/></g><g><ellipse cx="64.151" cy="611.985" rx="35.433" ry="35.208" style="fill:#3666b1;"/><path d="M64.151,576.777c19.556,-0 35.433,15.776 35.433,35.208c0,19.432 -15.877,35.209 -35.433,35.209c-19.556,-0 -35.433,-15.777 -35.433,-35.209c0,-19.432 15.877,-35.208 35.433,-35.208Zm0,25c-5.714,-0 -10.433,4.53 -10.433,10.208c0,5.678 4.719,10.209 10.433,10.209c5.715,-0 10.433,-4.531 10.433,-10.209c0,-5.678 -4.718,-10.208 -10.433,-10.208Z" style="fill:#3666b1;"/><path d="M44.478,627.153l-0,-3.703l5.472,0l0,-21.077c-1.519,0.773 -3.506,1.587 -5.961,2.441l0,-4.232c2.17,-0.746 4.381,-1.763 6.633,-3.051l4.008,-0l-0,25.96l5.33,-0l0,3.662l-15.482,0Z" style="fill:#fff;fill-rule:nonzero;"/><path d="M76.399,597.022c2.699,0 4.89,0.824 6.571,2.472c1.682,1.648 2.523,3.916 2.523,6.805c0,1.058 -0.135,2.072 -0.407,3.042c-0.271,0.97 -0.685,1.906 -1.241,2.808c-0.556,0.902 -1.132,1.719 -1.729,2.451c-0.597,0.733 -1.35,1.574 -2.258,2.523l-5.941,6.165l11.413,-0l0,3.865l-17.13,0l-0,-3.52l8.687,-9.277c1.479,-1.573 2.53,-2.93 3.154,-4.069c0.624,-1.139 0.936,-2.36 0.936,-3.662c-0,-1.818 -0.441,-3.211 -1.323,-4.181c-0.881,-0.97 -2.089,-1.455 -3.621,-1.455c-0.407,0 -0.824,0.031 -1.251,0.092c-0.428,0.061 -0.835,0.142 -1.221,0.244c-0.387,0.102 -0.766,0.217 -1.139,0.346c-0.373,0.129 -0.723,0.264 -1.048,0.407c-0.326,0.142 -0.631,0.285 -0.916,0.427c-0.285,0.142 -0.539,0.278 -0.763,0.407c-0.223,0.129 -0.417,0.244 -0.58,0.346c-0.162,0.102 -0.284,0.186 -0.366,0.254l-0.142,0.082l-1.526,-3.683c0.095,-0.081 0.241,-0.186 0.437,-0.315c0.197,-0.129 0.611,-0.36 1.241,-0.692c0.631,-0.332 1.286,-0.624 1.964,-0.875c0.678,-0.251 1.532,-0.481 2.563,-0.692c1.031,-0.21 2.069,-0.315 3.113,-0.315Z" style="fill:#fff;fill-rule:nonzero;"/></g><g><ellipse cx="1514.78" cy="476.733" rx="35.433" ry="35.208" style="fill:#3666b1;"/><path d="M1514.78,441.524c19.556,0 35.433,15.777 35.433,35.209c-0,19.432 -15.877,35.208 -35.433,35.208c-19.556,0 -35.433,-15.776 -35.433,-35.208c-0,-19.432 15.877,-35.209 35.433,-35.209Zm-0,25c-5.715,0 -10.433,4.53 -10.433,10.209c-0,5.678 4.718,10.208 10.433,10.208c5.715,0 10.433,-4.53 10.433,-10.208c-0,-5.679 -4.718,-10.209 -10.433,-10.209Z" style="fill:#3666b1;"/><path d="M1495.1,491.901l0,-3.703l5.473,-0l0,-21.078c-1.519,0.773 -3.506,1.587 -5.961,2.442l-0,-4.232c2.17,-0.746 4.381,-1.763 6.632,-3.052l4.008,0l0,25.961l5.331,-0l-0,3.662l-15.483,-0Z" style="fill:#fff;fill-rule:nonzero;"/><path d="M1527.11,492.369c-1.207,-0 -2.363,-0.099 -3.469,-0.295c-1.105,-0.197 -2.048,-0.462 -2.828,-0.794c-0.78,-0.332 -1.322,-0.576 -1.627,-0.732c-0.306,-0.156 -0.601,-0.322 -0.885,-0.499l-0.041,-0.02l1.404,-3.56c2.522,1.261 4.794,1.892 6.815,1.892c1.872,-0 3.333,-0.441 4.385,-1.323c1.051,-0.881 1.576,-2.095 1.576,-3.642c0,-1.681 -0.674,-2.933 -2.024,-3.753c-1.349,-0.821 -3.225,-1.231 -5.625,-1.231l-0.448,-0l-1.343,0.041l-0.04,-3.968l1.383,0c2.591,0 4.456,-0.366 5.595,-1.098c1.139,-0.733 1.709,-2.028 1.709,-3.886c-0,-0.814 -0.268,-1.513 -0.804,-2.096c-0.535,-0.583 -1.2,-1.007 -1.994,-1.271c-0.793,-0.265 -1.651,-0.397 -2.573,-0.397c-0.746,-0 -1.448,0.064 -2.106,0.193c-0.658,0.129 -1.278,0.336 -1.861,0.621c-0.584,0.285 -1.004,0.505 -1.262,0.661c-0.258,0.156 -0.617,0.397 -1.078,0.722c-0.082,0.054 -0.143,0.095 -0.183,0.122l-2.096,-3.275c1.397,-1.085 2.764,-1.865 4.1,-2.34c1.336,-0.475 3.035,-0.712 5.096,-0.712c1.221,-0 2.387,0.163 3.5,0.488c1.112,0.326 2.115,0.797 3.011,1.414c0.895,0.617 1.61,1.424 2.146,2.421c0.536,0.997 0.804,2.12 0.804,3.367c-0,1.696 -0.468,3.188 -1.404,4.476c-0.936,1.289 -2.299,2.103 -4.09,2.442c1.94,0.366 3.456,1.203 4.548,2.512c1.091,1.309 1.637,2.886 1.637,4.731c0,1.776 -0.457,3.343 -1.373,4.699c-0.915,1.357 -2.119,2.377 -3.611,3.062c-1.492,0.685 -3.14,1.028 -4.944,1.028Z" style="fill:#fff;fill-rule:nonzero;"/></g><g><ellipse cx="1514.78" cy="582.164" rx="35.433" ry="35.208" style="fill:#3666b1;"/><path d="M1514.78,546.956c19.556,-0 35.433,15.776 35.433,35.208c-0,19.432 -15.877,35.209 -35.433,35.209c-19.556,-0 -35.433,-15.777 -35.433,-35.209c-0,-19.432 15.877,-35.208 35.433,-35.208Zm-0,25c-5.715,-0 -10.433,4.53 -10.433,10.208c-0,5.679 4.718,10.209 10.433,10.209c5.715,-0 10.433,-4.53 10.433,-10.209c-0,-5.678 -4.718,-10.208 -10.433,-10.208Z" style="fill:#3666b1;"/><path d="M1495.1,597.332l0,-3.703l5.473,0l0,-21.077c-1.519,0.773 -3.506,1.587 -5.961,2.441l-0,-4.231c2.17,-0.746 4.381,-1.764 6.632,-3.052l4.008,-0l0,25.96l5.331,0l-0,3.662l-15.483,0Z" style="fill:#fff;fill-rule:nonzero;"/><path d="M1521.96,586.02l7.873,0l0,-13.021c-0.325,0.557 -2.95,4.897 -7.873,13.021Zm7.833,11.312l-0,-7.792l-12.838,-0l-0,-3.235l12.003,-18.595l5.371,-0l0,18.31l4.578,0l0,3.52l-4.516,-0l-0,7.792l-4.598,0Z" style="fill:#fff;fill-rule:nonzero;"/></g><g><ellipse cx="1514.78" cy="687.596" rx="35.433" ry="35.208" style="fill:#3666b1;"/><path d="M1514.78,652.387c19.556,0 35.433,15.777 35.433,35.209c-0,19.432 -15.877,35.208 -35.433,35.208c-19.556,0 -35.433,-15.776 -35.433,-35.208c-0,-19.432 15.877,-35.209 35.433,-35.209Zm-0,25c-5.715,0 -10.433,4.53 -10.433,10.209c-0,5.678 4.718,10.208 10.433,10.208c5.715,0 10.433,-4.53 10.433,-10.208c-0,-5.679 -4.718,-10.209 -10.433,-10.209Z" style="fill:#3666b1;"/><path d="M1495.1,702.764l0,-3.703l5.473,-0l0,-21.078c-1.519,0.773 -3.506,1.587 -5.961,2.442l-0,-4.232c2.17,-0.746 4.381,-1.763 6.632,-3.052l4.008,0l0,25.961l5.331,-0l-0,3.662l-15.483,-0Z" style="fill:#fff;fill-rule:nonzero;"/><path d="M1527.35,703.232c-1.722,-0 -3.391,-0.319 -5.005,-0.957c-1.614,-0.637 -3.031,-1.593 -4.252,-2.868l2.381,-3.5c0.949,1.113 2.014,1.943 3.194,2.493c1.18,0.549 2.373,0.824 3.58,0.824c1.682,-0 3.059,-0.546 4.13,-1.638c1.072,-1.092 1.608,-2.587 1.608,-4.486c-0,-1.56 -0.404,-2.886 -1.211,-3.978c-0.807,-1.092 -1.902,-1.637 -3.286,-1.637c-0.813,-0 -1.576,0.132 -2.288,0.396c-0.712,0.265 -1.245,0.655 -1.597,1.17l-4.578,-0.488l-0,-15.422l16.256,0l-0,4.008l-12.065,0l-0.244,8.118c1.085,-1.302 2.841,-1.953 5.269,-1.953c2.428,-0 4.459,0.942 6.094,2.828c1.634,1.885 2.451,4.232 2.451,7.039c0,1.56 -0.278,2.981 -0.834,4.262c-0.556,1.282 -1.312,2.34 -2.268,3.174c-0.957,0.834 -2.065,1.479 -3.327,1.933c-1.261,0.454 -2.597,0.682 -4.008,0.682Z" style="fill:#fff;fill-rule:nonzero;"/></g><g><ellipse cx="1514.78" cy="793.027" rx="35.433" ry="35.208" style="fill:#3666b1;"/><path d="M1514.78,757.819c19.556,-0 35.433,15.776 35.433,35.208c-0,19.432 -15.877,35.209 -35.433,35.209c-19.556,-0 -35.433,-15.777 -35.433,-35.209c-0,-19.432 15.877,-35.208 35.433,-35.208Zm-0,25c-5.715,-0 -10.433,4.53 -10.433,10.208c-0,5.678 4.718,10.209 10.433,10.209c5.715,-0 10.433,-4.531 10.433,-10.209c-0,-5.678 -4.718,-10.208 -10.433,-10.208Z" style="fill:#3666b1;"/><path d="M1495.1,808.195l0,-3.703l5.473,0l0,-21.077c-1.519,0.773 -3.506,1.587 -5.961,2.441l-0,-4.232c2.17,-0.745 4.381,-1.763 6.632,-3.051l4.008,-0l0,25.96l5.331,0l-0,3.662l-15.483,0Z" style="fill:#fff;fill-rule:nonzero;"/><path d="M1528.45,804.655c1.573,0 2.835,-0.566 3.784,-1.699c0.949,-1.132 1.424,-2.567 1.424,-4.303c0,-1.776 -0.437,-3.228 -1.312,-4.354c-0.875,-1.125 -2.126,-1.688 -3.754,-1.688c-1.682,-0 -3.035,0.542 -4.059,1.627c-1.024,1.085 -1.536,2.476 -1.536,4.171c0,1.899 0.526,3.415 1.577,4.547c1.051,1.133 2.343,1.699 3.876,1.699Zm0.061,4.008c-2.36,0 -4.354,-0.62 -5.982,-1.862c-1.627,-1.241 -2.824,-2.939 -3.591,-5.096c-0.766,-2.157 -1.149,-4.713 -1.149,-7.67c-0,-2.224 0.254,-4.296 0.763,-6.215c0.509,-1.92 1.241,-3.612 2.197,-5.077c0.956,-1.464 2.194,-2.617 3.713,-3.458c1.519,-0.841 3.228,-1.262 5.127,-1.262c3.025,0 5.453,0.841 7.284,2.523l-1.547,3.479c-1.681,-1.329 -3.58,-1.994 -5.696,-1.994c-1.397,0 -2.618,0.465 -3.662,1.394c-1.045,0.929 -1.831,2.14 -2.36,3.632c-0.529,1.492 -0.835,3.18 -0.916,5.066c1.533,-2.225 3.662,-3.337 6.388,-3.337c2.822,-0 5.094,0.888 6.816,2.665c1.723,1.777 2.584,4.157 2.584,7.141c-0,2.916 -0.909,5.324 -2.726,7.223c-1.818,1.899 -4.232,2.848 -7.243,2.848Z" style="fill:#fff;fill-rule:nonzero;"/></g></svg>